M48
; DRILL file {KiCad 5.1.9-73d0e3b20d~88~ubuntu20.04.1} date Thu Mar 25 20:20:23 2021
; FORMAT={-:-/ absolute / inch / decimal}
; #@! TF.CreationDate,2021-03-25T20:20:23-05:00
; #@! TF.GenerationSoftware,Kicad,Pcbnew,5.1.9-73d0e3b20d~88~ubuntu20.04.1
; #@! TF.FileFunction,Plated,1,4,PTH
FMAT,2
INCH
T1C0.0118
T2C0.0157
T3C0.0197
T4C0.0256
T5C0.0300
T6C0.0394
T7C0.1260
%
G90
G05
T1
X4.3697Y-4.8343
X4.4685Y-4.439
X4.5157Y-4.5157
X4.5472Y-4.439
X4.5472Y-4.7402
X4.5482Y-4.5167
X4.5787Y-4.5157
X4.626Y-4.439
X4.6756Y-4.5969
X4.6969Y-3.9528
X4.7047Y-3.6378
X4.7164Y-4.4329
X4.724Y-4.9689
X4.7244Y-4.9291
X4.7433Y-4.6449
X4.7638Y-3.5512
X4.7638Y-3.8031
X4.7638Y-3.8661
X4.7638Y-4.1181
X4.7681Y-4.9689
X4.8031Y-3.5512
X4.8031Y-3.8346
X4.8031Y-4.1181
X4.8378Y-3.9732
X4.8425Y-3.6535
X4.8425Y-4.4331
X4.8425Y-4.5709
X4.8622Y-3.4882
X4.9213Y-3.689
X4.9213Y-3.7323
X4.9213Y-4.0118
X4.9213Y-4.0551
X4.9636Y-3.3081
X4.9783Y-4.374
X4.9783Y-4.4035
X5.002Y-4.5728
X5.0276Y-4.374
X5.0276Y-4.4035
X5.0315Y-4.5551
X5.0315Y-4.5906
X5.0591Y-4.0906
X5.1063Y-3.6496
X5.1181Y-4.7598
X5.1281Y-3.699
X5.1289Y-3.749
X5.1339Y-4.4528
X5.1339Y-4.4803
X5.1339Y-4.5079
X5.1374Y-3.4878
X5.1417Y-4.689
X5.1614Y-4.4528
X5.1614Y-4.4803
X5.1614Y-4.5079
X5.1764Y-3.6189
X5.2087Y-4.3661
X5.2087Y-4.6024
X5.2392Y-3.3081
X5.248Y-4.3661
X5.248Y-4.6024
X5.252Y-4.4803
X5.2874Y-4.3661
X5.2874Y-4.6024
X5.315Y-4.7126
X5.3346Y-3.7638
X5.3539Y-4.8665
X5.3539Y-5.098
X5.3551Y-4.8276
X5.3868Y-4.1533
X5.3868Y-4.2033
X5.4409Y-3.6614
X5.4488Y-4.252
X5.4843Y-4.5551
X5.4961Y-3.5827
X5.4986Y-4.9041
X5.5266Y-4.4695
X5.5433Y-3.6929
X5.5817Y-4.2533
X5.5984Y-4.9882
X5.622Y-3.378
X5.6256Y-3.5791
X5.6457Y-3.6772
X5.6843Y-4.1543
X5.6843Y-4.1921
X5.685Y-4.9921
X5.685Y-5.0591
X5.6929Y-4.5906
X5.7008Y-3.378
X5.7008Y-3.6929
X5.7126Y-4.6181
X5.7244Y-4.4449
X5.7244Y-4.4843
X5.7362Y-4.9921
X5.7362Y-5.0591
X5.7835Y-4.9921
X5.7835Y-5.0591
X5.8031Y-3.6614
X5.8031Y-4.2874
X5.8031Y-4.3228
X5.8228Y-4.6496
X5.8465Y-3.7638
X5.8701Y-4.5236
X5.8819Y-3.6614
X5.8819Y-4.1496
X5.8819Y-4.2598
X5.8819Y-4.9921
X5.8819Y-5.0591
X5.888Y-3.8565
X5.9173Y-4.2598
X5.9252Y-4.5197
X5.9449Y-3.5827
X5.9488Y-4.7598
X5.9606Y-4.9646
X5.9685Y-4.7992
X5.9843Y-3.6929
X6.0039Y-4.5236
X6.0394Y-4.8189
X6.0433Y-4.1693
X6.0594Y-3.5783
X6.063Y-3.378
X6.0709Y-4.9134
X6.0787Y-3.6772
X6.0984Y-4.2
X6.1063Y-4.7717
X6.1142Y-4.5472
X6.1181Y-4.9134
X6.1299Y-4.5945
X6.1417Y-3.378
X6.1417Y-3.6929
X6.1496Y-4.8189
X6.1614Y-3.8543
X6.1614Y-4.9134
X6.188Y-4.0522
X6.1929Y-4.3819
X6.2041Y-4.1811
X6.2087Y-4.7992
X6.238Y-3.7144
X6.2441Y-3.6614
X6.2441Y-4.9606
X6.2677Y-4.5787
X6.322Y-3.9732
X6.3228Y-3.6614
X6.3228Y-4.0079
X6.3228Y-4.2008
X6.3504Y-4.2323
X6.378Y-3.5827
X6.4055Y-4.6693
X6.4252Y-3.6929
X6.4449Y-4.6969
X6.4921Y-3.9843
X6.4921Y-4.0551
X6.5Y-4.4449
X6.5Y-4.4094
X6.5039Y-3.3701
X6.5118Y-3.5748
X6.5236Y-4.0197
X6.5276Y-3.6693
X6.5315Y-4.748
X6.5315Y-4.8465
X6.563Y-3.9843
X6.563Y-4.0551
X6.5709Y-4.6181
X6.5827Y-3.3701
X6.5827Y-3.6929
X6.685Y-3.6614
X6.7283Y-4.6181
X6.7502Y-4.0612
X6.752Y-3.8661
X6.7638Y-3.6614
X6.7677Y-4.7559
X6.7677Y-4.7913
X6.7677Y-4.8268
X6.8189Y-3.5827
X6.8465Y-4.748
X6.8465Y-4.8465
X6.8661Y-3.6929
X6.874Y-3.7362
X6.8858Y-4.6181
X6.9528Y-3.5748
X6.9685Y-3.6693
X7.0079Y-4.4961
X7.0236Y-3.6929
X7.0433Y-4.6181
X7.0502Y-4.0561
X7.0709Y-3.7441
X7.0827Y-4.2362
X7.1002Y-3.7144
X7.1063Y-4.3701
X7.122Y-4.4961
X7.126Y-3.6614
X7.189Y-4.0157
X7.1906Y-3.9673
X7.2407Y-4.0231
X7.2598Y-4.1929
X7.2598Y-4.2913
X7.2764Y-4.4496
X7.2764Y-4.4874
X7.3272Y-3.976
X7.3445Y-4.9783
X7.3583Y-4.752
X7.3661Y-4.9488
X7.3699Y-4.1415
X7.462Y-4.2415
X7.502Y-4.7579
X7.5805Y-4.0415
X7.6176Y-4.4567
X7.6181Y-4.5354
X7.8957Y-4.8524
X8.189Y-4.5945
X8.22Y-4.1058
T2
X6.9449Y-3.3386
X7.0236Y-3.3386
T3
X4.3855Y-3.3
X4.3855Y-4.96
X4.4132Y-3.2332
X4.4132Y-3.3668
X4.4132Y-4.8932
X4.4132Y-5.0268
X4.48Y-3.2055
X4.48Y-3.3945
X4.48Y-4.8655
X4.48Y-5.0545
X4.5468Y-3.2332
X4.5468Y-3.3668
X4.5468Y-4.8932
X4.5468Y-5.0268
X4.5745Y-3.3
X4.5745Y-4.96
X8.0255Y-3.3
X8.0255Y-4.96
X8.0532Y-3.2332
X8.0532Y-3.3668
X8.0532Y-4.8932
X8.0532Y-5.0268
X8.12Y-3.2055
X8.12Y-3.3945
X8.12Y-4.8655
X8.12Y-5.0545
X8.1868Y-3.2332
X8.1868Y-3.3668
X8.1868Y-4.8932
X8.1868Y-5.0268
X8.2145Y-3.3
X8.2145Y-4.96
T5
X6.6331Y-4.3543
X6.6331Y-4.4543
X6.7331Y-4.3543
X6.7331Y-4.4543
X6.8331Y-4.3543
X6.8331Y-4.4543
X6.9331Y-4.3543
X6.9331Y-4.4543
T6
X6.3189Y-4.8465
X6.3189Y-4.9465
X6.3189Y-5.0465
X8.0157Y-4.2323
X8.0157Y-4.5315
T7
X4.48Y-3.3
X4.48Y-4.96
X8.12Y-3.3
X8.12Y-4.96
T4
G00X5.0236Y-4.9272
M15
G01X5.0236Y-4.935
M16
G05
G00X5.2126Y-4.9272
M15
G01X5.2126Y-4.935
M16
G05
T6
G00X4.9764Y-5.0394
M15
G01X4.9764Y-5.0591
M16
G05
G00X5.2598Y-5.0394
M15
G01X5.2598Y-5.0591
M16
G05
T0
M30
