%TF.GenerationSoftware,KiCad,Pcbnew,5.1.9-73d0e3b20d~88~ubuntu20.04.1*%
%TF.CreationDate,2021-03-25T20:20:19-05:00*%
%TF.ProjectId,DroneController,44726f6e-6543-46f6-9e74-726f6c6c6572,rev?*%
%TF.SameCoordinates,Original*%
%TF.FileFunction,Paste,Top*%
%TF.FilePolarity,Positive*%
%FSLAX46Y46*%
G04 Gerber Fmt 4.6, Leading zero omitted, Abs format (unit mm)*
G04 Created by KiCad (PCBNEW 5.1.9-73d0e3b20d~88~ubuntu20.04.1) date 2021-03-25 20:20:19*
%MOMM*%
%LPD*%
G01*
G04 APERTURE LIST*
%ADD10R,1.500000X0.650000*%
%ADD11R,2.700000X3.600000*%
%ADD12R,0.800000X0.900000*%
%ADD13R,0.740000X2.400000*%
%ADD14R,0.400000X1.350000*%
%ADD15R,1.900000X1.900000*%
%ADD16R,1.500000X0.700000*%
%ADD17R,0.700000X1.500000*%
%ADD18R,2.000000X2.400000*%
%ADD19R,2.000000X1.500000*%
%ADD20R,2.000000X3.800000*%
%ADD21R,0.650000X1.050000*%
%ADD22R,0.900000X0.800000*%
G04 APERTURE END LIST*
%TO.C,U5*%
G36*
G01*
X138545000Y-124200000D02*
X138245000Y-124200000D01*
G75*
G02*
X138095000Y-124050000I0J150000D01*
G01*
X138095000Y-122400000D01*
G75*
G02*
X138245000Y-122250000I150000J0D01*
G01*
X138545000Y-122250000D01*
G75*
G02*
X138695000Y-122400000I0J-150000D01*
G01*
X138695000Y-124050000D01*
G75*
G02*
X138545000Y-124200000I-150000J0D01*
G01*
G37*
G36*
G01*
X139815000Y-124200000D02*
X139515000Y-124200000D01*
G75*
G02*
X139365000Y-124050000I0J150000D01*
G01*
X139365000Y-122400000D01*
G75*
G02*
X139515000Y-122250000I150000J0D01*
G01*
X139815000Y-122250000D01*
G75*
G02*
X139965000Y-122400000I0J-150000D01*
G01*
X139965000Y-124050000D01*
G75*
G02*
X139815000Y-124200000I-150000J0D01*
G01*
G37*
G36*
G01*
X141085000Y-124200000D02*
X140785000Y-124200000D01*
G75*
G02*
X140635000Y-124050000I0J150000D01*
G01*
X140635000Y-122400000D01*
G75*
G02*
X140785000Y-122250000I150000J0D01*
G01*
X141085000Y-122250000D01*
G75*
G02*
X141235000Y-122400000I0J-150000D01*
G01*
X141235000Y-124050000D01*
G75*
G02*
X141085000Y-124200000I-150000J0D01*
G01*
G37*
G36*
G01*
X142355000Y-124200000D02*
X142055000Y-124200000D01*
G75*
G02*
X141905000Y-124050000I0J150000D01*
G01*
X141905000Y-122400000D01*
G75*
G02*
X142055000Y-122250000I150000J0D01*
G01*
X142355000Y-122250000D01*
G75*
G02*
X142505000Y-122400000I0J-150000D01*
G01*
X142505000Y-124050000D01*
G75*
G02*
X142355000Y-124200000I-150000J0D01*
G01*
G37*
G36*
G01*
X142355000Y-129150000D02*
X142055000Y-129150000D01*
G75*
G02*
X141905000Y-129000000I0J150000D01*
G01*
X141905000Y-127350000D01*
G75*
G02*
X142055000Y-127200000I150000J0D01*
G01*
X142355000Y-127200000D01*
G75*
G02*
X142505000Y-127350000I0J-150000D01*
G01*
X142505000Y-129000000D01*
G75*
G02*
X142355000Y-129150000I-150000J0D01*
G01*
G37*
G36*
G01*
X141085000Y-129150000D02*
X140785000Y-129150000D01*
G75*
G02*
X140635000Y-129000000I0J150000D01*
G01*
X140635000Y-127350000D01*
G75*
G02*
X140785000Y-127200000I150000J0D01*
G01*
X141085000Y-127200000D01*
G75*
G02*
X141235000Y-127350000I0J-150000D01*
G01*
X141235000Y-129000000D01*
G75*
G02*
X141085000Y-129150000I-150000J0D01*
G01*
G37*
G36*
G01*
X139815000Y-129150000D02*
X139515000Y-129150000D01*
G75*
G02*
X139365000Y-129000000I0J150000D01*
G01*
X139365000Y-127350000D01*
G75*
G02*
X139515000Y-127200000I150000J0D01*
G01*
X139815000Y-127200000D01*
G75*
G02*
X139965000Y-127350000I0J-150000D01*
G01*
X139965000Y-129000000D01*
G75*
G02*
X139815000Y-129150000I-150000J0D01*
G01*
G37*
G36*
G01*
X138545000Y-129150000D02*
X138245000Y-129150000D01*
G75*
G02*
X138095000Y-129000000I0J150000D01*
G01*
X138095000Y-127350000D01*
G75*
G02*
X138245000Y-127200000I150000J0D01*
G01*
X138545000Y-127200000D01*
G75*
G02*
X138695000Y-127350000I0J-150000D01*
G01*
X138695000Y-129000000D01*
G75*
G02*
X138545000Y-129150000I-150000J0D01*
G01*
G37*
%TD*%
%TO.C,R79*%
G36*
G01*
X122585000Y-125460000D02*
X122215000Y-125460000D01*
G75*
G02*
X122080000Y-125325000I0J135000D01*
G01*
X122080000Y-125055000D01*
G75*
G02*
X122215000Y-124920000I135000J0D01*
G01*
X122585000Y-124920000D01*
G75*
G02*
X122720000Y-125055000I0J-135000D01*
G01*
X122720000Y-125325000D01*
G75*
G02*
X122585000Y-125460000I-135000J0D01*
G01*
G37*
G36*
G01*
X122585000Y-126480000D02*
X122215000Y-126480000D01*
G75*
G02*
X122080000Y-126345000I0J135000D01*
G01*
X122080000Y-126075000D01*
G75*
G02*
X122215000Y-125940000I135000J0D01*
G01*
X122585000Y-125940000D01*
G75*
G02*
X122720000Y-126075000I0J-135000D01*
G01*
X122720000Y-126345000D01*
G75*
G02*
X122585000Y-126480000I-135000J0D01*
G01*
G37*
%TD*%
D10*
%TO.C,U7*%
X123500000Y-123605000D03*
X123500000Y-122335000D03*
X123500000Y-121065000D03*
X123500000Y-119795000D03*
X118100000Y-119795000D03*
X118100000Y-121065000D03*
X118100000Y-122335000D03*
X118100000Y-123605000D03*
D11*
X120800000Y-121700000D03*
%TD*%
D12*
%TO.C,Q5*%
X182200000Y-109600000D03*
X181250000Y-107600000D03*
X183150000Y-107600000D03*
%TD*%
%TO.C,Q3*%
X182250000Y-113000000D03*
X181300000Y-111000000D03*
X183200000Y-111000000D03*
%TD*%
%TO.C,Q2*%
X185600000Y-121900000D03*
X186550000Y-123900000D03*
X184650000Y-123900000D03*
%TD*%
%TO.C,R92*%
G36*
G01*
X147960000Y-104115000D02*
X147960000Y-104485000D01*
G75*
G02*
X147825000Y-104620000I-135000J0D01*
G01*
X147555000Y-104620000D01*
G75*
G02*
X147420000Y-104485000I0J135000D01*
G01*
X147420000Y-104115000D01*
G75*
G02*
X147555000Y-103980000I135000J0D01*
G01*
X147825000Y-103980000D01*
G75*
G02*
X147960000Y-104115000I0J-135000D01*
G01*
G37*
G36*
G01*
X148980000Y-104115000D02*
X148980000Y-104485000D01*
G75*
G02*
X148845000Y-104620000I-135000J0D01*
G01*
X148575000Y-104620000D01*
G75*
G02*
X148440000Y-104485000I0J135000D01*
G01*
X148440000Y-104115000D01*
G75*
G02*
X148575000Y-103980000I135000J0D01*
G01*
X148845000Y-103980000D01*
G75*
G02*
X148980000Y-104115000I0J-135000D01*
G01*
G37*
%TD*%
%TO.C,D3*%
G36*
G01*
X150550000Y-104043750D02*
X150550000Y-104556250D01*
G75*
G02*
X150331250Y-104775000I-218750J0D01*
G01*
X149893750Y-104775000D01*
G75*
G02*
X149675000Y-104556250I0J218750D01*
G01*
X149675000Y-104043750D01*
G75*
G02*
X149893750Y-103825000I218750J0D01*
G01*
X150331250Y-103825000D01*
G75*
G02*
X150550000Y-104043750I0J-218750D01*
G01*
G37*
G36*
G01*
X152125000Y-104043750D02*
X152125000Y-104556250D01*
G75*
G02*
X151906250Y-104775000I-218750J0D01*
G01*
X151468750Y-104775000D01*
G75*
G02*
X151250000Y-104556250I0J218750D01*
G01*
X151250000Y-104043750D01*
G75*
G02*
X151468750Y-103825000I218750J0D01*
G01*
X151906250Y-103825000D01*
G75*
G02*
X152125000Y-104043750I0J-218750D01*
G01*
G37*
%TD*%
%TO.C,R91*%
G36*
G01*
X158999480Y-107538891D02*
X159261109Y-107800520D01*
G75*
G02*
X159261109Y-107991438I-95459J-95459D01*
G01*
X159070190Y-108182357D01*
G75*
G02*
X158879272Y-108182357I-95459J95459D01*
G01*
X158617643Y-107920728D01*
G75*
G02*
X158617643Y-107729810I95459J95459D01*
G01*
X158808562Y-107538891D01*
G75*
G02*
X158999480Y-107538891I95459J-95459D01*
G01*
G37*
G36*
G01*
X159720728Y-106817643D02*
X159982357Y-107079272D01*
G75*
G02*
X159982357Y-107270190I-95459J-95459D01*
G01*
X159791438Y-107461109D01*
G75*
G02*
X159600520Y-107461109I-95459J95459D01*
G01*
X159338891Y-107199480D01*
G75*
G02*
X159338891Y-107008562I95459J95459D01*
G01*
X159529810Y-106817643D01*
G75*
G02*
X159720728Y-106817643I95459J-95459D01*
G01*
G37*
%TD*%
%TO.C,R89*%
G36*
G01*
X160400520Y-108261109D02*
X160138891Y-107999480D01*
G75*
G02*
X160138891Y-107808562I95459J95459D01*
G01*
X160329810Y-107617643D01*
G75*
G02*
X160520728Y-107617643I95459J-95459D01*
G01*
X160782357Y-107879272D01*
G75*
G02*
X160782357Y-108070190I-95459J-95459D01*
G01*
X160591438Y-108261109D01*
G75*
G02*
X160400520Y-108261109I-95459J95459D01*
G01*
G37*
G36*
G01*
X159679272Y-108982357D02*
X159417643Y-108720728D01*
G75*
G02*
X159417643Y-108529810I95459J95459D01*
G01*
X159608562Y-108338891D01*
G75*
G02*
X159799480Y-108338891I95459J-95459D01*
G01*
X160061109Y-108600520D01*
G75*
G02*
X160061109Y-108791438I-95459J-95459D01*
G01*
X159870190Y-108982357D01*
G75*
G02*
X159679272Y-108982357I-95459J95459D01*
G01*
G37*
%TD*%
%TO.C,R87*%
G36*
G01*
X194000000Y-114749999D02*
X194000000Y-115650001D01*
G75*
G02*
X193750001Y-115900000I-249999J0D01*
G01*
X193224999Y-115900000D01*
G75*
G02*
X192975000Y-115650001I0J249999D01*
G01*
X192975000Y-114749999D01*
G75*
G02*
X193224999Y-114500000I249999J0D01*
G01*
X193750001Y-114500000D01*
G75*
G02*
X194000000Y-114749999I0J-249999D01*
G01*
G37*
G36*
G01*
X195825000Y-114749999D02*
X195825000Y-115650001D01*
G75*
G02*
X195575001Y-115900000I-249999J0D01*
G01*
X195049999Y-115900000D01*
G75*
G02*
X194800000Y-115650001I0J249999D01*
G01*
X194800000Y-114749999D01*
G75*
G02*
X195049999Y-114500000I249999J0D01*
G01*
X195575001Y-114500000D01*
G75*
G02*
X195825000Y-114749999I0J-249999D01*
G01*
G37*
%TD*%
%TO.C,R86*%
G36*
G01*
X194000000Y-112749999D02*
X194000000Y-113650001D01*
G75*
G02*
X193750001Y-113900000I-249999J0D01*
G01*
X193224999Y-113900000D01*
G75*
G02*
X192975000Y-113650001I0J249999D01*
G01*
X192975000Y-112749999D01*
G75*
G02*
X193224999Y-112500000I249999J0D01*
G01*
X193750001Y-112500000D01*
G75*
G02*
X194000000Y-112749999I0J-249999D01*
G01*
G37*
G36*
G01*
X195825000Y-112749999D02*
X195825000Y-113650001D01*
G75*
G02*
X195575001Y-113900000I-249999J0D01*
G01*
X195049999Y-113900000D01*
G75*
G02*
X194800000Y-113650001I0J249999D01*
G01*
X194800000Y-112749999D01*
G75*
G02*
X195049999Y-112500000I249999J0D01*
G01*
X195575001Y-112500000D01*
G75*
G02*
X195825000Y-112749999I0J-249999D01*
G01*
G37*
%TD*%
%TO.C,R65*%
G36*
G01*
X162861109Y-117399480D02*
X162599480Y-117661109D01*
G75*
G02*
X162408562Y-117661109I-95459J95459D01*
G01*
X162217643Y-117470190D01*
G75*
G02*
X162217643Y-117279272I95459J95459D01*
G01*
X162479272Y-117017643D01*
G75*
G02*
X162670190Y-117017643I95459J-95459D01*
G01*
X162861109Y-117208562D01*
G75*
G02*
X162861109Y-117399480I-95459J-95459D01*
G01*
G37*
G36*
G01*
X163582357Y-118120728D02*
X163320728Y-118382357D01*
G75*
G02*
X163129810Y-118382357I-95459J95459D01*
G01*
X162938891Y-118191438D01*
G75*
G02*
X162938891Y-118000520I95459J95459D01*
G01*
X163200520Y-117738891D01*
G75*
G02*
X163391438Y-117738891I95459J-95459D01*
G01*
X163582357Y-117929810D01*
G75*
G02*
X163582357Y-118120728I-95459J-95459D01*
G01*
G37*
%TD*%
%TO.C,R11*%
G36*
G01*
X121815000Y-91640000D02*
X122185000Y-91640000D01*
G75*
G02*
X122320000Y-91775000I0J-135000D01*
G01*
X122320000Y-92045000D01*
G75*
G02*
X122185000Y-92180000I-135000J0D01*
G01*
X121815000Y-92180000D01*
G75*
G02*
X121680000Y-92045000I0J135000D01*
G01*
X121680000Y-91775000D01*
G75*
G02*
X121815000Y-91640000I135000J0D01*
G01*
G37*
G36*
G01*
X121815000Y-90620000D02*
X122185000Y-90620000D01*
G75*
G02*
X122320000Y-90755000I0J-135000D01*
G01*
X122320000Y-91025000D01*
G75*
G02*
X122185000Y-91160000I-135000J0D01*
G01*
X121815000Y-91160000D01*
G75*
G02*
X121680000Y-91025000I0J135000D01*
G01*
X121680000Y-90755000D01*
G75*
G02*
X121815000Y-90620000I135000J0D01*
G01*
G37*
%TD*%
%TO.C,C8*%
G36*
G01*
X121170000Y-91200000D02*
X120830000Y-91200000D01*
G75*
G02*
X120690000Y-91060000I0J140000D01*
G01*
X120690000Y-90780000D01*
G75*
G02*
X120830000Y-90640000I140000J0D01*
G01*
X121170000Y-90640000D01*
G75*
G02*
X121310000Y-90780000I0J-140000D01*
G01*
X121310000Y-91060000D01*
G75*
G02*
X121170000Y-91200000I-140000J0D01*
G01*
G37*
G36*
G01*
X121170000Y-92160000D02*
X120830000Y-92160000D01*
G75*
G02*
X120690000Y-92020000I0J140000D01*
G01*
X120690000Y-91740000D01*
G75*
G02*
X120830000Y-91600000I140000J0D01*
G01*
X121170000Y-91600000D01*
G75*
G02*
X121310000Y-91740000I0J-140000D01*
G01*
X121310000Y-92020000D01*
G75*
G02*
X121170000Y-92160000I-140000J0D01*
G01*
G37*
%TD*%
%TO.C,R63*%
G36*
G01*
X131660000Y-118915000D02*
X131660000Y-119285000D01*
G75*
G02*
X131525000Y-119420000I-135000J0D01*
G01*
X131255000Y-119420000D01*
G75*
G02*
X131120000Y-119285000I0J135000D01*
G01*
X131120000Y-118915000D01*
G75*
G02*
X131255000Y-118780000I135000J0D01*
G01*
X131525000Y-118780000D01*
G75*
G02*
X131660000Y-118915000I0J-135000D01*
G01*
G37*
G36*
G01*
X132680000Y-118915000D02*
X132680000Y-119285000D01*
G75*
G02*
X132545000Y-119420000I-135000J0D01*
G01*
X132275000Y-119420000D01*
G75*
G02*
X132140000Y-119285000I0J135000D01*
G01*
X132140000Y-118915000D01*
G75*
G02*
X132275000Y-118780000I135000J0D01*
G01*
X132545000Y-118780000D01*
G75*
G02*
X132680000Y-118915000I0J-135000D01*
G01*
G37*
%TD*%
%TO.C,R60*%
G36*
G01*
X131660000Y-120115000D02*
X131660000Y-120485000D01*
G75*
G02*
X131525000Y-120620000I-135000J0D01*
G01*
X131255000Y-120620000D01*
G75*
G02*
X131120000Y-120485000I0J135000D01*
G01*
X131120000Y-120115000D01*
G75*
G02*
X131255000Y-119980000I135000J0D01*
G01*
X131525000Y-119980000D01*
G75*
G02*
X131660000Y-120115000I0J-135000D01*
G01*
G37*
G36*
G01*
X132680000Y-120115000D02*
X132680000Y-120485000D01*
G75*
G02*
X132545000Y-120620000I-135000J0D01*
G01*
X132275000Y-120620000D01*
G75*
G02*
X132140000Y-120485000I0J135000D01*
G01*
X132140000Y-120115000D01*
G75*
G02*
X132275000Y-119980000I135000J0D01*
G01*
X132545000Y-119980000D01*
G75*
G02*
X132680000Y-120115000I0J-135000D01*
G01*
G37*
%TD*%
%TO.C,D9*%
G36*
G01*
X133710000Y-118927500D02*
X133710000Y-119272500D01*
G75*
G02*
X133562500Y-119420000I-147500J0D01*
G01*
X133267500Y-119420000D01*
G75*
G02*
X133120000Y-119272500I0J147500D01*
G01*
X133120000Y-118927500D01*
G75*
G02*
X133267500Y-118780000I147500J0D01*
G01*
X133562500Y-118780000D01*
G75*
G02*
X133710000Y-118927500I0J-147500D01*
G01*
G37*
G36*
G01*
X134680000Y-118927500D02*
X134680000Y-119272500D01*
G75*
G02*
X134532500Y-119420000I-147500J0D01*
G01*
X134237500Y-119420000D01*
G75*
G02*
X134090000Y-119272500I0J147500D01*
G01*
X134090000Y-118927500D01*
G75*
G02*
X134237500Y-118780000I147500J0D01*
G01*
X134532500Y-118780000D01*
G75*
G02*
X134680000Y-118927500I0J-147500D01*
G01*
G37*
%TD*%
%TO.C,D8*%
G36*
G01*
X133710000Y-120127500D02*
X133710000Y-120472500D01*
G75*
G02*
X133562500Y-120620000I-147500J0D01*
G01*
X133267500Y-120620000D01*
G75*
G02*
X133120000Y-120472500I0J147500D01*
G01*
X133120000Y-120127500D01*
G75*
G02*
X133267500Y-119980000I147500J0D01*
G01*
X133562500Y-119980000D01*
G75*
G02*
X133710000Y-120127500I0J-147500D01*
G01*
G37*
G36*
G01*
X134680000Y-120127500D02*
X134680000Y-120472500D01*
G75*
G02*
X134532500Y-120620000I-147500J0D01*
G01*
X134237500Y-120620000D01*
G75*
G02*
X134090000Y-120472500I0J147500D01*
G01*
X134090000Y-120127500D01*
G75*
G02*
X134237500Y-119980000I147500J0D01*
G01*
X134532500Y-119980000D01*
G75*
G02*
X134680000Y-120127500I0J-147500D01*
G01*
G37*
%TD*%
D13*
%TO.C,J4*%
X149440000Y-123750000D03*
X149440000Y-127650000D03*
X148170000Y-123750000D03*
X148170000Y-127650000D03*
X146900000Y-123750000D03*
X146900000Y-127650000D03*
X145630000Y-123750000D03*
X145630000Y-127650000D03*
X144360000Y-123750000D03*
X144360000Y-127650000D03*
%TD*%
D14*
%TO.C,J2*%
X128700000Y-125350000D03*
X129350000Y-125350000D03*
X131300000Y-125350000D03*
X130650000Y-125350000D03*
X130000000Y-125350000D03*
D15*
X131250000Y-128250000D03*
X128750000Y-128250000D03*
%TD*%
%TO.C,R101*%
G36*
G01*
X188640000Y-128985000D02*
X188640000Y-128615000D01*
G75*
G02*
X188775000Y-128480000I135000J0D01*
G01*
X189045000Y-128480000D01*
G75*
G02*
X189180000Y-128615000I0J-135000D01*
G01*
X189180000Y-128985000D01*
G75*
G02*
X189045000Y-129120000I-135000J0D01*
G01*
X188775000Y-129120000D01*
G75*
G02*
X188640000Y-128985000I0J135000D01*
G01*
G37*
G36*
G01*
X187620000Y-128985000D02*
X187620000Y-128615000D01*
G75*
G02*
X187755000Y-128480000I135000J0D01*
G01*
X188025000Y-128480000D01*
G75*
G02*
X188160000Y-128615000I0J-135000D01*
G01*
X188160000Y-128985000D01*
G75*
G02*
X188025000Y-129120000I-135000J0D01*
G01*
X187755000Y-129120000D01*
G75*
G02*
X187620000Y-128985000I0J135000D01*
G01*
G37*
%TD*%
%TO.C,R100*%
G36*
G01*
X188540000Y-119785000D02*
X188540000Y-119415000D01*
G75*
G02*
X188675000Y-119280000I135000J0D01*
G01*
X188945000Y-119280000D01*
G75*
G02*
X189080000Y-119415000I0J-135000D01*
G01*
X189080000Y-119785000D01*
G75*
G02*
X188945000Y-119920000I-135000J0D01*
G01*
X188675000Y-119920000D01*
G75*
G02*
X188540000Y-119785000I0J135000D01*
G01*
G37*
G36*
G01*
X187520000Y-119785000D02*
X187520000Y-119415000D01*
G75*
G02*
X187655000Y-119280000I135000J0D01*
G01*
X187925000Y-119280000D01*
G75*
G02*
X188060000Y-119415000I0J-135000D01*
G01*
X188060000Y-119785000D01*
G75*
G02*
X187925000Y-119920000I-135000J0D01*
G01*
X187655000Y-119920000D01*
G75*
G02*
X187520000Y-119785000I0J135000D01*
G01*
G37*
%TD*%
%TO.C,D7*%
G36*
G01*
X188043750Y-126837500D02*
X188556250Y-126837500D01*
G75*
G02*
X188775000Y-127056250I0J-218750D01*
G01*
X188775000Y-127493750D01*
G75*
G02*
X188556250Y-127712500I-218750J0D01*
G01*
X188043750Y-127712500D01*
G75*
G02*
X187825000Y-127493750I0J218750D01*
G01*
X187825000Y-127056250D01*
G75*
G02*
X188043750Y-126837500I218750J0D01*
G01*
G37*
G36*
G01*
X188043750Y-125262500D02*
X188556250Y-125262500D01*
G75*
G02*
X188775000Y-125481250I0J-218750D01*
G01*
X188775000Y-125918750D01*
G75*
G02*
X188556250Y-126137500I-218750J0D01*
G01*
X188043750Y-126137500D01*
G75*
G02*
X187825000Y-125918750I0J218750D01*
G01*
X187825000Y-125481250D01*
G75*
G02*
X188043750Y-125262500I218750J0D01*
G01*
G37*
%TD*%
%TO.C,C59*%
G36*
G01*
X187825000Y-123450000D02*
X188775000Y-123450000D01*
G75*
G02*
X189025000Y-123700000I0J-250000D01*
G01*
X189025000Y-124200000D01*
G75*
G02*
X188775000Y-124450000I-250000J0D01*
G01*
X187825000Y-124450000D01*
G75*
G02*
X187575000Y-124200000I0J250000D01*
G01*
X187575000Y-123700000D01*
G75*
G02*
X187825000Y-123450000I250000J0D01*
G01*
G37*
G36*
G01*
X187825000Y-121550000D02*
X188775000Y-121550000D01*
G75*
G02*
X189025000Y-121800000I0J-250000D01*
G01*
X189025000Y-122300000D01*
G75*
G02*
X188775000Y-122550000I-250000J0D01*
G01*
X187825000Y-122550000D01*
G75*
G02*
X187575000Y-122300000I0J250000D01*
G01*
X187575000Y-121800000D01*
G75*
G02*
X187825000Y-121550000I250000J0D01*
G01*
G37*
%TD*%
%TO.C,C58*%
G36*
G01*
X188500000Y-120870000D02*
X188500000Y-120530000D01*
G75*
G02*
X188640000Y-120390000I140000J0D01*
G01*
X188920000Y-120390000D01*
G75*
G02*
X189060000Y-120530000I0J-140000D01*
G01*
X189060000Y-120870000D01*
G75*
G02*
X188920000Y-121010000I-140000J0D01*
G01*
X188640000Y-121010000D01*
G75*
G02*
X188500000Y-120870000I0J140000D01*
G01*
G37*
G36*
G01*
X187540000Y-120870000D02*
X187540000Y-120530000D01*
G75*
G02*
X187680000Y-120390000I140000J0D01*
G01*
X187960000Y-120390000D01*
G75*
G02*
X188100000Y-120530000I0J-140000D01*
G01*
X188100000Y-120870000D01*
G75*
G02*
X187960000Y-121010000I-140000J0D01*
G01*
X187680000Y-121010000D01*
G75*
G02*
X187540000Y-120870000I0J140000D01*
G01*
G37*
%TD*%
%TO.C,R99*%
G36*
G01*
X139015000Y-103840000D02*
X139385000Y-103840000D01*
G75*
G02*
X139520000Y-103975000I0J-135000D01*
G01*
X139520000Y-104245000D01*
G75*
G02*
X139385000Y-104380000I-135000J0D01*
G01*
X139015000Y-104380000D01*
G75*
G02*
X138880000Y-104245000I0J135000D01*
G01*
X138880000Y-103975000D01*
G75*
G02*
X139015000Y-103840000I135000J0D01*
G01*
G37*
G36*
G01*
X139015000Y-102820000D02*
X139385000Y-102820000D01*
G75*
G02*
X139520000Y-102955000I0J-135000D01*
G01*
X139520000Y-103225000D01*
G75*
G02*
X139385000Y-103360000I-135000J0D01*
G01*
X139015000Y-103360000D01*
G75*
G02*
X138880000Y-103225000I0J135000D01*
G01*
X138880000Y-102955000D01*
G75*
G02*
X139015000Y-102820000I135000J0D01*
G01*
G37*
%TD*%
%TO.C,R96*%
G36*
G01*
X154015000Y-123840000D02*
X154385000Y-123840000D01*
G75*
G02*
X154520000Y-123975000I0J-135000D01*
G01*
X154520000Y-124245000D01*
G75*
G02*
X154385000Y-124380000I-135000J0D01*
G01*
X154015000Y-124380000D01*
G75*
G02*
X153880000Y-124245000I0J135000D01*
G01*
X153880000Y-123975000D01*
G75*
G02*
X154015000Y-123840000I135000J0D01*
G01*
G37*
G36*
G01*
X154015000Y-122820000D02*
X154385000Y-122820000D01*
G75*
G02*
X154520000Y-122955000I0J-135000D01*
G01*
X154520000Y-123225000D01*
G75*
G02*
X154385000Y-123360000I-135000J0D01*
G01*
X154015000Y-123360000D01*
G75*
G02*
X153880000Y-123225000I0J135000D01*
G01*
X153880000Y-122955000D01*
G75*
G02*
X154015000Y-122820000I135000J0D01*
G01*
G37*
%TD*%
%TO.C,C57*%
G36*
G01*
X161878787Y-118538371D02*
X161638371Y-118778787D01*
G75*
G02*
X161440381Y-118778787I-98995J98995D01*
G01*
X161242391Y-118580797D01*
G75*
G02*
X161242391Y-118382807I98995J98995D01*
G01*
X161482807Y-118142391D01*
G75*
G02*
X161680797Y-118142391I98995J-98995D01*
G01*
X161878787Y-118340381D01*
G75*
G02*
X161878787Y-118538371I-98995J-98995D01*
G01*
G37*
G36*
G01*
X162557609Y-119217193D02*
X162317193Y-119457609D01*
G75*
G02*
X162119203Y-119457609I-98995J98995D01*
G01*
X161921213Y-119259619D01*
G75*
G02*
X161921213Y-119061629I98995J98995D01*
G01*
X162161629Y-118821213D01*
G75*
G02*
X162359619Y-118821213I98995J-98995D01*
G01*
X162557609Y-119019203D01*
G75*
G02*
X162557609Y-119217193I-98995J-98995D01*
G01*
G37*
%TD*%
%TO.C,C56*%
G36*
G01*
X164030000Y-112700000D02*
X164370000Y-112700000D01*
G75*
G02*
X164510000Y-112840000I0J-140000D01*
G01*
X164510000Y-113120000D01*
G75*
G02*
X164370000Y-113260000I-140000J0D01*
G01*
X164030000Y-113260000D01*
G75*
G02*
X163890000Y-113120000I0J140000D01*
G01*
X163890000Y-112840000D01*
G75*
G02*
X164030000Y-112700000I140000J0D01*
G01*
G37*
G36*
G01*
X164030000Y-111740000D02*
X164370000Y-111740000D01*
G75*
G02*
X164510000Y-111880000I0J-140000D01*
G01*
X164510000Y-112160000D01*
G75*
G02*
X164370000Y-112300000I-140000J0D01*
G01*
X164030000Y-112300000D01*
G75*
G02*
X163890000Y-112160000I0J140000D01*
G01*
X163890000Y-111880000D01*
G75*
G02*
X164030000Y-111740000I140000J0D01*
G01*
G37*
%TD*%
%TO.C,C55*%
G36*
G01*
X154600000Y-105730000D02*
X154600000Y-106070000D01*
G75*
G02*
X154460000Y-106210000I-140000J0D01*
G01*
X154180000Y-106210000D01*
G75*
G02*
X154040000Y-106070000I0J140000D01*
G01*
X154040000Y-105730000D01*
G75*
G02*
X154180000Y-105590000I140000J0D01*
G01*
X154460000Y-105590000D01*
G75*
G02*
X154600000Y-105730000I0J-140000D01*
G01*
G37*
G36*
G01*
X155560000Y-105730000D02*
X155560000Y-106070000D01*
G75*
G02*
X155420000Y-106210000I-140000J0D01*
G01*
X155140000Y-106210000D01*
G75*
G02*
X155000000Y-106070000I0J140000D01*
G01*
X155000000Y-105730000D01*
G75*
G02*
X155140000Y-105590000I140000J0D01*
G01*
X155420000Y-105590000D01*
G75*
G02*
X155560000Y-105730000I0J-140000D01*
G01*
G37*
%TD*%
%TO.C,C33*%
G36*
G01*
X146370000Y-113200000D02*
X146030000Y-113200000D01*
G75*
G02*
X145890000Y-113060000I0J140000D01*
G01*
X145890000Y-112780000D01*
G75*
G02*
X146030000Y-112640000I140000J0D01*
G01*
X146370000Y-112640000D01*
G75*
G02*
X146510000Y-112780000I0J-140000D01*
G01*
X146510000Y-113060000D01*
G75*
G02*
X146370000Y-113200000I-140000J0D01*
G01*
G37*
G36*
G01*
X146370000Y-114160000D02*
X146030000Y-114160000D01*
G75*
G02*
X145890000Y-114020000I0J140000D01*
G01*
X145890000Y-113740000D01*
G75*
G02*
X146030000Y-113600000I140000J0D01*
G01*
X146370000Y-113600000D01*
G75*
G02*
X146510000Y-113740000I0J-140000D01*
G01*
X146510000Y-114020000D01*
G75*
G02*
X146370000Y-114160000I-140000J0D01*
G01*
G37*
%TD*%
%TO.C,C31*%
G36*
G01*
X156330000Y-123800000D02*
X156670000Y-123800000D01*
G75*
G02*
X156810000Y-123940000I0J-140000D01*
G01*
X156810000Y-124220000D01*
G75*
G02*
X156670000Y-124360000I-140000J0D01*
G01*
X156330000Y-124360000D01*
G75*
G02*
X156190000Y-124220000I0J140000D01*
G01*
X156190000Y-123940000D01*
G75*
G02*
X156330000Y-123800000I140000J0D01*
G01*
G37*
G36*
G01*
X156330000Y-122840000D02*
X156670000Y-122840000D01*
G75*
G02*
X156810000Y-122980000I0J-140000D01*
G01*
X156810000Y-123260000D01*
G75*
G02*
X156670000Y-123400000I-140000J0D01*
G01*
X156330000Y-123400000D01*
G75*
G02*
X156190000Y-123260000I0J140000D01*
G01*
X156190000Y-122980000D01*
G75*
G02*
X156330000Y-122840000I140000J0D01*
G01*
G37*
%TD*%
%TO.C,C29*%
G36*
G01*
X152930000Y-123800000D02*
X153270000Y-123800000D01*
G75*
G02*
X153410000Y-123940000I0J-140000D01*
G01*
X153410000Y-124220000D01*
G75*
G02*
X153270000Y-124360000I-140000J0D01*
G01*
X152930000Y-124360000D01*
G75*
G02*
X152790000Y-124220000I0J140000D01*
G01*
X152790000Y-123940000D01*
G75*
G02*
X152930000Y-123800000I140000J0D01*
G01*
G37*
G36*
G01*
X152930000Y-122840000D02*
X153270000Y-122840000D01*
G75*
G02*
X153410000Y-122980000I0J-140000D01*
G01*
X153410000Y-123260000D01*
G75*
G02*
X153270000Y-123400000I-140000J0D01*
G01*
X152930000Y-123400000D01*
G75*
G02*
X152790000Y-123260000I0J140000D01*
G01*
X152790000Y-122980000D01*
G75*
G02*
X152930000Y-122840000I140000J0D01*
G01*
G37*
%TD*%
%TO.C,R98*%
G36*
G01*
X181960000Y-106215000D02*
X181960000Y-106585000D01*
G75*
G02*
X181825000Y-106720000I-135000J0D01*
G01*
X181555000Y-106720000D01*
G75*
G02*
X181420000Y-106585000I0J135000D01*
G01*
X181420000Y-106215000D01*
G75*
G02*
X181555000Y-106080000I135000J0D01*
G01*
X181825000Y-106080000D01*
G75*
G02*
X181960000Y-106215000I0J-135000D01*
G01*
G37*
G36*
G01*
X182980000Y-106215000D02*
X182980000Y-106585000D01*
G75*
G02*
X182845000Y-106720000I-135000J0D01*
G01*
X182575000Y-106720000D01*
G75*
G02*
X182440000Y-106585000I0J135000D01*
G01*
X182440000Y-106215000D01*
G75*
G02*
X182575000Y-106080000I135000J0D01*
G01*
X182845000Y-106080000D01*
G75*
G02*
X182980000Y-106215000I0J-135000D01*
G01*
G37*
%TD*%
%TO.C,R59*%
G36*
G01*
X185940000Y-128985000D02*
X185940000Y-128615000D01*
G75*
G02*
X186075000Y-128480000I135000J0D01*
G01*
X186345000Y-128480000D01*
G75*
G02*
X186480000Y-128615000I0J-135000D01*
G01*
X186480000Y-128985000D01*
G75*
G02*
X186345000Y-129120000I-135000J0D01*
G01*
X186075000Y-129120000D01*
G75*
G02*
X185940000Y-128985000I0J135000D01*
G01*
G37*
G36*
G01*
X184920000Y-128985000D02*
X184920000Y-128615000D01*
G75*
G02*
X185055000Y-128480000I135000J0D01*
G01*
X185325000Y-128480000D01*
G75*
G02*
X185460000Y-128615000I0J-135000D01*
G01*
X185460000Y-128985000D01*
G75*
G02*
X185325000Y-129120000I-135000J0D01*
G01*
X185055000Y-129120000D01*
G75*
G02*
X184920000Y-128985000I0J135000D01*
G01*
G37*
%TD*%
%TO.C,R58*%
G36*
G01*
X182440000Y-114385000D02*
X182440000Y-114015000D01*
G75*
G02*
X182575000Y-113880000I135000J0D01*
G01*
X182845000Y-113880000D01*
G75*
G02*
X182980000Y-114015000I0J-135000D01*
G01*
X182980000Y-114385000D01*
G75*
G02*
X182845000Y-114520000I-135000J0D01*
G01*
X182575000Y-114520000D01*
G75*
G02*
X182440000Y-114385000I0J135000D01*
G01*
G37*
G36*
G01*
X181420000Y-114385000D02*
X181420000Y-114015000D01*
G75*
G02*
X181555000Y-113880000I135000J0D01*
G01*
X181825000Y-113880000D01*
G75*
G02*
X181960000Y-114015000I0J-135000D01*
G01*
X181960000Y-114385000D01*
G75*
G02*
X181825000Y-114520000I-135000J0D01*
G01*
X181555000Y-114520000D01*
G75*
G02*
X181420000Y-114385000I0J135000D01*
G01*
G37*
%TD*%
%TO.C,R56*%
G36*
G01*
X185360000Y-120515000D02*
X185360000Y-120885000D01*
G75*
G02*
X185225000Y-121020000I-135000J0D01*
G01*
X184955000Y-121020000D01*
G75*
G02*
X184820000Y-120885000I0J135000D01*
G01*
X184820000Y-120515000D01*
G75*
G02*
X184955000Y-120380000I135000J0D01*
G01*
X185225000Y-120380000D01*
G75*
G02*
X185360000Y-120515000I0J-135000D01*
G01*
G37*
G36*
G01*
X186380000Y-120515000D02*
X186380000Y-120885000D01*
G75*
G02*
X186245000Y-121020000I-135000J0D01*
G01*
X185975000Y-121020000D01*
G75*
G02*
X185840000Y-120885000I0J135000D01*
G01*
X185840000Y-120515000D01*
G75*
G02*
X185975000Y-120380000I135000J0D01*
G01*
X186245000Y-120380000D01*
G75*
G02*
X186380000Y-120515000I0J-135000D01*
G01*
G37*
%TD*%
D12*
%TO.C,Q4*%
X185600000Y-125400000D03*
X186550000Y-127400000D03*
X184650000Y-127400000D03*
%TD*%
D16*
%TO.C,U14*%
X190550000Y-124450000D03*
X190550000Y-123300000D03*
X190550000Y-122050000D03*
X190550000Y-120850000D03*
X190550000Y-119650000D03*
X199250000Y-124450000D03*
X199250000Y-123250000D03*
X199250000Y-122050000D03*
X199250000Y-120850000D03*
X199250000Y-119650000D03*
D17*
X191900000Y-117950000D03*
X193100000Y-117950000D03*
X194300000Y-117950000D03*
X195500000Y-117950000D03*
X196700000Y-117950000D03*
X197900000Y-117950000D03*
%TD*%
%TO.C,C27*%
G36*
G01*
X137170000Y-122900000D02*
X136830000Y-122900000D01*
G75*
G02*
X136690000Y-122760000I0J140000D01*
G01*
X136690000Y-122480000D01*
G75*
G02*
X136830000Y-122340000I140000J0D01*
G01*
X137170000Y-122340000D01*
G75*
G02*
X137310000Y-122480000I0J-140000D01*
G01*
X137310000Y-122760000D01*
G75*
G02*
X137170000Y-122900000I-140000J0D01*
G01*
G37*
G36*
G01*
X137170000Y-123860000D02*
X136830000Y-123860000D01*
G75*
G02*
X136690000Y-123720000I0J140000D01*
G01*
X136690000Y-123440000D01*
G75*
G02*
X136830000Y-123300000I140000J0D01*
G01*
X137170000Y-123300000D01*
G75*
G02*
X137310000Y-123440000I0J-140000D01*
G01*
X137310000Y-123720000D01*
G75*
G02*
X137170000Y-123860000I-140000J0D01*
G01*
G37*
%TD*%
%TO.C,C26*%
G36*
G01*
X143430000Y-106200000D02*
X143770000Y-106200000D01*
G75*
G02*
X143910000Y-106340000I0J-140000D01*
G01*
X143910000Y-106620000D01*
G75*
G02*
X143770000Y-106760000I-140000J0D01*
G01*
X143430000Y-106760000D01*
G75*
G02*
X143290000Y-106620000I0J140000D01*
G01*
X143290000Y-106340000D01*
G75*
G02*
X143430000Y-106200000I140000J0D01*
G01*
G37*
G36*
G01*
X143430000Y-105240000D02*
X143770000Y-105240000D01*
G75*
G02*
X143910000Y-105380000I0J-140000D01*
G01*
X143910000Y-105660000D01*
G75*
G02*
X143770000Y-105800000I-140000J0D01*
G01*
X143430000Y-105800000D01*
G75*
G02*
X143290000Y-105660000I0J140000D01*
G01*
X143290000Y-105380000D01*
G75*
G02*
X143430000Y-105240000I140000J0D01*
G01*
G37*
%TD*%
%TO.C,R54*%
G36*
G01*
X145940000Y-111985000D02*
X145940000Y-111615000D01*
G75*
G02*
X146075000Y-111480000I135000J0D01*
G01*
X146345000Y-111480000D01*
G75*
G02*
X146480000Y-111615000I0J-135000D01*
G01*
X146480000Y-111985000D01*
G75*
G02*
X146345000Y-112120000I-135000J0D01*
G01*
X146075000Y-112120000D01*
G75*
G02*
X145940000Y-111985000I0J135000D01*
G01*
G37*
G36*
G01*
X144920000Y-111985000D02*
X144920000Y-111615000D01*
G75*
G02*
X145055000Y-111480000I135000J0D01*
G01*
X145325000Y-111480000D01*
G75*
G02*
X145460000Y-111615000I0J-135000D01*
G01*
X145460000Y-111985000D01*
G75*
G02*
X145325000Y-112120000I-135000J0D01*
G01*
X145055000Y-112120000D01*
G75*
G02*
X144920000Y-111985000I0J135000D01*
G01*
G37*
%TD*%
%TO.C,R52*%
G36*
G01*
X145940000Y-110885000D02*
X145940000Y-110515000D01*
G75*
G02*
X146075000Y-110380000I135000J0D01*
G01*
X146345000Y-110380000D01*
G75*
G02*
X146480000Y-110515000I0J-135000D01*
G01*
X146480000Y-110885000D01*
G75*
G02*
X146345000Y-111020000I-135000J0D01*
G01*
X146075000Y-111020000D01*
G75*
G02*
X145940000Y-110885000I0J135000D01*
G01*
G37*
G36*
G01*
X144920000Y-110885000D02*
X144920000Y-110515000D01*
G75*
G02*
X145055000Y-110380000I135000J0D01*
G01*
X145325000Y-110380000D01*
G75*
G02*
X145460000Y-110515000I0J-135000D01*
G01*
X145460000Y-110885000D01*
G75*
G02*
X145325000Y-111020000I-135000J0D01*
G01*
X145055000Y-111020000D01*
G75*
G02*
X144920000Y-110885000I0J135000D01*
G01*
G37*
%TD*%
D18*
%TO.C,Y1*%
X156850000Y-127400000D03*
X153150000Y-127400000D03*
%TD*%
%TO.C,U13*%
G36*
G01*
X154039860Y-120675572D02*
X153049910Y-121665522D01*
G75*
G02*
X152943844Y-121665522I-53033J53033D01*
G01*
X152837778Y-121559456D01*
G75*
G02*
X152837778Y-121453390I53033J53033D01*
G01*
X153827728Y-120463440D01*
G75*
G02*
X153933794Y-120463440I53033J-53033D01*
G01*
X154039860Y-120569506D01*
G75*
G02*
X154039860Y-120675572I-53033J-53033D01*
G01*
G37*
G36*
G01*
X153686307Y-120322019D02*
X152696357Y-121311969D01*
G75*
G02*
X152590291Y-121311969I-53033J53033D01*
G01*
X152484225Y-121205903D01*
G75*
G02*
X152484225Y-121099837I53033J53033D01*
G01*
X153474175Y-120109887D01*
G75*
G02*
X153580241Y-120109887I53033J-53033D01*
G01*
X153686307Y-120215953D01*
G75*
G02*
X153686307Y-120322019I-53033J-53033D01*
G01*
G37*
G36*
G01*
X153332754Y-119968466D02*
X152342804Y-120958416D01*
G75*
G02*
X152236738Y-120958416I-53033J53033D01*
G01*
X152130672Y-120852350D01*
G75*
G02*
X152130672Y-120746284I53033J53033D01*
G01*
X153120622Y-119756334D01*
G75*
G02*
X153226688Y-119756334I53033J-53033D01*
G01*
X153332754Y-119862400D01*
G75*
G02*
X153332754Y-119968466I-53033J-53033D01*
G01*
G37*
G36*
G01*
X152979200Y-119614912D02*
X151989250Y-120604862D01*
G75*
G02*
X151883184Y-120604862I-53033J53033D01*
G01*
X151777118Y-120498796D01*
G75*
G02*
X151777118Y-120392730I53033J53033D01*
G01*
X152767068Y-119402780D01*
G75*
G02*
X152873134Y-119402780I53033J-53033D01*
G01*
X152979200Y-119508846D01*
G75*
G02*
X152979200Y-119614912I-53033J-53033D01*
G01*
G37*
G36*
G01*
X152625647Y-119261359D02*
X151635697Y-120251309D01*
G75*
G02*
X151529631Y-120251309I-53033J53033D01*
G01*
X151423565Y-120145243D01*
G75*
G02*
X151423565Y-120039177I53033J53033D01*
G01*
X152413515Y-119049227D01*
G75*
G02*
X152519581Y-119049227I53033J-53033D01*
G01*
X152625647Y-119155293D01*
G75*
G02*
X152625647Y-119261359I-53033J-53033D01*
G01*
G37*
G36*
G01*
X152272093Y-118907805D02*
X151282143Y-119897755D01*
G75*
G02*
X151176077Y-119897755I-53033J53033D01*
G01*
X151070011Y-119791689D01*
G75*
G02*
X151070011Y-119685623I53033J53033D01*
G01*
X152059961Y-118695673D01*
G75*
G02*
X152166027Y-118695673I53033J-53033D01*
G01*
X152272093Y-118801739D01*
G75*
G02*
X152272093Y-118907805I-53033J-53033D01*
G01*
G37*
G36*
G01*
X151918540Y-118554252D02*
X150928590Y-119544202D01*
G75*
G02*
X150822524Y-119544202I-53033J53033D01*
G01*
X150716458Y-119438136D01*
G75*
G02*
X150716458Y-119332070I53033J53033D01*
G01*
X151706408Y-118342120D01*
G75*
G02*
X151812474Y-118342120I53033J-53033D01*
G01*
X151918540Y-118448186D01*
G75*
G02*
X151918540Y-118554252I-53033J-53033D01*
G01*
G37*
G36*
G01*
X151564987Y-118200699D02*
X150575037Y-119190649D01*
G75*
G02*
X150468971Y-119190649I-53033J53033D01*
G01*
X150362905Y-119084583D01*
G75*
G02*
X150362905Y-118978517I53033J53033D01*
G01*
X151352855Y-117988567D01*
G75*
G02*
X151458921Y-117988567I53033J-53033D01*
G01*
X151564987Y-118094633D01*
G75*
G02*
X151564987Y-118200699I-53033J-53033D01*
G01*
G37*
G36*
G01*
X151211433Y-117847145D02*
X150221483Y-118837095D01*
G75*
G02*
X150115417Y-118837095I-53033J53033D01*
G01*
X150009351Y-118731029D01*
G75*
G02*
X150009351Y-118624963I53033J53033D01*
G01*
X150999301Y-117635013D01*
G75*
G02*
X151105367Y-117635013I53033J-53033D01*
G01*
X151211433Y-117741079D01*
G75*
G02*
X151211433Y-117847145I-53033J-53033D01*
G01*
G37*
G36*
G01*
X150857880Y-117493592D02*
X149867930Y-118483542D01*
G75*
G02*
X149761864Y-118483542I-53033J53033D01*
G01*
X149655798Y-118377476D01*
G75*
G02*
X149655798Y-118271410I53033J53033D01*
G01*
X150645748Y-117281460D01*
G75*
G02*
X150751814Y-117281460I53033J-53033D01*
G01*
X150857880Y-117387526D01*
G75*
G02*
X150857880Y-117493592I-53033J-53033D01*
G01*
G37*
G36*
G01*
X150504327Y-117140039D02*
X149514377Y-118129989D01*
G75*
G02*
X149408311Y-118129989I-53033J53033D01*
G01*
X149302245Y-118023923D01*
G75*
G02*
X149302245Y-117917857I53033J53033D01*
G01*
X150292195Y-116927907D01*
G75*
G02*
X150398261Y-116927907I53033J-53033D01*
G01*
X150504327Y-117033973D01*
G75*
G02*
X150504327Y-117140039I-53033J-53033D01*
G01*
G37*
G36*
G01*
X150150773Y-116786485D02*
X149160823Y-117776435D01*
G75*
G02*
X149054757Y-117776435I-53033J53033D01*
G01*
X148948691Y-117670369D01*
G75*
G02*
X148948691Y-117564303I53033J53033D01*
G01*
X149938641Y-116574353D01*
G75*
G02*
X150044707Y-116574353I53033J-53033D01*
G01*
X150150773Y-116680419D01*
G75*
G02*
X150150773Y-116786485I-53033J-53033D01*
G01*
G37*
G36*
G01*
X149797220Y-116432932D02*
X148807270Y-117422882D01*
G75*
G02*
X148701204Y-117422882I-53033J53033D01*
G01*
X148595138Y-117316816D01*
G75*
G02*
X148595138Y-117210750I53033J53033D01*
G01*
X149585088Y-116220800D01*
G75*
G02*
X149691154Y-116220800I53033J-53033D01*
G01*
X149797220Y-116326866D01*
G75*
G02*
X149797220Y-116432932I-53033J-53033D01*
G01*
G37*
G36*
G01*
X149443666Y-116079378D02*
X148453716Y-117069328D01*
G75*
G02*
X148347650Y-117069328I-53033J53033D01*
G01*
X148241584Y-116963262D01*
G75*
G02*
X148241584Y-116857196I53033J53033D01*
G01*
X149231534Y-115867246D01*
G75*
G02*
X149337600Y-115867246I53033J-53033D01*
G01*
X149443666Y-115973312D01*
G75*
G02*
X149443666Y-116079378I-53033J-53033D01*
G01*
G37*
G36*
G01*
X149090113Y-115725825D02*
X148100163Y-116715775D01*
G75*
G02*
X147994097Y-116715775I-53033J53033D01*
G01*
X147888031Y-116609709D01*
G75*
G02*
X147888031Y-116503643I53033J53033D01*
G01*
X148877981Y-115513693D01*
G75*
G02*
X148984047Y-115513693I53033J-53033D01*
G01*
X149090113Y-115619759D01*
G75*
G02*
X149090113Y-115725825I-53033J-53033D01*
G01*
G37*
G36*
G01*
X148736560Y-115372272D02*
X147746610Y-116362222D01*
G75*
G02*
X147640544Y-116362222I-53033J53033D01*
G01*
X147534478Y-116256156D01*
G75*
G02*
X147534478Y-116150090I53033J53033D01*
G01*
X148524428Y-115160140D01*
G75*
G02*
X148630494Y-115160140I53033J-53033D01*
G01*
X148736560Y-115266206D01*
G75*
G02*
X148736560Y-115372272I-53033J-53033D01*
G01*
G37*
G36*
G01*
X148736560Y-113533794D02*
X148630494Y-113639860D01*
G75*
G02*
X148524428Y-113639860I-53033J53033D01*
G01*
X147534478Y-112649910D01*
G75*
G02*
X147534478Y-112543844I53033J53033D01*
G01*
X147640544Y-112437778D01*
G75*
G02*
X147746610Y-112437778I53033J-53033D01*
G01*
X148736560Y-113427728D01*
G75*
G02*
X148736560Y-113533794I-53033J-53033D01*
G01*
G37*
G36*
G01*
X149090113Y-113180241D02*
X148984047Y-113286307D01*
G75*
G02*
X148877981Y-113286307I-53033J53033D01*
G01*
X147888031Y-112296357D01*
G75*
G02*
X147888031Y-112190291I53033J53033D01*
G01*
X147994097Y-112084225D01*
G75*
G02*
X148100163Y-112084225I53033J-53033D01*
G01*
X149090113Y-113074175D01*
G75*
G02*
X149090113Y-113180241I-53033J-53033D01*
G01*
G37*
G36*
G01*
X149443666Y-112826688D02*
X149337600Y-112932754D01*
G75*
G02*
X149231534Y-112932754I-53033J53033D01*
G01*
X148241584Y-111942804D01*
G75*
G02*
X148241584Y-111836738I53033J53033D01*
G01*
X148347650Y-111730672D01*
G75*
G02*
X148453716Y-111730672I53033J-53033D01*
G01*
X149443666Y-112720622D01*
G75*
G02*
X149443666Y-112826688I-53033J-53033D01*
G01*
G37*
G36*
G01*
X149797220Y-112473134D02*
X149691154Y-112579200D01*
G75*
G02*
X149585088Y-112579200I-53033J53033D01*
G01*
X148595138Y-111589250D01*
G75*
G02*
X148595138Y-111483184I53033J53033D01*
G01*
X148701204Y-111377118D01*
G75*
G02*
X148807270Y-111377118I53033J-53033D01*
G01*
X149797220Y-112367068D01*
G75*
G02*
X149797220Y-112473134I-53033J-53033D01*
G01*
G37*
G36*
G01*
X150150773Y-112119581D02*
X150044707Y-112225647D01*
G75*
G02*
X149938641Y-112225647I-53033J53033D01*
G01*
X148948691Y-111235697D01*
G75*
G02*
X148948691Y-111129631I53033J53033D01*
G01*
X149054757Y-111023565D01*
G75*
G02*
X149160823Y-111023565I53033J-53033D01*
G01*
X150150773Y-112013515D01*
G75*
G02*
X150150773Y-112119581I-53033J-53033D01*
G01*
G37*
G36*
G01*
X150504327Y-111766027D02*
X150398261Y-111872093D01*
G75*
G02*
X150292195Y-111872093I-53033J53033D01*
G01*
X149302245Y-110882143D01*
G75*
G02*
X149302245Y-110776077I53033J53033D01*
G01*
X149408311Y-110670011D01*
G75*
G02*
X149514377Y-110670011I53033J-53033D01*
G01*
X150504327Y-111659961D01*
G75*
G02*
X150504327Y-111766027I-53033J-53033D01*
G01*
G37*
G36*
G01*
X150857880Y-111412474D02*
X150751814Y-111518540D01*
G75*
G02*
X150645748Y-111518540I-53033J53033D01*
G01*
X149655798Y-110528590D01*
G75*
G02*
X149655798Y-110422524I53033J53033D01*
G01*
X149761864Y-110316458D01*
G75*
G02*
X149867930Y-110316458I53033J-53033D01*
G01*
X150857880Y-111306408D01*
G75*
G02*
X150857880Y-111412474I-53033J-53033D01*
G01*
G37*
G36*
G01*
X151211433Y-111058921D02*
X151105367Y-111164987D01*
G75*
G02*
X150999301Y-111164987I-53033J53033D01*
G01*
X150009351Y-110175037D01*
G75*
G02*
X150009351Y-110068971I53033J53033D01*
G01*
X150115417Y-109962905D01*
G75*
G02*
X150221483Y-109962905I53033J-53033D01*
G01*
X151211433Y-110952855D01*
G75*
G02*
X151211433Y-111058921I-53033J-53033D01*
G01*
G37*
G36*
G01*
X151564987Y-110705367D02*
X151458921Y-110811433D01*
G75*
G02*
X151352855Y-110811433I-53033J53033D01*
G01*
X150362905Y-109821483D01*
G75*
G02*
X150362905Y-109715417I53033J53033D01*
G01*
X150468971Y-109609351D01*
G75*
G02*
X150575037Y-109609351I53033J-53033D01*
G01*
X151564987Y-110599301D01*
G75*
G02*
X151564987Y-110705367I-53033J-53033D01*
G01*
G37*
G36*
G01*
X151918540Y-110351814D02*
X151812474Y-110457880D01*
G75*
G02*
X151706408Y-110457880I-53033J53033D01*
G01*
X150716458Y-109467930D01*
G75*
G02*
X150716458Y-109361864I53033J53033D01*
G01*
X150822524Y-109255798D01*
G75*
G02*
X150928590Y-109255798I53033J-53033D01*
G01*
X151918540Y-110245748D01*
G75*
G02*
X151918540Y-110351814I-53033J-53033D01*
G01*
G37*
G36*
G01*
X152272093Y-109998261D02*
X152166027Y-110104327D01*
G75*
G02*
X152059961Y-110104327I-53033J53033D01*
G01*
X151070011Y-109114377D01*
G75*
G02*
X151070011Y-109008311I53033J53033D01*
G01*
X151176077Y-108902245D01*
G75*
G02*
X151282143Y-108902245I53033J-53033D01*
G01*
X152272093Y-109892195D01*
G75*
G02*
X152272093Y-109998261I-53033J-53033D01*
G01*
G37*
G36*
G01*
X152625647Y-109644707D02*
X152519581Y-109750773D01*
G75*
G02*
X152413515Y-109750773I-53033J53033D01*
G01*
X151423565Y-108760823D01*
G75*
G02*
X151423565Y-108654757I53033J53033D01*
G01*
X151529631Y-108548691D01*
G75*
G02*
X151635697Y-108548691I53033J-53033D01*
G01*
X152625647Y-109538641D01*
G75*
G02*
X152625647Y-109644707I-53033J-53033D01*
G01*
G37*
G36*
G01*
X152979200Y-109291154D02*
X152873134Y-109397220D01*
G75*
G02*
X152767068Y-109397220I-53033J53033D01*
G01*
X151777118Y-108407270D01*
G75*
G02*
X151777118Y-108301204I53033J53033D01*
G01*
X151883184Y-108195138D01*
G75*
G02*
X151989250Y-108195138I53033J-53033D01*
G01*
X152979200Y-109185088D01*
G75*
G02*
X152979200Y-109291154I-53033J-53033D01*
G01*
G37*
G36*
G01*
X153332754Y-108937600D02*
X153226688Y-109043666D01*
G75*
G02*
X153120622Y-109043666I-53033J53033D01*
G01*
X152130672Y-108053716D01*
G75*
G02*
X152130672Y-107947650I53033J53033D01*
G01*
X152236738Y-107841584D01*
G75*
G02*
X152342804Y-107841584I53033J-53033D01*
G01*
X153332754Y-108831534D01*
G75*
G02*
X153332754Y-108937600I-53033J-53033D01*
G01*
G37*
G36*
G01*
X153686307Y-108584047D02*
X153580241Y-108690113D01*
G75*
G02*
X153474175Y-108690113I-53033J53033D01*
G01*
X152484225Y-107700163D01*
G75*
G02*
X152484225Y-107594097I53033J53033D01*
G01*
X152590291Y-107488031D01*
G75*
G02*
X152696357Y-107488031I53033J-53033D01*
G01*
X153686307Y-108477981D01*
G75*
G02*
X153686307Y-108584047I-53033J-53033D01*
G01*
G37*
G36*
G01*
X154039860Y-108230494D02*
X153933794Y-108336560D01*
G75*
G02*
X153827728Y-108336560I-53033J53033D01*
G01*
X152837778Y-107346610D01*
G75*
G02*
X152837778Y-107240544I53033J53033D01*
G01*
X152943844Y-107134478D01*
G75*
G02*
X153049910Y-107134478I53033J-53033D01*
G01*
X154039860Y-108124428D01*
G75*
G02*
X154039860Y-108230494I-53033J-53033D01*
G01*
G37*
G36*
G01*
X156762222Y-107346610D02*
X155772272Y-108336560D01*
G75*
G02*
X155666206Y-108336560I-53033J53033D01*
G01*
X155560140Y-108230494D01*
G75*
G02*
X155560140Y-108124428I53033J53033D01*
G01*
X156550090Y-107134478D01*
G75*
G02*
X156656156Y-107134478I53033J-53033D01*
G01*
X156762222Y-107240544D01*
G75*
G02*
X156762222Y-107346610I-53033J-53033D01*
G01*
G37*
G36*
G01*
X157115775Y-107700163D02*
X156125825Y-108690113D01*
G75*
G02*
X156019759Y-108690113I-53033J53033D01*
G01*
X155913693Y-108584047D01*
G75*
G02*
X155913693Y-108477981I53033J53033D01*
G01*
X156903643Y-107488031D01*
G75*
G02*
X157009709Y-107488031I53033J-53033D01*
G01*
X157115775Y-107594097D01*
G75*
G02*
X157115775Y-107700163I-53033J-53033D01*
G01*
G37*
G36*
G01*
X157469328Y-108053716D02*
X156479378Y-109043666D01*
G75*
G02*
X156373312Y-109043666I-53033J53033D01*
G01*
X156267246Y-108937600D01*
G75*
G02*
X156267246Y-108831534I53033J53033D01*
G01*
X157257196Y-107841584D01*
G75*
G02*
X157363262Y-107841584I53033J-53033D01*
G01*
X157469328Y-107947650D01*
G75*
G02*
X157469328Y-108053716I-53033J-53033D01*
G01*
G37*
G36*
G01*
X157822882Y-108407270D02*
X156832932Y-109397220D01*
G75*
G02*
X156726866Y-109397220I-53033J53033D01*
G01*
X156620800Y-109291154D01*
G75*
G02*
X156620800Y-109185088I53033J53033D01*
G01*
X157610750Y-108195138D01*
G75*
G02*
X157716816Y-108195138I53033J-53033D01*
G01*
X157822882Y-108301204D01*
G75*
G02*
X157822882Y-108407270I-53033J-53033D01*
G01*
G37*
G36*
G01*
X158176435Y-108760823D02*
X157186485Y-109750773D01*
G75*
G02*
X157080419Y-109750773I-53033J53033D01*
G01*
X156974353Y-109644707D01*
G75*
G02*
X156974353Y-109538641I53033J53033D01*
G01*
X157964303Y-108548691D01*
G75*
G02*
X158070369Y-108548691I53033J-53033D01*
G01*
X158176435Y-108654757D01*
G75*
G02*
X158176435Y-108760823I-53033J-53033D01*
G01*
G37*
G36*
G01*
X158529989Y-109114377D02*
X157540039Y-110104327D01*
G75*
G02*
X157433973Y-110104327I-53033J53033D01*
G01*
X157327907Y-109998261D01*
G75*
G02*
X157327907Y-109892195I53033J53033D01*
G01*
X158317857Y-108902245D01*
G75*
G02*
X158423923Y-108902245I53033J-53033D01*
G01*
X158529989Y-109008311D01*
G75*
G02*
X158529989Y-109114377I-53033J-53033D01*
G01*
G37*
G36*
G01*
X158883542Y-109467930D02*
X157893592Y-110457880D01*
G75*
G02*
X157787526Y-110457880I-53033J53033D01*
G01*
X157681460Y-110351814D01*
G75*
G02*
X157681460Y-110245748I53033J53033D01*
G01*
X158671410Y-109255798D01*
G75*
G02*
X158777476Y-109255798I53033J-53033D01*
G01*
X158883542Y-109361864D01*
G75*
G02*
X158883542Y-109467930I-53033J-53033D01*
G01*
G37*
G36*
G01*
X159237095Y-109821483D02*
X158247145Y-110811433D01*
G75*
G02*
X158141079Y-110811433I-53033J53033D01*
G01*
X158035013Y-110705367D01*
G75*
G02*
X158035013Y-110599301I53033J53033D01*
G01*
X159024963Y-109609351D01*
G75*
G02*
X159131029Y-109609351I53033J-53033D01*
G01*
X159237095Y-109715417D01*
G75*
G02*
X159237095Y-109821483I-53033J-53033D01*
G01*
G37*
G36*
G01*
X159590649Y-110175037D02*
X158600699Y-111164987D01*
G75*
G02*
X158494633Y-111164987I-53033J53033D01*
G01*
X158388567Y-111058921D01*
G75*
G02*
X158388567Y-110952855I53033J53033D01*
G01*
X159378517Y-109962905D01*
G75*
G02*
X159484583Y-109962905I53033J-53033D01*
G01*
X159590649Y-110068971D01*
G75*
G02*
X159590649Y-110175037I-53033J-53033D01*
G01*
G37*
G36*
G01*
X159944202Y-110528590D02*
X158954252Y-111518540D01*
G75*
G02*
X158848186Y-111518540I-53033J53033D01*
G01*
X158742120Y-111412474D01*
G75*
G02*
X158742120Y-111306408I53033J53033D01*
G01*
X159732070Y-110316458D01*
G75*
G02*
X159838136Y-110316458I53033J-53033D01*
G01*
X159944202Y-110422524D01*
G75*
G02*
X159944202Y-110528590I-53033J-53033D01*
G01*
G37*
G36*
G01*
X160297755Y-110882143D02*
X159307805Y-111872093D01*
G75*
G02*
X159201739Y-111872093I-53033J53033D01*
G01*
X159095673Y-111766027D01*
G75*
G02*
X159095673Y-111659961I53033J53033D01*
G01*
X160085623Y-110670011D01*
G75*
G02*
X160191689Y-110670011I53033J-53033D01*
G01*
X160297755Y-110776077D01*
G75*
G02*
X160297755Y-110882143I-53033J-53033D01*
G01*
G37*
G36*
G01*
X160651309Y-111235697D02*
X159661359Y-112225647D01*
G75*
G02*
X159555293Y-112225647I-53033J53033D01*
G01*
X159449227Y-112119581D01*
G75*
G02*
X159449227Y-112013515I53033J53033D01*
G01*
X160439177Y-111023565D01*
G75*
G02*
X160545243Y-111023565I53033J-53033D01*
G01*
X160651309Y-111129631D01*
G75*
G02*
X160651309Y-111235697I-53033J-53033D01*
G01*
G37*
G36*
G01*
X161004862Y-111589250D02*
X160014912Y-112579200D01*
G75*
G02*
X159908846Y-112579200I-53033J53033D01*
G01*
X159802780Y-112473134D01*
G75*
G02*
X159802780Y-112367068I53033J53033D01*
G01*
X160792730Y-111377118D01*
G75*
G02*
X160898796Y-111377118I53033J-53033D01*
G01*
X161004862Y-111483184D01*
G75*
G02*
X161004862Y-111589250I-53033J-53033D01*
G01*
G37*
G36*
G01*
X161358416Y-111942804D02*
X160368466Y-112932754D01*
G75*
G02*
X160262400Y-112932754I-53033J53033D01*
G01*
X160156334Y-112826688D01*
G75*
G02*
X160156334Y-112720622I53033J53033D01*
G01*
X161146284Y-111730672D01*
G75*
G02*
X161252350Y-111730672I53033J-53033D01*
G01*
X161358416Y-111836738D01*
G75*
G02*
X161358416Y-111942804I-53033J-53033D01*
G01*
G37*
G36*
G01*
X161711969Y-112296357D02*
X160722019Y-113286307D01*
G75*
G02*
X160615953Y-113286307I-53033J53033D01*
G01*
X160509887Y-113180241D01*
G75*
G02*
X160509887Y-113074175I53033J53033D01*
G01*
X161499837Y-112084225D01*
G75*
G02*
X161605903Y-112084225I53033J-53033D01*
G01*
X161711969Y-112190291D01*
G75*
G02*
X161711969Y-112296357I-53033J-53033D01*
G01*
G37*
G36*
G01*
X162065522Y-112649910D02*
X161075572Y-113639860D01*
G75*
G02*
X160969506Y-113639860I-53033J53033D01*
G01*
X160863440Y-113533794D01*
G75*
G02*
X160863440Y-113427728I53033J53033D01*
G01*
X161853390Y-112437778D01*
G75*
G02*
X161959456Y-112437778I53033J-53033D01*
G01*
X162065522Y-112543844D01*
G75*
G02*
X162065522Y-112649910I-53033J-53033D01*
G01*
G37*
G36*
G01*
X162065522Y-116256156D02*
X161959456Y-116362222D01*
G75*
G02*
X161853390Y-116362222I-53033J53033D01*
G01*
X160863440Y-115372272D01*
G75*
G02*
X160863440Y-115266206I53033J53033D01*
G01*
X160969506Y-115160140D01*
G75*
G02*
X161075572Y-115160140I53033J-53033D01*
G01*
X162065522Y-116150090D01*
G75*
G02*
X162065522Y-116256156I-53033J-53033D01*
G01*
G37*
G36*
G01*
X161711969Y-116609709D02*
X161605903Y-116715775D01*
G75*
G02*
X161499837Y-116715775I-53033J53033D01*
G01*
X160509887Y-115725825D01*
G75*
G02*
X160509887Y-115619759I53033J53033D01*
G01*
X160615953Y-115513693D01*
G75*
G02*
X160722019Y-115513693I53033J-53033D01*
G01*
X161711969Y-116503643D01*
G75*
G02*
X161711969Y-116609709I-53033J-53033D01*
G01*
G37*
G36*
G01*
X161358416Y-116963262D02*
X161252350Y-117069328D01*
G75*
G02*
X161146284Y-117069328I-53033J53033D01*
G01*
X160156334Y-116079378D01*
G75*
G02*
X160156334Y-115973312I53033J53033D01*
G01*
X160262400Y-115867246D01*
G75*
G02*
X160368466Y-115867246I53033J-53033D01*
G01*
X161358416Y-116857196D01*
G75*
G02*
X161358416Y-116963262I-53033J-53033D01*
G01*
G37*
G36*
G01*
X161004862Y-117316816D02*
X160898796Y-117422882D01*
G75*
G02*
X160792730Y-117422882I-53033J53033D01*
G01*
X159802780Y-116432932D01*
G75*
G02*
X159802780Y-116326866I53033J53033D01*
G01*
X159908846Y-116220800D01*
G75*
G02*
X160014912Y-116220800I53033J-53033D01*
G01*
X161004862Y-117210750D01*
G75*
G02*
X161004862Y-117316816I-53033J-53033D01*
G01*
G37*
G36*
G01*
X160651309Y-117670369D02*
X160545243Y-117776435D01*
G75*
G02*
X160439177Y-117776435I-53033J53033D01*
G01*
X159449227Y-116786485D01*
G75*
G02*
X159449227Y-116680419I53033J53033D01*
G01*
X159555293Y-116574353D01*
G75*
G02*
X159661359Y-116574353I53033J-53033D01*
G01*
X160651309Y-117564303D01*
G75*
G02*
X160651309Y-117670369I-53033J-53033D01*
G01*
G37*
G36*
G01*
X160297755Y-118023923D02*
X160191689Y-118129989D01*
G75*
G02*
X160085623Y-118129989I-53033J53033D01*
G01*
X159095673Y-117140039D01*
G75*
G02*
X159095673Y-117033973I53033J53033D01*
G01*
X159201739Y-116927907D01*
G75*
G02*
X159307805Y-116927907I53033J-53033D01*
G01*
X160297755Y-117917857D01*
G75*
G02*
X160297755Y-118023923I-53033J-53033D01*
G01*
G37*
G36*
G01*
X159944202Y-118377476D02*
X159838136Y-118483542D01*
G75*
G02*
X159732070Y-118483542I-53033J53033D01*
G01*
X158742120Y-117493592D01*
G75*
G02*
X158742120Y-117387526I53033J53033D01*
G01*
X158848186Y-117281460D01*
G75*
G02*
X158954252Y-117281460I53033J-53033D01*
G01*
X159944202Y-118271410D01*
G75*
G02*
X159944202Y-118377476I-53033J-53033D01*
G01*
G37*
G36*
G01*
X159590649Y-118731029D02*
X159484583Y-118837095D01*
G75*
G02*
X159378517Y-118837095I-53033J53033D01*
G01*
X158388567Y-117847145D01*
G75*
G02*
X158388567Y-117741079I53033J53033D01*
G01*
X158494633Y-117635013D01*
G75*
G02*
X158600699Y-117635013I53033J-53033D01*
G01*
X159590649Y-118624963D01*
G75*
G02*
X159590649Y-118731029I-53033J-53033D01*
G01*
G37*
G36*
G01*
X159237095Y-119084583D02*
X159131029Y-119190649D01*
G75*
G02*
X159024963Y-119190649I-53033J53033D01*
G01*
X158035013Y-118200699D01*
G75*
G02*
X158035013Y-118094633I53033J53033D01*
G01*
X158141079Y-117988567D01*
G75*
G02*
X158247145Y-117988567I53033J-53033D01*
G01*
X159237095Y-118978517D01*
G75*
G02*
X159237095Y-119084583I-53033J-53033D01*
G01*
G37*
G36*
G01*
X158883542Y-119438136D02*
X158777476Y-119544202D01*
G75*
G02*
X158671410Y-119544202I-53033J53033D01*
G01*
X157681460Y-118554252D01*
G75*
G02*
X157681460Y-118448186I53033J53033D01*
G01*
X157787526Y-118342120D01*
G75*
G02*
X157893592Y-118342120I53033J-53033D01*
G01*
X158883542Y-119332070D01*
G75*
G02*
X158883542Y-119438136I-53033J-53033D01*
G01*
G37*
G36*
G01*
X158529989Y-119791689D02*
X158423923Y-119897755D01*
G75*
G02*
X158317857Y-119897755I-53033J53033D01*
G01*
X157327907Y-118907805D01*
G75*
G02*
X157327907Y-118801739I53033J53033D01*
G01*
X157433973Y-118695673D01*
G75*
G02*
X157540039Y-118695673I53033J-53033D01*
G01*
X158529989Y-119685623D01*
G75*
G02*
X158529989Y-119791689I-53033J-53033D01*
G01*
G37*
G36*
G01*
X158176435Y-120145243D02*
X158070369Y-120251309D01*
G75*
G02*
X157964303Y-120251309I-53033J53033D01*
G01*
X156974353Y-119261359D01*
G75*
G02*
X156974353Y-119155293I53033J53033D01*
G01*
X157080419Y-119049227D01*
G75*
G02*
X157186485Y-119049227I53033J-53033D01*
G01*
X158176435Y-120039177D01*
G75*
G02*
X158176435Y-120145243I-53033J-53033D01*
G01*
G37*
G36*
G01*
X157822882Y-120498796D02*
X157716816Y-120604862D01*
G75*
G02*
X157610750Y-120604862I-53033J53033D01*
G01*
X156620800Y-119614912D01*
G75*
G02*
X156620800Y-119508846I53033J53033D01*
G01*
X156726866Y-119402780D01*
G75*
G02*
X156832932Y-119402780I53033J-53033D01*
G01*
X157822882Y-120392730D01*
G75*
G02*
X157822882Y-120498796I-53033J-53033D01*
G01*
G37*
G36*
G01*
X157469328Y-120852350D02*
X157363262Y-120958416D01*
G75*
G02*
X157257196Y-120958416I-53033J53033D01*
G01*
X156267246Y-119968466D01*
G75*
G02*
X156267246Y-119862400I53033J53033D01*
G01*
X156373312Y-119756334D01*
G75*
G02*
X156479378Y-119756334I53033J-53033D01*
G01*
X157469328Y-120746284D01*
G75*
G02*
X157469328Y-120852350I-53033J-53033D01*
G01*
G37*
G36*
G01*
X157115775Y-121205903D02*
X157009709Y-121311969D01*
G75*
G02*
X156903643Y-121311969I-53033J53033D01*
G01*
X155913693Y-120322019D01*
G75*
G02*
X155913693Y-120215953I53033J53033D01*
G01*
X156019759Y-120109887D01*
G75*
G02*
X156125825Y-120109887I53033J-53033D01*
G01*
X157115775Y-121099837D01*
G75*
G02*
X157115775Y-121205903I-53033J-53033D01*
G01*
G37*
G36*
G01*
X156762222Y-121559456D02*
X156656156Y-121665522D01*
G75*
G02*
X156550090Y-121665522I-53033J53033D01*
G01*
X155560140Y-120675572D01*
G75*
G02*
X155560140Y-120569506I53033J53033D01*
G01*
X155666206Y-120463440D01*
G75*
G02*
X155772272Y-120463440I53033J-53033D01*
G01*
X156762222Y-121453390D01*
G75*
G02*
X156762222Y-121559456I-53033J-53033D01*
G01*
G37*
%TD*%
%TO.C,U11*%
G36*
G01*
X186700000Y-111395000D02*
X186700000Y-111695000D01*
G75*
G02*
X186550000Y-111845000I-150000J0D01*
G01*
X185100000Y-111845000D01*
G75*
G02*
X184950000Y-111695000I0J150000D01*
G01*
X184950000Y-111395000D01*
G75*
G02*
X185100000Y-111245000I150000J0D01*
G01*
X186550000Y-111245000D01*
G75*
G02*
X186700000Y-111395000I0J-150000D01*
G01*
G37*
G36*
G01*
X186700000Y-110125000D02*
X186700000Y-110425000D01*
G75*
G02*
X186550000Y-110575000I-150000J0D01*
G01*
X185100000Y-110575000D01*
G75*
G02*
X184950000Y-110425000I0J150000D01*
G01*
X184950000Y-110125000D01*
G75*
G02*
X185100000Y-109975000I150000J0D01*
G01*
X186550000Y-109975000D01*
G75*
G02*
X186700000Y-110125000I0J-150000D01*
G01*
G37*
G36*
G01*
X186700000Y-108855000D02*
X186700000Y-109155000D01*
G75*
G02*
X186550000Y-109305000I-150000J0D01*
G01*
X185100000Y-109305000D01*
G75*
G02*
X184950000Y-109155000I0J150000D01*
G01*
X184950000Y-108855000D01*
G75*
G02*
X185100000Y-108705000I150000J0D01*
G01*
X186550000Y-108705000D01*
G75*
G02*
X186700000Y-108855000I0J-150000D01*
G01*
G37*
G36*
G01*
X186700000Y-107585000D02*
X186700000Y-107885000D01*
G75*
G02*
X186550000Y-108035000I-150000J0D01*
G01*
X185100000Y-108035000D01*
G75*
G02*
X184950000Y-107885000I0J150000D01*
G01*
X184950000Y-107585000D01*
G75*
G02*
X185100000Y-107435000I150000J0D01*
G01*
X186550000Y-107435000D01*
G75*
G02*
X186700000Y-107585000I0J-150000D01*
G01*
G37*
G36*
G01*
X186700000Y-106315000D02*
X186700000Y-106615000D01*
G75*
G02*
X186550000Y-106765000I-150000J0D01*
G01*
X185100000Y-106765000D01*
G75*
G02*
X184950000Y-106615000I0J150000D01*
G01*
X184950000Y-106315000D01*
G75*
G02*
X185100000Y-106165000I150000J0D01*
G01*
X186550000Y-106165000D01*
G75*
G02*
X186700000Y-106315000I0J-150000D01*
G01*
G37*
G36*
G01*
X186700000Y-105045000D02*
X186700000Y-105345000D01*
G75*
G02*
X186550000Y-105495000I-150000J0D01*
G01*
X185100000Y-105495000D01*
G75*
G02*
X184950000Y-105345000I0J150000D01*
G01*
X184950000Y-105045000D01*
G75*
G02*
X185100000Y-104895000I150000J0D01*
G01*
X186550000Y-104895000D01*
G75*
G02*
X186700000Y-105045000I0J-150000D01*
G01*
G37*
G36*
G01*
X186700000Y-103775000D02*
X186700000Y-104075000D01*
G75*
G02*
X186550000Y-104225000I-150000J0D01*
G01*
X185100000Y-104225000D01*
G75*
G02*
X184950000Y-104075000I0J150000D01*
G01*
X184950000Y-103775000D01*
G75*
G02*
X185100000Y-103625000I150000J0D01*
G01*
X186550000Y-103625000D01*
G75*
G02*
X186700000Y-103775000I0J-150000D01*
G01*
G37*
G36*
G01*
X186700000Y-102505000D02*
X186700000Y-102805000D01*
G75*
G02*
X186550000Y-102955000I-150000J0D01*
G01*
X185100000Y-102955000D01*
G75*
G02*
X184950000Y-102805000I0J150000D01*
G01*
X184950000Y-102505000D01*
G75*
G02*
X185100000Y-102355000I150000J0D01*
G01*
X186550000Y-102355000D01*
G75*
G02*
X186700000Y-102505000I0J-150000D01*
G01*
G37*
G36*
G01*
X191850000Y-102505000D02*
X191850000Y-102805000D01*
G75*
G02*
X191700000Y-102955000I-150000J0D01*
G01*
X190250000Y-102955000D01*
G75*
G02*
X190100000Y-102805000I0J150000D01*
G01*
X190100000Y-102505000D01*
G75*
G02*
X190250000Y-102355000I150000J0D01*
G01*
X191700000Y-102355000D01*
G75*
G02*
X191850000Y-102505000I0J-150000D01*
G01*
G37*
G36*
G01*
X191850000Y-103775000D02*
X191850000Y-104075000D01*
G75*
G02*
X191700000Y-104225000I-150000J0D01*
G01*
X190250000Y-104225000D01*
G75*
G02*
X190100000Y-104075000I0J150000D01*
G01*
X190100000Y-103775000D01*
G75*
G02*
X190250000Y-103625000I150000J0D01*
G01*
X191700000Y-103625000D01*
G75*
G02*
X191850000Y-103775000I0J-150000D01*
G01*
G37*
G36*
G01*
X191850000Y-105045000D02*
X191850000Y-105345000D01*
G75*
G02*
X191700000Y-105495000I-150000J0D01*
G01*
X190250000Y-105495000D01*
G75*
G02*
X190100000Y-105345000I0J150000D01*
G01*
X190100000Y-105045000D01*
G75*
G02*
X190250000Y-104895000I150000J0D01*
G01*
X191700000Y-104895000D01*
G75*
G02*
X191850000Y-105045000I0J-150000D01*
G01*
G37*
G36*
G01*
X191850000Y-106315000D02*
X191850000Y-106615000D01*
G75*
G02*
X191700000Y-106765000I-150000J0D01*
G01*
X190250000Y-106765000D01*
G75*
G02*
X190100000Y-106615000I0J150000D01*
G01*
X190100000Y-106315000D01*
G75*
G02*
X190250000Y-106165000I150000J0D01*
G01*
X191700000Y-106165000D01*
G75*
G02*
X191850000Y-106315000I0J-150000D01*
G01*
G37*
G36*
G01*
X191850000Y-107585000D02*
X191850000Y-107885000D01*
G75*
G02*
X191700000Y-108035000I-150000J0D01*
G01*
X190250000Y-108035000D01*
G75*
G02*
X190100000Y-107885000I0J150000D01*
G01*
X190100000Y-107585000D01*
G75*
G02*
X190250000Y-107435000I150000J0D01*
G01*
X191700000Y-107435000D01*
G75*
G02*
X191850000Y-107585000I0J-150000D01*
G01*
G37*
G36*
G01*
X191850000Y-108855000D02*
X191850000Y-109155000D01*
G75*
G02*
X191700000Y-109305000I-150000J0D01*
G01*
X190250000Y-109305000D01*
G75*
G02*
X190100000Y-109155000I0J150000D01*
G01*
X190100000Y-108855000D01*
G75*
G02*
X190250000Y-108705000I150000J0D01*
G01*
X191700000Y-108705000D01*
G75*
G02*
X191850000Y-108855000I0J-150000D01*
G01*
G37*
G36*
G01*
X191850000Y-110125000D02*
X191850000Y-110425000D01*
G75*
G02*
X191700000Y-110575000I-150000J0D01*
G01*
X190250000Y-110575000D01*
G75*
G02*
X190100000Y-110425000I0J150000D01*
G01*
X190100000Y-110125000D01*
G75*
G02*
X190250000Y-109975000I150000J0D01*
G01*
X191700000Y-109975000D01*
G75*
G02*
X191850000Y-110125000I0J-150000D01*
G01*
G37*
G36*
G01*
X191850000Y-111395000D02*
X191850000Y-111695000D01*
G75*
G02*
X191700000Y-111845000I-150000J0D01*
G01*
X190250000Y-111845000D01*
G75*
G02*
X190100000Y-111695000I0J150000D01*
G01*
X190100000Y-111395000D01*
G75*
G02*
X190250000Y-111245000I150000J0D01*
G01*
X191700000Y-111245000D01*
G75*
G02*
X191850000Y-111395000I0J-150000D01*
G01*
G37*
%TD*%
D19*
%TO.C,U8*%
X127050000Y-111550000D03*
X127050000Y-116150000D03*
X127050000Y-113850000D03*
D20*
X133350000Y-113850000D03*
%TD*%
%TO.C,U4*%
G36*
G01*
X140800000Y-105645000D02*
X140800000Y-105345000D01*
G75*
G02*
X140950000Y-105195000I150000J0D01*
G01*
X142600000Y-105195000D01*
G75*
G02*
X142750000Y-105345000I0J-150000D01*
G01*
X142750000Y-105645000D01*
G75*
G02*
X142600000Y-105795000I-150000J0D01*
G01*
X140950000Y-105795000D01*
G75*
G02*
X140800000Y-105645000I0J150000D01*
G01*
G37*
G36*
G01*
X140800000Y-106915000D02*
X140800000Y-106615000D01*
G75*
G02*
X140950000Y-106465000I150000J0D01*
G01*
X142600000Y-106465000D01*
G75*
G02*
X142750000Y-106615000I0J-150000D01*
G01*
X142750000Y-106915000D01*
G75*
G02*
X142600000Y-107065000I-150000J0D01*
G01*
X140950000Y-107065000D01*
G75*
G02*
X140800000Y-106915000I0J150000D01*
G01*
G37*
G36*
G01*
X140800000Y-108185000D02*
X140800000Y-107885000D01*
G75*
G02*
X140950000Y-107735000I150000J0D01*
G01*
X142600000Y-107735000D01*
G75*
G02*
X142750000Y-107885000I0J-150000D01*
G01*
X142750000Y-108185000D01*
G75*
G02*
X142600000Y-108335000I-150000J0D01*
G01*
X140950000Y-108335000D01*
G75*
G02*
X140800000Y-108185000I0J150000D01*
G01*
G37*
G36*
G01*
X140800000Y-109455000D02*
X140800000Y-109155000D01*
G75*
G02*
X140950000Y-109005000I150000J0D01*
G01*
X142600000Y-109005000D01*
G75*
G02*
X142750000Y-109155000I0J-150000D01*
G01*
X142750000Y-109455000D01*
G75*
G02*
X142600000Y-109605000I-150000J0D01*
G01*
X140950000Y-109605000D01*
G75*
G02*
X140800000Y-109455000I0J150000D01*
G01*
G37*
G36*
G01*
X135850000Y-109455000D02*
X135850000Y-109155000D01*
G75*
G02*
X136000000Y-109005000I150000J0D01*
G01*
X137650000Y-109005000D01*
G75*
G02*
X137800000Y-109155000I0J-150000D01*
G01*
X137800000Y-109455000D01*
G75*
G02*
X137650000Y-109605000I-150000J0D01*
G01*
X136000000Y-109605000D01*
G75*
G02*
X135850000Y-109455000I0J150000D01*
G01*
G37*
G36*
G01*
X135850000Y-108185000D02*
X135850000Y-107885000D01*
G75*
G02*
X136000000Y-107735000I150000J0D01*
G01*
X137650000Y-107735000D01*
G75*
G02*
X137800000Y-107885000I0J-150000D01*
G01*
X137800000Y-108185000D01*
G75*
G02*
X137650000Y-108335000I-150000J0D01*
G01*
X136000000Y-108335000D01*
G75*
G02*
X135850000Y-108185000I0J150000D01*
G01*
G37*
G36*
G01*
X135850000Y-106915000D02*
X135850000Y-106615000D01*
G75*
G02*
X136000000Y-106465000I150000J0D01*
G01*
X137650000Y-106465000D01*
G75*
G02*
X137800000Y-106615000I0J-150000D01*
G01*
X137800000Y-106915000D01*
G75*
G02*
X137650000Y-107065000I-150000J0D01*
G01*
X136000000Y-107065000D01*
G75*
G02*
X135850000Y-106915000I0J150000D01*
G01*
G37*
G36*
G01*
X135850000Y-105645000D02*
X135850000Y-105345000D01*
G75*
G02*
X136000000Y-105195000I150000J0D01*
G01*
X137650000Y-105195000D01*
G75*
G02*
X137800000Y-105345000I0J-150000D01*
G01*
X137800000Y-105645000D01*
G75*
G02*
X137650000Y-105795000I-150000J0D01*
G01*
X136000000Y-105795000D01*
G75*
G02*
X135850000Y-105645000I0J150000D01*
G01*
G37*
%TD*%
%TO.C,U3*%
G36*
G01*
X132500000Y-94105000D02*
X132500000Y-93805000D01*
G75*
G02*
X132650000Y-93655000I150000J0D01*
G01*
X134300000Y-93655000D01*
G75*
G02*
X134450000Y-93805000I0J-150000D01*
G01*
X134450000Y-94105000D01*
G75*
G02*
X134300000Y-94255000I-150000J0D01*
G01*
X132650000Y-94255000D01*
G75*
G02*
X132500000Y-94105000I0J150000D01*
G01*
G37*
G36*
G01*
X132500000Y-95375000D02*
X132500000Y-95075000D01*
G75*
G02*
X132650000Y-94925000I150000J0D01*
G01*
X134300000Y-94925000D01*
G75*
G02*
X134450000Y-95075000I0J-150000D01*
G01*
X134450000Y-95375000D01*
G75*
G02*
X134300000Y-95525000I-150000J0D01*
G01*
X132650000Y-95525000D01*
G75*
G02*
X132500000Y-95375000I0J150000D01*
G01*
G37*
G36*
G01*
X132500000Y-96645000D02*
X132500000Y-96345000D01*
G75*
G02*
X132650000Y-96195000I150000J0D01*
G01*
X134300000Y-96195000D01*
G75*
G02*
X134450000Y-96345000I0J-150000D01*
G01*
X134450000Y-96645000D01*
G75*
G02*
X134300000Y-96795000I-150000J0D01*
G01*
X132650000Y-96795000D01*
G75*
G02*
X132500000Y-96645000I0J150000D01*
G01*
G37*
G36*
G01*
X132500000Y-97915000D02*
X132500000Y-97615000D01*
G75*
G02*
X132650000Y-97465000I150000J0D01*
G01*
X134300000Y-97465000D01*
G75*
G02*
X134450000Y-97615000I0J-150000D01*
G01*
X134450000Y-97915000D01*
G75*
G02*
X134300000Y-98065000I-150000J0D01*
G01*
X132650000Y-98065000D01*
G75*
G02*
X132500000Y-97915000I0J150000D01*
G01*
G37*
G36*
G01*
X132500000Y-99185000D02*
X132500000Y-98885000D01*
G75*
G02*
X132650000Y-98735000I150000J0D01*
G01*
X134300000Y-98735000D01*
G75*
G02*
X134450000Y-98885000I0J-150000D01*
G01*
X134450000Y-99185000D01*
G75*
G02*
X134300000Y-99335000I-150000J0D01*
G01*
X132650000Y-99335000D01*
G75*
G02*
X132500000Y-99185000I0J150000D01*
G01*
G37*
G36*
G01*
X132500000Y-100455000D02*
X132500000Y-100155000D01*
G75*
G02*
X132650000Y-100005000I150000J0D01*
G01*
X134300000Y-100005000D01*
G75*
G02*
X134450000Y-100155000I0J-150000D01*
G01*
X134450000Y-100455000D01*
G75*
G02*
X134300000Y-100605000I-150000J0D01*
G01*
X132650000Y-100605000D01*
G75*
G02*
X132500000Y-100455000I0J150000D01*
G01*
G37*
G36*
G01*
X132500000Y-101725000D02*
X132500000Y-101425000D01*
G75*
G02*
X132650000Y-101275000I150000J0D01*
G01*
X134300000Y-101275000D01*
G75*
G02*
X134450000Y-101425000I0J-150000D01*
G01*
X134450000Y-101725000D01*
G75*
G02*
X134300000Y-101875000I-150000J0D01*
G01*
X132650000Y-101875000D01*
G75*
G02*
X132500000Y-101725000I0J150000D01*
G01*
G37*
G36*
G01*
X132500000Y-102995000D02*
X132500000Y-102695000D01*
G75*
G02*
X132650000Y-102545000I150000J0D01*
G01*
X134300000Y-102545000D01*
G75*
G02*
X134450000Y-102695000I0J-150000D01*
G01*
X134450000Y-102995000D01*
G75*
G02*
X134300000Y-103145000I-150000J0D01*
G01*
X132650000Y-103145000D01*
G75*
G02*
X132500000Y-102995000I0J150000D01*
G01*
G37*
G36*
G01*
X127550000Y-102995000D02*
X127550000Y-102695000D01*
G75*
G02*
X127700000Y-102545000I150000J0D01*
G01*
X129350000Y-102545000D01*
G75*
G02*
X129500000Y-102695000I0J-150000D01*
G01*
X129500000Y-102995000D01*
G75*
G02*
X129350000Y-103145000I-150000J0D01*
G01*
X127700000Y-103145000D01*
G75*
G02*
X127550000Y-102995000I0J150000D01*
G01*
G37*
G36*
G01*
X127550000Y-101725000D02*
X127550000Y-101425000D01*
G75*
G02*
X127700000Y-101275000I150000J0D01*
G01*
X129350000Y-101275000D01*
G75*
G02*
X129500000Y-101425000I0J-150000D01*
G01*
X129500000Y-101725000D01*
G75*
G02*
X129350000Y-101875000I-150000J0D01*
G01*
X127700000Y-101875000D01*
G75*
G02*
X127550000Y-101725000I0J150000D01*
G01*
G37*
G36*
G01*
X127550000Y-100455000D02*
X127550000Y-100155000D01*
G75*
G02*
X127700000Y-100005000I150000J0D01*
G01*
X129350000Y-100005000D01*
G75*
G02*
X129500000Y-100155000I0J-150000D01*
G01*
X129500000Y-100455000D01*
G75*
G02*
X129350000Y-100605000I-150000J0D01*
G01*
X127700000Y-100605000D01*
G75*
G02*
X127550000Y-100455000I0J150000D01*
G01*
G37*
G36*
G01*
X127550000Y-99185000D02*
X127550000Y-98885000D01*
G75*
G02*
X127700000Y-98735000I150000J0D01*
G01*
X129350000Y-98735000D01*
G75*
G02*
X129500000Y-98885000I0J-150000D01*
G01*
X129500000Y-99185000D01*
G75*
G02*
X129350000Y-99335000I-150000J0D01*
G01*
X127700000Y-99335000D01*
G75*
G02*
X127550000Y-99185000I0J150000D01*
G01*
G37*
G36*
G01*
X127550000Y-97915000D02*
X127550000Y-97615000D01*
G75*
G02*
X127700000Y-97465000I150000J0D01*
G01*
X129350000Y-97465000D01*
G75*
G02*
X129500000Y-97615000I0J-150000D01*
G01*
X129500000Y-97915000D01*
G75*
G02*
X129350000Y-98065000I-150000J0D01*
G01*
X127700000Y-98065000D01*
G75*
G02*
X127550000Y-97915000I0J150000D01*
G01*
G37*
G36*
G01*
X127550000Y-96645000D02*
X127550000Y-96345000D01*
G75*
G02*
X127700000Y-96195000I150000J0D01*
G01*
X129350000Y-96195000D01*
G75*
G02*
X129500000Y-96345000I0J-150000D01*
G01*
X129500000Y-96645000D01*
G75*
G02*
X129350000Y-96795000I-150000J0D01*
G01*
X127700000Y-96795000D01*
G75*
G02*
X127550000Y-96645000I0J150000D01*
G01*
G37*
G36*
G01*
X127550000Y-95375000D02*
X127550000Y-95075000D01*
G75*
G02*
X127700000Y-94925000I150000J0D01*
G01*
X129350000Y-94925000D01*
G75*
G02*
X129500000Y-95075000I0J-150000D01*
G01*
X129500000Y-95375000D01*
G75*
G02*
X129350000Y-95525000I-150000J0D01*
G01*
X127700000Y-95525000D01*
G75*
G02*
X127550000Y-95375000I0J150000D01*
G01*
G37*
G36*
G01*
X127550000Y-94105000D02*
X127550000Y-93805000D01*
G75*
G02*
X127700000Y-93655000I150000J0D01*
G01*
X129350000Y-93655000D01*
G75*
G02*
X129500000Y-93805000I0J-150000D01*
G01*
X129500000Y-94105000D01*
G75*
G02*
X129350000Y-94255000I-150000J0D01*
G01*
X127700000Y-94255000D01*
G75*
G02*
X127550000Y-94105000I0J150000D01*
G01*
G37*
%TD*%
%TO.C,U2*%
G36*
G01*
X158295000Y-100500000D02*
X158595000Y-100500000D01*
G75*
G02*
X158745000Y-100650000I0J-150000D01*
G01*
X158745000Y-102300000D01*
G75*
G02*
X158595000Y-102450000I-150000J0D01*
G01*
X158295000Y-102450000D01*
G75*
G02*
X158145000Y-102300000I0J150000D01*
G01*
X158145000Y-100650000D01*
G75*
G02*
X158295000Y-100500000I150000J0D01*
G01*
G37*
G36*
G01*
X157025000Y-100500000D02*
X157325000Y-100500000D01*
G75*
G02*
X157475000Y-100650000I0J-150000D01*
G01*
X157475000Y-102300000D01*
G75*
G02*
X157325000Y-102450000I-150000J0D01*
G01*
X157025000Y-102450000D01*
G75*
G02*
X156875000Y-102300000I0J150000D01*
G01*
X156875000Y-100650000D01*
G75*
G02*
X157025000Y-100500000I150000J0D01*
G01*
G37*
G36*
G01*
X155755000Y-100500000D02*
X156055000Y-100500000D01*
G75*
G02*
X156205000Y-100650000I0J-150000D01*
G01*
X156205000Y-102300000D01*
G75*
G02*
X156055000Y-102450000I-150000J0D01*
G01*
X155755000Y-102450000D01*
G75*
G02*
X155605000Y-102300000I0J150000D01*
G01*
X155605000Y-100650000D01*
G75*
G02*
X155755000Y-100500000I150000J0D01*
G01*
G37*
G36*
G01*
X154485000Y-100500000D02*
X154785000Y-100500000D01*
G75*
G02*
X154935000Y-100650000I0J-150000D01*
G01*
X154935000Y-102300000D01*
G75*
G02*
X154785000Y-102450000I-150000J0D01*
G01*
X154485000Y-102450000D01*
G75*
G02*
X154335000Y-102300000I0J150000D01*
G01*
X154335000Y-100650000D01*
G75*
G02*
X154485000Y-100500000I150000J0D01*
G01*
G37*
G36*
G01*
X153215000Y-100500000D02*
X153515000Y-100500000D01*
G75*
G02*
X153665000Y-100650000I0J-150000D01*
G01*
X153665000Y-102300000D01*
G75*
G02*
X153515000Y-102450000I-150000J0D01*
G01*
X153215000Y-102450000D01*
G75*
G02*
X153065000Y-102300000I0J150000D01*
G01*
X153065000Y-100650000D01*
G75*
G02*
X153215000Y-100500000I150000J0D01*
G01*
G37*
G36*
G01*
X151945000Y-100500000D02*
X152245000Y-100500000D01*
G75*
G02*
X152395000Y-100650000I0J-150000D01*
G01*
X152395000Y-102300000D01*
G75*
G02*
X152245000Y-102450000I-150000J0D01*
G01*
X151945000Y-102450000D01*
G75*
G02*
X151795000Y-102300000I0J150000D01*
G01*
X151795000Y-100650000D01*
G75*
G02*
X151945000Y-100500000I150000J0D01*
G01*
G37*
G36*
G01*
X150675000Y-100500000D02*
X150975000Y-100500000D01*
G75*
G02*
X151125000Y-100650000I0J-150000D01*
G01*
X151125000Y-102300000D01*
G75*
G02*
X150975000Y-102450000I-150000J0D01*
G01*
X150675000Y-102450000D01*
G75*
G02*
X150525000Y-102300000I0J150000D01*
G01*
X150525000Y-100650000D01*
G75*
G02*
X150675000Y-100500000I150000J0D01*
G01*
G37*
G36*
G01*
X149405000Y-100500000D02*
X149705000Y-100500000D01*
G75*
G02*
X149855000Y-100650000I0J-150000D01*
G01*
X149855000Y-102300000D01*
G75*
G02*
X149705000Y-102450000I-150000J0D01*
G01*
X149405000Y-102450000D01*
G75*
G02*
X149255000Y-102300000I0J150000D01*
G01*
X149255000Y-100650000D01*
G75*
G02*
X149405000Y-100500000I150000J0D01*
G01*
G37*
G36*
G01*
X149405000Y-95550000D02*
X149705000Y-95550000D01*
G75*
G02*
X149855000Y-95700000I0J-150000D01*
G01*
X149855000Y-97350000D01*
G75*
G02*
X149705000Y-97500000I-150000J0D01*
G01*
X149405000Y-97500000D01*
G75*
G02*
X149255000Y-97350000I0J150000D01*
G01*
X149255000Y-95700000D01*
G75*
G02*
X149405000Y-95550000I150000J0D01*
G01*
G37*
G36*
G01*
X150675000Y-95550000D02*
X150975000Y-95550000D01*
G75*
G02*
X151125000Y-95700000I0J-150000D01*
G01*
X151125000Y-97350000D01*
G75*
G02*
X150975000Y-97500000I-150000J0D01*
G01*
X150675000Y-97500000D01*
G75*
G02*
X150525000Y-97350000I0J150000D01*
G01*
X150525000Y-95700000D01*
G75*
G02*
X150675000Y-95550000I150000J0D01*
G01*
G37*
G36*
G01*
X151945000Y-95550000D02*
X152245000Y-95550000D01*
G75*
G02*
X152395000Y-95700000I0J-150000D01*
G01*
X152395000Y-97350000D01*
G75*
G02*
X152245000Y-97500000I-150000J0D01*
G01*
X151945000Y-97500000D01*
G75*
G02*
X151795000Y-97350000I0J150000D01*
G01*
X151795000Y-95700000D01*
G75*
G02*
X151945000Y-95550000I150000J0D01*
G01*
G37*
G36*
G01*
X153215000Y-95550000D02*
X153515000Y-95550000D01*
G75*
G02*
X153665000Y-95700000I0J-150000D01*
G01*
X153665000Y-97350000D01*
G75*
G02*
X153515000Y-97500000I-150000J0D01*
G01*
X153215000Y-97500000D01*
G75*
G02*
X153065000Y-97350000I0J150000D01*
G01*
X153065000Y-95700000D01*
G75*
G02*
X153215000Y-95550000I150000J0D01*
G01*
G37*
G36*
G01*
X154485000Y-95550000D02*
X154785000Y-95550000D01*
G75*
G02*
X154935000Y-95700000I0J-150000D01*
G01*
X154935000Y-97350000D01*
G75*
G02*
X154785000Y-97500000I-150000J0D01*
G01*
X154485000Y-97500000D01*
G75*
G02*
X154335000Y-97350000I0J150000D01*
G01*
X154335000Y-95700000D01*
G75*
G02*
X154485000Y-95550000I150000J0D01*
G01*
G37*
G36*
G01*
X155755000Y-95550000D02*
X156055000Y-95550000D01*
G75*
G02*
X156205000Y-95700000I0J-150000D01*
G01*
X156205000Y-97350000D01*
G75*
G02*
X156055000Y-97500000I-150000J0D01*
G01*
X155755000Y-97500000D01*
G75*
G02*
X155605000Y-97350000I0J150000D01*
G01*
X155605000Y-95700000D01*
G75*
G02*
X155755000Y-95550000I150000J0D01*
G01*
G37*
G36*
G01*
X157025000Y-95550000D02*
X157325000Y-95550000D01*
G75*
G02*
X157475000Y-95700000I0J-150000D01*
G01*
X157475000Y-97350000D01*
G75*
G02*
X157325000Y-97500000I-150000J0D01*
G01*
X157025000Y-97500000D01*
G75*
G02*
X156875000Y-97350000I0J150000D01*
G01*
X156875000Y-95700000D01*
G75*
G02*
X157025000Y-95550000I150000J0D01*
G01*
G37*
G36*
G01*
X158295000Y-95550000D02*
X158595000Y-95550000D01*
G75*
G02*
X158745000Y-95700000I0J-150000D01*
G01*
X158745000Y-97350000D01*
G75*
G02*
X158595000Y-97500000I-150000J0D01*
G01*
X158295000Y-97500000D01*
G75*
G02*
X158145000Y-97350000I0J150000D01*
G01*
X158145000Y-95700000D01*
G75*
G02*
X158295000Y-95550000I150000J0D01*
G01*
G37*
%TD*%
%TO.C,U1*%
G36*
G01*
X180195000Y-100500000D02*
X180495000Y-100500000D01*
G75*
G02*
X180645000Y-100650000I0J-150000D01*
G01*
X180645000Y-102300000D01*
G75*
G02*
X180495000Y-102450000I-150000J0D01*
G01*
X180195000Y-102450000D01*
G75*
G02*
X180045000Y-102300000I0J150000D01*
G01*
X180045000Y-100650000D01*
G75*
G02*
X180195000Y-100500000I150000J0D01*
G01*
G37*
G36*
G01*
X178925000Y-100500000D02*
X179225000Y-100500000D01*
G75*
G02*
X179375000Y-100650000I0J-150000D01*
G01*
X179375000Y-102300000D01*
G75*
G02*
X179225000Y-102450000I-150000J0D01*
G01*
X178925000Y-102450000D01*
G75*
G02*
X178775000Y-102300000I0J150000D01*
G01*
X178775000Y-100650000D01*
G75*
G02*
X178925000Y-100500000I150000J0D01*
G01*
G37*
G36*
G01*
X177655000Y-100500000D02*
X177955000Y-100500000D01*
G75*
G02*
X178105000Y-100650000I0J-150000D01*
G01*
X178105000Y-102300000D01*
G75*
G02*
X177955000Y-102450000I-150000J0D01*
G01*
X177655000Y-102450000D01*
G75*
G02*
X177505000Y-102300000I0J150000D01*
G01*
X177505000Y-100650000D01*
G75*
G02*
X177655000Y-100500000I150000J0D01*
G01*
G37*
G36*
G01*
X176385000Y-100500000D02*
X176685000Y-100500000D01*
G75*
G02*
X176835000Y-100650000I0J-150000D01*
G01*
X176835000Y-102300000D01*
G75*
G02*
X176685000Y-102450000I-150000J0D01*
G01*
X176385000Y-102450000D01*
G75*
G02*
X176235000Y-102300000I0J150000D01*
G01*
X176235000Y-100650000D01*
G75*
G02*
X176385000Y-100500000I150000J0D01*
G01*
G37*
G36*
G01*
X175115000Y-100500000D02*
X175415000Y-100500000D01*
G75*
G02*
X175565000Y-100650000I0J-150000D01*
G01*
X175565000Y-102300000D01*
G75*
G02*
X175415000Y-102450000I-150000J0D01*
G01*
X175115000Y-102450000D01*
G75*
G02*
X174965000Y-102300000I0J150000D01*
G01*
X174965000Y-100650000D01*
G75*
G02*
X175115000Y-100500000I150000J0D01*
G01*
G37*
G36*
G01*
X173845000Y-100500000D02*
X174145000Y-100500000D01*
G75*
G02*
X174295000Y-100650000I0J-150000D01*
G01*
X174295000Y-102300000D01*
G75*
G02*
X174145000Y-102450000I-150000J0D01*
G01*
X173845000Y-102450000D01*
G75*
G02*
X173695000Y-102300000I0J150000D01*
G01*
X173695000Y-100650000D01*
G75*
G02*
X173845000Y-100500000I150000J0D01*
G01*
G37*
G36*
G01*
X172575000Y-100500000D02*
X172875000Y-100500000D01*
G75*
G02*
X173025000Y-100650000I0J-150000D01*
G01*
X173025000Y-102300000D01*
G75*
G02*
X172875000Y-102450000I-150000J0D01*
G01*
X172575000Y-102450000D01*
G75*
G02*
X172425000Y-102300000I0J150000D01*
G01*
X172425000Y-100650000D01*
G75*
G02*
X172575000Y-100500000I150000J0D01*
G01*
G37*
G36*
G01*
X171305000Y-100500000D02*
X171605000Y-100500000D01*
G75*
G02*
X171755000Y-100650000I0J-150000D01*
G01*
X171755000Y-102300000D01*
G75*
G02*
X171605000Y-102450000I-150000J0D01*
G01*
X171305000Y-102450000D01*
G75*
G02*
X171155000Y-102300000I0J150000D01*
G01*
X171155000Y-100650000D01*
G75*
G02*
X171305000Y-100500000I150000J0D01*
G01*
G37*
G36*
G01*
X171305000Y-95550000D02*
X171605000Y-95550000D01*
G75*
G02*
X171755000Y-95700000I0J-150000D01*
G01*
X171755000Y-97350000D01*
G75*
G02*
X171605000Y-97500000I-150000J0D01*
G01*
X171305000Y-97500000D01*
G75*
G02*
X171155000Y-97350000I0J150000D01*
G01*
X171155000Y-95700000D01*
G75*
G02*
X171305000Y-95550000I150000J0D01*
G01*
G37*
G36*
G01*
X172575000Y-95550000D02*
X172875000Y-95550000D01*
G75*
G02*
X173025000Y-95700000I0J-150000D01*
G01*
X173025000Y-97350000D01*
G75*
G02*
X172875000Y-97500000I-150000J0D01*
G01*
X172575000Y-97500000D01*
G75*
G02*
X172425000Y-97350000I0J150000D01*
G01*
X172425000Y-95700000D01*
G75*
G02*
X172575000Y-95550000I150000J0D01*
G01*
G37*
G36*
G01*
X173845000Y-95550000D02*
X174145000Y-95550000D01*
G75*
G02*
X174295000Y-95700000I0J-150000D01*
G01*
X174295000Y-97350000D01*
G75*
G02*
X174145000Y-97500000I-150000J0D01*
G01*
X173845000Y-97500000D01*
G75*
G02*
X173695000Y-97350000I0J150000D01*
G01*
X173695000Y-95700000D01*
G75*
G02*
X173845000Y-95550000I150000J0D01*
G01*
G37*
G36*
G01*
X175115000Y-95550000D02*
X175415000Y-95550000D01*
G75*
G02*
X175565000Y-95700000I0J-150000D01*
G01*
X175565000Y-97350000D01*
G75*
G02*
X175415000Y-97500000I-150000J0D01*
G01*
X175115000Y-97500000D01*
G75*
G02*
X174965000Y-97350000I0J150000D01*
G01*
X174965000Y-95700000D01*
G75*
G02*
X175115000Y-95550000I150000J0D01*
G01*
G37*
G36*
G01*
X176385000Y-95550000D02*
X176685000Y-95550000D01*
G75*
G02*
X176835000Y-95700000I0J-150000D01*
G01*
X176835000Y-97350000D01*
G75*
G02*
X176685000Y-97500000I-150000J0D01*
G01*
X176385000Y-97500000D01*
G75*
G02*
X176235000Y-97350000I0J150000D01*
G01*
X176235000Y-95700000D01*
G75*
G02*
X176385000Y-95550000I150000J0D01*
G01*
G37*
G36*
G01*
X177655000Y-95550000D02*
X177955000Y-95550000D01*
G75*
G02*
X178105000Y-95700000I0J-150000D01*
G01*
X178105000Y-97350000D01*
G75*
G02*
X177955000Y-97500000I-150000J0D01*
G01*
X177655000Y-97500000D01*
G75*
G02*
X177505000Y-97350000I0J150000D01*
G01*
X177505000Y-95700000D01*
G75*
G02*
X177655000Y-95550000I150000J0D01*
G01*
G37*
G36*
G01*
X178925000Y-95550000D02*
X179225000Y-95550000D01*
G75*
G02*
X179375000Y-95700000I0J-150000D01*
G01*
X179375000Y-97350000D01*
G75*
G02*
X179225000Y-97500000I-150000J0D01*
G01*
X178925000Y-97500000D01*
G75*
G02*
X178775000Y-97350000I0J150000D01*
G01*
X178775000Y-95700000D01*
G75*
G02*
X178925000Y-95550000I150000J0D01*
G01*
G37*
G36*
G01*
X180195000Y-95550000D02*
X180495000Y-95550000D01*
G75*
G02*
X180645000Y-95700000I0J-150000D01*
G01*
X180645000Y-97350000D01*
G75*
G02*
X180495000Y-97500000I-150000J0D01*
G01*
X180195000Y-97500000D01*
G75*
G02*
X180045000Y-97350000I0J150000D01*
G01*
X180045000Y-95700000D01*
G75*
G02*
X180195000Y-95550000I150000J0D01*
G01*
G37*
%TD*%
D21*
%TO.C,SW17*%
X126075000Y-81925000D03*
X126075000Y-86075000D03*
X123925000Y-81925000D03*
X123925000Y-86075000D03*
%TD*%
%TO.C,SW15*%
X140375000Y-111525000D03*
X140375000Y-115675000D03*
X138225000Y-111525000D03*
X138225000Y-115675000D03*
%TD*%
%TO.C,SW13*%
X133075000Y-81925000D03*
X133075000Y-86075000D03*
X130925000Y-81925000D03*
X130925000Y-86075000D03*
%TD*%
%TO.C,R97*%
G36*
G01*
X155215000Y-123840000D02*
X155585000Y-123840000D01*
G75*
G02*
X155720000Y-123975000I0J-135000D01*
G01*
X155720000Y-124245000D01*
G75*
G02*
X155585000Y-124380000I-135000J0D01*
G01*
X155215000Y-124380000D01*
G75*
G02*
X155080000Y-124245000I0J135000D01*
G01*
X155080000Y-123975000D01*
G75*
G02*
X155215000Y-123840000I135000J0D01*
G01*
G37*
G36*
G01*
X155215000Y-122820000D02*
X155585000Y-122820000D01*
G75*
G02*
X155720000Y-122955000I0J-135000D01*
G01*
X155720000Y-123225000D01*
G75*
G02*
X155585000Y-123360000I-135000J0D01*
G01*
X155215000Y-123360000D01*
G75*
G02*
X155080000Y-123225000I0J135000D01*
G01*
X155080000Y-122955000D01*
G75*
G02*
X155215000Y-122820000I135000J0D01*
G01*
G37*
%TD*%
%TO.C,R95*%
G36*
G01*
X205060000Y-102815000D02*
X205060000Y-103185000D01*
G75*
G02*
X204925000Y-103320000I-135000J0D01*
G01*
X204655000Y-103320000D01*
G75*
G02*
X204520000Y-103185000I0J135000D01*
G01*
X204520000Y-102815000D01*
G75*
G02*
X204655000Y-102680000I135000J0D01*
G01*
X204925000Y-102680000D01*
G75*
G02*
X205060000Y-102815000I0J-135000D01*
G01*
G37*
G36*
G01*
X206080000Y-102815000D02*
X206080000Y-103185000D01*
G75*
G02*
X205945000Y-103320000I-135000J0D01*
G01*
X205675000Y-103320000D01*
G75*
G02*
X205540000Y-103185000I0J135000D01*
G01*
X205540000Y-102815000D01*
G75*
G02*
X205675000Y-102680000I135000J0D01*
G01*
X205945000Y-102680000D01*
G75*
G02*
X206080000Y-102815000I0J-135000D01*
G01*
G37*
%TD*%
%TO.C,R94*%
G36*
G01*
X205060000Y-100815000D02*
X205060000Y-101185000D01*
G75*
G02*
X204925000Y-101320000I-135000J0D01*
G01*
X204655000Y-101320000D01*
G75*
G02*
X204520000Y-101185000I0J135000D01*
G01*
X204520000Y-100815000D01*
G75*
G02*
X204655000Y-100680000I135000J0D01*
G01*
X204925000Y-100680000D01*
G75*
G02*
X205060000Y-100815000I0J-135000D01*
G01*
G37*
G36*
G01*
X206080000Y-100815000D02*
X206080000Y-101185000D01*
G75*
G02*
X205945000Y-101320000I-135000J0D01*
G01*
X205675000Y-101320000D01*
G75*
G02*
X205540000Y-101185000I0J135000D01*
G01*
X205540000Y-100815000D01*
G75*
G02*
X205675000Y-100680000I135000J0D01*
G01*
X205945000Y-100680000D01*
G75*
G02*
X206080000Y-100815000I0J-135000D01*
G01*
G37*
%TD*%
%TO.C,R93*%
G36*
G01*
X205060000Y-98815000D02*
X205060000Y-99185000D01*
G75*
G02*
X204925000Y-99320000I-135000J0D01*
G01*
X204655000Y-99320000D01*
G75*
G02*
X204520000Y-99185000I0J135000D01*
G01*
X204520000Y-98815000D01*
G75*
G02*
X204655000Y-98680000I135000J0D01*
G01*
X204925000Y-98680000D01*
G75*
G02*
X205060000Y-98815000I0J-135000D01*
G01*
G37*
G36*
G01*
X206080000Y-98815000D02*
X206080000Y-99185000D01*
G75*
G02*
X205945000Y-99320000I-135000J0D01*
G01*
X205675000Y-99320000D01*
G75*
G02*
X205540000Y-99185000I0J135000D01*
G01*
X205540000Y-98815000D01*
G75*
G02*
X205675000Y-98680000I135000J0D01*
G01*
X205945000Y-98680000D01*
G75*
G02*
X206080000Y-98815000I0J-135000D01*
G01*
G37*
%TD*%
%TO.C,R90*%
G36*
G01*
X186885000Y-113270000D02*
X186515000Y-113270000D01*
G75*
G02*
X186380000Y-113135000I0J135000D01*
G01*
X186380000Y-112865000D01*
G75*
G02*
X186515000Y-112730000I135000J0D01*
G01*
X186885000Y-112730000D01*
G75*
G02*
X187020000Y-112865000I0J-135000D01*
G01*
X187020000Y-113135000D01*
G75*
G02*
X186885000Y-113270000I-135000J0D01*
G01*
G37*
G36*
G01*
X186885000Y-114290000D02*
X186515000Y-114290000D01*
G75*
G02*
X186380000Y-114155000I0J135000D01*
G01*
X186380000Y-113885000D01*
G75*
G02*
X186515000Y-113750000I135000J0D01*
G01*
X186885000Y-113750000D01*
G75*
G02*
X187020000Y-113885000I0J-135000D01*
G01*
X187020000Y-114155000D01*
G75*
G02*
X186885000Y-114290000I-135000J0D01*
G01*
G37*
%TD*%
%TO.C,R88*%
G36*
G01*
X184285000Y-103060000D02*
X183915000Y-103060000D01*
G75*
G02*
X183780000Y-102925000I0J135000D01*
G01*
X183780000Y-102655000D01*
G75*
G02*
X183915000Y-102520000I135000J0D01*
G01*
X184285000Y-102520000D01*
G75*
G02*
X184420000Y-102655000I0J-135000D01*
G01*
X184420000Y-102925000D01*
G75*
G02*
X184285000Y-103060000I-135000J0D01*
G01*
G37*
G36*
G01*
X184285000Y-104080000D02*
X183915000Y-104080000D01*
G75*
G02*
X183780000Y-103945000I0J135000D01*
G01*
X183780000Y-103675000D01*
G75*
G02*
X183915000Y-103540000I135000J0D01*
G01*
X184285000Y-103540000D01*
G75*
G02*
X184420000Y-103675000I0J-135000D01*
G01*
X184420000Y-103945000D01*
G75*
G02*
X184285000Y-104080000I-135000J0D01*
G01*
G37*
%TD*%
%TO.C,R85*%
G36*
G01*
X123710000Y-114165000D02*
X123710000Y-114535000D01*
G75*
G02*
X123575000Y-114670000I-135000J0D01*
G01*
X123305000Y-114670000D01*
G75*
G02*
X123170000Y-114535000I0J135000D01*
G01*
X123170000Y-114165000D01*
G75*
G02*
X123305000Y-114030000I135000J0D01*
G01*
X123575000Y-114030000D01*
G75*
G02*
X123710000Y-114165000I0J-135000D01*
G01*
G37*
G36*
G01*
X124730000Y-114165000D02*
X124730000Y-114535000D01*
G75*
G02*
X124595000Y-114670000I-135000J0D01*
G01*
X124325000Y-114670000D01*
G75*
G02*
X124190000Y-114535000I0J135000D01*
G01*
X124190000Y-114165000D01*
G75*
G02*
X124325000Y-114030000I135000J0D01*
G01*
X124595000Y-114030000D01*
G75*
G02*
X124730000Y-114165000I0J-135000D01*
G01*
G37*
%TD*%
%TO.C,R84*%
G36*
G01*
X119760000Y-116065000D02*
X119760000Y-116435000D01*
G75*
G02*
X119625000Y-116570000I-135000J0D01*
G01*
X119355000Y-116570000D01*
G75*
G02*
X119220000Y-116435000I0J135000D01*
G01*
X119220000Y-116065000D01*
G75*
G02*
X119355000Y-115930000I135000J0D01*
G01*
X119625000Y-115930000D01*
G75*
G02*
X119760000Y-116065000I0J-135000D01*
G01*
G37*
G36*
G01*
X120780000Y-116065000D02*
X120780000Y-116435000D01*
G75*
G02*
X120645000Y-116570000I-135000J0D01*
G01*
X120375000Y-116570000D01*
G75*
G02*
X120240000Y-116435000I0J135000D01*
G01*
X120240000Y-116065000D01*
G75*
G02*
X120375000Y-115930000I135000J0D01*
G01*
X120645000Y-115930000D01*
G75*
G02*
X120780000Y-116065000I0J-135000D01*
G01*
G37*
%TD*%
%TO.C,R83*%
G36*
G01*
X110815000Y-120640000D02*
X111185000Y-120640000D01*
G75*
G02*
X111320000Y-120775000I0J-135000D01*
G01*
X111320000Y-121045000D01*
G75*
G02*
X111185000Y-121180000I-135000J0D01*
G01*
X110815000Y-121180000D01*
G75*
G02*
X110680000Y-121045000I0J135000D01*
G01*
X110680000Y-120775000D01*
G75*
G02*
X110815000Y-120640000I135000J0D01*
G01*
G37*
G36*
G01*
X110815000Y-119620000D02*
X111185000Y-119620000D01*
G75*
G02*
X111320000Y-119755000I0J-135000D01*
G01*
X111320000Y-120025000D01*
G75*
G02*
X111185000Y-120160000I-135000J0D01*
G01*
X110815000Y-120160000D01*
G75*
G02*
X110680000Y-120025000I0J135000D01*
G01*
X110680000Y-119755000D01*
G75*
G02*
X110815000Y-119620000I135000J0D01*
G01*
G37*
%TD*%
%TO.C,R82*%
G36*
G01*
X113840000Y-119085000D02*
X113840000Y-118715000D01*
G75*
G02*
X113975000Y-118580000I135000J0D01*
G01*
X114245000Y-118580000D01*
G75*
G02*
X114380000Y-118715000I0J-135000D01*
G01*
X114380000Y-119085000D01*
G75*
G02*
X114245000Y-119220000I-135000J0D01*
G01*
X113975000Y-119220000D01*
G75*
G02*
X113840000Y-119085000I0J135000D01*
G01*
G37*
G36*
G01*
X112820000Y-119085000D02*
X112820000Y-118715000D01*
G75*
G02*
X112955000Y-118580000I135000J0D01*
G01*
X113225000Y-118580000D01*
G75*
G02*
X113360000Y-118715000I0J-135000D01*
G01*
X113360000Y-119085000D01*
G75*
G02*
X113225000Y-119220000I-135000J0D01*
G01*
X112955000Y-119220000D01*
G75*
G02*
X112820000Y-119085000I0J135000D01*
G01*
G37*
%TD*%
%TO.C,R81*%
G36*
G01*
X111260000Y-121715000D02*
X111260000Y-122085000D01*
G75*
G02*
X111125000Y-122220000I-135000J0D01*
G01*
X110855000Y-122220000D01*
G75*
G02*
X110720000Y-122085000I0J135000D01*
G01*
X110720000Y-121715000D01*
G75*
G02*
X110855000Y-121580000I135000J0D01*
G01*
X111125000Y-121580000D01*
G75*
G02*
X111260000Y-121715000I0J-135000D01*
G01*
G37*
G36*
G01*
X112280000Y-121715000D02*
X112280000Y-122085000D01*
G75*
G02*
X112145000Y-122220000I-135000J0D01*
G01*
X111875000Y-122220000D01*
G75*
G02*
X111740000Y-122085000I0J135000D01*
G01*
X111740000Y-121715000D01*
G75*
G02*
X111875000Y-121580000I135000J0D01*
G01*
X112145000Y-121580000D01*
G75*
G02*
X112280000Y-121715000I0J-135000D01*
G01*
G37*
%TD*%
%TO.C,R80*%
G36*
G01*
X114285000Y-120160000D02*
X113915000Y-120160000D01*
G75*
G02*
X113780000Y-120025000I0J135000D01*
G01*
X113780000Y-119755000D01*
G75*
G02*
X113915000Y-119620000I135000J0D01*
G01*
X114285000Y-119620000D01*
G75*
G02*
X114420000Y-119755000I0J-135000D01*
G01*
X114420000Y-120025000D01*
G75*
G02*
X114285000Y-120160000I-135000J0D01*
G01*
G37*
G36*
G01*
X114285000Y-121180000D02*
X113915000Y-121180000D01*
G75*
G02*
X113780000Y-121045000I0J135000D01*
G01*
X113780000Y-120775000D01*
G75*
G02*
X113915000Y-120640000I135000J0D01*
G01*
X114285000Y-120640000D01*
G75*
G02*
X114420000Y-120775000I0J-135000D01*
G01*
X114420000Y-121045000D01*
G75*
G02*
X114285000Y-121180000I-135000J0D01*
G01*
G37*
%TD*%
%TO.C,R73*%
G36*
G01*
X119015000Y-125940000D02*
X119385000Y-125940000D01*
G75*
G02*
X119520000Y-126075000I0J-135000D01*
G01*
X119520000Y-126345000D01*
G75*
G02*
X119385000Y-126480000I-135000J0D01*
G01*
X119015000Y-126480000D01*
G75*
G02*
X118880000Y-126345000I0J135000D01*
G01*
X118880000Y-126075000D01*
G75*
G02*
X119015000Y-125940000I135000J0D01*
G01*
G37*
G36*
G01*
X119015000Y-124920000D02*
X119385000Y-124920000D01*
G75*
G02*
X119520000Y-125055000I0J-135000D01*
G01*
X119520000Y-125325000D01*
G75*
G02*
X119385000Y-125460000I-135000J0D01*
G01*
X119015000Y-125460000D01*
G75*
G02*
X118880000Y-125325000I0J135000D01*
G01*
X118880000Y-125055000D01*
G75*
G02*
X119015000Y-124920000I135000J0D01*
G01*
G37*
%TD*%
%TO.C,R71*%
G36*
G01*
X166385000Y-113460000D02*
X166015000Y-113460000D01*
G75*
G02*
X165880000Y-113325000I0J135000D01*
G01*
X165880000Y-113055000D01*
G75*
G02*
X166015000Y-112920000I135000J0D01*
G01*
X166385000Y-112920000D01*
G75*
G02*
X166520000Y-113055000I0J-135000D01*
G01*
X166520000Y-113325000D01*
G75*
G02*
X166385000Y-113460000I-135000J0D01*
G01*
G37*
G36*
G01*
X166385000Y-114480000D02*
X166015000Y-114480000D01*
G75*
G02*
X165880000Y-114345000I0J135000D01*
G01*
X165880000Y-114075000D01*
G75*
G02*
X166015000Y-113940000I135000J0D01*
G01*
X166385000Y-113940000D01*
G75*
G02*
X166520000Y-114075000I0J-135000D01*
G01*
X166520000Y-114345000D01*
G75*
G02*
X166385000Y-114480000I-135000J0D01*
G01*
G37*
%TD*%
%TO.C,R70*%
G36*
G01*
X179060000Y-109415000D02*
X179060000Y-109785000D01*
G75*
G02*
X178925000Y-109920000I-135000J0D01*
G01*
X178655000Y-109920000D01*
G75*
G02*
X178520000Y-109785000I0J135000D01*
G01*
X178520000Y-109415000D01*
G75*
G02*
X178655000Y-109280000I135000J0D01*
G01*
X178925000Y-109280000D01*
G75*
G02*
X179060000Y-109415000I0J-135000D01*
G01*
G37*
G36*
G01*
X180080000Y-109415000D02*
X180080000Y-109785000D01*
G75*
G02*
X179945000Y-109920000I-135000J0D01*
G01*
X179675000Y-109920000D01*
G75*
G02*
X179540000Y-109785000I0J135000D01*
G01*
X179540000Y-109415000D01*
G75*
G02*
X179675000Y-109280000I135000J0D01*
G01*
X179945000Y-109280000D01*
G75*
G02*
X180080000Y-109415000I0J-135000D01*
G01*
G37*
%TD*%
%TO.C,R69*%
G36*
G01*
X136740000Y-124785000D02*
X136740000Y-124415000D01*
G75*
G02*
X136875000Y-124280000I135000J0D01*
G01*
X137145000Y-124280000D01*
G75*
G02*
X137280000Y-124415000I0J-135000D01*
G01*
X137280000Y-124785000D01*
G75*
G02*
X137145000Y-124920000I-135000J0D01*
G01*
X136875000Y-124920000D01*
G75*
G02*
X136740000Y-124785000I0J135000D01*
G01*
G37*
G36*
G01*
X135720000Y-124785000D02*
X135720000Y-124415000D01*
G75*
G02*
X135855000Y-124280000I135000J0D01*
G01*
X136125000Y-124280000D01*
G75*
G02*
X136260000Y-124415000I0J-135000D01*
G01*
X136260000Y-124785000D01*
G75*
G02*
X136125000Y-124920000I-135000J0D01*
G01*
X135855000Y-124920000D01*
G75*
G02*
X135720000Y-124785000I0J135000D01*
G01*
G37*
%TD*%
%TO.C,R68*%
G36*
G01*
X136740000Y-125785000D02*
X136740000Y-125415000D01*
G75*
G02*
X136875000Y-125280000I135000J0D01*
G01*
X137145000Y-125280000D01*
G75*
G02*
X137280000Y-125415000I0J-135000D01*
G01*
X137280000Y-125785000D01*
G75*
G02*
X137145000Y-125920000I-135000J0D01*
G01*
X136875000Y-125920000D01*
G75*
G02*
X136740000Y-125785000I0J135000D01*
G01*
G37*
G36*
G01*
X135720000Y-125785000D02*
X135720000Y-125415000D01*
G75*
G02*
X135855000Y-125280000I135000J0D01*
G01*
X136125000Y-125280000D01*
G75*
G02*
X136260000Y-125415000I0J-135000D01*
G01*
X136260000Y-125785000D01*
G75*
G02*
X136125000Y-125920000I-135000J0D01*
G01*
X135855000Y-125920000D01*
G75*
G02*
X135720000Y-125785000I0J135000D01*
G01*
G37*
%TD*%
%TO.C,R67*%
G36*
G01*
X137915000Y-103840000D02*
X138285000Y-103840000D01*
G75*
G02*
X138420000Y-103975000I0J-135000D01*
G01*
X138420000Y-104245000D01*
G75*
G02*
X138285000Y-104380000I-135000J0D01*
G01*
X137915000Y-104380000D01*
G75*
G02*
X137780000Y-104245000I0J135000D01*
G01*
X137780000Y-103975000D01*
G75*
G02*
X137915000Y-103840000I135000J0D01*
G01*
G37*
G36*
G01*
X137915000Y-102820000D02*
X138285000Y-102820000D01*
G75*
G02*
X138420000Y-102955000I0J-135000D01*
G01*
X138420000Y-103225000D01*
G75*
G02*
X138285000Y-103360000I-135000J0D01*
G01*
X137915000Y-103360000D01*
G75*
G02*
X137780000Y-103225000I0J135000D01*
G01*
X137780000Y-102955000D01*
G75*
G02*
X137915000Y-102820000I135000J0D01*
G01*
G37*
%TD*%
%TO.C,R66*%
G36*
G01*
X136740000Y-127785000D02*
X136740000Y-127415000D01*
G75*
G02*
X136875000Y-127280000I135000J0D01*
G01*
X137145000Y-127280000D01*
G75*
G02*
X137280000Y-127415000I0J-135000D01*
G01*
X137280000Y-127785000D01*
G75*
G02*
X137145000Y-127920000I-135000J0D01*
G01*
X136875000Y-127920000D01*
G75*
G02*
X136740000Y-127785000I0J135000D01*
G01*
G37*
G36*
G01*
X135720000Y-127785000D02*
X135720000Y-127415000D01*
G75*
G02*
X135855000Y-127280000I135000J0D01*
G01*
X136125000Y-127280000D01*
G75*
G02*
X136260000Y-127415000I0J-135000D01*
G01*
X136260000Y-127785000D01*
G75*
G02*
X136125000Y-127920000I-135000J0D01*
G01*
X135855000Y-127920000D01*
G75*
G02*
X135720000Y-127785000I0J135000D01*
G01*
G37*
%TD*%
%TO.C,R64*%
G36*
G01*
X140115000Y-103840000D02*
X140485000Y-103840000D01*
G75*
G02*
X140620000Y-103975000I0J-135000D01*
G01*
X140620000Y-104245000D01*
G75*
G02*
X140485000Y-104380000I-135000J0D01*
G01*
X140115000Y-104380000D01*
G75*
G02*
X139980000Y-104245000I0J135000D01*
G01*
X139980000Y-103975000D01*
G75*
G02*
X140115000Y-103840000I135000J0D01*
G01*
G37*
G36*
G01*
X140115000Y-102820000D02*
X140485000Y-102820000D01*
G75*
G02*
X140620000Y-102955000I0J-135000D01*
G01*
X140620000Y-103225000D01*
G75*
G02*
X140485000Y-103360000I-135000J0D01*
G01*
X140115000Y-103360000D01*
G75*
G02*
X139980000Y-103225000I0J135000D01*
G01*
X139980000Y-102955000D01*
G75*
G02*
X140115000Y-102820000I135000J0D01*
G01*
G37*
%TD*%
%TO.C,R62*%
G36*
G01*
X136740000Y-126785000D02*
X136740000Y-126415000D01*
G75*
G02*
X136875000Y-126280000I135000J0D01*
G01*
X137145000Y-126280000D01*
G75*
G02*
X137280000Y-126415000I0J-135000D01*
G01*
X137280000Y-126785000D01*
G75*
G02*
X137145000Y-126920000I-135000J0D01*
G01*
X136875000Y-126920000D01*
G75*
G02*
X136740000Y-126785000I0J135000D01*
G01*
G37*
G36*
G01*
X135720000Y-126785000D02*
X135720000Y-126415000D01*
G75*
G02*
X135855000Y-126280000I135000J0D01*
G01*
X136125000Y-126280000D01*
G75*
G02*
X136260000Y-126415000I0J-135000D01*
G01*
X136260000Y-126785000D01*
G75*
G02*
X136125000Y-126920000I-135000J0D01*
G01*
X135855000Y-126920000D01*
G75*
G02*
X135720000Y-126785000I0J135000D01*
G01*
G37*
%TD*%
%TO.C,R61*%
G36*
G01*
X136260000Y-128415000D02*
X136260000Y-128785000D01*
G75*
G02*
X136125000Y-128920000I-135000J0D01*
G01*
X135855000Y-128920000D01*
G75*
G02*
X135720000Y-128785000I0J135000D01*
G01*
X135720000Y-128415000D01*
G75*
G02*
X135855000Y-128280000I135000J0D01*
G01*
X136125000Y-128280000D01*
G75*
G02*
X136260000Y-128415000I0J-135000D01*
G01*
G37*
G36*
G01*
X137280000Y-128415000D02*
X137280000Y-128785000D01*
G75*
G02*
X137145000Y-128920000I-135000J0D01*
G01*
X136875000Y-128920000D01*
G75*
G02*
X136740000Y-128785000I0J135000D01*
G01*
X136740000Y-128415000D01*
G75*
G02*
X136875000Y-128280000I135000J0D01*
G01*
X137145000Y-128280000D01*
G75*
G02*
X137280000Y-128415000I0J-135000D01*
G01*
G37*
%TD*%
%TO.C,R57*%
G36*
G01*
X124240000Y-87685000D02*
X124240000Y-87315000D01*
G75*
G02*
X124375000Y-87180000I135000J0D01*
G01*
X124645000Y-87180000D01*
G75*
G02*
X124780000Y-87315000I0J-135000D01*
G01*
X124780000Y-87685000D01*
G75*
G02*
X124645000Y-87820000I-135000J0D01*
G01*
X124375000Y-87820000D01*
G75*
G02*
X124240000Y-87685000I0J135000D01*
G01*
G37*
G36*
G01*
X123220000Y-87685000D02*
X123220000Y-87315000D01*
G75*
G02*
X123355000Y-87180000I135000J0D01*
G01*
X123625000Y-87180000D01*
G75*
G02*
X123760000Y-87315000I0J-135000D01*
G01*
X123760000Y-87685000D01*
G75*
G02*
X123625000Y-87820000I-135000J0D01*
G01*
X123355000Y-87820000D01*
G75*
G02*
X123220000Y-87685000I0J135000D01*
G01*
G37*
%TD*%
%TO.C,R55*%
G36*
G01*
X126240000Y-88785000D02*
X126240000Y-88415000D01*
G75*
G02*
X126375000Y-88280000I135000J0D01*
G01*
X126645000Y-88280000D01*
G75*
G02*
X126780000Y-88415000I0J-135000D01*
G01*
X126780000Y-88785000D01*
G75*
G02*
X126645000Y-88920000I-135000J0D01*
G01*
X126375000Y-88920000D01*
G75*
G02*
X126240000Y-88785000I0J135000D01*
G01*
G37*
G36*
G01*
X125220000Y-88785000D02*
X125220000Y-88415000D01*
G75*
G02*
X125355000Y-88280000I135000J0D01*
G01*
X125625000Y-88280000D01*
G75*
G02*
X125760000Y-88415000I0J-135000D01*
G01*
X125760000Y-88785000D01*
G75*
G02*
X125625000Y-88920000I-135000J0D01*
G01*
X125355000Y-88920000D01*
G75*
G02*
X125220000Y-88785000I0J135000D01*
G01*
G37*
%TD*%
%TO.C,R53*%
G36*
G01*
X136885000Y-111760000D02*
X136515000Y-111760000D01*
G75*
G02*
X136380000Y-111625000I0J135000D01*
G01*
X136380000Y-111355000D01*
G75*
G02*
X136515000Y-111220000I135000J0D01*
G01*
X136885000Y-111220000D01*
G75*
G02*
X137020000Y-111355000I0J-135000D01*
G01*
X137020000Y-111625000D01*
G75*
G02*
X136885000Y-111760000I-135000J0D01*
G01*
G37*
G36*
G01*
X136885000Y-112780000D02*
X136515000Y-112780000D01*
G75*
G02*
X136380000Y-112645000I0J135000D01*
G01*
X136380000Y-112375000D01*
G75*
G02*
X136515000Y-112240000I135000J0D01*
G01*
X136885000Y-112240000D01*
G75*
G02*
X137020000Y-112375000I0J-135000D01*
G01*
X137020000Y-112645000D01*
G75*
G02*
X136885000Y-112780000I-135000J0D01*
G01*
G37*
%TD*%
%TO.C,R51*%
G36*
G01*
X185840000Y-100385000D02*
X185840000Y-100015000D01*
G75*
G02*
X185975000Y-99880000I135000J0D01*
G01*
X186245000Y-99880000D01*
G75*
G02*
X186380000Y-100015000I0J-135000D01*
G01*
X186380000Y-100385000D01*
G75*
G02*
X186245000Y-100520000I-135000J0D01*
G01*
X185975000Y-100520000D01*
G75*
G02*
X185840000Y-100385000I0J135000D01*
G01*
G37*
G36*
G01*
X184820000Y-100385000D02*
X184820000Y-100015000D01*
G75*
G02*
X184955000Y-99880000I135000J0D01*
G01*
X185225000Y-99880000D01*
G75*
G02*
X185360000Y-100015000I0J-135000D01*
G01*
X185360000Y-100385000D01*
G75*
G02*
X185225000Y-100520000I-135000J0D01*
G01*
X184955000Y-100520000D01*
G75*
G02*
X184820000Y-100385000I0J135000D01*
G01*
G37*
%TD*%
%TO.C,R50*%
G36*
G01*
X131240000Y-87685000D02*
X131240000Y-87315000D01*
G75*
G02*
X131375000Y-87180000I135000J0D01*
G01*
X131645000Y-87180000D01*
G75*
G02*
X131780000Y-87315000I0J-135000D01*
G01*
X131780000Y-87685000D01*
G75*
G02*
X131645000Y-87820000I-135000J0D01*
G01*
X131375000Y-87820000D01*
G75*
G02*
X131240000Y-87685000I0J135000D01*
G01*
G37*
G36*
G01*
X130220000Y-87685000D02*
X130220000Y-87315000D01*
G75*
G02*
X130355000Y-87180000I135000J0D01*
G01*
X130625000Y-87180000D01*
G75*
G02*
X130760000Y-87315000I0J-135000D01*
G01*
X130760000Y-87685000D01*
G75*
G02*
X130625000Y-87820000I-135000J0D01*
G01*
X130355000Y-87820000D01*
G75*
G02*
X130220000Y-87685000I0J135000D01*
G01*
G37*
%TD*%
%TO.C,R49*%
G36*
G01*
X185840000Y-96985000D02*
X185840000Y-96615000D01*
G75*
G02*
X185975000Y-96480000I135000J0D01*
G01*
X186245000Y-96480000D01*
G75*
G02*
X186380000Y-96615000I0J-135000D01*
G01*
X186380000Y-96985000D01*
G75*
G02*
X186245000Y-97120000I-135000J0D01*
G01*
X185975000Y-97120000D01*
G75*
G02*
X185840000Y-96985000I0J135000D01*
G01*
G37*
G36*
G01*
X184820000Y-96985000D02*
X184820000Y-96615000D01*
G75*
G02*
X184955000Y-96480000I135000J0D01*
G01*
X185225000Y-96480000D01*
G75*
G02*
X185360000Y-96615000I0J-135000D01*
G01*
X185360000Y-96985000D01*
G75*
G02*
X185225000Y-97120000I-135000J0D01*
G01*
X184955000Y-97120000D01*
G75*
G02*
X184820000Y-96985000I0J135000D01*
G01*
G37*
%TD*%
%TO.C,R48*%
G36*
G01*
X133240000Y-88785000D02*
X133240000Y-88415000D01*
G75*
G02*
X133375000Y-88280000I135000J0D01*
G01*
X133645000Y-88280000D01*
G75*
G02*
X133780000Y-88415000I0J-135000D01*
G01*
X133780000Y-88785000D01*
G75*
G02*
X133645000Y-88920000I-135000J0D01*
G01*
X133375000Y-88920000D01*
G75*
G02*
X133240000Y-88785000I0J135000D01*
G01*
G37*
G36*
G01*
X132220000Y-88785000D02*
X132220000Y-88415000D01*
G75*
G02*
X132355000Y-88280000I135000J0D01*
G01*
X132625000Y-88280000D01*
G75*
G02*
X132760000Y-88415000I0J-135000D01*
G01*
X132760000Y-88785000D01*
G75*
G02*
X132625000Y-88920000I-135000J0D01*
G01*
X132355000Y-88920000D01*
G75*
G02*
X132220000Y-88785000I0J135000D01*
G01*
G37*
%TD*%
%TO.C,R47*%
G36*
G01*
X185840000Y-99185000D02*
X185840000Y-98815000D01*
G75*
G02*
X185975000Y-98680000I135000J0D01*
G01*
X186245000Y-98680000D01*
G75*
G02*
X186380000Y-98815000I0J-135000D01*
G01*
X186380000Y-99185000D01*
G75*
G02*
X186245000Y-99320000I-135000J0D01*
G01*
X185975000Y-99320000D01*
G75*
G02*
X185840000Y-99185000I0J135000D01*
G01*
G37*
G36*
G01*
X184820000Y-99185000D02*
X184820000Y-98815000D01*
G75*
G02*
X184955000Y-98680000I135000J0D01*
G01*
X185225000Y-98680000D01*
G75*
G02*
X185360000Y-98815000I0J-135000D01*
G01*
X185360000Y-99185000D01*
G75*
G02*
X185225000Y-99320000I-135000J0D01*
G01*
X184955000Y-99320000D01*
G75*
G02*
X184820000Y-99185000I0J135000D01*
G01*
G37*
%TD*%
%TO.C,R46*%
G36*
G01*
X185840000Y-94785000D02*
X185840000Y-94415000D01*
G75*
G02*
X185975000Y-94280000I135000J0D01*
G01*
X186245000Y-94280000D01*
G75*
G02*
X186380000Y-94415000I0J-135000D01*
G01*
X186380000Y-94785000D01*
G75*
G02*
X186245000Y-94920000I-135000J0D01*
G01*
X185975000Y-94920000D01*
G75*
G02*
X185840000Y-94785000I0J135000D01*
G01*
G37*
G36*
G01*
X184820000Y-94785000D02*
X184820000Y-94415000D01*
G75*
G02*
X184955000Y-94280000I135000J0D01*
G01*
X185225000Y-94280000D01*
G75*
G02*
X185360000Y-94415000I0J-135000D01*
G01*
X185360000Y-94785000D01*
G75*
G02*
X185225000Y-94920000I-135000J0D01*
G01*
X184955000Y-94920000D01*
G75*
G02*
X184820000Y-94785000I0J135000D01*
G01*
G37*
%TD*%
%TO.C,R45*%
G36*
G01*
X185840000Y-95885000D02*
X185840000Y-95515000D01*
G75*
G02*
X185975000Y-95380000I135000J0D01*
G01*
X186245000Y-95380000D01*
G75*
G02*
X186380000Y-95515000I0J-135000D01*
G01*
X186380000Y-95885000D01*
G75*
G02*
X186245000Y-96020000I-135000J0D01*
G01*
X185975000Y-96020000D01*
G75*
G02*
X185840000Y-95885000I0J135000D01*
G01*
G37*
G36*
G01*
X184820000Y-95885000D02*
X184820000Y-95515000D01*
G75*
G02*
X184955000Y-95380000I135000J0D01*
G01*
X185225000Y-95380000D01*
G75*
G02*
X185360000Y-95515000I0J-135000D01*
G01*
X185360000Y-95885000D01*
G75*
G02*
X185225000Y-96020000I-135000J0D01*
G01*
X184955000Y-96020000D01*
G75*
G02*
X184820000Y-95885000I0J135000D01*
G01*
G37*
%TD*%
%TO.C,R44*%
G36*
G01*
X203760000Y-118715000D02*
X203760000Y-119085000D01*
G75*
G02*
X203625000Y-119220000I-135000J0D01*
G01*
X203355000Y-119220000D01*
G75*
G02*
X203220000Y-119085000I0J135000D01*
G01*
X203220000Y-118715000D01*
G75*
G02*
X203355000Y-118580000I135000J0D01*
G01*
X203625000Y-118580000D01*
G75*
G02*
X203760000Y-118715000I0J-135000D01*
G01*
G37*
G36*
G01*
X204780000Y-118715000D02*
X204780000Y-119085000D01*
G75*
G02*
X204645000Y-119220000I-135000J0D01*
G01*
X204375000Y-119220000D01*
G75*
G02*
X204240000Y-119085000I0J135000D01*
G01*
X204240000Y-118715000D01*
G75*
G02*
X204375000Y-118580000I135000J0D01*
G01*
X204645000Y-118580000D01*
G75*
G02*
X204780000Y-118715000I0J-135000D01*
G01*
G37*
%TD*%
%TO.C,R43*%
G36*
G01*
X203760000Y-119915000D02*
X203760000Y-120285000D01*
G75*
G02*
X203625000Y-120420000I-135000J0D01*
G01*
X203355000Y-120420000D01*
G75*
G02*
X203220000Y-120285000I0J135000D01*
G01*
X203220000Y-119915000D01*
G75*
G02*
X203355000Y-119780000I135000J0D01*
G01*
X203625000Y-119780000D01*
G75*
G02*
X203760000Y-119915000I0J-135000D01*
G01*
G37*
G36*
G01*
X204780000Y-119915000D02*
X204780000Y-120285000D01*
G75*
G02*
X204645000Y-120420000I-135000J0D01*
G01*
X204375000Y-120420000D01*
G75*
G02*
X204240000Y-120285000I0J135000D01*
G01*
X204240000Y-119915000D01*
G75*
G02*
X204375000Y-119780000I135000J0D01*
G01*
X204645000Y-119780000D01*
G75*
G02*
X204780000Y-119915000I0J-135000D01*
G01*
G37*
%TD*%
%TO.C,R42*%
G36*
G01*
X168085000Y-118260000D02*
X167715000Y-118260000D01*
G75*
G02*
X167580000Y-118125000I0J135000D01*
G01*
X167580000Y-117855000D01*
G75*
G02*
X167715000Y-117720000I135000J0D01*
G01*
X168085000Y-117720000D01*
G75*
G02*
X168220000Y-117855000I0J-135000D01*
G01*
X168220000Y-118125000D01*
G75*
G02*
X168085000Y-118260000I-135000J0D01*
G01*
G37*
G36*
G01*
X168085000Y-119280000D02*
X167715000Y-119280000D01*
G75*
G02*
X167580000Y-119145000I0J135000D01*
G01*
X167580000Y-118875000D01*
G75*
G02*
X167715000Y-118740000I135000J0D01*
G01*
X168085000Y-118740000D01*
G75*
G02*
X168220000Y-118875000I0J-135000D01*
G01*
X168220000Y-119145000D01*
G75*
G02*
X168085000Y-119280000I-135000J0D01*
G01*
G37*
%TD*%
%TO.C,R41*%
G36*
G01*
X169715000Y-118740000D02*
X170085000Y-118740000D01*
G75*
G02*
X170220000Y-118875000I0J-135000D01*
G01*
X170220000Y-119145000D01*
G75*
G02*
X170085000Y-119280000I-135000J0D01*
G01*
X169715000Y-119280000D01*
G75*
G02*
X169580000Y-119145000I0J135000D01*
G01*
X169580000Y-118875000D01*
G75*
G02*
X169715000Y-118740000I135000J0D01*
G01*
G37*
G36*
G01*
X169715000Y-117720000D02*
X170085000Y-117720000D01*
G75*
G02*
X170220000Y-117855000I0J-135000D01*
G01*
X170220000Y-118125000D01*
G75*
G02*
X170085000Y-118260000I-135000J0D01*
G01*
X169715000Y-118260000D01*
G75*
G02*
X169580000Y-118125000I0J135000D01*
G01*
X169580000Y-117855000D01*
G75*
G02*
X169715000Y-117720000I135000J0D01*
G01*
G37*
%TD*%
%TO.C,R40*%
G36*
G01*
X176085000Y-118260000D02*
X175715000Y-118260000D01*
G75*
G02*
X175580000Y-118125000I0J135000D01*
G01*
X175580000Y-117855000D01*
G75*
G02*
X175715000Y-117720000I135000J0D01*
G01*
X176085000Y-117720000D01*
G75*
G02*
X176220000Y-117855000I0J-135000D01*
G01*
X176220000Y-118125000D01*
G75*
G02*
X176085000Y-118260000I-135000J0D01*
G01*
G37*
G36*
G01*
X176085000Y-119280000D02*
X175715000Y-119280000D01*
G75*
G02*
X175580000Y-119145000I0J135000D01*
G01*
X175580000Y-118875000D01*
G75*
G02*
X175715000Y-118740000I135000J0D01*
G01*
X176085000Y-118740000D01*
G75*
G02*
X176220000Y-118875000I0J-135000D01*
G01*
X176220000Y-119145000D01*
G75*
G02*
X176085000Y-119280000I-135000J0D01*
G01*
G37*
%TD*%
%TO.C,R39*%
G36*
G01*
X177715000Y-118740000D02*
X178085000Y-118740000D01*
G75*
G02*
X178220000Y-118875000I0J-135000D01*
G01*
X178220000Y-119145000D01*
G75*
G02*
X178085000Y-119280000I-135000J0D01*
G01*
X177715000Y-119280000D01*
G75*
G02*
X177580000Y-119145000I0J135000D01*
G01*
X177580000Y-118875000D01*
G75*
G02*
X177715000Y-118740000I135000J0D01*
G01*
G37*
G36*
G01*
X177715000Y-117720000D02*
X178085000Y-117720000D01*
G75*
G02*
X178220000Y-117855000I0J-135000D01*
G01*
X178220000Y-118125000D01*
G75*
G02*
X178085000Y-118260000I-135000J0D01*
G01*
X177715000Y-118260000D01*
G75*
G02*
X177580000Y-118125000I0J135000D01*
G01*
X177580000Y-117855000D01*
G75*
G02*
X177715000Y-117720000I135000J0D01*
G01*
G37*
%TD*%
%TO.C,R38*%
G36*
G01*
X179215000Y-92840000D02*
X179585000Y-92840000D01*
G75*
G02*
X179720000Y-92975000I0J-135000D01*
G01*
X179720000Y-93245000D01*
G75*
G02*
X179585000Y-93380000I-135000J0D01*
G01*
X179215000Y-93380000D01*
G75*
G02*
X179080000Y-93245000I0J135000D01*
G01*
X179080000Y-92975000D01*
G75*
G02*
X179215000Y-92840000I135000J0D01*
G01*
G37*
G36*
G01*
X179215000Y-91820000D02*
X179585000Y-91820000D01*
G75*
G02*
X179720000Y-91955000I0J-135000D01*
G01*
X179720000Y-92225000D01*
G75*
G02*
X179585000Y-92360000I-135000J0D01*
G01*
X179215000Y-92360000D01*
G75*
G02*
X179080000Y-92225000I0J135000D01*
G01*
X179080000Y-91955000D01*
G75*
G02*
X179215000Y-91820000I135000J0D01*
G01*
G37*
%TD*%
%TO.C,R37*%
G36*
G01*
X173585000Y-92360000D02*
X173215000Y-92360000D01*
G75*
G02*
X173080000Y-92225000I0J135000D01*
G01*
X173080000Y-91955000D01*
G75*
G02*
X173215000Y-91820000I135000J0D01*
G01*
X173585000Y-91820000D01*
G75*
G02*
X173720000Y-91955000I0J-135000D01*
G01*
X173720000Y-92225000D01*
G75*
G02*
X173585000Y-92360000I-135000J0D01*
G01*
G37*
G36*
G01*
X173585000Y-93380000D02*
X173215000Y-93380000D01*
G75*
G02*
X173080000Y-93245000I0J135000D01*
G01*
X173080000Y-92975000D01*
G75*
G02*
X173215000Y-92840000I135000J0D01*
G01*
X173585000Y-92840000D01*
G75*
G02*
X173720000Y-92975000I0J-135000D01*
G01*
X173720000Y-93245000D01*
G75*
G02*
X173585000Y-93380000I-135000J0D01*
G01*
G37*
%TD*%
%TO.C,R36*%
G36*
G01*
X138440000Y-91185000D02*
X138440000Y-90815000D01*
G75*
G02*
X138575000Y-90680000I135000J0D01*
G01*
X138845000Y-90680000D01*
G75*
G02*
X138980000Y-90815000I0J-135000D01*
G01*
X138980000Y-91185000D01*
G75*
G02*
X138845000Y-91320000I-135000J0D01*
G01*
X138575000Y-91320000D01*
G75*
G02*
X138440000Y-91185000I0J135000D01*
G01*
G37*
G36*
G01*
X137420000Y-91185000D02*
X137420000Y-90815000D01*
G75*
G02*
X137555000Y-90680000I135000J0D01*
G01*
X137825000Y-90680000D01*
G75*
G02*
X137960000Y-90815000I0J-135000D01*
G01*
X137960000Y-91185000D01*
G75*
G02*
X137825000Y-91320000I-135000J0D01*
G01*
X137555000Y-91320000D01*
G75*
G02*
X137420000Y-91185000I0J135000D01*
G01*
G37*
%TD*%
%TO.C,R35*%
G36*
G01*
X180760000Y-91815000D02*
X180760000Y-92185000D01*
G75*
G02*
X180625000Y-92320000I-135000J0D01*
G01*
X180355000Y-92320000D01*
G75*
G02*
X180220000Y-92185000I0J135000D01*
G01*
X180220000Y-91815000D01*
G75*
G02*
X180355000Y-91680000I135000J0D01*
G01*
X180625000Y-91680000D01*
G75*
G02*
X180760000Y-91815000I0J-135000D01*
G01*
G37*
G36*
G01*
X181780000Y-91815000D02*
X181780000Y-92185000D01*
G75*
G02*
X181645000Y-92320000I-135000J0D01*
G01*
X181375000Y-92320000D01*
G75*
G02*
X181240000Y-92185000I0J135000D01*
G01*
X181240000Y-91815000D01*
G75*
G02*
X181375000Y-91680000I135000J0D01*
G01*
X181645000Y-91680000D01*
G75*
G02*
X181780000Y-91815000I0J-135000D01*
G01*
G37*
%TD*%
%TO.C,R34*%
G36*
G01*
X172040000Y-92185000D02*
X172040000Y-91815000D01*
G75*
G02*
X172175000Y-91680000I135000J0D01*
G01*
X172445000Y-91680000D01*
G75*
G02*
X172580000Y-91815000I0J-135000D01*
G01*
X172580000Y-92185000D01*
G75*
G02*
X172445000Y-92320000I-135000J0D01*
G01*
X172175000Y-92320000D01*
G75*
G02*
X172040000Y-92185000I0J135000D01*
G01*
G37*
G36*
G01*
X171020000Y-92185000D02*
X171020000Y-91815000D01*
G75*
G02*
X171155000Y-91680000I135000J0D01*
G01*
X171425000Y-91680000D01*
G75*
G02*
X171560000Y-91815000I0J-135000D01*
G01*
X171560000Y-92185000D01*
G75*
G02*
X171425000Y-92320000I-135000J0D01*
G01*
X171155000Y-92320000D01*
G75*
G02*
X171020000Y-92185000I0J135000D01*
G01*
G37*
%TD*%
%TO.C,R33*%
G36*
G01*
X142215000Y-92440000D02*
X142585000Y-92440000D01*
G75*
G02*
X142720000Y-92575000I0J-135000D01*
G01*
X142720000Y-92845000D01*
G75*
G02*
X142585000Y-92980000I-135000J0D01*
G01*
X142215000Y-92980000D01*
G75*
G02*
X142080000Y-92845000I0J135000D01*
G01*
X142080000Y-92575000D01*
G75*
G02*
X142215000Y-92440000I135000J0D01*
G01*
G37*
G36*
G01*
X142215000Y-91420000D02*
X142585000Y-91420000D01*
G75*
G02*
X142720000Y-91555000I0J-135000D01*
G01*
X142720000Y-91825000D01*
G75*
G02*
X142585000Y-91960000I-135000J0D01*
G01*
X142215000Y-91960000D01*
G75*
G02*
X142080000Y-91825000I0J135000D01*
G01*
X142080000Y-91555000D01*
G75*
G02*
X142215000Y-91420000I135000J0D01*
G01*
G37*
%TD*%
%TO.C,R32*%
G36*
G01*
X168015000Y-92840000D02*
X168385000Y-92840000D01*
G75*
G02*
X168520000Y-92975000I0J-135000D01*
G01*
X168520000Y-93245000D01*
G75*
G02*
X168385000Y-93380000I-135000J0D01*
G01*
X168015000Y-93380000D01*
G75*
G02*
X167880000Y-93245000I0J135000D01*
G01*
X167880000Y-92975000D01*
G75*
G02*
X168015000Y-92840000I135000J0D01*
G01*
G37*
G36*
G01*
X168015000Y-91820000D02*
X168385000Y-91820000D01*
G75*
G02*
X168520000Y-91955000I0J-135000D01*
G01*
X168520000Y-92225000D01*
G75*
G02*
X168385000Y-92360000I-135000J0D01*
G01*
X168015000Y-92360000D01*
G75*
G02*
X167880000Y-92225000I0J135000D01*
G01*
X167880000Y-91955000D01*
G75*
G02*
X168015000Y-91820000I135000J0D01*
G01*
G37*
%TD*%
%TO.C,R31*%
G36*
G01*
X162385000Y-92360000D02*
X162015000Y-92360000D01*
G75*
G02*
X161880000Y-92225000I0J135000D01*
G01*
X161880000Y-91955000D01*
G75*
G02*
X162015000Y-91820000I135000J0D01*
G01*
X162385000Y-91820000D01*
G75*
G02*
X162520000Y-91955000I0J-135000D01*
G01*
X162520000Y-92225000D01*
G75*
G02*
X162385000Y-92360000I-135000J0D01*
G01*
G37*
G36*
G01*
X162385000Y-93380000D02*
X162015000Y-93380000D01*
G75*
G02*
X161880000Y-93245000I0J135000D01*
G01*
X161880000Y-92975000D01*
G75*
G02*
X162015000Y-92840000I135000J0D01*
G01*
X162385000Y-92840000D01*
G75*
G02*
X162520000Y-92975000I0J-135000D01*
G01*
X162520000Y-93245000D01*
G75*
G02*
X162385000Y-93380000I-135000J0D01*
G01*
G37*
%TD*%
%TO.C,R30*%
G36*
G01*
X149640000Y-91185000D02*
X149640000Y-90815000D01*
G75*
G02*
X149775000Y-90680000I135000J0D01*
G01*
X150045000Y-90680000D01*
G75*
G02*
X150180000Y-90815000I0J-135000D01*
G01*
X150180000Y-91185000D01*
G75*
G02*
X150045000Y-91320000I-135000J0D01*
G01*
X149775000Y-91320000D01*
G75*
G02*
X149640000Y-91185000I0J135000D01*
G01*
G37*
G36*
G01*
X148620000Y-91185000D02*
X148620000Y-90815000D01*
G75*
G02*
X148755000Y-90680000I135000J0D01*
G01*
X149025000Y-90680000D01*
G75*
G02*
X149160000Y-90815000I0J-135000D01*
G01*
X149160000Y-91185000D01*
G75*
G02*
X149025000Y-91320000I-135000J0D01*
G01*
X148755000Y-91320000D01*
G75*
G02*
X148620000Y-91185000I0J135000D01*
G01*
G37*
%TD*%
%TO.C,R29*%
G36*
G01*
X169560000Y-91815000D02*
X169560000Y-92185000D01*
G75*
G02*
X169425000Y-92320000I-135000J0D01*
G01*
X169155000Y-92320000D01*
G75*
G02*
X169020000Y-92185000I0J135000D01*
G01*
X169020000Y-91815000D01*
G75*
G02*
X169155000Y-91680000I135000J0D01*
G01*
X169425000Y-91680000D01*
G75*
G02*
X169560000Y-91815000I0J-135000D01*
G01*
G37*
G36*
G01*
X170580000Y-91815000D02*
X170580000Y-92185000D01*
G75*
G02*
X170445000Y-92320000I-135000J0D01*
G01*
X170175000Y-92320000D01*
G75*
G02*
X170040000Y-92185000I0J135000D01*
G01*
X170040000Y-91815000D01*
G75*
G02*
X170175000Y-91680000I135000J0D01*
G01*
X170445000Y-91680000D01*
G75*
G02*
X170580000Y-91815000I0J-135000D01*
G01*
G37*
%TD*%
%TO.C,R28*%
G36*
G01*
X160840000Y-92185000D02*
X160840000Y-91815000D01*
G75*
G02*
X160975000Y-91680000I135000J0D01*
G01*
X161245000Y-91680000D01*
G75*
G02*
X161380000Y-91815000I0J-135000D01*
G01*
X161380000Y-92185000D01*
G75*
G02*
X161245000Y-92320000I-135000J0D01*
G01*
X160975000Y-92320000D01*
G75*
G02*
X160840000Y-92185000I0J135000D01*
G01*
G37*
G36*
G01*
X159820000Y-92185000D02*
X159820000Y-91815000D01*
G75*
G02*
X159955000Y-91680000I135000J0D01*
G01*
X160225000Y-91680000D01*
G75*
G02*
X160360000Y-91815000I0J-135000D01*
G01*
X160360000Y-92185000D01*
G75*
G02*
X160225000Y-92320000I-135000J0D01*
G01*
X159955000Y-92320000D01*
G75*
G02*
X159820000Y-92185000I0J135000D01*
G01*
G37*
%TD*%
%TO.C,R27*%
G36*
G01*
X153215000Y-92440000D02*
X153585000Y-92440000D01*
G75*
G02*
X153720000Y-92575000I0J-135000D01*
G01*
X153720000Y-92845000D01*
G75*
G02*
X153585000Y-92980000I-135000J0D01*
G01*
X153215000Y-92980000D01*
G75*
G02*
X153080000Y-92845000I0J135000D01*
G01*
X153080000Y-92575000D01*
G75*
G02*
X153215000Y-92440000I135000J0D01*
G01*
G37*
G36*
G01*
X153215000Y-91420000D02*
X153585000Y-91420000D01*
G75*
G02*
X153720000Y-91555000I0J-135000D01*
G01*
X153720000Y-91825000D01*
G75*
G02*
X153585000Y-91960000I-135000J0D01*
G01*
X153215000Y-91960000D01*
G75*
G02*
X153080000Y-91825000I0J135000D01*
G01*
X153080000Y-91555000D01*
G75*
G02*
X153215000Y-91420000I135000J0D01*
G01*
G37*
%TD*%
%TO.C,R26*%
G36*
G01*
X145615000Y-92840000D02*
X145985000Y-92840000D01*
G75*
G02*
X146120000Y-92975000I0J-135000D01*
G01*
X146120000Y-93245000D01*
G75*
G02*
X145985000Y-93380000I-135000J0D01*
G01*
X145615000Y-93380000D01*
G75*
G02*
X145480000Y-93245000I0J135000D01*
G01*
X145480000Y-92975000D01*
G75*
G02*
X145615000Y-92840000I135000J0D01*
G01*
G37*
G36*
G01*
X145615000Y-91820000D02*
X145985000Y-91820000D01*
G75*
G02*
X146120000Y-91955000I0J-135000D01*
G01*
X146120000Y-92225000D01*
G75*
G02*
X145985000Y-92360000I-135000J0D01*
G01*
X145615000Y-92360000D01*
G75*
G02*
X145480000Y-92225000I0J135000D01*
G01*
X145480000Y-91955000D01*
G75*
G02*
X145615000Y-91820000I135000J0D01*
G01*
G37*
%TD*%
%TO.C,R25*%
G36*
G01*
X139985000Y-92360000D02*
X139615000Y-92360000D01*
G75*
G02*
X139480000Y-92225000I0J135000D01*
G01*
X139480000Y-91955000D01*
G75*
G02*
X139615000Y-91820000I135000J0D01*
G01*
X139985000Y-91820000D01*
G75*
G02*
X140120000Y-91955000I0J-135000D01*
G01*
X140120000Y-92225000D01*
G75*
G02*
X139985000Y-92360000I-135000J0D01*
G01*
G37*
G36*
G01*
X139985000Y-93380000D02*
X139615000Y-93380000D01*
G75*
G02*
X139480000Y-93245000I0J135000D01*
G01*
X139480000Y-92975000D01*
G75*
G02*
X139615000Y-92840000I135000J0D01*
G01*
X139985000Y-92840000D01*
G75*
G02*
X140120000Y-92975000I0J-135000D01*
G01*
X140120000Y-93245000D01*
G75*
G02*
X139985000Y-93380000I-135000J0D01*
G01*
G37*
%TD*%
%TO.C,R24*%
G36*
G01*
X160840000Y-91185000D02*
X160840000Y-90815000D01*
G75*
G02*
X160975000Y-90680000I135000J0D01*
G01*
X161245000Y-90680000D01*
G75*
G02*
X161380000Y-90815000I0J-135000D01*
G01*
X161380000Y-91185000D01*
G75*
G02*
X161245000Y-91320000I-135000J0D01*
G01*
X160975000Y-91320000D01*
G75*
G02*
X160840000Y-91185000I0J135000D01*
G01*
G37*
G36*
G01*
X159820000Y-91185000D02*
X159820000Y-90815000D01*
G75*
G02*
X159955000Y-90680000I135000J0D01*
G01*
X160225000Y-90680000D01*
G75*
G02*
X160360000Y-90815000I0J-135000D01*
G01*
X160360000Y-91185000D01*
G75*
G02*
X160225000Y-91320000I-135000J0D01*
G01*
X159955000Y-91320000D01*
G75*
G02*
X159820000Y-91185000I0J135000D01*
G01*
G37*
%TD*%
%TO.C,R23*%
G36*
G01*
X147160000Y-91815000D02*
X147160000Y-92185000D01*
G75*
G02*
X147025000Y-92320000I-135000J0D01*
G01*
X146755000Y-92320000D01*
G75*
G02*
X146620000Y-92185000I0J135000D01*
G01*
X146620000Y-91815000D01*
G75*
G02*
X146755000Y-91680000I135000J0D01*
G01*
X147025000Y-91680000D01*
G75*
G02*
X147160000Y-91815000I0J-135000D01*
G01*
G37*
G36*
G01*
X148180000Y-91815000D02*
X148180000Y-92185000D01*
G75*
G02*
X148045000Y-92320000I-135000J0D01*
G01*
X147775000Y-92320000D01*
G75*
G02*
X147640000Y-92185000I0J135000D01*
G01*
X147640000Y-91815000D01*
G75*
G02*
X147775000Y-91680000I135000J0D01*
G01*
X148045000Y-91680000D01*
G75*
G02*
X148180000Y-91815000I0J-135000D01*
G01*
G37*
%TD*%
%TO.C,R22*%
G36*
G01*
X138440000Y-92185000D02*
X138440000Y-91815000D01*
G75*
G02*
X138575000Y-91680000I135000J0D01*
G01*
X138845000Y-91680000D01*
G75*
G02*
X138980000Y-91815000I0J-135000D01*
G01*
X138980000Y-92185000D01*
G75*
G02*
X138845000Y-92320000I-135000J0D01*
G01*
X138575000Y-92320000D01*
G75*
G02*
X138440000Y-92185000I0J135000D01*
G01*
G37*
G36*
G01*
X137420000Y-92185000D02*
X137420000Y-91815000D01*
G75*
G02*
X137555000Y-91680000I135000J0D01*
G01*
X137825000Y-91680000D01*
G75*
G02*
X137960000Y-91815000I0J-135000D01*
G01*
X137960000Y-92185000D01*
G75*
G02*
X137825000Y-92320000I-135000J0D01*
G01*
X137555000Y-92320000D01*
G75*
G02*
X137420000Y-92185000I0J135000D01*
G01*
G37*
%TD*%
%TO.C,R21*%
G36*
G01*
X164615000Y-92240000D02*
X164985000Y-92240000D01*
G75*
G02*
X165120000Y-92375000I0J-135000D01*
G01*
X165120000Y-92645000D01*
G75*
G02*
X164985000Y-92780000I-135000J0D01*
G01*
X164615000Y-92780000D01*
G75*
G02*
X164480000Y-92645000I0J135000D01*
G01*
X164480000Y-92375000D01*
G75*
G02*
X164615000Y-92240000I135000J0D01*
G01*
G37*
G36*
G01*
X164615000Y-91220000D02*
X164985000Y-91220000D01*
G75*
G02*
X165120000Y-91355000I0J-135000D01*
G01*
X165120000Y-91625000D01*
G75*
G02*
X164985000Y-91760000I-135000J0D01*
G01*
X164615000Y-91760000D01*
G75*
G02*
X164480000Y-91625000I0J135000D01*
G01*
X164480000Y-91355000D01*
G75*
G02*
X164615000Y-91220000I135000J0D01*
G01*
G37*
%TD*%
%TO.C,R20*%
G36*
G01*
X172040000Y-91185000D02*
X172040000Y-90815000D01*
G75*
G02*
X172175000Y-90680000I135000J0D01*
G01*
X172445000Y-90680000D01*
G75*
G02*
X172580000Y-90815000I0J-135000D01*
G01*
X172580000Y-91185000D01*
G75*
G02*
X172445000Y-91320000I-135000J0D01*
G01*
X172175000Y-91320000D01*
G75*
G02*
X172040000Y-91185000I0J135000D01*
G01*
G37*
G36*
G01*
X171020000Y-91185000D02*
X171020000Y-90815000D01*
G75*
G02*
X171155000Y-90680000I135000J0D01*
G01*
X171425000Y-90680000D01*
G75*
G02*
X171560000Y-90815000I0J-135000D01*
G01*
X171560000Y-91185000D01*
G75*
G02*
X171425000Y-91320000I-135000J0D01*
G01*
X171155000Y-91320000D01*
G75*
G02*
X171020000Y-91185000I0J135000D01*
G01*
G37*
%TD*%
%TO.C,R19*%
G36*
G01*
X156815000Y-92840000D02*
X157185000Y-92840000D01*
G75*
G02*
X157320000Y-92975000I0J-135000D01*
G01*
X157320000Y-93245000D01*
G75*
G02*
X157185000Y-93380000I-135000J0D01*
G01*
X156815000Y-93380000D01*
G75*
G02*
X156680000Y-93245000I0J135000D01*
G01*
X156680000Y-92975000D01*
G75*
G02*
X156815000Y-92840000I135000J0D01*
G01*
G37*
G36*
G01*
X156815000Y-91820000D02*
X157185000Y-91820000D01*
G75*
G02*
X157320000Y-91955000I0J-135000D01*
G01*
X157320000Y-92225000D01*
G75*
G02*
X157185000Y-92360000I-135000J0D01*
G01*
X156815000Y-92360000D01*
G75*
G02*
X156680000Y-92225000I0J135000D01*
G01*
X156680000Y-91955000D01*
G75*
G02*
X156815000Y-91820000I135000J0D01*
G01*
G37*
%TD*%
%TO.C,R18*%
G36*
G01*
X151185000Y-92360000D02*
X150815000Y-92360000D01*
G75*
G02*
X150680000Y-92225000I0J135000D01*
G01*
X150680000Y-91955000D01*
G75*
G02*
X150815000Y-91820000I135000J0D01*
G01*
X151185000Y-91820000D01*
G75*
G02*
X151320000Y-91955000I0J-135000D01*
G01*
X151320000Y-92225000D01*
G75*
G02*
X151185000Y-92360000I-135000J0D01*
G01*
G37*
G36*
G01*
X151185000Y-93380000D02*
X150815000Y-93380000D01*
G75*
G02*
X150680000Y-93245000I0J135000D01*
G01*
X150680000Y-92975000D01*
G75*
G02*
X150815000Y-92840000I135000J0D01*
G01*
X151185000Y-92840000D01*
G75*
G02*
X151320000Y-92975000I0J-135000D01*
G01*
X151320000Y-93245000D01*
G75*
G02*
X151185000Y-93380000I-135000J0D01*
G01*
G37*
%TD*%
%TO.C,R17*%
G36*
G01*
X158360000Y-91815000D02*
X158360000Y-92185000D01*
G75*
G02*
X158225000Y-92320000I-135000J0D01*
G01*
X157955000Y-92320000D01*
G75*
G02*
X157820000Y-92185000I0J135000D01*
G01*
X157820000Y-91815000D01*
G75*
G02*
X157955000Y-91680000I135000J0D01*
G01*
X158225000Y-91680000D01*
G75*
G02*
X158360000Y-91815000I0J-135000D01*
G01*
G37*
G36*
G01*
X159380000Y-91815000D02*
X159380000Y-92185000D01*
G75*
G02*
X159245000Y-92320000I-135000J0D01*
G01*
X158975000Y-92320000D01*
G75*
G02*
X158840000Y-92185000I0J135000D01*
G01*
X158840000Y-91815000D01*
G75*
G02*
X158975000Y-91680000I135000J0D01*
G01*
X159245000Y-91680000D01*
G75*
G02*
X159380000Y-91815000I0J-135000D01*
G01*
G37*
%TD*%
%TO.C,R16*%
G36*
G01*
X175815000Y-92240000D02*
X176185000Y-92240000D01*
G75*
G02*
X176320000Y-92375000I0J-135000D01*
G01*
X176320000Y-92645000D01*
G75*
G02*
X176185000Y-92780000I-135000J0D01*
G01*
X175815000Y-92780000D01*
G75*
G02*
X175680000Y-92645000I0J135000D01*
G01*
X175680000Y-92375000D01*
G75*
G02*
X175815000Y-92240000I135000J0D01*
G01*
G37*
G36*
G01*
X175815000Y-91220000D02*
X176185000Y-91220000D01*
G75*
G02*
X176320000Y-91355000I0J-135000D01*
G01*
X176320000Y-91625000D01*
G75*
G02*
X176185000Y-91760000I-135000J0D01*
G01*
X175815000Y-91760000D01*
G75*
G02*
X175680000Y-91625000I0J135000D01*
G01*
X175680000Y-91355000D01*
G75*
G02*
X175815000Y-91220000I135000J0D01*
G01*
G37*
%TD*%
%TO.C,R15*%
G36*
G01*
X149640000Y-92185000D02*
X149640000Y-91815000D01*
G75*
G02*
X149775000Y-91680000I135000J0D01*
G01*
X150045000Y-91680000D01*
G75*
G02*
X150180000Y-91815000I0J-135000D01*
G01*
X150180000Y-92185000D01*
G75*
G02*
X150045000Y-92320000I-135000J0D01*
G01*
X149775000Y-92320000D01*
G75*
G02*
X149640000Y-92185000I0J135000D01*
G01*
G37*
G36*
G01*
X148620000Y-92185000D02*
X148620000Y-91815000D01*
G75*
G02*
X148755000Y-91680000I135000J0D01*
G01*
X149025000Y-91680000D01*
G75*
G02*
X149160000Y-91815000I0J-135000D01*
G01*
X149160000Y-92185000D01*
G75*
G02*
X149025000Y-92320000I-135000J0D01*
G01*
X148755000Y-92320000D01*
G75*
G02*
X148620000Y-92185000I0J135000D01*
G01*
G37*
%TD*%
%TO.C,R14*%
G36*
G01*
X123360000Y-99715000D02*
X123360000Y-100085000D01*
G75*
G02*
X123225000Y-100220000I-135000J0D01*
G01*
X122955000Y-100220000D01*
G75*
G02*
X122820000Y-100085000I0J135000D01*
G01*
X122820000Y-99715000D01*
G75*
G02*
X122955000Y-99580000I135000J0D01*
G01*
X123225000Y-99580000D01*
G75*
G02*
X123360000Y-99715000I0J-135000D01*
G01*
G37*
G36*
G01*
X124380000Y-99715000D02*
X124380000Y-100085000D01*
G75*
G02*
X124245000Y-100220000I-135000J0D01*
G01*
X123975000Y-100220000D01*
G75*
G02*
X123840000Y-100085000I0J135000D01*
G01*
X123840000Y-99715000D01*
G75*
G02*
X123975000Y-99580000I135000J0D01*
G01*
X124245000Y-99580000D01*
G75*
G02*
X124380000Y-99715000I0J-135000D01*
G01*
G37*
%TD*%
%TO.C,R13*%
G36*
G01*
X123360000Y-91715000D02*
X123360000Y-92085000D01*
G75*
G02*
X123225000Y-92220000I-135000J0D01*
G01*
X122955000Y-92220000D01*
G75*
G02*
X122820000Y-92085000I0J135000D01*
G01*
X122820000Y-91715000D01*
G75*
G02*
X122955000Y-91580000I135000J0D01*
G01*
X123225000Y-91580000D01*
G75*
G02*
X123360000Y-91715000I0J-135000D01*
G01*
G37*
G36*
G01*
X124380000Y-91715000D02*
X124380000Y-92085000D01*
G75*
G02*
X124245000Y-92220000I-135000J0D01*
G01*
X123975000Y-92220000D01*
G75*
G02*
X123840000Y-92085000I0J135000D01*
G01*
X123840000Y-91715000D01*
G75*
G02*
X123975000Y-91580000I135000J0D01*
G01*
X124245000Y-91580000D01*
G75*
G02*
X124380000Y-91715000I0J-135000D01*
G01*
G37*
%TD*%
%TO.C,R12*%
G36*
G01*
X120815000Y-99640000D02*
X121185000Y-99640000D01*
G75*
G02*
X121320000Y-99775000I0J-135000D01*
G01*
X121320000Y-100045000D01*
G75*
G02*
X121185000Y-100180000I-135000J0D01*
G01*
X120815000Y-100180000D01*
G75*
G02*
X120680000Y-100045000I0J135000D01*
G01*
X120680000Y-99775000D01*
G75*
G02*
X120815000Y-99640000I135000J0D01*
G01*
G37*
G36*
G01*
X120815000Y-98620000D02*
X121185000Y-98620000D01*
G75*
G02*
X121320000Y-98755000I0J-135000D01*
G01*
X121320000Y-99025000D01*
G75*
G02*
X121185000Y-99160000I-135000J0D01*
G01*
X120815000Y-99160000D01*
G75*
G02*
X120680000Y-99025000I0J135000D01*
G01*
X120680000Y-98755000D01*
G75*
G02*
X120815000Y-98620000I135000J0D01*
G01*
G37*
%TD*%
%TO.C,R10*%
G36*
G01*
X121815000Y-103640000D02*
X122185000Y-103640000D01*
G75*
G02*
X122320000Y-103775000I0J-135000D01*
G01*
X122320000Y-104045000D01*
G75*
G02*
X122185000Y-104180000I-135000J0D01*
G01*
X121815000Y-104180000D01*
G75*
G02*
X121680000Y-104045000I0J135000D01*
G01*
X121680000Y-103775000D01*
G75*
G02*
X121815000Y-103640000I135000J0D01*
G01*
G37*
G36*
G01*
X121815000Y-102620000D02*
X122185000Y-102620000D01*
G75*
G02*
X122320000Y-102755000I0J-135000D01*
G01*
X122320000Y-103025000D01*
G75*
G02*
X122185000Y-103160000I-135000J0D01*
G01*
X121815000Y-103160000D01*
G75*
G02*
X121680000Y-103025000I0J135000D01*
G01*
X121680000Y-102755000D01*
G75*
G02*
X121815000Y-102620000I135000J0D01*
G01*
G37*
%TD*%
%TO.C,R9*%
G36*
G01*
X120815000Y-101640000D02*
X121185000Y-101640000D01*
G75*
G02*
X121320000Y-101775000I0J-135000D01*
G01*
X121320000Y-102045000D01*
G75*
G02*
X121185000Y-102180000I-135000J0D01*
G01*
X120815000Y-102180000D01*
G75*
G02*
X120680000Y-102045000I0J135000D01*
G01*
X120680000Y-101775000D01*
G75*
G02*
X120815000Y-101640000I135000J0D01*
G01*
G37*
G36*
G01*
X120815000Y-100620000D02*
X121185000Y-100620000D01*
G75*
G02*
X121320000Y-100755000I0J-135000D01*
G01*
X121320000Y-101025000D01*
G75*
G02*
X121185000Y-101160000I-135000J0D01*
G01*
X120815000Y-101160000D01*
G75*
G02*
X120680000Y-101025000I0J135000D01*
G01*
X120680000Y-100755000D01*
G75*
G02*
X120815000Y-100620000I135000J0D01*
G01*
G37*
%TD*%
%TO.C,R8*%
G36*
G01*
X120815000Y-95640000D02*
X121185000Y-95640000D01*
G75*
G02*
X121320000Y-95775000I0J-135000D01*
G01*
X121320000Y-96045000D01*
G75*
G02*
X121185000Y-96180000I-135000J0D01*
G01*
X120815000Y-96180000D01*
G75*
G02*
X120680000Y-96045000I0J135000D01*
G01*
X120680000Y-95775000D01*
G75*
G02*
X120815000Y-95640000I135000J0D01*
G01*
G37*
G36*
G01*
X120815000Y-94620000D02*
X121185000Y-94620000D01*
G75*
G02*
X121320000Y-94755000I0J-135000D01*
G01*
X121320000Y-95025000D01*
G75*
G02*
X121185000Y-95160000I-135000J0D01*
G01*
X120815000Y-95160000D01*
G75*
G02*
X120680000Y-95025000I0J135000D01*
G01*
X120680000Y-94755000D01*
G75*
G02*
X120815000Y-94620000I135000J0D01*
G01*
G37*
%TD*%
%TO.C,R7*%
G36*
G01*
X120815000Y-93640000D02*
X121185000Y-93640000D01*
G75*
G02*
X121320000Y-93775000I0J-135000D01*
G01*
X121320000Y-94045000D01*
G75*
G02*
X121185000Y-94180000I-135000J0D01*
G01*
X120815000Y-94180000D01*
G75*
G02*
X120680000Y-94045000I0J135000D01*
G01*
X120680000Y-93775000D01*
G75*
G02*
X120815000Y-93640000I135000J0D01*
G01*
G37*
G36*
G01*
X120815000Y-92620000D02*
X121185000Y-92620000D01*
G75*
G02*
X121320000Y-92755000I0J-135000D01*
G01*
X121320000Y-93025000D01*
G75*
G02*
X121185000Y-93160000I-135000J0D01*
G01*
X120815000Y-93160000D01*
G75*
G02*
X120680000Y-93025000I0J135000D01*
G01*
X120680000Y-92755000D01*
G75*
G02*
X120815000Y-92620000I135000J0D01*
G01*
G37*
%TD*%
%TO.C,R6*%
G36*
G01*
X123840000Y-103185000D02*
X123840000Y-102815000D01*
G75*
G02*
X123975000Y-102680000I135000J0D01*
G01*
X124245000Y-102680000D01*
G75*
G02*
X124380000Y-102815000I0J-135000D01*
G01*
X124380000Y-103185000D01*
G75*
G02*
X124245000Y-103320000I-135000J0D01*
G01*
X123975000Y-103320000D01*
G75*
G02*
X123840000Y-103185000I0J135000D01*
G01*
G37*
G36*
G01*
X122820000Y-103185000D02*
X122820000Y-102815000D01*
G75*
G02*
X122955000Y-102680000I135000J0D01*
G01*
X123225000Y-102680000D01*
G75*
G02*
X123360000Y-102815000I0J-135000D01*
G01*
X123360000Y-103185000D01*
G75*
G02*
X123225000Y-103320000I-135000J0D01*
G01*
X122955000Y-103320000D01*
G75*
G02*
X122820000Y-103185000I0J135000D01*
G01*
G37*
%TD*%
%TO.C,R5*%
G36*
G01*
X123840000Y-102085000D02*
X123840000Y-101715000D01*
G75*
G02*
X123975000Y-101580000I135000J0D01*
G01*
X124245000Y-101580000D01*
G75*
G02*
X124380000Y-101715000I0J-135000D01*
G01*
X124380000Y-102085000D01*
G75*
G02*
X124245000Y-102220000I-135000J0D01*
G01*
X123975000Y-102220000D01*
G75*
G02*
X123840000Y-102085000I0J135000D01*
G01*
G37*
G36*
G01*
X122820000Y-102085000D02*
X122820000Y-101715000D01*
G75*
G02*
X122955000Y-101580000I135000J0D01*
G01*
X123225000Y-101580000D01*
G75*
G02*
X123360000Y-101715000I0J-135000D01*
G01*
X123360000Y-102085000D01*
G75*
G02*
X123225000Y-102220000I-135000J0D01*
G01*
X122955000Y-102220000D01*
G75*
G02*
X122820000Y-102085000I0J135000D01*
G01*
G37*
%TD*%
%TO.C,R4*%
G36*
G01*
X123840000Y-94985000D02*
X123840000Y-94615000D01*
G75*
G02*
X123975000Y-94480000I135000J0D01*
G01*
X124245000Y-94480000D01*
G75*
G02*
X124380000Y-94615000I0J-135000D01*
G01*
X124380000Y-94985000D01*
G75*
G02*
X124245000Y-95120000I-135000J0D01*
G01*
X123975000Y-95120000D01*
G75*
G02*
X123840000Y-94985000I0J135000D01*
G01*
G37*
G36*
G01*
X122820000Y-94985000D02*
X122820000Y-94615000D01*
G75*
G02*
X122955000Y-94480000I135000J0D01*
G01*
X123225000Y-94480000D01*
G75*
G02*
X123360000Y-94615000I0J-135000D01*
G01*
X123360000Y-94985000D01*
G75*
G02*
X123225000Y-95120000I-135000J0D01*
G01*
X122955000Y-95120000D01*
G75*
G02*
X122820000Y-94985000I0J135000D01*
G01*
G37*
%TD*%
%TO.C,R3*%
G36*
G01*
X123840000Y-93885000D02*
X123840000Y-93515000D01*
G75*
G02*
X123975000Y-93380000I135000J0D01*
G01*
X124245000Y-93380000D01*
G75*
G02*
X124380000Y-93515000I0J-135000D01*
G01*
X124380000Y-93885000D01*
G75*
G02*
X124245000Y-94020000I-135000J0D01*
G01*
X123975000Y-94020000D01*
G75*
G02*
X123840000Y-93885000I0J135000D01*
G01*
G37*
G36*
G01*
X122820000Y-93885000D02*
X122820000Y-93515000D01*
G75*
G02*
X122955000Y-93380000I135000J0D01*
G01*
X123225000Y-93380000D01*
G75*
G02*
X123360000Y-93515000I0J-135000D01*
G01*
X123360000Y-93885000D01*
G75*
G02*
X123225000Y-94020000I-135000J0D01*
G01*
X122955000Y-94020000D01*
G75*
G02*
X122820000Y-93885000I0J135000D01*
G01*
G37*
%TD*%
%TO.C,R2*%
G36*
G01*
X185840000Y-98085000D02*
X185840000Y-97715000D01*
G75*
G02*
X185975000Y-97580000I135000J0D01*
G01*
X186245000Y-97580000D01*
G75*
G02*
X186380000Y-97715000I0J-135000D01*
G01*
X186380000Y-98085000D01*
G75*
G02*
X186245000Y-98220000I-135000J0D01*
G01*
X185975000Y-98220000D01*
G75*
G02*
X185840000Y-98085000I0J135000D01*
G01*
G37*
G36*
G01*
X184820000Y-98085000D02*
X184820000Y-97715000D01*
G75*
G02*
X184955000Y-97580000I135000J0D01*
G01*
X185225000Y-97580000D01*
G75*
G02*
X185360000Y-97715000I0J-135000D01*
G01*
X185360000Y-98085000D01*
G75*
G02*
X185225000Y-98220000I-135000J0D01*
G01*
X184955000Y-98220000D01*
G75*
G02*
X184820000Y-98085000I0J135000D01*
G01*
G37*
%TD*%
%TO.C,R1*%
G36*
G01*
X130660000Y-104115000D02*
X130660000Y-104485000D01*
G75*
G02*
X130525000Y-104620000I-135000J0D01*
G01*
X130255000Y-104620000D01*
G75*
G02*
X130120000Y-104485000I0J135000D01*
G01*
X130120000Y-104115000D01*
G75*
G02*
X130255000Y-103980000I135000J0D01*
G01*
X130525000Y-103980000D01*
G75*
G02*
X130660000Y-104115000I0J-135000D01*
G01*
G37*
G36*
G01*
X131680000Y-104115000D02*
X131680000Y-104485000D01*
G75*
G02*
X131545000Y-104620000I-135000J0D01*
G01*
X131275000Y-104620000D01*
G75*
G02*
X131140000Y-104485000I0J135000D01*
G01*
X131140000Y-104115000D01*
G75*
G02*
X131275000Y-103980000I135000J0D01*
G01*
X131545000Y-103980000D01*
G75*
G02*
X131680000Y-104115000I0J-135000D01*
G01*
G37*
%TD*%
D22*
%TO.C,Q1*%
X206000000Y-118900000D03*
X208000000Y-117950000D03*
X208000000Y-119850000D03*
%TD*%
%TO.C,J13*%
G36*
G01*
X172800000Y-80950000D02*
X172800000Y-83850000D01*
G75*
G02*
X172550000Y-84100000I-250000J0D01*
G01*
X171550000Y-84100000D01*
G75*
G02*
X171300000Y-83850000I0J250000D01*
G01*
X171300000Y-80950000D01*
G75*
G02*
X171550000Y-80700000I250000J0D01*
G01*
X172550000Y-80700000D01*
G75*
G02*
X172800000Y-80950000I0J-250000D01*
G01*
G37*
G36*
G01*
X181500000Y-80950000D02*
X181500000Y-83850000D01*
G75*
G02*
X181250000Y-84100000I-250000J0D01*
G01*
X180250000Y-84100000D01*
G75*
G02*
X180000000Y-83850000I0J250000D01*
G01*
X180000000Y-80950000D01*
G75*
G02*
X180250000Y-80700000I250000J0D01*
G01*
X181250000Y-80700000D01*
G75*
G02*
X181500000Y-80950000I0J-250000D01*
G01*
G37*
G36*
G01*
X174900000Y-86650000D02*
X174900000Y-89650000D01*
G75*
G02*
X174650000Y-89900000I-250000J0D01*
G01*
X174150000Y-89900000D01*
G75*
G02*
X173900000Y-89650000I0J250000D01*
G01*
X173900000Y-86650000D01*
G75*
G02*
X174150000Y-86400000I250000J0D01*
G01*
X174650000Y-86400000D01*
G75*
G02*
X174900000Y-86650000I0J-250000D01*
G01*
G37*
G36*
G01*
X176900000Y-86650000D02*
X176900000Y-89650000D01*
G75*
G02*
X176650000Y-89900000I-250000J0D01*
G01*
X176150000Y-89900000D01*
G75*
G02*
X175900000Y-89650000I0J250000D01*
G01*
X175900000Y-86650000D01*
G75*
G02*
X176150000Y-86400000I250000J0D01*
G01*
X176650000Y-86400000D01*
G75*
G02*
X176900000Y-86650000I0J-250000D01*
G01*
G37*
G36*
G01*
X178900000Y-86650000D02*
X178900000Y-89650000D01*
G75*
G02*
X178650000Y-89900000I-250000J0D01*
G01*
X178150000Y-89900000D01*
G75*
G02*
X177900000Y-89650000I0J250000D01*
G01*
X177900000Y-86650000D01*
G75*
G02*
X178150000Y-86400000I250000J0D01*
G01*
X178650000Y-86400000D01*
G75*
G02*
X178900000Y-86650000I0J-250000D01*
G01*
G37*
%TD*%
%TO.C,J11*%
G36*
G01*
X161600000Y-80950000D02*
X161600000Y-83850000D01*
G75*
G02*
X161350000Y-84100000I-250000J0D01*
G01*
X160350000Y-84100000D01*
G75*
G02*
X160100000Y-83850000I0J250000D01*
G01*
X160100000Y-80950000D01*
G75*
G02*
X160350000Y-80700000I250000J0D01*
G01*
X161350000Y-80700000D01*
G75*
G02*
X161600000Y-80950000I0J-250000D01*
G01*
G37*
G36*
G01*
X170300000Y-80950000D02*
X170300000Y-83850000D01*
G75*
G02*
X170050000Y-84100000I-250000J0D01*
G01*
X169050000Y-84100000D01*
G75*
G02*
X168800000Y-83850000I0J250000D01*
G01*
X168800000Y-80950000D01*
G75*
G02*
X169050000Y-80700000I250000J0D01*
G01*
X170050000Y-80700000D01*
G75*
G02*
X170300000Y-80950000I0J-250000D01*
G01*
G37*
G36*
G01*
X163700000Y-86650000D02*
X163700000Y-89650000D01*
G75*
G02*
X163450000Y-89900000I-250000J0D01*
G01*
X162950000Y-89900000D01*
G75*
G02*
X162700000Y-89650000I0J250000D01*
G01*
X162700000Y-86650000D01*
G75*
G02*
X162950000Y-86400000I250000J0D01*
G01*
X163450000Y-86400000D01*
G75*
G02*
X163700000Y-86650000I0J-250000D01*
G01*
G37*
G36*
G01*
X165700000Y-86650000D02*
X165700000Y-89650000D01*
G75*
G02*
X165450000Y-89900000I-250000J0D01*
G01*
X164950000Y-89900000D01*
G75*
G02*
X164700000Y-89650000I0J250000D01*
G01*
X164700000Y-86650000D01*
G75*
G02*
X164950000Y-86400000I250000J0D01*
G01*
X165450000Y-86400000D01*
G75*
G02*
X165700000Y-86650000I0J-250000D01*
G01*
G37*
G36*
G01*
X167700000Y-86650000D02*
X167700000Y-89650000D01*
G75*
G02*
X167450000Y-89900000I-250000J0D01*
G01*
X166950000Y-89900000D01*
G75*
G02*
X166700000Y-89650000I0J250000D01*
G01*
X166700000Y-86650000D01*
G75*
G02*
X166950000Y-86400000I250000J0D01*
G01*
X167450000Y-86400000D01*
G75*
G02*
X167700000Y-86650000I0J-250000D01*
G01*
G37*
%TD*%
%TO.C,J9*%
G36*
G01*
X139200000Y-80950000D02*
X139200000Y-83850000D01*
G75*
G02*
X138950000Y-84100000I-250000J0D01*
G01*
X137950000Y-84100000D01*
G75*
G02*
X137700000Y-83850000I0J250000D01*
G01*
X137700000Y-80950000D01*
G75*
G02*
X137950000Y-80700000I250000J0D01*
G01*
X138950000Y-80700000D01*
G75*
G02*
X139200000Y-80950000I0J-250000D01*
G01*
G37*
G36*
G01*
X147900000Y-80950000D02*
X147900000Y-83850000D01*
G75*
G02*
X147650000Y-84100000I-250000J0D01*
G01*
X146650000Y-84100000D01*
G75*
G02*
X146400000Y-83850000I0J250000D01*
G01*
X146400000Y-80950000D01*
G75*
G02*
X146650000Y-80700000I250000J0D01*
G01*
X147650000Y-80700000D01*
G75*
G02*
X147900000Y-80950000I0J-250000D01*
G01*
G37*
G36*
G01*
X141300000Y-86650000D02*
X141300000Y-89650000D01*
G75*
G02*
X141050000Y-89900000I-250000J0D01*
G01*
X140550000Y-89900000D01*
G75*
G02*
X140300000Y-89650000I0J250000D01*
G01*
X140300000Y-86650000D01*
G75*
G02*
X140550000Y-86400000I250000J0D01*
G01*
X141050000Y-86400000D01*
G75*
G02*
X141300000Y-86650000I0J-250000D01*
G01*
G37*
G36*
G01*
X143300000Y-86650000D02*
X143300000Y-89650000D01*
G75*
G02*
X143050000Y-89900000I-250000J0D01*
G01*
X142550000Y-89900000D01*
G75*
G02*
X142300000Y-89650000I0J250000D01*
G01*
X142300000Y-86650000D01*
G75*
G02*
X142550000Y-86400000I250000J0D01*
G01*
X143050000Y-86400000D01*
G75*
G02*
X143300000Y-86650000I0J-250000D01*
G01*
G37*
G36*
G01*
X145300000Y-86650000D02*
X145300000Y-89650000D01*
G75*
G02*
X145050000Y-89900000I-250000J0D01*
G01*
X144550000Y-89900000D01*
G75*
G02*
X144300000Y-89650000I0J250000D01*
G01*
X144300000Y-86650000D01*
G75*
G02*
X144550000Y-86400000I250000J0D01*
G01*
X145050000Y-86400000D01*
G75*
G02*
X145300000Y-86650000I0J-250000D01*
G01*
G37*
%TD*%
%TO.C,J7*%
G36*
G01*
X150400000Y-80950000D02*
X150400000Y-83850000D01*
G75*
G02*
X150150000Y-84100000I-250000J0D01*
G01*
X149150000Y-84100000D01*
G75*
G02*
X148900000Y-83850000I0J250000D01*
G01*
X148900000Y-80950000D01*
G75*
G02*
X149150000Y-80700000I250000J0D01*
G01*
X150150000Y-80700000D01*
G75*
G02*
X150400000Y-80950000I0J-250000D01*
G01*
G37*
G36*
G01*
X159100000Y-80950000D02*
X159100000Y-83850000D01*
G75*
G02*
X158850000Y-84100000I-250000J0D01*
G01*
X157850000Y-84100000D01*
G75*
G02*
X157600000Y-83850000I0J250000D01*
G01*
X157600000Y-80950000D01*
G75*
G02*
X157850000Y-80700000I250000J0D01*
G01*
X158850000Y-80700000D01*
G75*
G02*
X159100000Y-80950000I0J-250000D01*
G01*
G37*
G36*
G01*
X152500000Y-86650000D02*
X152500000Y-89650000D01*
G75*
G02*
X152250000Y-89900000I-250000J0D01*
G01*
X151750000Y-89900000D01*
G75*
G02*
X151500000Y-89650000I0J250000D01*
G01*
X151500000Y-86650000D01*
G75*
G02*
X151750000Y-86400000I250000J0D01*
G01*
X152250000Y-86400000D01*
G75*
G02*
X152500000Y-86650000I0J-250000D01*
G01*
G37*
G36*
G01*
X154500000Y-86650000D02*
X154500000Y-89650000D01*
G75*
G02*
X154250000Y-89900000I-250000J0D01*
G01*
X153750000Y-89900000D01*
G75*
G02*
X153500000Y-89650000I0J250000D01*
G01*
X153500000Y-86650000D01*
G75*
G02*
X153750000Y-86400000I250000J0D01*
G01*
X154250000Y-86400000D01*
G75*
G02*
X154500000Y-86650000I0J-250000D01*
G01*
G37*
G36*
G01*
X156500000Y-86650000D02*
X156500000Y-89650000D01*
G75*
G02*
X156250000Y-89900000I-250000J0D01*
G01*
X155750000Y-89900000D01*
G75*
G02*
X155500000Y-89650000I0J250000D01*
G01*
X155500000Y-86650000D01*
G75*
G02*
X155750000Y-86400000I250000J0D01*
G01*
X156250000Y-86400000D01*
G75*
G02*
X156500000Y-86650000I0J-250000D01*
G01*
G37*
%TD*%
%TO.C,J6*%
G36*
G01*
X181500000Y-129050000D02*
X181500000Y-126150000D01*
G75*
G02*
X181750000Y-125900000I250000J0D01*
G01*
X182750000Y-125900000D01*
G75*
G02*
X183000000Y-126150000I0J-250000D01*
G01*
X183000000Y-129050000D01*
G75*
G02*
X182750000Y-129300000I-250000J0D01*
G01*
X181750000Y-129300000D01*
G75*
G02*
X181500000Y-129050000I0J250000D01*
G01*
G37*
G36*
G01*
X162800000Y-129050000D02*
X162800000Y-126150000D01*
G75*
G02*
X163050000Y-125900000I250000J0D01*
G01*
X164050000Y-125900000D01*
G75*
G02*
X164300000Y-126150000I0J-250000D01*
G01*
X164300000Y-129050000D01*
G75*
G02*
X164050000Y-129300000I-250000J0D01*
G01*
X163050000Y-129300000D01*
G75*
G02*
X162800000Y-129050000I0J250000D01*
G01*
G37*
G36*
G01*
X179400000Y-123350000D02*
X179400000Y-120350000D01*
G75*
G02*
X179650000Y-120100000I250000J0D01*
G01*
X180150000Y-120100000D01*
G75*
G02*
X180400000Y-120350000I0J-250000D01*
G01*
X180400000Y-123350000D01*
G75*
G02*
X180150000Y-123600000I-250000J0D01*
G01*
X179650000Y-123600000D01*
G75*
G02*
X179400000Y-123350000I0J250000D01*
G01*
G37*
G36*
G01*
X177400000Y-123350000D02*
X177400000Y-120350000D01*
G75*
G02*
X177650000Y-120100000I250000J0D01*
G01*
X178150000Y-120100000D01*
G75*
G02*
X178400000Y-120350000I0J-250000D01*
G01*
X178400000Y-123350000D01*
G75*
G02*
X178150000Y-123600000I-250000J0D01*
G01*
X177650000Y-123600000D01*
G75*
G02*
X177400000Y-123350000I0J250000D01*
G01*
G37*
G36*
G01*
X175400000Y-123350000D02*
X175400000Y-120350000D01*
G75*
G02*
X175650000Y-120100000I250000J0D01*
G01*
X176150000Y-120100000D01*
G75*
G02*
X176400000Y-120350000I0J-250000D01*
G01*
X176400000Y-123350000D01*
G75*
G02*
X176150000Y-123600000I-250000J0D01*
G01*
X175650000Y-123600000D01*
G75*
G02*
X175400000Y-123350000I0J250000D01*
G01*
G37*
G36*
G01*
X173400000Y-123350000D02*
X173400000Y-120350000D01*
G75*
G02*
X173650000Y-120100000I250000J0D01*
G01*
X174150000Y-120100000D01*
G75*
G02*
X174400000Y-120350000I0J-250000D01*
G01*
X174400000Y-123350000D01*
G75*
G02*
X174150000Y-123600000I-250000J0D01*
G01*
X173650000Y-123600000D01*
G75*
G02*
X173400000Y-123350000I0J250000D01*
G01*
G37*
G36*
G01*
X171400000Y-123350000D02*
X171400000Y-120350000D01*
G75*
G02*
X171650000Y-120100000I250000J0D01*
G01*
X172150000Y-120100000D01*
G75*
G02*
X172400000Y-120350000I0J-250000D01*
G01*
X172400000Y-123350000D01*
G75*
G02*
X172150000Y-123600000I-250000J0D01*
G01*
X171650000Y-123600000D01*
G75*
G02*
X171400000Y-123350000I0J250000D01*
G01*
G37*
G36*
G01*
X169400000Y-123350000D02*
X169400000Y-120350000D01*
G75*
G02*
X169650000Y-120100000I250000J0D01*
G01*
X170150000Y-120100000D01*
G75*
G02*
X170400000Y-120350000I0J-250000D01*
G01*
X170400000Y-123350000D01*
G75*
G02*
X170150000Y-123600000I-250000J0D01*
G01*
X169650000Y-123600000D01*
G75*
G02*
X169400000Y-123350000I0J250000D01*
G01*
G37*
G36*
G01*
X167400000Y-123350000D02*
X167400000Y-120350000D01*
G75*
G02*
X167650000Y-120100000I250000J0D01*
G01*
X168150000Y-120100000D01*
G75*
G02*
X168400000Y-120350000I0J-250000D01*
G01*
X168400000Y-123350000D01*
G75*
G02*
X168150000Y-123600000I-250000J0D01*
G01*
X167650000Y-123600000D01*
G75*
G02*
X167400000Y-123350000I0J250000D01*
G01*
G37*
G36*
G01*
X165400000Y-123350000D02*
X165400000Y-120350000D01*
G75*
G02*
X165650000Y-120100000I250000J0D01*
G01*
X166150000Y-120100000D01*
G75*
G02*
X166400000Y-120350000I0J-250000D01*
G01*
X166400000Y-123350000D01*
G75*
G02*
X166150000Y-123600000I-250000J0D01*
G01*
X165650000Y-123600000D01*
G75*
G02*
X165400000Y-123350000I0J250000D01*
G01*
G37*
%TD*%
%TO.C,J5*%
G36*
G01*
X110950000Y-107000000D02*
X113850000Y-107000000D01*
G75*
G02*
X114100000Y-107250000I0J-250000D01*
G01*
X114100000Y-108250000D01*
G75*
G02*
X113850000Y-108500000I-250000J0D01*
G01*
X110950000Y-108500000D01*
G75*
G02*
X110700000Y-108250000I0J250000D01*
G01*
X110700000Y-107250000D01*
G75*
G02*
X110950000Y-107000000I250000J0D01*
G01*
G37*
G36*
G01*
X110950000Y-88300000D02*
X113850000Y-88300000D01*
G75*
G02*
X114100000Y-88550000I0J-250000D01*
G01*
X114100000Y-89550000D01*
G75*
G02*
X113850000Y-89800000I-250000J0D01*
G01*
X110950000Y-89800000D01*
G75*
G02*
X110700000Y-89550000I0J250000D01*
G01*
X110700000Y-88550000D01*
G75*
G02*
X110950000Y-88300000I250000J0D01*
G01*
G37*
G36*
G01*
X116650000Y-104900000D02*
X119650000Y-104900000D01*
G75*
G02*
X119900000Y-105150000I0J-250000D01*
G01*
X119900000Y-105650000D01*
G75*
G02*
X119650000Y-105900000I-250000J0D01*
G01*
X116650000Y-105900000D01*
G75*
G02*
X116400000Y-105650000I0J250000D01*
G01*
X116400000Y-105150000D01*
G75*
G02*
X116650000Y-104900000I250000J0D01*
G01*
G37*
G36*
G01*
X116650000Y-102900000D02*
X119650000Y-102900000D01*
G75*
G02*
X119900000Y-103150000I0J-250000D01*
G01*
X119900000Y-103650000D01*
G75*
G02*
X119650000Y-103900000I-250000J0D01*
G01*
X116650000Y-103900000D01*
G75*
G02*
X116400000Y-103650000I0J250000D01*
G01*
X116400000Y-103150000D01*
G75*
G02*
X116650000Y-102900000I250000J0D01*
G01*
G37*
G36*
G01*
X116650000Y-100900000D02*
X119650000Y-100900000D01*
G75*
G02*
X119900000Y-101150000I0J-250000D01*
G01*
X119900000Y-101650000D01*
G75*
G02*
X119650000Y-101900000I-250000J0D01*
G01*
X116650000Y-101900000D01*
G75*
G02*
X116400000Y-101650000I0J250000D01*
G01*
X116400000Y-101150000D01*
G75*
G02*
X116650000Y-100900000I250000J0D01*
G01*
G37*
G36*
G01*
X116650000Y-98900000D02*
X119650000Y-98900000D01*
G75*
G02*
X119900000Y-99150000I0J-250000D01*
G01*
X119900000Y-99650000D01*
G75*
G02*
X119650000Y-99900000I-250000J0D01*
G01*
X116650000Y-99900000D01*
G75*
G02*
X116400000Y-99650000I0J250000D01*
G01*
X116400000Y-99150000D01*
G75*
G02*
X116650000Y-98900000I250000J0D01*
G01*
G37*
G36*
G01*
X116650000Y-96900000D02*
X119650000Y-96900000D01*
G75*
G02*
X119900000Y-97150000I0J-250000D01*
G01*
X119900000Y-97650000D01*
G75*
G02*
X119650000Y-97900000I-250000J0D01*
G01*
X116650000Y-97900000D01*
G75*
G02*
X116400000Y-97650000I0J250000D01*
G01*
X116400000Y-97150000D01*
G75*
G02*
X116650000Y-96900000I250000J0D01*
G01*
G37*
G36*
G01*
X116650000Y-94900000D02*
X119650000Y-94900000D01*
G75*
G02*
X119900000Y-95150000I0J-250000D01*
G01*
X119900000Y-95650000D01*
G75*
G02*
X119650000Y-95900000I-250000J0D01*
G01*
X116650000Y-95900000D01*
G75*
G02*
X116400000Y-95650000I0J250000D01*
G01*
X116400000Y-95150000D01*
G75*
G02*
X116650000Y-94900000I250000J0D01*
G01*
G37*
G36*
G01*
X116650000Y-92900000D02*
X119650000Y-92900000D01*
G75*
G02*
X119900000Y-93150000I0J-250000D01*
G01*
X119900000Y-93650000D01*
G75*
G02*
X119650000Y-93900000I-250000J0D01*
G01*
X116650000Y-93900000D01*
G75*
G02*
X116400000Y-93650000I0J250000D01*
G01*
X116400000Y-93150000D01*
G75*
G02*
X116650000Y-92900000I250000J0D01*
G01*
G37*
G36*
G01*
X116650000Y-90900000D02*
X119650000Y-90900000D01*
G75*
G02*
X119900000Y-91150000I0J-250000D01*
G01*
X119900000Y-91650000D01*
G75*
G02*
X119650000Y-91900000I-250000J0D01*
G01*
X116650000Y-91900000D01*
G75*
G02*
X116400000Y-91650000I0J250000D01*
G01*
X116400000Y-91150000D01*
G75*
G02*
X116650000Y-90900000I250000J0D01*
G01*
G37*
%TD*%
%TO.C,J3*%
G36*
G01*
X114500000Y-111150000D02*
X112000000Y-111150000D01*
G75*
G02*
X111750000Y-110900000I0J250000D01*
G01*
X111750000Y-109800000D01*
G75*
G02*
X112000000Y-109550000I250000J0D01*
G01*
X114500000Y-109550000D01*
G75*
G02*
X114750000Y-109800000I0J-250000D01*
G01*
X114750000Y-110900000D01*
G75*
G02*
X114500000Y-111150000I-250000J0D01*
G01*
G37*
G36*
G01*
X114500000Y-117950000D02*
X112000000Y-117950000D01*
G75*
G02*
X111750000Y-117700000I0J250000D01*
G01*
X111750000Y-116600000D01*
G75*
G02*
X112000000Y-116350000I250000J0D01*
G01*
X114500000Y-116350000D01*
G75*
G02*
X114750000Y-116600000I0J-250000D01*
G01*
X114750000Y-117700000D01*
G75*
G02*
X114500000Y-117950000I-250000J0D01*
G01*
G37*
G36*
G01*
X118000000Y-113250000D02*
X113000000Y-113250000D01*
G75*
G02*
X112750000Y-113000000I0J250000D01*
G01*
X112750000Y-112500000D01*
G75*
G02*
X113000000Y-112250000I250000J0D01*
G01*
X118000000Y-112250000D01*
G75*
G02*
X118250000Y-112500000I0J-250000D01*
G01*
X118250000Y-113000000D01*
G75*
G02*
X118000000Y-113250000I-250000J0D01*
G01*
G37*
G36*
G01*
X118000000Y-115250000D02*
X113000000Y-115250000D01*
G75*
G02*
X112750000Y-115000000I0J250000D01*
G01*
X112750000Y-114500000D01*
G75*
G02*
X113000000Y-114250000I250000J0D01*
G01*
X118000000Y-114250000D01*
G75*
G02*
X118250000Y-114500000I0J-250000D01*
G01*
X118250000Y-115000000D01*
G75*
G02*
X118000000Y-115250000I-250000J0D01*
G01*
G37*
%TD*%
%TO.C,D6*%
G36*
G01*
X207650000Y-102743750D02*
X207650000Y-103256250D01*
G75*
G02*
X207431250Y-103475000I-218750J0D01*
G01*
X206993750Y-103475000D01*
G75*
G02*
X206775000Y-103256250I0J218750D01*
G01*
X206775000Y-102743750D01*
G75*
G02*
X206993750Y-102525000I218750J0D01*
G01*
X207431250Y-102525000D01*
G75*
G02*
X207650000Y-102743750I0J-218750D01*
G01*
G37*
G36*
G01*
X209225000Y-102743750D02*
X209225000Y-103256250D01*
G75*
G02*
X209006250Y-103475000I-218750J0D01*
G01*
X208568750Y-103475000D01*
G75*
G02*
X208350000Y-103256250I0J218750D01*
G01*
X208350000Y-102743750D01*
G75*
G02*
X208568750Y-102525000I218750J0D01*
G01*
X209006250Y-102525000D01*
G75*
G02*
X209225000Y-102743750I0J-218750D01*
G01*
G37*
%TD*%
%TO.C,D5*%
G36*
G01*
X207650000Y-100743750D02*
X207650000Y-101256250D01*
G75*
G02*
X207431250Y-101475000I-218750J0D01*
G01*
X206993750Y-101475000D01*
G75*
G02*
X206775000Y-101256250I0J218750D01*
G01*
X206775000Y-100743750D01*
G75*
G02*
X206993750Y-100525000I218750J0D01*
G01*
X207431250Y-100525000D01*
G75*
G02*
X207650000Y-100743750I0J-218750D01*
G01*
G37*
G36*
G01*
X209225000Y-100743750D02*
X209225000Y-101256250D01*
G75*
G02*
X209006250Y-101475000I-218750J0D01*
G01*
X208568750Y-101475000D01*
G75*
G02*
X208350000Y-101256250I0J218750D01*
G01*
X208350000Y-100743750D01*
G75*
G02*
X208568750Y-100525000I218750J0D01*
G01*
X209006250Y-100525000D01*
G75*
G02*
X209225000Y-100743750I0J-218750D01*
G01*
G37*
%TD*%
%TO.C,D4*%
G36*
G01*
X207662500Y-98743750D02*
X207662500Y-99256250D01*
G75*
G02*
X207443750Y-99475000I-218750J0D01*
G01*
X207006250Y-99475000D01*
G75*
G02*
X206787500Y-99256250I0J218750D01*
G01*
X206787500Y-98743750D01*
G75*
G02*
X207006250Y-98525000I218750J0D01*
G01*
X207443750Y-98525000D01*
G75*
G02*
X207662500Y-98743750I0J-218750D01*
G01*
G37*
G36*
G01*
X209237500Y-98743750D02*
X209237500Y-99256250D01*
G75*
G02*
X209018750Y-99475000I-218750J0D01*
G01*
X208581250Y-99475000D01*
G75*
G02*
X208362500Y-99256250I0J218750D01*
G01*
X208362500Y-98743750D01*
G75*
G02*
X208581250Y-98525000I218750J0D01*
G01*
X209018750Y-98525000D01*
G75*
G02*
X209237500Y-98743750I0J-218750D01*
G01*
G37*
%TD*%
%TO.C,D2*%
G36*
G01*
X111827500Y-120590000D02*
X112172500Y-120590000D01*
G75*
G02*
X112320000Y-120737500I0J-147500D01*
G01*
X112320000Y-121032500D01*
G75*
G02*
X112172500Y-121180000I-147500J0D01*
G01*
X111827500Y-121180000D01*
G75*
G02*
X111680000Y-121032500I0J147500D01*
G01*
X111680000Y-120737500D01*
G75*
G02*
X111827500Y-120590000I147500J0D01*
G01*
G37*
G36*
G01*
X111827500Y-119620000D02*
X112172500Y-119620000D01*
G75*
G02*
X112320000Y-119767500I0J-147500D01*
G01*
X112320000Y-120062500D01*
G75*
G02*
X112172500Y-120210000I-147500J0D01*
G01*
X111827500Y-120210000D01*
G75*
G02*
X111680000Y-120062500I0J147500D01*
G01*
X111680000Y-119767500D01*
G75*
G02*
X111827500Y-119620000I147500J0D01*
G01*
G37*
%TD*%
%TO.C,D1*%
G36*
G01*
X112927500Y-120590000D02*
X113272500Y-120590000D01*
G75*
G02*
X113420000Y-120737500I0J-147500D01*
G01*
X113420000Y-121032500D01*
G75*
G02*
X113272500Y-121180000I-147500J0D01*
G01*
X112927500Y-121180000D01*
G75*
G02*
X112780000Y-121032500I0J147500D01*
G01*
X112780000Y-120737500D01*
G75*
G02*
X112927500Y-120590000I147500J0D01*
G01*
G37*
G36*
G01*
X112927500Y-119620000D02*
X113272500Y-119620000D01*
G75*
G02*
X113420000Y-119767500I0J-147500D01*
G01*
X113420000Y-120062500D01*
G75*
G02*
X113272500Y-120210000I-147500J0D01*
G01*
X112927500Y-120210000D01*
G75*
G02*
X112780000Y-120062500I0J147500D01*
G01*
X112780000Y-119767500D01*
G75*
G02*
X112927500Y-119620000I147500J0D01*
G01*
G37*
%TD*%
%TO.C,C54*%
G36*
G01*
X158770000Y-127200000D02*
X158430000Y-127200000D01*
G75*
G02*
X158290000Y-127060000I0J140000D01*
G01*
X158290000Y-126780000D01*
G75*
G02*
X158430000Y-126640000I140000J0D01*
G01*
X158770000Y-126640000D01*
G75*
G02*
X158910000Y-126780000I0J-140000D01*
G01*
X158910000Y-127060000D01*
G75*
G02*
X158770000Y-127200000I-140000J0D01*
G01*
G37*
G36*
G01*
X158770000Y-128160000D02*
X158430000Y-128160000D01*
G75*
G02*
X158290000Y-128020000I0J140000D01*
G01*
X158290000Y-127740000D01*
G75*
G02*
X158430000Y-127600000I140000J0D01*
G01*
X158770000Y-127600000D01*
G75*
G02*
X158910000Y-127740000I0J-140000D01*
G01*
X158910000Y-128020000D01*
G75*
G02*
X158770000Y-128160000I-140000J0D01*
G01*
G37*
%TD*%
%TO.C,C53*%
G36*
G01*
X151570000Y-127200000D02*
X151230000Y-127200000D01*
G75*
G02*
X151090000Y-127060000I0J140000D01*
G01*
X151090000Y-126780000D01*
G75*
G02*
X151230000Y-126640000I140000J0D01*
G01*
X151570000Y-126640000D01*
G75*
G02*
X151710000Y-126780000I0J-140000D01*
G01*
X151710000Y-127060000D01*
G75*
G02*
X151570000Y-127200000I-140000J0D01*
G01*
G37*
G36*
G01*
X151570000Y-128160000D02*
X151230000Y-128160000D01*
G75*
G02*
X151090000Y-128020000I0J140000D01*
G01*
X151090000Y-127740000D01*
G75*
G02*
X151230000Y-127600000I140000J0D01*
G01*
X151570000Y-127600000D01*
G75*
G02*
X151710000Y-127740000I0J-140000D01*
G01*
X151710000Y-128020000D01*
G75*
G02*
X151570000Y-128160000I-140000J0D01*
G01*
G37*
%TD*%
%TO.C,C52*%
G36*
G01*
X155250000Y-104775000D02*
X155250000Y-103825000D01*
G75*
G02*
X155500000Y-103575000I250000J0D01*
G01*
X156000000Y-103575000D01*
G75*
G02*
X156250000Y-103825000I0J-250000D01*
G01*
X156250000Y-104775000D01*
G75*
G02*
X156000000Y-105025000I-250000J0D01*
G01*
X155500000Y-105025000D01*
G75*
G02*
X155250000Y-104775000I0J250000D01*
G01*
G37*
G36*
G01*
X153350000Y-104775000D02*
X153350000Y-103825000D01*
G75*
G02*
X153600000Y-103575000I250000J0D01*
G01*
X154100000Y-103575000D01*
G75*
G02*
X154350000Y-103825000I0J-250000D01*
G01*
X154350000Y-104775000D01*
G75*
G02*
X154100000Y-105025000I-250000J0D01*
G01*
X153600000Y-105025000D01*
G75*
G02*
X153350000Y-104775000I0J250000D01*
G01*
G37*
%TD*%
%TO.C,C50*%
G36*
G01*
X185430000Y-113700000D02*
X185770000Y-113700000D01*
G75*
G02*
X185910000Y-113840000I0J-140000D01*
G01*
X185910000Y-114120000D01*
G75*
G02*
X185770000Y-114260000I-140000J0D01*
G01*
X185430000Y-114260000D01*
G75*
G02*
X185290000Y-114120000I0J140000D01*
G01*
X185290000Y-113840000D01*
G75*
G02*
X185430000Y-113700000I140000J0D01*
G01*
G37*
G36*
G01*
X185430000Y-112740000D02*
X185770000Y-112740000D01*
G75*
G02*
X185910000Y-112880000I0J-140000D01*
G01*
X185910000Y-113160000D01*
G75*
G02*
X185770000Y-113300000I-140000J0D01*
G01*
X185430000Y-113300000D01*
G75*
G02*
X185290000Y-113160000I0J140000D01*
G01*
X185290000Y-112880000D01*
G75*
G02*
X185430000Y-112740000I140000J0D01*
G01*
G37*
%TD*%
%TO.C,C47*%
G36*
G01*
X123750000Y-110680000D02*
X123750000Y-111020000D01*
G75*
G02*
X123610000Y-111160000I-140000J0D01*
G01*
X123330000Y-111160000D01*
G75*
G02*
X123190000Y-111020000I0J140000D01*
G01*
X123190000Y-110680000D01*
G75*
G02*
X123330000Y-110540000I140000J0D01*
G01*
X123610000Y-110540000D01*
G75*
G02*
X123750000Y-110680000I0J-140000D01*
G01*
G37*
G36*
G01*
X124710000Y-110680000D02*
X124710000Y-111020000D01*
G75*
G02*
X124570000Y-111160000I-140000J0D01*
G01*
X124290000Y-111160000D01*
G75*
G02*
X124150000Y-111020000I0J140000D01*
G01*
X124150000Y-110680000D01*
G75*
G02*
X124290000Y-110540000I140000J0D01*
G01*
X124570000Y-110540000D01*
G75*
G02*
X124710000Y-110680000I0J-140000D01*
G01*
G37*
%TD*%
%TO.C,C44*%
G36*
G01*
X123500000Y-112125000D02*
X123500000Y-113075000D01*
G75*
G02*
X123250000Y-113325000I-250000J0D01*
G01*
X122750000Y-113325000D01*
G75*
G02*
X122500000Y-113075000I0J250000D01*
G01*
X122500000Y-112125000D01*
G75*
G02*
X122750000Y-111875000I250000J0D01*
G01*
X123250000Y-111875000D01*
G75*
G02*
X123500000Y-112125000I0J-250000D01*
G01*
G37*
G36*
G01*
X125400000Y-112125000D02*
X125400000Y-113075000D01*
G75*
G02*
X125150000Y-113325000I-250000J0D01*
G01*
X124650000Y-113325000D01*
G75*
G02*
X124400000Y-113075000I0J250000D01*
G01*
X124400000Y-112125000D01*
G75*
G02*
X124650000Y-111875000I250000J0D01*
G01*
X125150000Y-111875000D01*
G75*
G02*
X125400000Y-112125000I0J-250000D01*
G01*
G37*
%TD*%
%TO.C,C41*%
G36*
G01*
X124400000Y-116575000D02*
X124400000Y-115625000D01*
G75*
G02*
X124650000Y-115375000I250000J0D01*
G01*
X125150000Y-115375000D01*
G75*
G02*
X125400000Y-115625000I0J-250000D01*
G01*
X125400000Y-116575000D01*
G75*
G02*
X125150000Y-116825000I-250000J0D01*
G01*
X124650000Y-116825000D01*
G75*
G02*
X124400000Y-116575000I0J250000D01*
G01*
G37*
G36*
G01*
X122500000Y-116575000D02*
X122500000Y-115625000D01*
G75*
G02*
X122750000Y-115375000I250000J0D01*
G01*
X123250000Y-115375000D01*
G75*
G02*
X123500000Y-115625000I0J-250000D01*
G01*
X123500000Y-116575000D01*
G75*
G02*
X123250000Y-116825000I-250000J0D01*
G01*
X122750000Y-116825000D01*
G75*
G02*
X122500000Y-116575000I0J250000D01*
G01*
G37*
%TD*%
%TO.C,C40*%
G36*
G01*
X120200000Y-117420000D02*
X120200000Y-117080000D01*
G75*
G02*
X120340000Y-116940000I140000J0D01*
G01*
X120620000Y-116940000D01*
G75*
G02*
X120760000Y-117080000I0J-140000D01*
G01*
X120760000Y-117420000D01*
G75*
G02*
X120620000Y-117560000I-140000J0D01*
G01*
X120340000Y-117560000D01*
G75*
G02*
X120200000Y-117420000I0J140000D01*
G01*
G37*
G36*
G01*
X119240000Y-117420000D02*
X119240000Y-117080000D01*
G75*
G02*
X119380000Y-116940000I140000J0D01*
G01*
X119660000Y-116940000D01*
G75*
G02*
X119800000Y-117080000I0J-140000D01*
G01*
X119800000Y-117420000D01*
G75*
G02*
X119660000Y-117560000I-140000J0D01*
G01*
X119380000Y-117560000D01*
G75*
G02*
X119240000Y-117420000I0J140000D01*
G01*
G37*
%TD*%
%TO.C,C38*%
G36*
G01*
X120475000Y-113300000D02*
X119525000Y-113300000D01*
G75*
G02*
X119275000Y-113050000I0J250000D01*
G01*
X119275000Y-112550000D01*
G75*
G02*
X119525000Y-112300000I250000J0D01*
G01*
X120475000Y-112300000D01*
G75*
G02*
X120725000Y-112550000I0J-250000D01*
G01*
X120725000Y-113050000D01*
G75*
G02*
X120475000Y-113300000I-250000J0D01*
G01*
G37*
G36*
G01*
X120475000Y-115200000D02*
X119525000Y-115200000D01*
G75*
G02*
X119275000Y-114950000I0J250000D01*
G01*
X119275000Y-114450000D01*
G75*
G02*
X119525000Y-114200000I250000J0D01*
G01*
X120475000Y-114200000D01*
G75*
G02*
X120725000Y-114450000I0J-250000D01*
G01*
X120725000Y-114950000D01*
G75*
G02*
X120475000Y-115200000I-250000J0D01*
G01*
G37*
%TD*%
%TO.C,C37*%
G36*
G01*
X125730000Y-122700000D02*
X126070000Y-122700000D01*
G75*
G02*
X126210000Y-122840000I0J-140000D01*
G01*
X126210000Y-123120000D01*
G75*
G02*
X126070000Y-123260000I-140000J0D01*
G01*
X125730000Y-123260000D01*
G75*
G02*
X125590000Y-123120000I0J140000D01*
G01*
X125590000Y-122840000D01*
G75*
G02*
X125730000Y-122700000I140000J0D01*
G01*
G37*
G36*
G01*
X125730000Y-121740000D02*
X126070000Y-121740000D01*
G75*
G02*
X126210000Y-121880000I0J-140000D01*
G01*
X126210000Y-122160000D01*
G75*
G02*
X126070000Y-122300000I-140000J0D01*
G01*
X125730000Y-122300000D01*
G75*
G02*
X125590000Y-122160000I0J140000D01*
G01*
X125590000Y-121880000D01*
G75*
G02*
X125730000Y-121740000I140000J0D01*
G01*
G37*
%TD*%
%TO.C,C36*%
G36*
G01*
X127025000Y-122950000D02*
X127975000Y-122950000D01*
G75*
G02*
X128225000Y-123200000I0J-250000D01*
G01*
X128225000Y-123700000D01*
G75*
G02*
X127975000Y-123950000I-250000J0D01*
G01*
X127025000Y-123950000D01*
G75*
G02*
X126775000Y-123700000I0J250000D01*
G01*
X126775000Y-123200000D01*
G75*
G02*
X127025000Y-122950000I250000J0D01*
G01*
G37*
G36*
G01*
X127025000Y-121050000D02*
X127975000Y-121050000D01*
G75*
G02*
X128225000Y-121300000I0J-250000D01*
G01*
X128225000Y-121800000D01*
G75*
G02*
X127975000Y-122050000I-250000J0D01*
G01*
X127025000Y-122050000D01*
G75*
G02*
X126775000Y-121800000I0J250000D01*
G01*
X126775000Y-121300000D01*
G75*
G02*
X127025000Y-121050000I250000J0D01*
G01*
G37*
%TD*%
%TO.C,C35*%
G36*
G01*
X179100000Y-114030000D02*
X179100000Y-114370000D01*
G75*
G02*
X178960000Y-114510000I-140000J0D01*
G01*
X178680000Y-114510000D01*
G75*
G02*
X178540000Y-114370000I0J140000D01*
G01*
X178540000Y-114030000D01*
G75*
G02*
X178680000Y-113890000I140000J0D01*
G01*
X178960000Y-113890000D01*
G75*
G02*
X179100000Y-114030000I0J-140000D01*
G01*
G37*
G36*
G01*
X180060000Y-114030000D02*
X180060000Y-114370000D01*
G75*
G02*
X179920000Y-114510000I-140000J0D01*
G01*
X179640000Y-114510000D01*
G75*
G02*
X179500000Y-114370000I0J140000D01*
G01*
X179500000Y-114030000D01*
G75*
G02*
X179640000Y-113890000I140000J0D01*
G01*
X179920000Y-113890000D01*
G75*
G02*
X180060000Y-114030000I0J-140000D01*
G01*
G37*
%TD*%
%TO.C,C34*%
G36*
G01*
X179775000Y-111450000D02*
X178825000Y-111450000D01*
G75*
G02*
X178575000Y-111200000I0J250000D01*
G01*
X178575000Y-110700000D01*
G75*
G02*
X178825000Y-110450000I250000J0D01*
G01*
X179775000Y-110450000D01*
G75*
G02*
X180025000Y-110700000I0J-250000D01*
G01*
X180025000Y-111200000D01*
G75*
G02*
X179775000Y-111450000I-250000J0D01*
G01*
G37*
G36*
G01*
X179775000Y-113350000D02*
X178825000Y-113350000D01*
G75*
G02*
X178575000Y-113100000I0J250000D01*
G01*
X178575000Y-112600000D01*
G75*
G02*
X178825000Y-112350000I250000J0D01*
G01*
X179775000Y-112350000D01*
G75*
G02*
X180025000Y-112600000I0J-250000D01*
G01*
X180025000Y-113100000D01*
G75*
G02*
X179775000Y-113350000I-250000J0D01*
G01*
G37*
%TD*%
%TO.C,C32*%
G36*
G01*
X125800000Y-87330000D02*
X125800000Y-87670000D01*
G75*
G02*
X125660000Y-87810000I-140000J0D01*
G01*
X125380000Y-87810000D01*
G75*
G02*
X125240000Y-87670000I0J140000D01*
G01*
X125240000Y-87330000D01*
G75*
G02*
X125380000Y-87190000I140000J0D01*
G01*
X125660000Y-87190000D01*
G75*
G02*
X125800000Y-87330000I0J-140000D01*
G01*
G37*
G36*
G01*
X126760000Y-87330000D02*
X126760000Y-87670000D01*
G75*
G02*
X126620000Y-87810000I-140000J0D01*
G01*
X126340000Y-87810000D01*
G75*
G02*
X126200000Y-87670000I0J140000D01*
G01*
X126200000Y-87330000D01*
G75*
G02*
X126340000Y-87190000I140000J0D01*
G01*
X126620000Y-87190000D01*
G75*
G02*
X126760000Y-87330000I0J-140000D01*
G01*
G37*
%TD*%
%TO.C,C30*%
G36*
G01*
X142070000Y-111820000D02*
X141730000Y-111820000D01*
G75*
G02*
X141590000Y-111680000I0J140000D01*
G01*
X141590000Y-111400000D01*
G75*
G02*
X141730000Y-111260000I140000J0D01*
G01*
X142070000Y-111260000D01*
G75*
G02*
X142210000Y-111400000I0J-140000D01*
G01*
X142210000Y-111680000D01*
G75*
G02*
X142070000Y-111820000I-140000J0D01*
G01*
G37*
G36*
G01*
X142070000Y-112780000D02*
X141730000Y-112780000D01*
G75*
G02*
X141590000Y-112640000I0J140000D01*
G01*
X141590000Y-112360000D01*
G75*
G02*
X141730000Y-112220000I140000J0D01*
G01*
X142070000Y-112220000D01*
G75*
G02*
X142210000Y-112360000I0J-140000D01*
G01*
X142210000Y-112640000D01*
G75*
G02*
X142070000Y-112780000I-140000J0D01*
G01*
G37*
%TD*%
%TO.C,C28*%
G36*
G01*
X132800000Y-87330000D02*
X132800000Y-87670000D01*
G75*
G02*
X132660000Y-87810000I-140000J0D01*
G01*
X132380000Y-87810000D01*
G75*
G02*
X132240000Y-87670000I0J140000D01*
G01*
X132240000Y-87330000D01*
G75*
G02*
X132380000Y-87190000I140000J0D01*
G01*
X132660000Y-87190000D01*
G75*
G02*
X132800000Y-87330000I0J-140000D01*
G01*
G37*
G36*
G01*
X133760000Y-87330000D02*
X133760000Y-87670000D01*
G75*
G02*
X133620000Y-87810000I-140000J0D01*
G01*
X133340000Y-87810000D01*
G75*
G02*
X133200000Y-87670000I0J140000D01*
G01*
X133200000Y-87330000D01*
G75*
G02*
X133340000Y-87190000I140000J0D01*
G01*
X133620000Y-87190000D01*
G75*
G02*
X133760000Y-87330000I0J-140000D01*
G01*
G37*
%TD*%
%TO.C,C25*%
G36*
G01*
X167070000Y-118300000D02*
X166730000Y-118300000D01*
G75*
G02*
X166590000Y-118160000I0J140000D01*
G01*
X166590000Y-117880000D01*
G75*
G02*
X166730000Y-117740000I140000J0D01*
G01*
X167070000Y-117740000D01*
G75*
G02*
X167210000Y-117880000I0J-140000D01*
G01*
X167210000Y-118160000D01*
G75*
G02*
X167070000Y-118300000I-140000J0D01*
G01*
G37*
G36*
G01*
X167070000Y-119260000D02*
X166730000Y-119260000D01*
G75*
G02*
X166590000Y-119120000I0J140000D01*
G01*
X166590000Y-118840000D01*
G75*
G02*
X166730000Y-118700000I140000J0D01*
G01*
X167070000Y-118700000D01*
G75*
G02*
X167210000Y-118840000I0J-140000D01*
G01*
X167210000Y-119120000D01*
G75*
G02*
X167070000Y-119260000I-140000J0D01*
G01*
G37*
%TD*%
%TO.C,C24*%
G36*
G01*
X171070000Y-118300000D02*
X170730000Y-118300000D01*
G75*
G02*
X170590000Y-118160000I0J140000D01*
G01*
X170590000Y-117880000D01*
G75*
G02*
X170730000Y-117740000I140000J0D01*
G01*
X171070000Y-117740000D01*
G75*
G02*
X171210000Y-117880000I0J-140000D01*
G01*
X171210000Y-118160000D01*
G75*
G02*
X171070000Y-118300000I-140000J0D01*
G01*
G37*
G36*
G01*
X171070000Y-119260000D02*
X170730000Y-119260000D01*
G75*
G02*
X170590000Y-119120000I0J140000D01*
G01*
X170590000Y-118840000D01*
G75*
G02*
X170730000Y-118700000I140000J0D01*
G01*
X171070000Y-118700000D01*
G75*
G02*
X171210000Y-118840000I0J-140000D01*
G01*
X171210000Y-119120000D01*
G75*
G02*
X171070000Y-119260000I-140000J0D01*
G01*
G37*
%TD*%
%TO.C,C23*%
G36*
G01*
X175070000Y-118300000D02*
X174730000Y-118300000D01*
G75*
G02*
X174590000Y-118160000I0J140000D01*
G01*
X174590000Y-117880000D01*
G75*
G02*
X174730000Y-117740000I140000J0D01*
G01*
X175070000Y-117740000D01*
G75*
G02*
X175210000Y-117880000I0J-140000D01*
G01*
X175210000Y-118160000D01*
G75*
G02*
X175070000Y-118300000I-140000J0D01*
G01*
G37*
G36*
G01*
X175070000Y-119260000D02*
X174730000Y-119260000D01*
G75*
G02*
X174590000Y-119120000I0J140000D01*
G01*
X174590000Y-118840000D01*
G75*
G02*
X174730000Y-118700000I140000J0D01*
G01*
X175070000Y-118700000D01*
G75*
G02*
X175210000Y-118840000I0J-140000D01*
G01*
X175210000Y-119120000D01*
G75*
G02*
X175070000Y-119260000I-140000J0D01*
G01*
G37*
%TD*%
%TO.C,C22*%
G36*
G01*
X179070000Y-118300000D02*
X178730000Y-118300000D01*
G75*
G02*
X178590000Y-118160000I0J140000D01*
G01*
X178590000Y-117880000D01*
G75*
G02*
X178730000Y-117740000I140000J0D01*
G01*
X179070000Y-117740000D01*
G75*
G02*
X179210000Y-117880000I0J-140000D01*
G01*
X179210000Y-118160000D01*
G75*
G02*
X179070000Y-118300000I-140000J0D01*
G01*
G37*
G36*
G01*
X179070000Y-119260000D02*
X178730000Y-119260000D01*
G75*
G02*
X178590000Y-119120000I0J140000D01*
G01*
X178590000Y-118840000D01*
G75*
G02*
X178730000Y-118700000I140000J0D01*
G01*
X179070000Y-118700000D01*
G75*
G02*
X179210000Y-118840000I0J-140000D01*
G01*
X179210000Y-119120000D01*
G75*
G02*
X179070000Y-119260000I-140000J0D01*
G01*
G37*
%TD*%
%TO.C,C21*%
G36*
G01*
X178230000Y-92800000D02*
X178570000Y-92800000D01*
G75*
G02*
X178710000Y-92940000I0J-140000D01*
G01*
X178710000Y-93220000D01*
G75*
G02*
X178570000Y-93360000I-140000J0D01*
G01*
X178230000Y-93360000D01*
G75*
G02*
X178090000Y-93220000I0J140000D01*
G01*
X178090000Y-92940000D01*
G75*
G02*
X178230000Y-92800000I140000J0D01*
G01*
G37*
G36*
G01*
X178230000Y-91840000D02*
X178570000Y-91840000D01*
G75*
G02*
X178710000Y-91980000I0J-140000D01*
G01*
X178710000Y-92260000D01*
G75*
G02*
X178570000Y-92400000I-140000J0D01*
G01*
X178230000Y-92400000D01*
G75*
G02*
X178090000Y-92260000I0J140000D01*
G01*
X178090000Y-91980000D01*
G75*
G02*
X178230000Y-91840000I140000J0D01*
G01*
G37*
%TD*%
%TO.C,C20*%
G36*
G01*
X143230000Y-92400000D02*
X143570000Y-92400000D01*
G75*
G02*
X143710000Y-92540000I0J-140000D01*
G01*
X143710000Y-92820000D01*
G75*
G02*
X143570000Y-92960000I-140000J0D01*
G01*
X143230000Y-92960000D01*
G75*
G02*
X143090000Y-92820000I0J140000D01*
G01*
X143090000Y-92540000D01*
G75*
G02*
X143230000Y-92400000I140000J0D01*
G01*
G37*
G36*
G01*
X143230000Y-91440000D02*
X143570000Y-91440000D01*
G75*
G02*
X143710000Y-91580000I0J-140000D01*
G01*
X143710000Y-91860000D01*
G75*
G02*
X143570000Y-92000000I-140000J0D01*
G01*
X143230000Y-92000000D01*
G75*
G02*
X143090000Y-91860000I0J140000D01*
G01*
X143090000Y-91580000D01*
G75*
G02*
X143230000Y-91440000I140000J0D01*
G01*
G37*
%TD*%
%TO.C,C19*%
G36*
G01*
X174230000Y-92800000D02*
X174570000Y-92800000D01*
G75*
G02*
X174710000Y-92940000I0J-140000D01*
G01*
X174710000Y-93220000D01*
G75*
G02*
X174570000Y-93360000I-140000J0D01*
G01*
X174230000Y-93360000D01*
G75*
G02*
X174090000Y-93220000I0J140000D01*
G01*
X174090000Y-92940000D01*
G75*
G02*
X174230000Y-92800000I140000J0D01*
G01*
G37*
G36*
G01*
X174230000Y-91840000D02*
X174570000Y-91840000D01*
G75*
G02*
X174710000Y-91980000I0J-140000D01*
G01*
X174710000Y-92260000D01*
G75*
G02*
X174570000Y-92400000I-140000J0D01*
G01*
X174230000Y-92400000D01*
G75*
G02*
X174090000Y-92260000I0J140000D01*
G01*
X174090000Y-91980000D01*
G75*
G02*
X174230000Y-91840000I140000J0D01*
G01*
G37*
%TD*%
%TO.C,C18*%
G36*
G01*
X167030000Y-92800000D02*
X167370000Y-92800000D01*
G75*
G02*
X167510000Y-92940000I0J-140000D01*
G01*
X167510000Y-93220000D01*
G75*
G02*
X167370000Y-93360000I-140000J0D01*
G01*
X167030000Y-93360000D01*
G75*
G02*
X166890000Y-93220000I0J140000D01*
G01*
X166890000Y-92940000D01*
G75*
G02*
X167030000Y-92800000I140000J0D01*
G01*
G37*
G36*
G01*
X167030000Y-91840000D02*
X167370000Y-91840000D01*
G75*
G02*
X167510000Y-91980000I0J-140000D01*
G01*
X167510000Y-92260000D01*
G75*
G02*
X167370000Y-92400000I-140000J0D01*
G01*
X167030000Y-92400000D01*
G75*
G02*
X166890000Y-92260000I0J140000D01*
G01*
X166890000Y-91980000D01*
G75*
G02*
X167030000Y-91840000I140000J0D01*
G01*
G37*
%TD*%
%TO.C,C17*%
G36*
G01*
X154230000Y-92400000D02*
X154570000Y-92400000D01*
G75*
G02*
X154710000Y-92540000I0J-140000D01*
G01*
X154710000Y-92820000D01*
G75*
G02*
X154570000Y-92960000I-140000J0D01*
G01*
X154230000Y-92960000D01*
G75*
G02*
X154090000Y-92820000I0J140000D01*
G01*
X154090000Y-92540000D01*
G75*
G02*
X154230000Y-92400000I140000J0D01*
G01*
G37*
G36*
G01*
X154230000Y-91440000D02*
X154570000Y-91440000D01*
G75*
G02*
X154710000Y-91580000I0J-140000D01*
G01*
X154710000Y-91860000D01*
G75*
G02*
X154570000Y-92000000I-140000J0D01*
G01*
X154230000Y-92000000D01*
G75*
G02*
X154090000Y-91860000I0J140000D01*
G01*
X154090000Y-91580000D01*
G75*
G02*
X154230000Y-91440000I140000J0D01*
G01*
G37*
%TD*%
%TO.C,C16*%
G36*
G01*
X163030000Y-92800000D02*
X163370000Y-92800000D01*
G75*
G02*
X163510000Y-92940000I0J-140000D01*
G01*
X163510000Y-93220000D01*
G75*
G02*
X163370000Y-93360000I-140000J0D01*
G01*
X163030000Y-93360000D01*
G75*
G02*
X162890000Y-93220000I0J140000D01*
G01*
X162890000Y-92940000D01*
G75*
G02*
X163030000Y-92800000I140000J0D01*
G01*
G37*
G36*
G01*
X163030000Y-91840000D02*
X163370000Y-91840000D01*
G75*
G02*
X163510000Y-91980000I0J-140000D01*
G01*
X163510000Y-92260000D01*
G75*
G02*
X163370000Y-92400000I-140000J0D01*
G01*
X163030000Y-92400000D01*
G75*
G02*
X162890000Y-92260000I0J140000D01*
G01*
X162890000Y-91980000D01*
G75*
G02*
X163030000Y-91840000I140000J0D01*
G01*
G37*
%TD*%
%TO.C,C15*%
G36*
G01*
X144630000Y-92800000D02*
X144970000Y-92800000D01*
G75*
G02*
X145110000Y-92940000I0J-140000D01*
G01*
X145110000Y-93220000D01*
G75*
G02*
X144970000Y-93360000I-140000J0D01*
G01*
X144630000Y-93360000D01*
G75*
G02*
X144490000Y-93220000I0J140000D01*
G01*
X144490000Y-92940000D01*
G75*
G02*
X144630000Y-92800000I140000J0D01*
G01*
G37*
G36*
G01*
X144630000Y-91840000D02*
X144970000Y-91840000D01*
G75*
G02*
X145110000Y-91980000I0J-140000D01*
G01*
X145110000Y-92260000D01*
G75*
G02*
X144970000Y-92400000I-140000J0D01*
G01*
X144630000Y-92400000D01*
G75*
G02*
X144490000Y-92260000I0J140000D01*
G01*
X144490000Y-91980000D01*
G75*
G02*
X144630000Y-91840000I140000J0D01*
G01*
G37*
%TD*%
%TO.C,C14*%
G36*
G01*
X165630000Y-92200000D02*
X165970000Y-92200000D01*
G75*
G02*
X166110000Y-92340000I0J-140000D01*
G01*
X166110000Y-92620000D01*
G75*
G02*
X165970000Y-92760000I-140000J0D01*
G01*
X165630000Y-92760000D01*
G75*
G02*
X165490000Y-92620000I0J140000D01*
G01*
X165490000Y-92340000D01*
G75*
G02*
X165630000Y-92200000I140000J0D01*
G01*
G37*
G36*
G01*
X165630000Y-91240000D02*
X165970000Y-91240000D01*
G75*
G02*
X166110000Y-91380000I0J-140000D01*
G01*
X166110000Y-91660000D01*
G75*
G02*
X165970000Y-91800000I-140000J0D01*
G01*
X165630000Y-91800000D01*
G75*
G02*
X165490000Y-91660000I0J140000D01*
G01*
X165490000Y-91380000D01*
G75*
G02*
X165630000Y-91240000I140000J0D01*
G01*
G37*
%TD*%
%TO.C,C13*%
G36*
G01*
X140630000Y-92800000D02*
X140970000Y-92800000D01*
G75*
G02*
X141110000Y-92940000I0J-140000D01*
G01*
X141110000Y-93220000D01*
G75*
G02*
X140970000Y-93360000I-140000J0D01*
G01*
X140630000Y-93360000D01*
G75*
G02*
X140490000Y-93220000I0J140000D01*
G01*
X140490000Y-92940000D01*
G75*
G02*
X140630000Y-92800000I140000J0D01*
G01*
G37*
G36*
G01*
X140630000Y-91840000D02*
X140970000Y-91840000D01*
G75*
G02*
X141110000Y-91980000I0J-140000D01*
G01*
X141110000Y-92260000D01*
G75*
G02*
X140970000Y-92400000I-140000J0D01*
G01*
X140630000Y-92400000D01*
G75*
G02*
X140490000Y-92260000I0J140000D01*
G01*
X140490000Y-91980000D01*
G75*
G02*
X140630000Y-91840000I140000J0D01*
G01*
G37*
%TD*%
%TO.C,C12*%
G36*
G01*
X155830000Y-92800000D02*
X156170000Y-92800000D01*
G75*
G02*
X156310000Y-92940000I0J-140000D01*
G01*
X156310000Y-93220000D01*
G75*
G02*
X156170000Y-93360000I-140000J0D01*
G01*
X155830000Y-93360000D01*
G75*
G02*
X155690000Y-93220000I0J140000D01*
G01*
X155690000Y-92940000D01*
G75*
G02*
X155830000Y-92800000I140000J0D01*
G01*
G37*
G36*
G01*
X155830000Y-91840000D02*
X156170000Y-91840000D01*
G75*
G02*
X156310000Y-91980000I0J-140000D01*
G01*
X156310000Y-92260000D01*
G75*
G02*
X156170000Y-92400000I-140000J0D01*
G01*
X155830000Y-92400000D01*
G75*
G02*
X155690000Y-92260000I0J140000D01*
G01*
X155690000Y-91980000D01*
G75*
G02*
X155830000Y-91840000I140000J0D01*
G01*
G37*
%TD*%
%TO.C,C11*%
G36*
G01*
X176830000Y-92200000D02*
X177170000Y-92200000D01*
G75*
G02*
X177310000Y-92340000I0J-140000D01*
G01*
X177310000Y-92620000D01*
G75*
G02*
X177170000Y-92760000I-140000J0D01*
G01*
X176830000Y-92760000D01*
G75*
G02*
X176690000Y-92620000I0J140000D01*
G01*
X176690000Y-92340000D01*
G75*
G02*
X176830000Y-92200000I140000J0D01*
G01*
G37*
G36*
G01*
X176830000Y-91240000D02*
X177170000Y-91240000D01*
G75*
G02*
X177310000Y-91380000I0J-140000D01*
G01*
X177310000Y-91660000D01*
G75*
G02*
X177170000Y-91800000I-140000J0D01*
G01*
X176830000Y-91800000D01*
G75*
G02*
X176690000Y-91660000I0J140000D01*
G01*
X176690000Y-91380000D01*
G75*
G02*
X176830000Y-91240000I140000J0D01*
G01*
G37*
%TD*%
%TO.C,C10*%
G36*
G01*
X151830000Y-92800000D02*
X152170000Y-92800000D01*
G75*
G02*
X152310000Y-92940000I0J-140000D01*
G01*
X152310000Y-93220000D01*
G75*
G02*
X152170000Y-93360000I-140000J0D01*
G01*
X151830000Y-93360000D01*
G75*
G02*
X151690000Y-93220000I0J140000D01*
G01*
X151690000Y-92940000D01*
G75*
G02*
X151830000Y-92800000I140000J0D01*
G01*
G37*
G36*
G01*
X151830000Y-91840000D02*
X152170000Y-91840000D01*
G75*
G02*
X152310000Y-91980000I0J-140000D01*
G01*
X152310000Y-92260000D01*
G75*
G02*
X152170000Y-92400000I-140000J0D01*
G01*
X151830000Y-92400000D01*
G75*
G02*
X151690000Y-92260000I0J140000D01*
G01*
X151690000Y-91980000D01*
G75*
G02*
X151830000Y-91840000I140000J0D01*
G01*
G37*
%TD*%
%TO.C,C9*%
G36*
G01*
X122170000Y-99200000D02*
X121830000Y-99200000D01*
G75*
G02*
X121690000Y-99060000I0J140000D01*
G01*
X121690000Y-98780000D01*
G75*
G02*
X121830000Y-98640000I140000J0D01*
G01*
X122170000Y-98640000D01*
G75*
G02*
X122310000Y-98780000I0J-140000D01*
G01*
X122310000Y-99060000D01*
G75*
G02*
X122170000Y-99200000I-140000J0D01*
G01*
G37*
G36*
G01*
X122170000Y-100160000D02*
X121830000Y-100160000D01*
G75*
G02*
X121690000Y-100020000I0J140000D01*
G01*
X121690000Y-99740000D01*
G75*
G02*
X121830000Y-99600000I140000J0D01*
G01*
X122170000Y-99600000D01*
G75*
G02*
X122310000Y-99740000I0J-140000D01*
G01*
X122310000Y-100020000D01*
G75*
G02*
X122170000Y-100160000I-140000J0D01*
G01*
G37*
%TD*%
%TO.C,C7*%
G36*
G01*
X120830000Y-103600000D02*
X121170000Y-103600000D01*
G75*
G02*
X121310000Y-103740000I0J-140000D01*
G01*
X121310000Y-104020000D01*
G75*
G02*
X121170000Y-104160000I-140000J0D01*
G01*
X120830000Y-104160000D01*
G75*
G02*
X120690000Y-104020000I0J140000D01*
G01*
X120690000Y-103740000D01*
G75*
G02*
X120830000Y-103600000I140000J0D01*
G01*
G37*
G36*
G01*
X120830000Y-102640000D02*
X121170000Y-102640000D01*
G75*
G02*
X121310000Y-102780000I0J-140000D01*
G01*
X121310000Y-103060000D01*
G75*
G02*
X121170000Y-103200000I-140000J0D01*
G01*
X120830000Y-103200000D01*
G75*
G02*
X120690000Y-103060000I0J140000D01*
G01*
X120690000Y-102780000D01*
G75*
G02*
X120830000Y-102640000I140000J0D01*
G01*
G37*
%TD*%
%TO.C,C6*%
G36*
G01*
X121830000Y-101600000D02*
X122170000Y-101600000D01*
G75*
G02*
X122310000Y-101740000I0J-140000D01*
G01*
X122310000Y-102020000D01*
G75*
G02*
X122170000Y-102160000I-140000J0D01*
G01*
X121830000Y-102160000D01*
G75*
G02*
X121690000Y-102020000I0J140000D01*
G01*
X121690000Y-101740000D01*
G75*
G02*
X121830000Y-101600000I140000J0D01*
G01*
G37*
G36*
G01*
X121830000Y-100640000D02*
X122170000Y-100640000D01*
G75*
G02*
X122310000Y-100780000I0J-140000D01*
G01*
X122310000Y-101060000D01*
G75*
G02*
X122170000Y-101200000I-140000J0D01*
G01*
X121830000Y-101200000D01*
G75*
G02*
X121690000Y-101060000I0J140000D01*
G01*
X121690000Y-100780000D01*
G75*
G02*
X121830000Y-100640000I140000J0D01*
G01*
G37*
%TD*%
%TO.C,C5*%
G36*
G01*
X121830000Y-95600000D02*
X122170000Y-95600000D01*
G75*
G02*
X122310000Y-95740000I0J-140000D01*
G01*
X122310000Y-96020000D01*
G75*
G02*
X122170000Y-96160000I-140000J0D01*
G01*
X121830000Y-96160000D01*
G75*
G02*
X121690000Y-96020000I0J140000D01*
G01*
X121690000Y-95740000D01*
G75*
G02*
X121830000Y-95600000I140000J0D01*
G01*
G37*
G36*
G01*
X121830000Y-94640000D02*
X122170000Y-94640000D01*
G75*
G02*
X122310000Y-94780000I0J-140000D01*
G01*
X122310000Y-95060000D01*
G75*
G02*
X122170000Y-95200000I-140000J0D01*
G01*
X121830000Y-95200000D01*
G75*
G02*
X121690000Y-95060000I0J140000D01*
G01*
X121690000Y-94780000D01*
G75*
G02*
X121830000Y-94640000I140000J0D01*
G01*
G37*
%TD*%
%TO.C,C4*%
G36*
G01*
X121830000Y-93600000D02*
X122170000Y-93600000D01*
G75*
G02*
X122310000Y-93740000I0J-140000D01*
G01*
X122310000Y-94020000D01*
G75*
G02*
X122170000Y-94160000I-140000J0D01*
G01*
X121830000Y-94160000D01*
G75*
G02*
X121690000Y-94020000I0J140000D01*
G01*
X121690000Y-93740000D01*
G75*
G02*
X121830000Y-93600000I140000J0D01*
G01*
G37*
G36*
G01*
X121830000Y-92640000D02*
X122170000Y-92640000D01*
G75*
G02*
X122310000Y-92780000I0J-140000D01*
G01*
X122310000Y-93060000D01*
G75*
G02*
X122170000Y-93200000I-140000J0D01*
G01*
X121830000Y-93200000D01*
G75*
G02*
X121690000Y-93060000I0J140000D01*
G01*
X121690000Y-92780000D01*
G75*
G02*
X121830000Y-92640000I140000J0D01*
G01*
G37*
%TD*%
%TO.C,C3*%
G36*
G01*
X130800000Y-92530000D02*
X130800000Y-92870000D01*
G75*
G02*
X130660000Y-93010000I-140000J0D01*
G01*
X130380000Y-93010000D01*
G75*
G02*
X130240000Y-92870000I0J140000D01*
G01*
X130240000Y-92530000D01*
G75*
G02*
X130380000Y-92390000I140000J0D01*
G01*
X130660000Y-92390000D01*
G75*
G02*
X130800000Y-92530000I0J-140000D01*
G01*
G37*
G36*
G01*
X131760000Y-92530000D02*
X131760000Y-92870000D01*
G75*
G02*
X131620000Y-93010000I-140000J0D01*
G01*
X131340000Y-93010000D01*
G75*
G02*
X131200000Y-92870000I0J140000D01*
G01*
X131200000Y-92530000D01*
G75*
G02*
X131340000Y-92390000I140000J0D01*
G01*
X131620000Y-92390000D01*
G75*
G02*
X131760000Y-92530000I0J-140000D01*
G01*
G37*
%TD*%
%TO.C,C2*%
G36*
G01*
X159970000Y-101200000D02*
X159630000Y-101200000D01*
G75*
G02*
X159490000Y-101060000I0J140000D01*
G01*
X159490000Y-100780000D01*
G75*
G02*
X159630000Y-100640000I140000J0D01*
G01*
X159970000Y-100640000D01*
G75*
G02*
X160110000Y-100780000I0J-140000D01*
G01*
X160110000Y-101060000D01*
G75*
G02*
X159970000Y-101200000I-140000J0D01*
G01*
G37*
G36*
G01*
X159970000Y-102160000D02*
X159630000Y-102160000D01*
G75*
G02*
X159490000Y-102020000I0J140000D01*
G01*
X159490000Y-101740000D01*
G75*
G02*
X159630000Y-101600000I140000J0D01*
G01*
X159970000Y-101600000D01*
G75*
G02*
X160110000Y-101740000I0J-140000D01*
G01*
X160110000Y-102020000D01*
G75*
G02*
X159970000Y-102160000I-140000J0D01*
G01*
G37*
%TD*%
%TO.C,C1*%
G36*
G01*
X181970000Y-101300000D02*
X181630000Y-101300000D01*
G75*
G02*
X181490000Y-101160000I0J140000D01*
G01*
X181490000Y-100880000D01*
G75*
G02*
X181630000Y-100740000I140000J0D01*
G01*
X181970000Y-100740000D01*
G75*
G02*
X182110000Y-100880000I0J-140000D01*
G01*
X182110000Y-101160000D01*
G75*
G02*
X181970000Y-101300000I-140000J0D01*
G01*
G37*
G36*
G01*
X181970000Y-102260000D02*
X181630000Y-102260000D01*
G75*
G02*
X181490000Y-102120000I0J140000D01*
G01*
X181490000Y-101840000D01*
G75*
G02*
X181630000Y-101700000I140000J0D01*
G01*
X181970000Y-101700000D01*
G75*
G02*
X182110000Y-101840000I0J-140000D01*
G01*
X182110000Y-102120000D01*
G75*
G02*
X181970000Y-102260000I-140000J0D01*
G01*
G37*
%TD*%
M02*
