%TF.GenerationSoftware,KiCad,Pcbnew,5.1.9-73d0e3b20d~88~ubuntu20.04.1*%
%TF.CreationDate,2021-03-25T20:20:19-05:00*%
%TF.ProjectId,DroneController,44726f6e-6543-46f6-9e74-726f6c6c6572,rev?*%
%TF.SameCoordinates,Original*%
%TF.FileFunction,Soldermask,Bot*%
%TF.FilePolarity,Negative*%
%FSLAX46Y46*%
G04 Gerber Fmt 4.6, Leading zero omitted, Abs format (unit mm)*
G04 Created by KiCad (PCBNEW 5.1.9-73d0e3b20d~88~ubuntu20.04.1) date 2021-03-25 20:20:19*
%MOMM*%
%LPD*%
G01*
G04 APERTURE LIST*
%ADD10R,2.500000X2.500000*%
%ADD11O,1.700000X1.700000*%
%ADD12R,1.700000X1.700000*%
%ADD13O,1.100000X1.300000*%
%ADD14C,1.524000*%
%ADD15R,1.524000X1.524000*%
%ADD16C,0.800000*%
%ADD17C,6.400000*%
%ADD18C,2.000000*%
%ADD19R,2.000000X2.000000*%
G04 APERTURE END LIST*
D10*
%TO.C,TP26*%
X133500000Y-113800000D03*
%TD*%
%TO.C,TP25*%
X127700000Y-115800000D03*
%TD*%
%TO.C,TP24*%
X115400000Y-115000000D03*
%TD*%
%TO.C,TP23*%
X130000000Y-122600000D03*
%TD*%
%TO.C,TP22*%
X171900000Y-121700000D03*
%TD*%
%TO.C,TP21*%
X173600000Y-97700000D03*
%TD*%
%TO.C,TP20*%
X182500000Y-95100000D03*
%TD*%
%TO.C,TP19*%
X177000000Y-102700000D03*
%TD*%
%TO.C,TP18*%
X165800000Y-102100000D03*
%TD*%
%TO.C,TP17*%
X173600000Y-102700000D03*
%TD*%
%TO.C,TP16*%
X177200000Y-97700000D03*
%TD*%
%TO.C,TP15*%
X182500000Y-98700000D03*
%TD*%
%TO.C,TP14*%
X164800000Y-116400000D03*
%TD*%
%TO.C,TP13*%
X171800000Y-107600000D03*
%TD*%
%TO.C,TP12*%
X172900000Y-116400000D03*
%TD*%
%TO.C,TP11*%
X191500000Y-116000000D03*
%TD*%
%TO.C,TP10*%
X164600000Y-107600000D03*
%TD*%
%TO.C,TP9*%
X191500000Y-112400000D03*
%TD*%
%TO.C,TP8*%
X168900000Y-116400000D03*
%TD*%
%TO.C,TP7*%
X168200000Y-107600000D03*
%TD*%
%TO.C,TP6*%
X140600000Y-102800000D03*
%TD*%
%TO.C,TP5*%
X137300000Y-114900000D03*
%TD*%
%TO.C,TP4*%
X140600000Y-106100000D03*
%TD*%
%TO.C,TP3*%
X137300000Y-111600000D03*
%TD*%
%TO.C,TP2*%
X146900000Y-106600000D03*
%TD*%
%TO.C,TP1*%
X144300000Y-102800000D03*
%TD*%
D11*
%TO.C,J1*%
X160500000Y-128180000D03*
X160500000Y-125640000D03*
D12*
X160500000Y-123100000D03*
%TD*%
D13*
%TO.C,J2*%
X132400000Y-125250000D03*
X127600000Y-125250000D03*
G36*
G01*
X132600000Y-128750000D02*
X132600000Y-127750000D01*
G75*
G02*
X133100000Y-127250000I500000J0D01*
G01*
X134100000Y-127250000D01*
G75*
G02*
X134600000Y-127750000I0J-500000D01*
G01*
X134600000Y-128750000D01*
G75*
G02*
X134100000Y-129250000I-500000J0D01*
G01*
X133100000Y-129250000D01*
G75*
G02*
X132600000Y-128750000I0J500000D01*
G01*
G37*
G36*
G01*
X125400000Y-128750000D02*
X125400000Y-127750000D01*
G75*
G02*
X125900000Y-127250000I500000J0D01*
G01*
X126900000Y-127250000D01*
G75*
G02*
X127400000Y-127750000I0J-500000D01*
G01*
X127400000Y-128750000D01*
G75*
G02*
X126900000Y-129250000I-500000J0D01*
G01*
X125900000Y-129250000D01*
G75*
G02*
X125400000Y-128750000I0J500000D01*
G01*
G37*
%TD*%
D14*
%TO.C,U6*%
X168480000Y-113140000D03*
X168480000Y-110600000D03*
X171020000Y-113140000D03*
X171020000Y-110600000D03*
X173560000Y-113140000D03*
X173560000Y-110600000D03*
X176100000Y-113140000D03*
D15*
X176100000Y-110600000D03*
%TD*%
D16*
%TO.C,H4*%
X207945056Y-124286944D03*
X206248000Y-123584000D03*
X204550944Y-124286944D03*
X203848000Y-125984000D03*
X204550944Y-127681056D03*
X206248000Y-128384000D03*
X207945056Y-127681056D03*
X208648000Y-125984000D03*
D17*
X206248000Y-125984000D03*
%TD*%
D16*
%TO.C,H3*%
X207945056Y-82122944D03*
X206248000Y-81420000D03*
X204550944Y-82122944D03*
X203848000Y-83820000D03*
X204550944Y-85517056D03*
X206248000Y-86220000D03*
X207945056Y-85517056D03*
X208648000Y-83820000D03*
D17*
X206248000Y-83820000D03*
%TD*%
D16*
%TO.C,H2*%
X115489056Y-124286944D03*
X113792000Y-123584000D03*
X112094944Y-124286944D03*
X111392000Y-125984000D03*
X112094944Y-127681056D03*
X113792000Y-128384000D03*
X115489056Y-127681056D03*
X116192000Y-125984000D03*
D17*
X113792000Y-125984000D03*
%TD*%
D16*
%TO.C,H1*%
X115489056Y-82122944D03*
X113792000Y-81420000D03*
X112094944Y-82122944D03*
X111392000Y-83820000D03*
X112094944Y-85517056D03*
X113792000Y-86220000D03*
X115489056Y-85517056D03*
X116192000Y-83820000D03*
D17*
X113792000Y-83820000D03*
%TD*%
%TO.C,J14*%
G36*
G01*
X146400000Y-83850000D02*
X146400000Y-80950000D01*
G75*
G02*
X146650000Y-80700000I250000J0D01*
G01*
X147650000Y-80700000D01*
G75*
G02*
X147900000Y-80950000I0J-250000D01*
G01*
X147900000Y-83850000D01*
G75*
G02*
X147650000Y-84100000I-250000J0D01*
G01*
X146650000Y-84100000D01*
G75*
G02*
X146400000Y-83850000I0J250000D01*
G01*
G37*
G36*
G01*
X137700000Y-83850000D02*
X137700000Y-80950000D01*
G75*
G02*
X137950000Y-80700000I250000J0D01*
G01*
X138950000Y-80700000D01*
G75*
G02*
X139200000Y-80950000I0J-250000D01*
G01*
X139200000Y-83850000D01*
G75*
G02*
X138950000Y-84100000I-250000J0D01*
G01*
X137950000Y-84100000D01*
G75*
G02*
X137700000Y-83850000I0J250000D01*
G01*
G37*
G36*
G01*
X144300000Y-89650000D02*
X144300000Y-86650000D01*
G75*
G02*
X144550000Y-86400000I250000J0D01*
G01*
X145050000Y-86400000D01*
G75*
G02*
X145300000Y-86650000I0J-250000D01*
G01*
X145300000Y-89650000D01*
G75*
G02*
X145050000Y-89900000I-250000J0D01*
G01*
X144550000Y-89900000D01*
G75*
G02*
X144300000Y-89650000I0J250000D01*
G01*
G37*
G36*
G01*
X142300000Y-89650000D02*
X142300000Y-86650000D01*
G75*
G02*
X142550000Y-86400000I250000J0D01*
G01*
X143050000Y-86400000D01*
G75*
G02*
X143300000Y-86650000I0J-250000D01*
G01*
X143300000Y-89650000D01*
G75*
G02*
X143050000Y-89900000I-250000J0D01*
G01*
X142550000Y-89900000D01*
G75*
G02*
X142300000Y-89650000I0J250000D01*
G01*
G37*
G36*
G01*
X140300000Y-89650000D02*
X140300000Y-86650000D01*
G75*
G02*
X140550000Y-86400000I250000J0D01*
G01*
X141050000Y-86400000D01*
G75*
G02*
X141300000Y-86650000I0J-250000D01*
G01*
X141300000Y-89650000D01*
G75*
G02*
X141050000Y-89900000I-250000J0D01*
G01*
X140550000Y-89900000D01*
G75*
G02*
X140300000Y-89650000I0J250000D01*
G01*
G37*
%TD*%
%TO.C,J12*%
G36*
G01*
X157600000Y-83850000D02*
X157600000Y-80950000D01*
G75*
G02*
X157850000Y-80700000I250000J0D01*
G01*
X158850000Y-80700000D01*
G75*
G02*
X159100000Y-80950000I0J-250000D01*
G01*
X159100000Y-83850000D01*
G75*
G02*
X158850000Y-84100000I-250000J0D01*
G01*
X157850000Y-84100000D01*
G75*
G02*
X157600000Y-83850000I0J250000D01*
G01*
G37*
G36*
G01*
X148900000Y-83850000D02*
X148900000Y-80950000D01*
G75*
G02*
X149150000Y-80700000I250000J0D01*
G01*
X150150000Y-80700000D01*
G75*
G02*
X150400000Y-80950000I0J-250000D01*
G01*
X150400000Y-83850000D01*
G75*
G02*
X150150000Y-84100000I-250000J0D01*
G01*
X149150000Y-84100000D01*
G75*
G02*
X148900000Y-83850000I0J250000D01*
G01*
G37*
G36*
G01*
X155500000Y-89650000D02*
X155500000Y-86650000D01*
G75*
G02*
X155750000Y-86400000I250000J0D01*
G01*
X156250000Y-86400000D01*
G75*
G02*
X156500000Y-86650000I0J-250000D01*
G01*
X156500000Y-89650000D01*
G75*
G02*
X156250000Y-89900000I-250000J0D01*
G01*
X155750000Y-89900000D01*
G75*
G02*
X155500000Y-89650000I0J250000D01*
G01*
G37*
G36*
G01*
X153500000Y-89650000D02*
X153500000Y-86650000D01*
G75*
G02*
X153750000Y-86400000I250000J0D01*
G01*
X154250000Y-86400000D01*
G75*
G02*
X154500000Y-86650000I0J-250000D01*
G01*
X154500000Y-89650000D01*
G75*
G02*
X154250000Y-89900000I-250000J0D01*
G01*
X153750000Y-89900000D01*
G75*
G02*
X153500000Y-89650000I0J250000D01*
G01*
G37*
G36*
G01*
X151500000Y-89650000D02*
X151500000Y-86650000D01*
G75*
G02*
X151750000Y-86400000I250000J0D01*
G01*
X152250000Y-86400000D01*
G75*
G02*
X152500000Y-86650000I0J-250000D01*
G01*
X152500000Y-89650000D01*
G75*
G02*
X152250000Y-89900000I-250000J0D01*
G01*
X151750000Y-89900000D01*
G75*
G02*
X151500000Y-89650000I0J250000D01*
G01*
G37*
%TD*%
%TO.C,J10*%
G36*
G01*
X168800000Y-83850000D02*
X168800000Y-80950000D01*
G75*
G02*
X169050000Y-80700000I250000J0D01*
G01*
X170050000Y-80700000D01*
G75*
G02*
X170300000Y-80950000I0J-250000D01*
G01*
X170300000Y-83850000D01*
G75*
G02*
X170050000Y-84100000I-250000J0D01*
G01*
X169050000Y-84100000D01*
G75*
G02*
X168800000Y-83850000I0J250000D01*
G01*
G37*
G36*
G01*
X160100000Y-83850000D02*
X160100000Y-80950000D01*
G75*
G02*
X160350000Y-80700000I250000J0D01*
G01*
X161350000Y-80700000D01*
G75*
G02*
X161600000Y-80950000I0J-250000D01*
G01*
X161600000Y-83850000D01*
G75*
G02*
X161350000Y-84100000I-250000J0D01*
G01*
X160350000Y-84100000D01*
G75*
G02*
X160100000Y-83850000I0J250000D01*
G01*
G37*
G36*
G01*
X166700000Y-89650000D02*
X166700000Y-86650000D01*
G75*
G02*
X166950000Y-86400000I250000J0D01*
G01*
X167450000Y-86400000D01*
G75*
G02*
X167700000Y-86650000I0J-250000D01*
G01*
X167700000Y-89650000D01*
G75*
G02*
X167450000Y-89900000I-250000J0D01*
G01*
X166950000Y-89900000D01*
G75*
G02*
X166700000Y-89650000I0J250000D01*
G01*
G37*
G36*
G01*
X164700000Y-89650000D02*
X164700000Y-86650000D01*
G75*
G02*
X164950000Y-86400000I250000J0D01*
G01*
X165450000Y-86400000D01*
G75*
G02*
X165700000Y-86650000I0J-250000D01*
G01*
X165700000Y-89650000D01*
G75*
G02*
X165450000Y-89900000I-250000J0D01*
G01*
X164950000Y-89900000D01*
G75*
G02*
X164700000Y-89650000I0J250000D01*
G01*
G37*
G36*
G01*
X162700000Y-89650000D02*
X162700000Y-86650000D01*
G75*
G02*
X162950000Y-86400000I250000J0D01*
G01*
X163450000Y-86400000D01*
G75*
G02*
X163700000Y-86650000I0J-250000D01*
G01*
X163700000Y-89650000D01*
G75*
G02*
X163450000Y-89900000I-250000J0D01*
G01*
X162950000Y-89900000D01*
G75*
G02*
X162700000Y-89650000I0J250000D01*
G01*
G37*
%TD*%
%TO.C,J8*%
G36*
G01*
X180000000Y-83850000D02*
X180000000Y-80950000D01*
G75*
G02*
X180250000Y-80700000I250000J0D01*
G01*
X181250000Y-80700000D01*
G75*
G02*
X181500000Y-80950000I0J-250000D01*
G01*
X181500000Y-83850000D01*
G75*
G02*
X181250000Y-84100000I-250000J0D01*
G01*
X180250000Y-84100000D01*
G75*
G02*
X180000000Y-83850000I0J250000D01*
G01*
G37*
G36*
G01*
X171300000Y-83850000D02*
X171300000Y-80950000D01*
G75*
G02*
X171550000Y-80700000I250000J0D01*
G01*
X172550000Y-80700000D01*
G75*
G02*
X172800000Y-80950000I0J-250000D01*
G01*
X172800000Y-83850000D01*
G75*
G02*
X172550000Y-84100000I-250000J0D01*
G01*
X171550000Y-84100000D01*
G75*
G02*
X171300000Y-83850000I0J250000D01*
G01*
G37*
G36*
G01*
X177900000Y-89650000D02*
X177900000Y-86650000D01*
G75*
G02*
X178150000Y-86400000I250000J0D01*
G01*
X178650000Y-86400000D01*
G75*
G02*
X178900000Y-86650000I0J-250000D01*
G01*
X178900000Y-89650000D01*
G75*
G02*
X178650000Y-89900000I-250000J0D01*
G01*
X178150000Y-89900000D01*
G75*
G02*
X177900000Y-89650000I0J250000D01*
G01*
G37*
G36*
G01*
X175900000Y-89650000D02*
X175900000Y-86650000D01*
G75*
G02*
X176150000Y-86400000I250000J0D01*
G01*
X176650000Y-86400000D01*
G75*
G02*
X176900000Y-86650000I0J-250000D01*
G01*
X176900000Y-89650000D01*
G75*
G02*
X176650000Y-89900000I-250000J0D01*
G01*
X176150000Y-89900000D01*
G75*
G02*
X175900000Y-89650000I0J250000D01*
G01*
G37*
G36*
G01*
X173900000Y-89650000D02*
X173900000Y-86650000D01*
G75*
G02*
X174150000Y-86400000I250000J0D01*
G01*
X174650000Y-86400000D01*
G75*
G02*
X174900000Y-86650000I0J-250000D01*
G01*
X174900000Y-89650000D01*
G75*
G02*
X174650000Y-89900000I-250000J0D01*
G01*
X174150000Y-89900000D01*
G75*
G02*
X173900000Y-89650000I0J250000D01*
G01*
G37*
%TD*%
D18*
%TO.C,BZ1*%
X203600000Y-107500000D03*
D19*
X203600000Y-115100000D03*
%TD*%
M02*
