%TF.GenerationSoftware,KiCad,Pcbnew,5.1.9-73d0e3b20d~88~ubuntu20.04.1*%
%TF.CreationDate,2021-03-25T20:20:19-05:00*%
%TF.ProjectId,DroneController,44726f6e-6543-46f6-9e74-726f6c6c6572,rev?*%
%TF.SameCoordinates,Original*%
%TF.FileFunction,Copper,L4,Bot*%
%TF.FilePolarity,Positive*%
%FSLAX46Y46*%
G04 Gerber Fmt 4.6, Leading zero omitted, Abs format (unit mm)*
G04 Created by KiCad (PCBNEW 5.1.9-73d0e3b20d~88~ubuntu20.04.1) date 2021-03-25 20:20:19*
%MOMM*%
%LPD*%
G01*
G04 APERTURE LIST*
%TA.AperFunction,SMDPad,CuDef*%
%ADD10R,2.500000X2.500000*%
%TD*%
%TA.AperFunction,ComponentPad*%
%ADD11O,1.700000X1.700000*%
%TD*%
%TA.AperFunction,ComponentPad*%
%ADD12R,1.700000X1.700000*%
%TD*%
%TA.AperFunction,ComponentPad*%
%ADD13O,1.100000X1.300000*%
%TD*%
%TA.AperFunction,ComponentPad*%
%ADD14C,1.524000*%
%TD*%
%TA.AperFunction,ComponentPad*%
%ADD15R,1.524000X1.524000*%
%TD*%
%TA.AperFunction,ComponentPad*%
%ADD16C,0.800000*%
%TD*%
%TA.AperFunction,ComponentPad*%
%ADD17C,6.400000*%
%TD*%
%TA.AperFunction,ComponentPad*%
%ADD18C,2.000000*%
%TD*%
%TA.AperFunction,ComponentPad*%
%ADD19R,2.000000X2.000000*%
%TD*%
%TA.AperFunction,ViaPad*%
%ADD20C,0.600000*%
%TD*%
%TA.AperFunction,ViaPad*%
%ADD21C,0.800000*%
%TD*%
%TA.AperFunction,Conductor*%
%ADD22C,0.500000*%
%TD*%
%TA.AperFunction,Conductor*%
%ADD23C,0.250000*%
%TD*%
G04 APERTURE END LIST*
D10*
%TO.P,TP26,1*%
%TO.N,+3V3*%
X133500000Y-113800000D03*
%TD*%
%TO.P,TP25,1*%
%TO.N,/Power Supply/vBatt*%
X127700000Y-115800000D03*
%TD*%
%TO.P,TP24,1*%
%TO.N,/Power Supply/vBatt*%
X115400000Y-115000000D03*
%TD*%
%TO.P,TP23,1*%
%TO.N,+5V*%
X130000000Y-122600000D03*
%TD*%
%TO.P,TP22,1*%
%TO.N,GND*%
X171900000Y-121700000D03*
%TD*%
%TO.P,TP21,1*%
%TO.N,/Human Machine Interface/KEY_nCS*%
X173600000Y-97700000D03*
%TD*%
%TO.P,TP20,1*%
%TO.N,/Human Machine Interface/KEY_nSAMPLE*%
X182500000Y-95100000D03*
%TD*%
%TO.P,TP19,1*%
%TO.N,/Processor/KeyOut_nCS*%
X177000000Y-102700000D03*
%TD*%
%TO.P,TP18,1*%
%TO.N,GND*%
X165800000Y-102100000D03*
%TD*%
%TO.P,TP17,1*%
%TO.N,/Human Machine Interface/KEY_MISO*%
X173600000Y-102700000D03*
%TD*%
%TO.P,TP16,1*%
%TO.N,/Processor/KEY_MOSI*%
X177200000Y-97700000D03*
%TD*%
%TO.P,TP15,1*%
%TO.N,/Human Machine Interface/KEY_SCK*%
X182500000Y-98700000D03*
%TD*%
%TO.P,TP14,1*%
%TO.N,/Processor/RF24_nIRQ*%
X164800000Y-116400000D03*
%TD*%
%TO.P,TP13,1*%
%TO.N,/Processor/RF24_CE*%
X171800000Y-107600000D03*
%TD*%
%TO.P,TP12,1*%
%TO.N,/Processor/RF24_nCS*%
X172900000Y-116400000D03*
%TD*%
%TO.P,TP11,1*%
%TO.N,/Wireless/BT_TX*%
X191500000Y-116000000D03*
%TD*%
%TO.P,TP10,1*%
%TO.N,/Processor/RF24_MISO*%
X164600000Y-107600000D03*
%TD*%
%TO.P,TP9,1*%
%TO.N,/Wireless/BT_RX*%
X191500000Y-112400000D03*
%TD*%
%TO.P,TP8,1*%
%TO.N,/Processor/RF24_MOSI*%
X168900000Y-116400000D03*
%TD*%
%TO.P,TP7,1*%
%TO.N,/Processor/RF24_SCK*%
X168200000Y-107600000D03*
%TD*%
%TO.P,TP6,1*%
%TO.N,/Processor/NOR_nCS*%
X140600000Y-102800000D03*
%TD*%
%TO.P,TP5,1*%
%TO.N,/Processor/EEPROM_SCL*%
X137300000Y-114900000D03*
%TD*%
%TO.P,TP4,1*%
%TO.N,/Processor/NOR_MISO*%
X140600000Y-106100000D03*
%TD*%
%TO.P,TP3,1*%
%TO.N,/Processor/EEPROM_SDA*%
X137300000Y-111600000D03*
%TD*%
%TO.P,TP2,1*%
%TO.N,/Processor/NOR_MOSI*%
X146900000Y-106600000D03*
%TD*%
%TO.P,TP1,1*%
%TO.N,/Processor/NOR_SCK*%
X144300000Y-102800000D03*
%TD*%
D11*
%TO.P,J1,3*%
%TO.N,GND*%
X160500000Y-128180000D03*
%TO.P,J1,2*%
%TO.N,/Processor/DBG_UART_RX*%
X160500000Y-125640000D03*
D12*
%TO.P,J1,1*%
%TO.N,/Processor/DBG_UART_TX*%
X160500000Y-123100000D03*
%TD*%
D13*
%TO.P,J2,5*%
%TO.N,GND*%
X132400000Y-125250000D03*
X127600000Y-125250000D03*
%TA.AperFunction,ComponentPad*%
G36*
G01*
X132600000Y-128750000D02*
X132600000Y-127750000D01*
G75*
G02*
X133100000Y-127250000I500000J0D01*
G01*
X134100000Y-127250000D01*
G75*
G02*
X134600000Y-127750000I0J-500000D01*
G01*
X134600000Y-128750000D01*
G75*
G02*
X134100000Y-129250000I-500000J0D01*
G01*
X133100000Y-129250000D01*
G75*
G02*
X132600000Y-128750000I0J500000D01*
G01*
G37*
%TD.AperFunction*%
%TA.AperFunction,ComponentPad*%
G36*
G01*
X125400000Y-128750000D02*
X125400000Y-127750000D01*
G75*
G02*
X125900000Y-127250000I500000J0D01*
G01*
X126900000Y-127250000D01*
G75*
G02*
X127400000Y-127750000I0J-500000D01*
G01*
X127400000Y-128750000D01*
G75*
G02*
X126900000Y-129250000I-500000J0D01*
G01*
X125900000Y-129250000D01*
G75*
G02*
X125400000Y-128750000I0J500000D01*
G01*
G37*
%TD.AperFunction*%
%TD*%
D14*
%TO.P,U6,8*%
%TO.N,/Processor/RF24_nIRQ*%
X168480000Y-113140000D03*
%TO.P,U6,7*%
%TO.N,/Processor/RF24_MISO*%
X168480000Y-110600000D03*
%TO.P,U6,6*%
%TO.N,/Processor/RF24_MOSI*%
X171020000Y-113140000D03*
%TO.P,U6,5*%
%TO.N,/Processor/RF24_SCK*%
X171020000Y-110600000D03*
%TO.P,U6,4*%
%TO.N,/Processor/RF24_nCS*%
X173560000Y-113140000D03*
%TO.P,U6,3*%
%TO.N,/Processor/RF24_CE*%
X173560000Y-110600000D03*
%TO.P,U6,2*%
%TO.N,Net-(C34-Pad1)*%
X176100000Y-113140000D03*
D15*
%TO.P,U6,1*%
%TO.N,GND*%
X176100000Y-110600000D03*
%TD*%
D16*
%TO.P,H4,1*%
%TO.N,GND*%
X207945056Y-124286944D03*
X206248000Y-123584000D03*
X204550944Y-124286944D03*
X203848000Y-125984000D03*
X204550944Y-127681056D03*
X206248000Y-128384000D03*
X207945056Y-127681056D03*
X208648000Y-125984000D03*
D17*
X206248000Y-125984000D03*
%TD*%
D16*
%TO.P,H3,1*%
%TO.N,GND*%
X207945056Y-82122944D03*
X206248000Y-81420000D03*
X204550944Y-82122944D03*
X203848000Y-83820000D03*
X204550944Y-85517056D03*
X206248000Y-86220000D03*
X207945056Y-85517056D03*
X208648000Y-83820000D03*
D17*
X206248000Y-83820000D03*
%TD*%
D16*
%TO.P,H2,1*%
%TO.N,GND*%
X115489056Y-124286944D03*
X113792000Y-123584000D03*
X112094944Y-124286944D03*
X111392000Y-125984000D03*
X112094944Y-127681056D03*
X113792000Y-128384000D03*
X115489056Y-127681056D03*
X116192000Y-125984000D03*
D17*
X113792000Y-125984000D03*
%TD*%
D16*
%TO.P,H1,1*%
%TO.N,GND*%
X115489056Y-82122944D03*
X113792000Y-81420000D03*
X112094944Y-82122944D03*
X111392000Y-83820000D03*
X112094944Y-85517056D03*
X113792000Y-86220000D03*
X115489056Y-85517056D03*
X116192000Y-83820000D03*
D17*
X113792000Y-83820000D03*
%TD*%
%TO.P,J14,MP*%
%TO.N,N/C*%
%TA.AperFunction,SMDPad,CuDef*%
G36*
G01*
X146400000Y-83850000D02*
X146400000Y-80950000D01*
G75*
G02*
X146650000Y-80700000I250000J0D01*
G01*
X147650000Y-80700000D01*
G75*
G02*
X147900000Y-80950000I0J-250000D01*
G01*
X147900000Y-83850000D01*
G75*
G02*
X147650000Y-84100000I-250000J0D01*
G01*
X146650000Y-84100000D01*
G75*
G02*
X146400000Y-83850000I0J250000D01*
G01*
G37*
%TD.AperFunction*%
%TA.AperFunction,SMDPad,CuDef*%
G36*
G01*
X137700000Y-83850000D02*
X137700000Y-80950000D01*
G75*
G02*
X137950000Y-80700000I250000J0D01*
G01*
X138950000Y-80700000D01*
G75*
G02*
X139200000Y-80950000I0J-250000D01*
G01*
X139200000Y-83850000D01*
G75*
G02*
X138950000Y-84100000I-250000J0D01*
G01*
X137950000Y-84100000D01*
G75*
G02*
X137700000Y-83850000I0J250000D01*
G01*
G37*
%TD.AperFunction*%
%TO.P,J14,3*%
%TO.N,GND*%
%TA.AperFunction,SMDPad,CuDef*%
G36*
G01*
X144300000Y-89650000D02*
X144300000Y-86650000D01*
G75*
G02*
X144550000Y-86400000I250000J0D01*
G01*
X145050000Y-86400000D01*
G75*
G02*
X145300000Y-86650000I0J-250000D01*
G01*
X145300000Y-89650000D01*
G75*
G02*
X145050000Y-89900000I-250000J0D01*
G01*
X144550000Y-89900000D01*
G75*
G02*
X144300000Y-89650000I0J250000D01*
G01*
G37*
%TD.AperFunction*%
%TO.P,J14,2*%
%TO.N,Net-(C20-Pad1)*%
%TA.AperFunction,SMDPad,CuDef*%
G36*
G01*
X142300000Y-89650000D02*
X142300000Y-86650000D01*
G75*
G02*
X142550000Y-86400000I250000J0D01*
G01*
X143050000Y-86400000D01*
G75*
G02*
X143300000Y-86650000I0J-250000D01*
G01*
X143300000Y-89650000D01*
G75*
G02*
X143050000Y-89900000I-250000J0D01*
G01*
X142550000Y-89900000D01*
G75*
G02*
X142300000Y-89650000I0J250000D01*
G01*
G37*
%TD.AperFunction*%
%TO.P,J14,1*%
%TO.N,Net-(J14-Pad1)*%
%TA.AperFunction,SMDPad,CuDef*%
G36*
G01*
X140300000Y-89650000D02*
X140300000Y-86650000D01*
G75*
G02*
X140550000Y-86400000I250000J0D01*
G01*
X141050000Y-86400000D01*
G75*
G02*
X141300000Y-86650000I0J-250000D01*
G01*
X141300000Y-89650000D01*
G75*
G02*
X141050000Y-89900000I-250000J0D01*
G01*
X140550000Y-89900000D01*
G75*
G02*
X140300000Y-89650000I0J250000D01*
G01*
G37*
%TD.AperFunction*%
%TD*%
%TO.P,J12,MP*%
%TO.N,N/C*%
%TA.AperFunction,SMDPad,CuDef*%
G36*
G01*
X157600000Y-83850000D02*
X157600000Y-80950000D01*
G75*
G02*
X157850000Y-80700000I250000J0D01*
G01*
X158850000Y-80700000D01*
G75*
G02*
X159100000Y-80950000I0J-250000D01*
G01*
X159100000Y-83850000D01*
G75*
G02*
X158850000Y-84100000I-250000J0D01*
G01*
X157850000Y-84100000D01*
G75*
G02*
X157600000Y-83850000I0J250000D01*
G01*
G37*
%TD.AperFunction*%
%TA.AperFunction,SMDPad,CuDef*%
G36*
G01*
X148900000Y-83850000D02*
X148900000Y-80950000D01*
G75*
G02*
X149150000Y-80700000I250000J0D01*
G01*
X150150000Y-80700000D01*
G75*
G02*
X150400000Y-80950000I0J-250000D01*
G01*
X150400000Y-83850000D01*
G75*
G02*
X150150000Y-84100000I-250000J0D01*
G01*
X149150000Y-84100000D01*
G75*
G02*
X148900000Y-83850000I0J250000D01*
G01*
G37*
%TD.AperFunction*%
%TO.P,J12,3*%
%TO.N,GND*%
%TA.AperFunction,SMDPad,CuDef*%
G36*
G01*
X155500000Y-89650000D02*
X155500000Y-86650000D01*
G75*
G02*
X155750000Y-86400000I250000J0D01*
G01*
X156250000Y-86400000D01*
G75*
G02*
X156500000Y-86650000I0J-250000D01*
G01*
X156500000Y-89650000D01*
G75*
G02*
X156250000Y-89900000I-250000J0D01*
G01*
X155750000Y-89900000D01*
G75*
G02*
X155500000Y-89650000I0J250000D01*
G01*
G37*
%TD.AperFunction*%
%TO.P,J12,2*%
%TO.N,Net-(C17-Pad1)*%
%TA.AperFunction,SMDPad,CuDef*%
G36*
G01*
X153500000Y-89650000D02*
X153500000Y-86650000D01*
G75*
G02*
X153750000Y-86400000I250000J0D01*
G01*
X154250000Y-86400000D01*
G75*
G02*
X154500000Y-86650000I0J-250000D01*
G01*
X154500000Y-89650000D01*
G75*
G02*
X154250000Y-89900000I-250000J0D01*
G01*
X153750000Y-89900000D01*
G75*
G02*
X153500000Y-89650000I0J250000D01*
G01*
G37*
%TD.AperFunction*%
%TO.P,J12,1*%
%TO.N,Net-(J12-Pad1)*%
%TA.AperFunction,SMDPad,CuDef*%
G36*
G01*
X151500000Y-89650000D02*
X151500000Y-86650000D01*
G75*
G02*
X151750000Y-86400000I250000J0D01*
G01*
X152250000Y-86400000D01*
G75*
G02*
X152500000Y-86650000I0J-250000D01*
G01*
X152500000Y-89650000D01*
G75*
G02*
X152250000Y-89900000I-250000J0D01*
G01*
X151750000Y-89900000D01*
G75*
G02*
X151500000Y-89650000I0J250000D01*
G01*
G37*
%TD.AperFunction*%
%TD*%
%TO.P,J10,MP*%
%TO.N,N/C*%
%TA.AperFunction,SMDPad,CuDef*%
G36*
G01*
X168800000Y-83850000D02*
X168800000Y-80950000D01*
G75*
G02*
X169050000Y-80700000I250000J0D01*
G01*
X170050000Y-80700000D01*
G75*
G02*
X170300000Y-80950000I0J-250000D01*
G01*
X170300000Y-83850000D01*
G75*
G02*
X170050000Y-84100000I-250000J0D01*
G01*
X169050000Y-84100000D01*
G75*
G02*
X168800000Y-83850000I0J250000D01*
G01*
G37*
%TD.AperFunction*%
%TA.AperFunction,SMDPad,CuDef*%
G36*
G01*
X160100000Y-83850000D02*
X160100000Y-80950000D01*
G75*
G02*
X160350000Y-80700000I250000J0D01*
G01*
X161350000Y-80700000D01*
G75*
G02*
X161600000Y-80950000I0J-250000D01*
G01*
X161600000Y-83850000D01*
G75*
G02*
X161350000Y-84100000I-250000J0D01*
G01*
X160350000Y-84100000D01*
G75*
G02*
X160100000Y-83850000I0J250000D01*
G01*
G37*
%TD.AperFunction*%
%TO.P,J10,3*%
%TO.N,GND*%
%TA.AperFunction,SMDPad,CuDef*%
G36*
G01*
X166700000Y-89650000D02*
X166700000Y-86650000D01*
G75*
G02*
X166950000Y-86400000I250000J0D01*
G01*
X167450000Y-86400000D01*
G75*
G02*
X167700000Y-86650000I0J-250000D01*
G01*
X167700000Y-89650000D01*
G75*
G02*
X167450000Y-89900000I-250000J0D01*
G01*
X166950000Y-89900000D01*
G75*
G02*
X166700000Y-89650000I0J250000D01*
G01*
G37*
%TD.AperFunction*%
%TO.P,J10,2*%
%TO.N,Net-(C14-Pad1)*%
%TA.AperFunction,SMDPad,CuDef*%
G36*
G01*
X164700000Y-89650000D02*
X164700000Y-86650000D01*
G75*
G02*
X164950000Y-86400000I250000J0D01*
G01*
X165450000Y-86400000D01*
G75*
G02*
X165700000Y-86650000I0J-250000D01*
G01*
X165700000Y-89650000D01*
G75*
G02*
X165450000Y-89900000I-250000J0D01*
G01*
X164950000Y-89900000D01*
G75*
G02*
X164700000Y-89650000I0J250000D01*
G01*
G37*
%TD.AperFunction*%
%TO.P,J10,1*%
%TO.N,Net-(J10-Pad1)*%
%TA.AperFunction,SMDPad,CuDef*%
G36*
G01*
X162700000Y-89650000D02*
X162700000Y-86650000D01*
G75*
G02*
X162950000Y-86400000I250000J0D01*
G01*
X163450000Y-86400000D01*
G75*
G02*
X163700000Y-86650000I0J-250000D01*
G01*
X163700000Y-89650000D01*
G75*
G02*
X163450000Y-89900000I-250000J0D01*
G01*
X162950000Y-89900000D01*
G75*
G02*
X162700000Y-89650000I0J250000D01*
G01*
G37*
%TD.AperFunction*%
%TD*%
%TO.P,J8,MP*%
%TO.N,N/C*%
%TA.AperFunction,SMDPad,CuDef*%
G36*
G01*
X180000000Y-83850000D02*
X180000000Y-80950000D01*
G75*
G02*
X180250000Y-80700000I250000J0D01*
G01*
X181250000Y-80700000D01*
G75*
G02*
X181500000Y-80950000I0J-250000D01*
G01*
X181500000Y-83850000D01*
G75*
G02*
X181250000Y-84100000I-250000J0D01*
G01*
X180250000Y-84100000D01*
G75*
G02*
X180000000Y-83850000I0J250000D01*
G01*
G37*
%TD.AperFunction*%
%TA.AperFunction,SMDPad,CuDef*%
G36*
G01*
X171300000Y-83850000D02*
X171300000Y-80950000D01*
G75*
G02*
X171550000Y-80700000I250000J0D01*
G01*
X172550000Y-80700000D01*
G75*
G02*
X172800000Y-80950000I0J-250000D01*
G01*
X172800000Y-83850000D01*
G75*
G02*
X172550000Y-84100000I-250000J0D01*
G01*
X171550000Y-84100000D01*
G75*
G02*
X171300000Y-83850000I0J250000D01*
G01*
G37*
%TD.AperFunction*%
%TO.P,J8,3*%
%TO.N,GND*%
%TA.AperFunction,SMDPad,CuDef*%
G36*
G01*
X177900000Y-89650000D02*
X177900000Y-86650000D01*
G75*
G02*
X178150000Y-86400000I250000J0D01*
G01*
X178650000Y-86400000D01*
G75*
G02*
X178900000Y-86650000I0J-250000D01*
G01*
X178900000Y-89650000D01*
G75*
G02*
X178650000Y-89900000I-250000J0D01*
G01*
X178150000Y-89900000D01*
G75*
G02*
X177900000Y-89650000I0J250000D01*
G01*
G37*
%TD.AperFunction*%
%TO.P,J8,2*%
%TO.N,Net-(C11-Pad1)*%
%TA.AperFunction,SMDPad,CuDef*%
G36*
G01*
X175900000Y-89650000D02*
X175900000Y-86650000D01*
G75*
G02*
X176150000Y-86400000I250000J0D01*
G01*
X176650000Y-86400000D01*
G75*
G02*
X176900000Y-86650000I0J-250000D01*
G01*
X176900000Y-89650000D01*
G75*
G02*
X176650000Y-89900000I-250000J0D01*
G01*
X176150000Y-89900000D01*
G75*
G02*
X175900000Y-89650000I0J250000D01*
G01*
G37*
%TD.AperFunction*%
%TO.P,J8,1*%
%TO.N,Net-(J8-Pad1)*%
%TA.AperFunction,SMDPad,CuDef*%
G36*
G01*
X173900000Y-89650000D02*
X173900000Y-86650000D01*
G75*
G02*
X174150000Y-86400000I250000J0D01*
G01*
X174650000Y-86400000D01*
G75*
G02*
X174900000Y-86650000I0J-250000D01*
G01*
X174900000Y-89650000D01*
G75*
G02*
X174650000Y-89900000I-250000J0D01*
G01*
X174150000Y-89900000D01*
G75*
G02*
X173900000Y-89650000I0J250000D01*
G01*
G37*
%TD.AperFunction*%
%TD*%
D18*
%TO.P,BZ1,2*%
%TO.N,Net-(BZ1-Pad2)*%
X203600000Y-107500000D03*
D19*
%TO.P,BZ1,1*%
%TO.N,+3V3*%
X203600000Y-115100000D03*
%TD*%
D20*
%TO.N,+3V3*%
X133400000Y-113800000D03*
X173900000Y-120600000D03*
X173900000Y-123100000D03*
X165900000Y-123100000D03*
X165900000Y-120600000D03*
X144400000Y-126800000D03*
X144400000Y-128500000D03*
X132300000Y-116900000D03*
X133300000Y-116900000D03*
X134300000Y-116900000D03*
X133300000Y-110900000D03*
X132300000Y-110900000D03*
X134300000Y-110900000D03*
X171800000Y-93000000D03*
X181000000Y-93000000D03*
X169800000Y-93000000D03*
X160600000Y-93000000D03*
X158600000Y-93000000D03*
X149400000Y-93000000D03*
X147400000Y-93000000D03*
X138200000Y-93000000D03*
X121000000Y-96600000D03*
X122000000Y-104600000D03*
X156200000Y-122400000D03*
X153400000Y-122400000D03*
X155400000Y-124800000D03*
X135990000Y-123610000D03*
X145400000Y-113900000D03*
X130600000Y-119100000D03*
X186550000Y-126450000D03*
X122000000Y-90200000D03*
X119300000Y-100400000D03*
X121000000Y-98200000D03*
X119500000Y-92400000D03*
X130400000Y-113800000D03*
X130400000Y-113100000D03*
X130400000Y-114500000D03*
X131100000Y-113100000D03*
X131100000Y-113800000D03*
X131100000Y-114500000D03*
X144380000Y-105520000D03*
X179900000Y-107600000D03*
X154900000Y-106680000D03*
X184820000Y-113020000D03*
X130490000Y-88590000D03*
X123500000Y-88600004D03*
X131480000Y-91920000D03*
X160600000Y-101800000D03*
X162700000Y-118600000D03*
X183914167Y-102185831D03*
X182599994Y-102000000D03*
X165100002Y-112000000D03*
%TO.N,GND*%
X165700000Y-102100000D03*
X164900000Y-101200000D03*
X164900000Y-103000000D03*
X166700000Y-103000000D03*
X166700000Y-101200000D03*
X171900000Y-122600000D03*
X149400000Y-126800000D03*
X149400000Y-128500000D03*
X146900000Y-128500000D03*
X146900000Y-126800000D03*
X145700000Y-128500000D03*
X145700000Y-126800000D03*
X126450000Y-111850000D03*
X126450000Y-111100000D03*
X127700000Y-111100000D03*
X127700000Y-111850000D03*
X113500000Y-112750000D03*
X115500000Y-112750000D03*
X117500000Y-112750000D03*
X120480000Y-117980000D03*
X123000000Y-112600000D03*
X123000000Y-116100000D03*
X177000000Y-93200000D03*
X178400000Y-93800000D03*
X174400000Y-93800000D03*
D21*
X176400000Y-84800000D03*
X178400000Y-84800000D03*
D20*
X165800000Y-93200000D03*
X167200000Y-93800000D03*
X163200000Y-93800000D03*
X167200000Y-85600000D03*
X165200000Y-85600000D03*
X154000000Y-85800000D03*
X142800000Y-85800000D03*
X156000000Y-85800000D03*
X144800000Y-85800000D03*
X152000000Y-93800000D03*
X154400000Y-93400000D03*
X156000000Y-93800000D03*
X143400000Y-93400000D03*
X144800000Y-93800000D03*
X140800000Y-93800000D03*
X121000000Y-104600000D03*
X208000000Y-116700000D03*
X156500000Y-124800000D03*
X154200000Y-124800000D03*
X139665004Y-124565004D03*
X142200000Y-126700000D03*
X135990000Y-129490000D03*
X151400000Y-126100000D03*
X158600000Y-126000000D03*
X145400000Y-112900000D03*
X136020000Y-122620000D03*
X135000000Y-119700000D03*
X159200000Y-116300000D03*
X166900000Y-117300000D03*
X170900000Y-117300000D03*
X174900000Y-117300000D03*
X178900000Y-117300000D03*
X186900000Y-120700000D03*
X190550000Y-120850000D03*
X187100000Y-125700000D03*
X200550000Y-123250000D03*
X121000000Y-90200000D03*
X122000000Y-97400000D03*
X122880000Y-100920000D03*
X123000000Y-92800000D03*
X144380000Y-106480000D03*
X138400000Y-108000000D03*
X153500000Y-105900000D03*
X180900000Y-114200000D03*
X178000000Y-114200000D03*
X157584990Y-106200000D03*
X184820000Y-113980000D03*
X119795408Y-112595408D03*
X140375000Y-113525000D03*
X133075000Y-84025000D03*
X126075000Y-84024996D03*
X128500000Y-103900000D03*
X129700000Y-92700000D03*
X208787500Y-104287500D03*
X160580000Y-100920000D03*
X149555000Y-97955000D03*
X171500000Y-98199994D03*
X192545000Y-102655000D03*
X186110000Y-100990000D03*
X180500000Y-111000000D03*
X171900000Y-120800000D03*
X171900000Y-121700000D03*
X182640914Y-100769989D03*
X165100000Y-112900000D03*
%TO.N,Net-(C11-Pad1)*%
X176600000Y-90800000D03*
%TO.N,Net-(C14-Pad1)*%
X165400000Y-90800000D03*
%TO.N,Net-(C17-Pad1)*%
X153910000Y-90890000D03*
%TO.N,Net-(C20-Pad1)*%
X142890000Y-90910000D03*
%TO.N,/Human Machine Interface/nRESET*%
X155100000Y-121200000D03*
X139300000Y-115700000D03*
%TO.N,+5V*%
X130000000Y-120900000D03*
%TO.N,/Power Supply/vBatt*%
X114700000Y-114700000D03*
X115525000Y-114725000D03*
X116300000Y-114700000D03*
%TO.N,/Processor/VSense_Batt*%
X118760000Y-116760000D03*
%TO.N,/Processor/DBG_UART_RX*%
X161300000Y-107500000D03*
%TO.N,/Processor/DBG_UART_TX*%
X160600000Y-106700000D03*
%TO.N,Net-(J8-Pad1)*%
X173200000Y-91000000D03*
%TO.N,Net-(J10-Pad1)*%
X162000000Y-91000000D03*
%TO.N,Net-(J12-Pad1)*%
X151000000Y-91000000D03*
%TO.N,Net-(J14-Pad1)*%
X139600000Y-91000000D03*
%TO.N,/Human Machine Interface/ENC1_A*%
X147400000Y-108900000D03*
X125000000Y-93700000D03*
%TO.N,/Human Machine Interface/ENC1_B*%
X147400000Y-109800000D03*
X125000000Y-94800000D03*
%TO.N,/Human Machine Interface/ENC0_A*%
X125000000Y-101900000D03*
X147900000Y-118100000D03*
%TO.N,/Human Machine Interface/ENC0_B*%
X125000000Y-103000000D03*
X157700000Y-121899998D03*
%TO.N,/Processor/EEPROM_SDA*%
X145100000Y-117300000D03*
X150500000Y-114800000D03*
%TO.N,/Processor/EEPROM_SCL*%
X149100000Y-114900000D03*
X144600000Y-116600000D03*
%TO.N,GND*%
X119990000Y-126210000D03*
X121110000Y-126210000D03*
%TO.N,/Human Machine Interface/KEY_nCS*%
X151600000Y-121900000D03*
X135500000Y-95600000D03*
X157175003Y-102925003D03*
X179075000Y-103025000D03*
%TO.N,Net-(U1-Pad10)*%
X148500000Y-95600000D03*
X174600000Y-94900000D03*
%TO.N,/Human Machine Interface/KEY_MISO*%
X155300000Y-115500000D03*
X171455004Y-103155004D03*
%TO.N,/Human Machine Interface/KEY_SCK*%
X152500000Y-114900000D03*
X130275000Y-95225000D03*
X179600000Y-95100000D03*
X156500000Y-97900000D03*
X187195000Y-105195000D03*
%TO.N,/Human Machine Interface/KEY_nSAMPLE*%
X151100000Y-120900000D03*
X130255000Y-93955000D03*
X180345000Y-94345000D03*
X158445000Y-94344996D03*
%TO.N,/Processor/NOR_SCK*%
X141775000Y-108034998D03*
%TO.N,/Processor/NOR_MOSI*%
X149400000Y-108200000D03*
%TO.N,/Processor/NOR_MISO*%
X136825000Y-106765000D03*
%TO.N,/Processor/NOR_nCS*%
X136825000Y-105495000D03*
%TO.N,/Processor/KEY_MOSI*%
X184400000Y-109000000D03*
X157300000Y-111300000D03*
%TO.N,/Processor/KeyOut_nCS*%
X155700000Y-116700000D03*
X184400000Y-106500000D03*
%TO.N,/Wireless/BT_TX*%
X193500000Y-115200000D03*
%TO.N,/Wireless/BT_RX*%
X193487500Y-113200000D03*
%TO.N,/Power Supply/vBatt*%
X127800000Y-115700000D03*
X127800000Y-116600000D03*
%TO.N,+5V*%
X110990000Y-122790000D03*
X115500000Y-120400000D03*
%TO.N,/Power Supply/vBatt*%
X127050000Y-116150000D03*
%TO.N,/Power Supply/CHG_nEN*%
X189535000Y-107735000D03*
X120000000Y-125200000D03*
%TO.N,Net-(R92-Pad2)*%
X149400000Y-105400000D03*
X150300000Y-108200000D03*
%TO.N,/Processor/VSense_Batt*%
X163700000Y-119300000D03*
%TD*%
D22*
%TO.N,GND*%
X178400000Y-88150000D02*
X178400000Y-84800000D01*
X178400000Y-84800000D02*
X178400000Y-84800000D01*
D23*
X167200000Y-88150000D02*
X167200000Y-85600000D01*
X156000000Y-88150000D02*
X156000000Y-85800000D01*
X144800000Y-88150000D02*
X144800000Y-85800000D01*
%TO.N,Net-(C11-Pad1)*%
X176400000Y-90600000D02*
X176400000Y-88150000D01*
X176600000Y-90800000D02*
X176400000Y-90600000D01*
%TO.N,Net-(C14-Pad1)*%
X165400000Y-88350000D02*
X165200000Y-88150000D01*
X165400000Y-90800000D02*
X165400000Y-88350000D01*
%TO.N,Net-(C17-Pad1)*%
X153910000Y-88240000D02*
X154000000Y-88150000D01*
X153910000Y-90890000D02*
X153910000Y-88240000D01*
%TO.N,Net-(C20-Pad1)*%
X142890000Y-88240000D02*
X142800000Y-88150000D01*
X142890000Y-90910000D02*
X142890000Y-88240000D01*
%TO.N,/Human Machine Interface/nRESET*%
X155100000Y-121200000D02*
X155100000Y-122300000D01*
X154484999Y-122915001D02*
X150615001Y-122915001D01*
X155100000Y-122300000D02*
X154484999Y-122915001D01*
X150615001Y-122915001D02*
X150200000Y-122500000D01*
X150200000Y-122500000D02*
X150200000Y-116500000D01*
X150200000Y-116500000D02*
X151300000Y-115400000D01*
X151300000Y-115400000D02*
X151300000Y-114100000D01*
X151300000Y-114100000D02*
X150900000Y-113700000D01*
X150900000Y-113700000D02*
X148300000Y-113700000D01*
X148300000Y-113700000D02*
X147800000Y-114200000D01*
X147800000Y-114200000D02*
X147800000Y-115200000D01*
X147800000Y-115200000D02*
X147300000Y-115700000D01*
X147300000Y-115700000D02*
X139300000Y-115700000D01*
%TO.N,+5V*%
X130000000Y-122600000D02*
X130000000Y-120900000D01*
%TO.N,/Processor/DBG_UART_RX*%
X162000000Y-124900000D02*
X161260000Y-125640000D01*
X161260000Y-125640000D02*
X160500000Y-125640000D01*
X162000000Y-122200000D02*
X162000000Y-124900000D01*
X161300000Y-121500000D02*
X162000000Y-122200000D01*
X161300000Y-107500000D02*
X161300000Y-121500000D01*
%TO.N,/Processor/DBG_UART_TX*%
X160615001Y-106715001D02*
X160600000Y-106700000D01*
X160615001Y-122984999D02*
X160615001Y-106715001D01*
X160500000Y-123100000D02*
X160615001Y-122984999D01*
%TO.N,Net-(J8-Pad1)*%
X174400000Y-88150000D02*
X174400000Y-90400000D01*
X174400000Y-90400000D02*
X173800000Y-91000000D01*
X173800000Y-91000000D02*
X173200000Y-91000000D01*
%TO.N,Net-(J10-Pad1)*%
X163200000Y-88150000D02*
X163200000Y-90800000D01*
X163200000Y-90800000D02*
X163000000Y-91000000D01*
X163000000Y-91000000D02*
X162000000Y-91000000D01*
%TO.N,Net-(J12-Pad1)*%
X151600000Y-91000000D02*
X151000000Y-91000000D01*
X152000000Y-90600000D02*
X151600000Y-91000000D01*
X152000000Y-88150000D02*
X152000000Y-90600000D01*
%TO.N,Net-(J14-Pad1)*%
X139600000Y-91000000D02*
X140600000Y-91000000D01*
X140800000Y-90800000D02*
X140800000Y-88150000D01*
X140600000Y-91000000D02*
X140800000Y-90800000D01*
%TO.N,/Human Machine Interface/ENC1_A*%
X126000000Y-93700000D02*
X125000000Y-93700000D01*
X126900000Y-94600000D02*
X126000000Y-93700000D01*
X126900000Y-108400000D02*
X126900000Y-94600000D01*
X127400000Y-108900000D02*
X126900000Y-108400000D01*
X147400000Y-108900000D02*
X127400000Y-108900000D01*
%TO.N,/Human Machine Interface/ENC1_B*%
X126400000Y-95300000D02*
X125900000Y-94800000D01*
X125900000Y-94800000D02*
X125000000Y-94800000D01*
X126400000Y-109300000D02*
X126400000Y-95300000D01*
X126900000Y-109800000D02*
X126400000Y-109300000D01*
X147400000Y-109800000D02*
X126900000Y-109800000D01*
%TO.N,/Human Machine Interface/ENC0_A*%
X125300000Y-101900000D02*
X125000000Y-101900000D01*
X126300000Y-117800000D02*
X125700000Y-117200000D01*
X134900000Y-118100000D02*
X134600000Y-117800000D01*
X125700000Y-102300000D02*
X125300000Y-101900000D01*
X125700000Y-117200000D02*
X125700000Y-102300000D01*
X134600000Y-117800000D02*
X126300000Y-117800000D01*
X147900000Y-118100000D02*
X134900000Y-118100000D01*
%TO.N,/Human Machine Interface/ENC0_B*%
X157700000Y-123100000D02*
X157700000Y-121899998D01*
X157100000Y-123700000D02*
X157700000Y-123100000D01*
X150500000Y-123700000D02*
X157100000Y-123700000D01*
X145300000Y-118500000D02*
X150500000Y-123700000D01*
X126100000Y-118500000D02*
X145300000Y-118500000D01*
X125000000Y-117400000D02*
X126100000Y-118500000D01*
X125000000Y-103000000D02*
X125000000Y-117400000D01*
%TO.N,/Processor/EEPROM_SDA*%
X148000000Y-117300000D02*
X150500000Y-114800000D01*
X145100000Y-117300000D02*
X148000000Y-117300000D01*
X137300000Y-111600000D02*
X135900000Y-111600000D01*
X135900000Y-111600000D02*
X135600000Y-111900000D01*
X135600000Y-111900000D02*
X135600000Y-116800000D01*
X136100000Y-117300000D02*
X145100000Y-117300000D01*
X135600000Y-116800000D02*
X136100000Y-117300000D01*
%TO.N,/Processor/EEPROM_SCL*%
X149100000Y-114900000D02*
X147400000Y-116600000D01*
X147400000Y-116600000D02*
X144600000Y-116600000D01*
X139000000Y-116600000D02*
X137300000Y-114900000D01*
X144600000Y-116600000D02*
X139000000Y-116600000D01*
%TO.N,/Processor/RF24_nCS*%
X172900000Y-113800000D02*
X173560000Y-113140000D01*
X172900000Y-116400000D02*
X172900000Y-113800000D01*
%TO.N,/Processor/RF24_nIRQ*%
X164800000Y-116400000D02*
X166400000Y-116400000D01*
X166400000Y-116400000D02*
X166900000Y-115900000D01*
X166900000Y-115900000D02*
X166900000Y-113600000D01*
X166900000Y-113600000D02*
X167300000Y-113200000D01*
X168420000Y-113200000D02*
X168480000Y-113140000D01*
X167300000Y-113200000D02*
X168420000Y-113200000D01*
%TO.N,/Human Machine Interface/KEY_nCS*%
X135800000Y-99800000D02*
X156600000Y-99800000D01*
X135500000Y-99500000D02*
X135800000Y-99800000D01*
X135500000Y-95600000D02*
X135500000Y-99500000D01*
X157175000Y-102925000D02*
X157175003Y-102925003D01*
X157175000Y-99800000D02*
X157175000Y-102925000D01*
X156600000Y-99800000D02*
X157175000Y-99800000D01*
X157175003Y-103524997D02*
X157175003Y-102925003D01*
X154200000Y-106500000D02*
X157175003Y-103524997D01*
X154200000Y-119300000D02*
X154200000Y-106500000D01*
X151600000Y-121900000D02*
X154200000Y-119300000D01*
X179100000Y-103000000D02*
X179075000Y-103025000D01*
X179100000Y-100300000D02*
X179100000Y-103000000D01*
X178600000Y-99800000D02*
X179100000Y-100300000D01*
X173600000Y-99700000D02*
X173700000Y-99800000D01*
X173600000Y-97700000D02*
X173600000Y-99700000D01*
X173700000Y-99800000D02*
X178600000Y-99800000D01*
X156600000Y-99800000D02*
X173700000Y-99800000D01*
%TO.N,Net-(U1-Pad10)*%
X148800000Y-94900000D02*
X174600000Y-94900000D01*
X148500000Y-95200000D02*
X148800000Y-94900000D01*
X148500000Y-95600000D02*
X148500000Y-95200000D01*
%TO.N,/Human Machine Interface/KEY_MISO*%
X171455004Y-104044996D02*
X171455004Y-103155004D01*
X170900000Y-104600000D02*
X171455004Y-104044996D01*
X157200000Y-104600000D02*
X170900000Y-104600000D01*
X155599999Y-106200001D02*
X157200000Y-104600000D01*
X155599999Y-115200001D02*
X155599999Y-106200001D01*
X155300000Y-115500000D02*
X155599999Y-115200001D01*
X171910008Y-102700000D02*
X171455004Y-103155004D01*
X173600000Y-102700000D02*
X171910008Y-102700000D01*
%TO.N,/Human Machine Interface/KEY_SCK*%
X170000000Y-95700000D02*
X179000000Y-95700000D01*
X179000000Y-95700000D02*
X179600000Y-95100000D01*
X156500000Y-97900000D02*
X156500000Y-95700000D01*
X156500000Y-95700000D02*
X170000000Y-95700000D01*
X151800000Y-95700000D02*
X156500000Y-95700000D01*
X146300000Y-96300000D02*
X151200000Y-96300000D01*
X144700000Y-94700000D02*
X146300000Y-96300000D01*
X151200000Y-96300000D02*
X151800000Y-95700000D01*
X131400000Y-94700000D02*
X144700000Y-94700000D01*
X130875000Y-95225000D02*
X131400000Y-94700000D01*
X130275000Y-95225000D02*
X130875000Y-95225000D01*
X129575000Y-95225000D02*
X130275000Y-95225000D01*
X128900000Y-95900000D02*
X129575000Y-95225000D01*
X128900000Y-99100000D02*
X128900000Y-95900000D01*
X130100000Y-100300000D02*
X128900000Y-99100000D01*
X146100000Y-100300000D02*
X130100000Y-100300000D01*
X152500000Y-106700000D02*
X146100000Y-100300000D01*
X152500000Y-114900000D02*
X152500000Y-106700000D01*
X186057202Y-105195000D02*
X187195000Y-105195000D01*
X185062202Y-104200000D02*
X186057202Y-105195000D01*
X181800000Y-104200000D02*
X185062202Y-104200000D01*
X180400000Y-102800000D02*
X181800000Y-104200000D01*
X179600000Y-95100000D02*
X180400000Y-95900000D01*
X182500000Y-98700000D02*
X180400000Y-98700000D01*
X180400000Y-98700000D02*
X180400000Y-102800000D01*
X180400000Y-95900000D02*
X180400000Y-98700000D01*
%TO.N,/Human Machine Interface/KEY_nSAMPLE*%
X180345000Y-94345000D02*
X158445004Y-94345000D01*
X158445004Y-94345000D02*
X158445000Y-94344996D01*
X158445000Y-94344996D02*
X131344996Y-94344996D01*
X130955000Y-93955000D02*
X130255000Y-93955000D01*
X131344996Y-94344996D02*
X130955000Y-93955000D01*
X129345000Y-93955000D02*
X130255000Y-93955000D01*
X128400000Y-94900000D02*
X129345000Y-93955000D01*
X128400000Y-99300000D02*
X128400000Y-94900000D01*
X129800000Y-100700000D02*
X128400000Y-99300000D01*
X145900000Y-100700000D02*
X129800000Y-100700000D01*
X151800000Y-106600000D02*
X145900000Y-100700000D01*
X151800000Y-115800000D02*
X151800000Y-106600000D01*
X151100000Y-116500000D02*
X151800000Y-115800000D01*
X151100000Y-120900000D02*
X151100000Y-116500000D01*
X181745000Y-94345000D02*
X182500000Y-95100000D01*
X180345000Y-94345000D02*
X181745000Y-94345000D01*
%TO.N,/Processor/NOR_SCK*%
X144300000Y-102800000D02*
X145000000Y-103500000D01*
X145000000Y-103500000D02*
X145000000Y-107500000D01*
X145000000Y-107500000D02*
X144465002Y-108034998D01*
X144465002Y-108034998D02*
X141775000Y-108034998D01*
%TO.N,/Processor/NOR_MOSI*%
X146900000Y-106600000D02*
X148900000Y-106600000D01*
X148900000Y-106600000D02*
X149400000Y-107100000D01*
X149400000Y-107100000D02*
X149400000Y-108200000D01*
%TO.N,/Processor/NOR_MISO*%
X136835000Y-106765000D02*
X136825000Y-106765000D01*
X139835000Y-106765000D02*
X136835000Y-106765000D01*
X140600000Y-106000000D02*
X139835000Y-106765000D01*
%TO.N,/Processor/NOR_nCS*%
X140600000Y-102800000D02*
X137200000Y-102800000D01*
X137200000Y-102800000D02*
X136800000Y-103200000D01*
X136800000Y-105470000D02*
X136825000Y-105495000D01*
X136800000Y-103200000D02*
X136800000Y-105470000D01*
%TO.N,/Processor/RF24_MISO*%
X168480000Y-110600000D02*
X165300000Y-110600000D01*
X164600000Y-109900000D02*
X164600000Y-107600000D01*
X165300000Y-110600000D02*
X164600000Y-109900000D01*
%TO.N,/Processor/RF24_MOSI*%
X168900000Y-116400000D02*
X170500000Y-116400000D01*
X171020000Y-115880000D02*
X171020000Y-113140000D01*
X170500000Y-116400000D02*
X171020000Y-115880000D01*
%TO.N,/Processor/RF24_SCK*%
X168200000Y-107600000D02*
X169600000Y-107600000D01*
X169600000Y-107600000D02*
X170000000Y-108000000D01*
X170000000Y-109580000D02*
X171020000Y-110600000D01*
X170000000Y-108000000D02*
X170000000Y-109580000D01*
%TO.N,/Processor/RF24_CE*%
X171800000Y-107600000D02*
X173000000Y-107600000D01*
X173560000Y-108160000D02*
X173560000Y-110600000D01*
X173000000Y-107600000D02*
X173560000Y-108160000D01*
%TO.N,/Processor/KEY_MOSI*%
X157300000Y-108200000D02*
X157300000Y-111300000D01*
X181200000Y-105800000D02*
X159700000Y-105800000D01*
X184400000Y-109000000D02*
X181200000Y-105800000D01*
X159700000Y-105800000D02*
X157300000Y-108200000D01*
X185200000Y-108200000D02*
X184400000Y-109000000D01*
X185200000Y-105700000D02*
X185200000Y-108200000D01*
X184200000Y-104700000D02*
X185200000Y-105700000D01*
X179800000Y-103100000D02*
X181400000Y-104700000D01*
X179800000Y-98200000D02*
X179800000Y-103100000D01*
X179300000Y-97700000D02*
X179800000Y-98200000D01*
X181400000Y-104700000D02*
X184200000Y-104700000D01*
X177200000Y-97700000D02*
X179300000Y-97700000D01*
%TO.N,/Processor/KeyOut_nCS*%
X156200000Y-116200000D02*
X155700000Y-116700000D01*
X159347192Y-105200000D02*
X156200000Y-108347192D01*
X156200000Y-108347192D02*
X156200000Y-116200000D01*
X184400000Y-106500000D02*
X183100000Y-105200000D01*
X177000000Y-102700000D02*
X177000000Y-105200000D01*
X177000000Y-105200000D02*
X159347192Y-105200000D01*
X183100000Y-105200000D02*
X177000000Y-105200000D01*
%TO.N,/Wireless/BT_TX*%
X192300000Y-115200000D02*
X191500000Y-116000000D01*
X193500000Y-115200000D02*
X192300000Y-115200000D01*
%TO.N,/Wireless/BT_RX*%
X192300000Y-113200000D02*
X191500000Y-112400000D01*
X193487500Y-113200000D02*
X192300000Y-113200000D01*
%TO.N,+5V*%
X122800000Y-120900000D02*
X130000000Y-120900000D01*
X122300000Y-120400000D02*
X122800000Y-120900000D01*
X122300000Y-116400000D02*
X122300000Y-120400000D01*
X121900000Y-116000000D02*
X122300000Y-116400000D01*
X118400000Y-116000000D02*
X121900000Y-116000000D01*
X118100000Y-116300000D02*
X118400000Y-116000000D01*
X118100000Y-119800000D02*
X118100000Y-116300000D01*
X117500000Y-120400000D02*
X118100000Y-119800000D01*
X115500000Y-120400000D02*
X117500000Y-120400000D01*
X110990000Y-122790000D02*
X110990000Y-120810000D01*
X111400000Y-120400000D02*
X115500000Y-120400000D01*
X110990000Y-120810000D02*
X111400000Y-120400000D01*
%TO.N,/Power Supply/CHG_nEN*%
X121400000Y-125200000D02*
X120000000Y-125200000D01*
X122000000Y-125200000D02*
X121400000Y-125200000D01*
X123400000Y-126600000D02*
X122000000Y-125200000D01*
X140069154Y-126600000D02*
X123400000Y-126600000D01*
X152600000Y-125400000D02*
X141269154Y-125400000D01*
X182700000Y-127100000D02*
X154300000Y-127100000D01*
X141269154Y-125400000D02*
X140069154Y-126600000D01*
X188100000Y-121700000D02*
X182700000Y-127100000D01*
X154300000Y-127100000D02*
X152600000Y-125400000D01*
X188100000Y-108300000D02*
X188100000Y-121700000D01*
X188665000Y-107735000D02*
X188100000Y-108300000D01*
X189535000Y-107735000D02*
X188665000Y-107735000D01*
%TO.N,Net-(R92-Pad2)*%
X150300000Y-106300000D02*
X149400000Y-105400000D01*
X150300000Y-108200000D02*
X150300000Y-106300000D01*
%TO.N,/Processor/VSense_Batt*%
X122100000Y-124600000D02*
X119100000Y-124600000D01*
X123700000Y-126200000D02*
X122100000Y-124600000D01*
X139900000Y-126200000D02*
X123700000Y-126200000D01*
X141040010Y-125059990D02*
X139900000Y-126200000D01*
X152740836Y-125059990D02*
X141040010Y-125059990D01*
X162994999Y-126705001D02*
X154385847Y-126705001D01*
X119100000Y-124600000D02*
X118760000Y-124260000D01*
X154385847Y-126705001D02*
X152740836Y-125059990D01*
X163700000Y-126000000D02*
X162994999Y-126705001D01*
X118760000Y-124260000D02*
X118760000Y-116760000D01*
X163700000Y-119300000D02*
X163700000Y-126000000D01*
%TD*%
M02*
