%TF.GenerationSoftware,KiCad,Pcbnew,5.1.9-73d0e3b20d~88~ubuntu20.04.1*%
%TF.CreationDate,2021-03-25T20:20:19-05:00*%
%TF.ProjectId,DroneController,44726f6e-6543-46f6-9e74-726f6c6c6572,rev?*%
%TF.SameCoordinates,Original*%
%TF.FileFunction,Legend,Top*%
%TF.FilePolarity,Positive*%
%FSLAX46Y46*%
G04 Gerber Fmt 4.6, Leading zero omitted, Abs format (unit mm)*
G04 Created by KiCad (PCBNEW 5.1.9-73d0e3b20d~88~ubuntu20.04.1) date 2021-03-25 20:20:19*
%MOMM*%
%LPD*%
G01*
G04 APERTURE LIST*
%ADD10C,0.150000*%
%ADD11C,0.100000*%
%ADD12C,0.120000*%
G04 APERTURE END LIST*
D10*
X184502261Y-81897619D02*
X184407023Y-81850000D01*
X184311785Y-81754761D01*
X184168928Y-81611904D01*
X184073690Y-81564285D01*
X183978452Y-81564285D01*
X184026071Y-81802380D02*
X183930833Y-81754761D01*
X183835595Y-81659523D01*
X183787976Y-81469047D01*
X183787976Y-81135714D01*
X183835595Y-80945238D01*
X183930833Y-80850000D01*
X184026071Y-80802380D01*
X184216547Y-80802380D01*
X184311785Y-80850000D01*
X184407023Y-80945238D01*
X184454642Y-81135714D01*
X184454642Y-81469047D01*
X184407023Y-81659523D01*
X184311785Y-81754761D01*
X184216547Y-81802380D01*
X184026071Y-81802380D01*
X185311785Y-81135714D02*
X185311785Y-81802380D01*
X184883214Y-81135714D02*
X184883214Y-81659523D01*
X184930833Y-81754761D01*
X185026071Y-81802380D01*
X185168928Y-81802380D01*
X185264166Y-81754761D01*
X185311785Y-81707142D01*
X186216547Y-81802380D02*
X186216547Y-81278571D01*
X186168928Y-81183333D01*
X186073690Y-81135714D01*
X185883214Y-81135714D01*
X185787976Y-81183333D01*
X186216547Y-81754761D02*
X186121309Y-81802380D01*
X185883214Y-81802380D01*
X185787976Y-81754761D01*
X185740357Y-81659523D01*
X185740357Y-81564285D01*
X185787976Y-81469047D01*
X185883214Y-81421428D01*
X186121309Y-81421428D01*
X186216547Y-81373809D01*
X187121309Y-81802380D02*
X187121309Y-80802380D01*
X187121309Y-81754761D02*
X187026071Y-81802380D01*
X186835595Y-81802380D01*
X186740357Y-81754761D01*
X186692738Y-81707142D01*
X186645119Y-81611904D01*
X186645119Y-81326190D01*
X186692738Y-81230952D01*
X186740357Y-81183333D01*
X186835595Y-81135714D01*
X187026071Y-81135714D01*
X187121309Y-81183333D01*
X187597500Y-81802380D02*
X187597500Y-81135714D01*
X187597500Y-81326190D02*
X187645119Y-81230952D01*
X187692738Y-81183333D01*
X187787976Y-81135714D01*
X187883214Y-81135714D01*
X188359404Y-81802380D02*
X188264166Y-81754761D01*
X188216547Y-81707142D01*
X188168928Y-81611904D01*
X188168928Y-81326190D01*
X188216547Y-81230952D01*
X188264166Y-81183333D01*
X188359404Y-81135714D01*
X188502261Y-81135714D01*
X188597500Y-81183333D01*
X188645119Y-81230952D01*
X188692738Y-81326190D01*
X188692738Y-81611904D01*
X188645119Y-81707142D01*
X188597500Y-81754761D01*
X188502261Y-81802380D01*
X188359404Y-81802380D01*
X188978452Y-81135714D02*
X189359404Y-81135714D01*
X189121309Y-80802380D02*
X189121309Y-81659523D01*
X189168928Y-81754761D01*
X189264166Y-81802380D01*
X189359404Y-81802380D01*
X189835595Y-81802380D02*
X189740357Y-81754761D01*
X189692738Y-81707142D01*
X189645119Y-81611904D01*
X189645119Y-81326190D01*
X189692738Y-81230952D01*
X189740357Y-81183333D01*
X189835595Y-81135714D01*
X189978452Y-81135714D01*
X190073690Y-81183333D01*
X190121309Y-81230952D01*
X190168928Y-81326190D01*
X190168928Y-81611904D01*
X190121309Y-81707142D01*
X190073690Y-81754761D01*
X189978452Y-81802380D01*
X189835595Y-81802380D01*
X190597500Y-81802380D02*
X190597500Y-81135714D01*
X190597500Y-81326190D02*
X190645119Y-81230952D01*
X190692738Y-81183333D01*
X190787976Y-81135714D01*
X190883214Y-81135714D01*
X192549880Y-81707142D02*
X192502261Y-81754761D01*
X192359404Y-81802380D01*
X192264166Y-81802380D01*
X192121309Y-81754761D01*
X192026071Y-81659523D01*
X191978452Y-81564285D01*
X191930833Y-81373809D01*
X191930833Y-81230952D01*
X191978452Y-81040476D01*
X192026071Y-80945238D01*
X192121309Y-80850000D01*
X192264166Y-80802380D01*
X192359404Y-80802380D01*
X192502261Y-80850000D01*
X192549880Y-80897619D01*
X193121309Y-81802380D02*
X193026071Y-81754761D01*
X192978452Y-81707142D01*
X192930833Y-81611904D01*
X192930833Y-81326190D01*
X192978452Y-81230952D01*
X193026071Y-81183333D01*
X193121309Y-81135714D01*
X193264166Y-81135714D01*
X193359404Y-81183333D01*
X193407023Y-81230952D01*
X193454642Y-81326190D01*
X193454642Y-81611904D01*
X193407023Y-81707142D01*
X193359404Y-81754761D01*
X193264166Y-81802380D01*
X193121309Y-81802380D01*
X193883214Y-81135714D02*
X193883214Y-81802380D01*
X193883214Y-81230952D02*
X193930833Y-81183333D01*
X194026071Y-81135714D01*
X194168928Y-81135714D01*
X194264166Y-81183333D01*
X194311785Y-81278571D01*
X194311785Y-81802380D01*
X194645119Y-81135714D02*
X195026071Y-81135714D01*
X194787976Y-80802380D02*
X194787976Y-81659523D01*
X194835595Y-81754761D01*
X194930833Y-81802380D01*
X195026071Y-81802380D01*
X195359404Y-81802380D02*
X195359404Y-81135714D01*
X195359404Y-81326190D02*
X195407023Y-81230952D01*
X195454642Y-81183333D01*
X195549880Y-81135714D01*
X195645119Y-81135714D01*
X196121309Y-81802380D02*
X196026071Y-81754761D01*
X195978452Y-81707142D01*
X195930833Y-81611904D01*
X195930833Y-81326190D01*
X195978452Y-81230952D01*
X196026071Y-81183333D01*
X196121309Y-81135714D01*
X196264166Y-81135714D01*
X196359404Y-81183333D01*
X196407023Y-81230952D01*
X196454642Y-81326190D01*
X196454642Y-81611904D01*
X196407023Y-81707142D01*
X196359404Y-81754761D01*
X196264166Y-81802380D01*
X196121309Y-81802380D01*
X197026071Y-81802380D02*
X196930833Y-81754761D01*
X196883214Y-81659523D01*
X196883214Y-80802380D01*
X197549880Y-81802380D02*
X197454642Y-81754761D01*
X197407023Y-81659523D01*
X197407023Y-80802380D01*
X198311785Y-81754761D02*
X198216547Y-81802380D01*
X198026071Y-81802380D01*
X197930833Y-81754761D01*
X197883214Y-81659523D01*
X197883214Y-81278571D01*
X197930833Y-81183333D01*
X198026071Y-81135714D01*
X198216547Y-81135714D01*
X198311785Y-81183333D01*
X198359404Y-81278571D01*
X198359404Y-81373809D01*
X197883214Y-81469047D01*
X198787976Y-81802380D02*
X198787976Y-81135714D01*
X198787976Y-81326190D02*
X198835595Y-81230952D01*
X198883214Y-81183333D01*
X198978452Y-81135714D01*
X199073690Y-81135714D01*
X200073690Y-81135714D02*
X200311785Y-81802380D01*
X200549880Y-81135714D01*
X201454642Y-81802380D02*
X200883214Y-81802380D01*
X201168928Y-81802380D02*
X201168928Y-80802380D01*
X201073690Y-80945238D01*
X200978452Y-81040476D01*
X200883214Y-81088095D01*
X201883214Y-81707142D02*
X201930833Y-81754761D01*
X201883214Y-81802380D01*
X201835595Y-81754761D01*
X201883214Y-81707142D01*
X201883214Y-81802380D01*
X202549880Y-80802380D02*
X202645119Y-80802380D01*
X202740357Y-80850000D01*
X202787976Y-80897619D01*
X202835595Y-80992857D01*
X202883214Y-81183333D01*
X202883214Y-81421428D01*
X202835595Y-81611904D01*
X202787976Y-81707142D01*
X202740357Y-81754761D01*
X202645119Y-81802380D01*
X202549880Y-81802380D01*
X202454642Y-81754761D01*
X202407023Y-81707142D01*
X202359404Y-81611904D01*
X202311785Y-81421428D01*
X202311785Y-81183333D01*
X202359404Y-80992857D01*
X202407023Y-80897619D01*
X202454642Y-80850000D01*
X202549880Y-80802380D01*
X183787976Y-85054761D02*
X183930833Y-85102380D01*
X184168928Y-85102380D01*
X184264166Y-85054761D01*
X184311785Y-85007142D01*
X184359404Y-84911904D01*
X184359404Y-84816666D01*
X184311785Y-84721428D01*
X184264166Y-84673809D01*
X184168928Y-84626190D01*
X183978452Y-84578571D01*
X183883214Y-84530952D01*
X183835595Y-84483333D01*
X183787976Y-84388095D01*
X183787976Y-84292857D01*
X183835595Y-84197619D01*
X183883214Y-84150000D01*
X183978452Y-84102380D01*
X184216547Y-84102380D01*
X184359404Y-84150000D01*
X184787976Y-84435714D02*
X184787976Y-85435714D01*
X184787976Y-84483333D02*
X184883214Y-84435714D01*
X185073690Y-84435714D01*
X185168928Y-84483333D01*
X185216547Y-84530952D01*
X185264166Y-84626190D01*
X185264166Y-84911904D01*
X185216547Y-85007142D01*
X185168928Y-85054761D01*
X185073690Y-85102380D01*
X184883214Y-85102380D01*
X184787976Y-85054761D01*
X186073690Y-85054761D02*
X185978452Y-85102380D01*
X185787976Y-85102380D01*
X185692738Y-85054761D01*
X185645119Y-84959523D01*
X185645119Y-84578571D01*
X185692738Y-84483333D01*
X185787976Y-84435714D01*
X185978452Y-84435714D01*
X186073690Y-84483333D01*
X186121309Y-84578571D01*
X186121309Y-84673809D01*
X185645119Y-84769047D01*
X186978452Y-85054761D02*
X186883214Y-85102380D01*
X186692738Y-85102380D01*
X186597500Y-85054761D01*
X186549880Y-85007142D01*
X186502261Y-84911904D01*
X186502261Y-84626190D01*
X186549880Y-84530952D01*
X186597500Y-84483333D01*
X186692738Y-84435714D01*
X186883214Y-84435714D01*
X186978452Y-84483333D01*
X187407023Y-85102380D02*
X187407023Y-84435714D01*
X187407023Y-84102380D02*
X187359404Y-84150000D01*
X187407023Y-84197619D01*
X187454642Y-84150000D01*
X187407023Y-84102380D01*
X187407023Y-84197619D01*
X187740357Y-84435714D02*
X188121309Y-84435714D01*
X187883214Y-85102380D02*
X187883214Y-84245238D01*
X187930833Y-84150000D01*
X188026071Y-84102380D01*
X188121309Y-84102380D01*
X188454642Y-85102380D02*
X188454642Y-84435714D01*
X188454642Y-84102380D02*
X188407023Y-84150000D01*
X188454642Y-84197619D01*
X188502261Y-84150000D01*
X188454642Y-84102380D01*
X188454642Y-84197619D01*
X189359404Y-85054761D02*
X189264166Y-85102380D01*
X189073690Y-85102380D01*
X188978452Y-85054761D01*
X188930833Y-85007142D01*
X188883214Y-84911904D01*
X188883214Y-84626190D01*
X188930833Y-84530952D01*
X188978452Y-84483333D01*
X189073690Y-84435714D01*
X189264166Y-84435714D01*
X189359404Y-84483333D01*
X190216547Y-85102380D02*
X190216547Y-84578571D01*
X190168928Y-84483333D01*
X190073690Y-84435714D01*
X189883214Y-84435714D01*
X189787976Y-84483333D01*
X190216547Y-85054761D02*
X190121309Y-85102380D01*
X189883214Y-85102380D01*
X189787976Y-85054761D01*
X189740357Y-84959523D01*
X189740357Y-84864285D01*
X189787976Y-84769047D01*
X189883214Y-84721428D01*
X190121309Y-84721428D01*
X190216547Y-84673809D01*
X190549880Y-84435714D02*
X190930833Y-84435714D01*
X190692738Y-84102380D02*
X190692738Y-84959523D01*
X190740357Y-85054761D01*
X190835595Y-85102380D01*
X190930833Y-85102380D01*
X191264166Y-85102380D02*
X191264166Y-84435714D01*
X191264166Y-84102380D02*
X191216547Y-84150000D01*
X191264166Y-84197619D01*
X191311785Y-84150000D01*
X191264166Y-84102380D01*
X191264166Y-84197619D01*
X191883214Y-85102380D02*
X191787976Y-85054761D01*
X191740357Y-85007142D01*
X191692738Y-84911904D01*
X191692738Y-84626190D01*
X191740357Y-84530952D01*
X191787976Y-84483333D01*
X191883214Y-84435714D01*
X192026071Y-84435714D01*
X192121309Y-84483333D01*
X192168928Y-84530952D01*
X192216547Y-84626190D01*
X192216547Y-84911904D01*
X192168928Y-85007142D01*
X192121309Y-85054761D01*
X192026071Y-85102380D01*
X191883214Y-85102380D01*
X192645119Y-84435714D02*
X192645119Y-85102380D01*
X192645119Y-84530952D02*
X192692738Y-84483333D01*
X192787976Y-84435714D01*
X192930833Y-84435714D01*
X193026071Y-84483333D01*
X193073690Y-84578571D01*
X193073690Y-85102380D01*
X193502261Y-85054761D02*
X193597500Y-85102380D01*
X193787976Y-85102380D01*
X193883214Y-85054761D01*
X193930833Y-84959523D01*
X193930833Y-84911904D01*
X193883214Y-84816666D01*
X193787976Y-84769047D01*
X193645119Y-84769047D01*
X193549880Y-84721428D01*
X193502261Y-84626190D01*
X193502261Y-84578571D01*
X193549880Y-84483333D01*
X193645119Y-84435714D01*
X193787976Y-84435714D01*
X193883214Y-84483333D01*
X194359404Y-85007142D02*
X194407023Y-85054761D01*
X194359404Y-85102380D01*
X194311785Y-85054761D01*
X194359404Y-85007142D01*
X194359404Y-85102380D01*
X194359404Y-84483333D02*
X194407023Y-84530952D01*
X194359404Y-84578571D01*
X194311785Y-84530952D01*
X194359404Y-84483333D01*
X194359404Y-84578571D01*
X186835595Y-86704761D02*
X186978452Y-86752380D01*
X187216547Y-86752380D01*
X187311785Y-86704761D01*
X187359404Y-86657142D01*
X187407023Y-86561904D01*
X187407023Y-86466666D01*
X187359404Y-86371428D01*
X187311785Y-86323809D01*
X187216547Y-86276190D01*
X187026071Y-86228571D01*
X186930833Y-86180952D01*
X186883214Y-86133333D01*
X186835595Y-86038095D01*
X186835595Y-85942857D01*
X186883214Y-85847619D01*
X186930833Y-85800000D01*
X187026071Y-85752380D01*
X187264166Y-85752380D01*
X187407023Y-85800000D01*
X187692738Y-85752380D02*
X188264166Y-85752380D01*
X187978452Y-86752380D02*
X187978452Y-85752380D01*
X188597500Y-86752380D02*
X188597500Y-85752380D01*
X188930833Y-86466666D01*
X189264166Y-85752380D01*
X189264166Y-86752380D01*
X189645119Y-85752380D02*
X190264166Y-85752380D01*
X189930833Y-86133333D01*
X190073690Y-86133333D01*
X190168928Y-86180952D01*
X190216547Y-86228571D01*
X190264166Y-86323809D01*
X190264166Y-86561904D01*
X190216547Y-86657142D01*
X190168928Y-86704761D01*
X190073690Y-86752380D01*
X189787976Y-86752380D01*
X189692738Y-86704761D01*
X189645119Y-86657142D01*
X190645119Y-85847619D02*
X190692738Y-85800000D01*
X190787976Y-85752380D01*
X191026071Y-85752380D01*
X191121309Y-85800000D01*
X191168928Y-85847619D01*
X191216547Y-85942857D01*
X191216547Y-86038095D01*
X191168928Y-86180952D01*
X190597500Y-86752380D01*
X191216547Y-86752380D01*
X191978452Y-86228571D02*
X191645119Y-86228571D01*
X191645119Y-86752380D02*
X191645119Y-85752380D01*
X192121309Y-85752380D01*
X192930833Y-86085714D02*
X192930833Y-86752380D01*
X192692738Y-85704761D02*
X192454642Y-86419047D01*
X193073690Y-86419047D01*
X193883214Y-86085714D02*
X193883214Y-86752380D01*
X193645119Y-85704761D02*
X193407023Y-86419047D01*
X194026071Y-86419047D01*
X194835595Y-85752380D02*
X194645119Y-85752380D01*
X194549880Y-85800000D01*
X194502261Y-85847619D01*
X194407023Y-85990476D01*
X194359404Y-86180952D01*
X194359404Y-86561904D01*
X194407023Y-86657142D01*
X194454642Y-86704761D01*
X194549880Y-86752380D01*
X194740357Y-86752380D01*
X194835595Y-86704761D01*
X194883214Y-86657142D01*
X194930833Y-86561904D01*
X194930833Y-86323809D01*
X194883214Y-86228571D01*
X194835595Y-86180952D01*
X194740357Y-86133333D01*
X194549880Y-86133333D01*
X194454642Y-86180952D01*
X194407023Y-86228571D01*
X194359404Y-86323809D01*
X195930833Y-86752380D02*
X195597500Y-86276190D01*
X195359404Y-86752380D02*
X195359404Y-85752380D01*
X195740357Y-85752380D01*
X195835595Y-85800000D01*
X195883214Y-85847619D01*
X195930833Y-85942857D01*
X195930833Y-86085714D01*
X195883214Y-86180952D01*
X195835595Y-86228571D01*
X195740357Y-86276190D01*
X195359404Y-86276190D01*
X196359404Y-86228571D02*
X196692738Y-86228571D01*
X196835595Y-86752380D02*
X196359404Y-86752380D01*
X196359404Y-85752380D01*
X196835595Y-85752380D01*
X187407023Y-88402380D02*
X186835595Y-88402380D01*
X187121309Y-88402380D02*
X187121309Y-87402380D01*
X187026071Y-87545238D01*
X186930833Y-87640476D01*
X186835595Y-87688095D01*
X187835595Y-88402380D02*
X187835595Y-87402380D01*
X188168928Y-88116666D01*
X188502261Y-87402380D01*
X188502261Y-88402380D01*
X189311785Y-87878571D02*
X189454642Y-87926190D01*
X189502261Y-87973809D01*
X189549880Y-88069047D01*
X189549880Y-88211904D01*
X189502261Y-88307142D01*
X189454642Y-88354761D01*
X189359404Y-88402380D01*
X188978452Y-88402380D01*
X188978452Y-87402380D01*
X189311785Y-87402380D01*
X189407023Y-87450000D01*
X189454642Y-87497619D01*
X189502261Y-87592857D01*
X189502261Y-87688095D01*
X189454642Y-87783333D01*
X189407023Y-87830952D01*
X189311785Y-87878571D01*
X188978452Y-87878571D01*
X190740357Y-88402380D02*
X190740357Y-87402380D01*
X191311785Y-88402380D01*
X191311785Y-87402380D01*
X191978452Y-87402380D02*
X192168928Y-87402380D01*
X192264166Y-87450000D01*
X192359404Y-87545238D01*
X192407023Y-87735714D01*
X192407023Y-88069047D01*
X192359404Y-88259523D01*
X192264166Y-88354761D01*
X192168928Y-88402380D01*
X191978452Y-88402380D01*
X191883214Y-88354761D01*
X191787976Y-88259523D01*
X191740357Y-88069047D01*
X191740357Y-87735714D01*
X191787976Y-87545238D01*
X191883214Y-87450000D01*
X191978452Y-87402380D01*
X193407023Y-88402380D02*
X193073690Y-87926190D01*
X192835595Y-88402380D02*
X192835595Y-87402380D01*
X193216547Y-87402380D01*
X193311785Y-87450000D01*
X193359404Y-87497619D01*
X193407023Y-87592857D01*
X193407023Y-87735714D01*
X193359404Y-87830952D01*
X193311785Y-87878571D01*
X193216547Y-87926190D01*
X192835595Y-87926190D01*
X194930833Y-87878571D02*
X194597500Y-87878571D01*
X194597500Y-88402380D02*
X194597500Y-87402380D01*
X195073690Y-87402380D01*
X195597500Y-88402380D02*
X195502261Y-88354761D01*
X195454642Y-88259523D01*
X195454642Y-87402380D01*
X196407023Y-88402380D02*
X196407023Y-87878571D01*
X196359404Y-87783333D01*
X196264166Y-87735714D01*
X196073690Y-87735714D01*
X195978452Y-87783333D01*
X196407023Y-88354761D02*
X196311785Y-88402380D01*
X196073690Y-88402380D01*
X195978452Y-88354761D01*
X195930833Y-88259523D01*
X195930833Y-88164285D01*
X195978452Y-88069047D01*
X196073690Y-88021428D01*
X196311785Y-88021428D01*
X196407023Y-87973809D01*
X196835595Y-88354761D02*
X196930833Y-88402380D01*
X197121309Y-88402380D01*
X197216547Y-88354761D01*
X197264166Y-88259523D01*
X197264166Y-88211904D01*
X197216547Y-88116666D01*
X197121309Y-88069047D01*
X196978452Y-88069047D01*
X196883214Y-88021428D01*
X196835595Y-87926190D01*
X196835595Y-87878571D01*
X196883214Y-87783333D01*
X196978452Y-87735714D01*
X197121309Y-87735714D01*
X197216547Y-87783333D01*
X197692738Y-88402380D02*
X197692738Y-87402380D01*
X198121309Y-88402380D02*
X198121309Y-87878571D01*
X198073690Y-87783333D01*
X197978452Y-87735714D01*
X197835595Y-87735714D01*
X197740357Y-87783333D01*
X197692738Y-87830952D01*
X186787976Y-89052380D02*
X187407023Y-89052380D01*
X187073690Y-89433333D01*
X187216547Y-89433333D01*
X187311785Y-89480952D01*
X187359404Y-89528571D01*
X187407023Y-89623809D01*
X187407023Y-89861904D01*
X187359404Y-89957142D01*
X187311785Y-90004761D01*
X187216547Y-90052380D01*
X186930833Y-90052380D01*
X186835595Y-90004761D01*
X186787976Y-89957142D01*
X187787976Y-89147619D02*
X187835595Y-89100000D01*
X187930833Y-89052380D01*
X188168928Y-89052380D01*
X188264166Y-89100000D01*
X188311785Y-89147619D01*
X188359404Y-89242857D01*
X188359404Y-89338095D01*
X188311785Y-89480952D01*
X187740357Y-90052380D01*
X188359404Y-90052380D01*
X188787976Y-90052380D02*
X188787976Y-89052380D01*
X189359404Y-90052380D02*
X188930833Y-89480952D01*
X189359404Y-89052380D02*
X188787976Y-89623809D01*
X190121309Y-89528571D02*
X190264166Y-89576190D01*
X190311785Y-89623809D01*
X190359404Y-89719047D01*
X190359404Y-89861904D01*
X190311785Y-89957142D01*
X190264166Y-90004761D01*
X190168928Y-90052380D01*
X189787976Y-90052380D01*
X189787976Y-89052380D01*
X190121309Y-89052380D01*
X190216547Y-89100000D01*
X190264166Y-89147619D01*
X190311785Y-89242857D01*
X190311785Y-89338095D01*
X190264166Y-89433333D01*
X190216547Y-89480952D01*
X190121309Y-89528571D01*
X189787976Y-89528571D01*
X191549880Y-89528571D02*
X191883214Y-89528571D01*
X192026071Y-90052380D02*
X191549880Y-90052380D01*
X191549880Y-89052380D01*
X192026071Y-89052380D01*
X192454642Y-89528571D02*
X192787976Y-89528571D01*
X192930833Y-90052380D02*
X192454642Y-90052380D01*
X192454642Y-89052380D01*
X192930833Y-89052380D01*
X193359404Y-90052380D02*
X193359404Y-89052380D01*
X193740357Y-89052380D01*
X193835595Y-89100000D01*
X193883214Y-89147619D01*
X193930833Y-89242857D01*
X193930833Y-89385714D01*
X193883214Y-89480952D01*
X193835595Y-89528571D01*
X193740357Y-89576190D01*
X193359404Y-89576190D01*
X194930833Y-90052380D02*
X194597500Y-89576190D01*
X194359404Y-90052380D02*
X194359404Y-89052380D01*
X194740357Y-89052380D01*
X194835595Y-89100000D01*
X194883214Y-89147619D01*
X194930833Y-89242857D01*
X194930833Y-89385714D01*
X194883214Y-89480952D01*
X194835595Y-89528571D01*
X194740357Y-89576190D01*
X194359404Y-89576190D01*
X195549880Y-89052380D02*
X195740357Y-89052380D01*
X195835595Y-89100000D01*
X195930833Y-89195238D01*
X195978452Y-89385714D01*
X195978452Y-89719047D01*
X195930833Y-89909523D01*
X195835595Y-90004761D01*
X195740357Y-90052380D01*
X195549880Y-90052380D01*
X195454642Y-90004761D01*
X195359404Y-89909523D01*
X195311785Y-89719047D01*
X195311785Y-89385714D01*
X195359404Y-89195238D01*
X195454642Y-89100000D01*
X195549880Y-89052380D01*
X196407023Y-90052380D02*
X196407023Y-89052380D01*
X196740357Y-89766666D01*
X197073690Y-89052380D01*
X197073690Y-90052380D01*
X186883214Y-91702380D02*
X186883214Y-90702380D01*
X187454642Y-91702380D01*
X187454642Y-90702380D01*
X188502261Y-91702380D02*
X188168928Y-91226190D01*
X187930833Y-91702380D02*
X187930833Y-90702380D01*
X188311785Y-90702380D01*
X188407023Y-90750000D01*
X188454642Y-90797619D01*
X188502261Y-90892857D01*
X188502261Y-91035714D01*
X188454642Y-91130952D01*
X188407023Y-91178571D01*
X188311785Y-91226190D01*
X187930833Y-91226190D01*
X189264166Y-91178571D02*
X188930833Y-91178571D01*
X188930833Y-91702380D02*
X188930833Y-90702380D01*
X189407023Y-90702380D01*
X189740357Y-90797619D02*
X189787976Y-90750000D01*
X189883214Y-90702380D01*
X190121309Y-90702380D01*
X190216547Y-90750000D01*
X190264166Y-90797619D01*
X190311785Y-90892857D01*
X190311785Y-90988095D01*
X190264166Y-91130952D01*
X189692738Y-91702380D01*
X190311785Y-91702380D01*
X191168928Y-91035714D02*
X191168928Y-91702380D01*
X190930833Y-90654761D02*
X190692738Y-91369047D01*
X191311785Y-91369047D01*
X192168928Y-91702380D02*
X191692738Y-91702380D01*
X191692738Y-90702380D01*
X192692738Y-90702380D02*
X192787976Y-90702380D01*
X192883214Y-90750000D01*
X192930833Y-90797619D01*
X192978452Y-90892857D01*
X193026071Y-91083333D01*
X193026071Y-91321428D01*
X192978452Y-91511904D01*
X192930833Y-91607142D01*
X192883214Y-91654761D01*
X192787976Y-91702380D01*
X192692738Y-91702380D01*
X192597500Y-91654761D01*
X192549880Y-91607142D01*
X192502261Y-91511904D01*
X192454642Y-91321428D01*
X192454642Y-91083333D01*
X192502261Y-90892857D01*
X192549880Y-90797619D01*
X192597500Y-90750000D01*
X192692738Y-90702380D01*
X193978452Y-91702380D02*
X193407023Y-91702380D01*
X193692738Y-91702380D02*
X193692738Y-90702380D01*
X193597500Y-90845238D01*
X193502261Y-90940476D01*
X193407023Y-90988095D01*
X195502261Y-91178571D02*
X195168928Y-91178571D01*
X195168928Y-91702380D02*
X195168928Y-90702380D01*
X195645119Y-90702380D01*
X196168928Y-91702380D02*
X196073690Y-91654761D01*
X196026071Y-91559523D01*
X196026071Y-90702380D01*
X196549880Y-91702380D02*
X196549880Y-91035714D01*
X196549880Y-90702380D02*
X196502261Y-90750000D01*
X196549880Y-90797619D01*
X196597500Y-90750000D01*
X196549880Y-90702380D01*
X196549880Y-90797619D01*
X197454642Y-91035714D02*
X197454642Y-91845238D01*
X197407023Y-91940476D01*
X197359404Y-91988095D01*
X197264166Y-92035714D01*
X197121309Y-92035714D01*
X197026071Y-91988095D01*
X197454642Y-91654761D02*
X197359404Y-91702380D01*
X197168928Y-91702380D01*
X197073690Y-91654761D01*
X197026071Y-91607142D01*
X196978452Y-91511904D01*
X196978452Y-91226190D01*
X197026071Y-91130952D01*
X197073690Y-91083333D01*
X197168928Y-91035714D01*
X197359404Y-91035714D01*
X197454642Y-91083333D01*
X197930833Y-91702380D02*
X197930833Y-90702380D01*
X198359404Y-91702380D02*
X198359404Y-91178571D01*
X198311785Y-91083333D01*
X198216547Y-91035714D01*
X198073690Y-91035714D01*
X197978452Y-91083333D01*
X197930833Y-91130952D01*
X198692738Y-91035714D02*
X199073690Y-91035714D01*
X198835595Y-90702380D02*
X198835595Y-91559523D01*
X198883214Y-91654761D01*
X198978452Y-91702380D01*
X199073690Y-91702380D01*
X200740357Y-91702380D02*
X200407023Y-91226190D01*
X200168928Y-91702380D02*
X200168928Y-90702380D01*
X200549880Y-90702380D01*
X200645119Y-90750000D01*
X200692738Y-90797619D01*
X200740357Y-90892857D01*
X200740357Y-91035714D01*
X200692738Y-91130952D01*
X200645119Y-91178571D01*
X200549880Y-91226190D01*
X200168928Y-91226190D01*
X201597500Y-91702380D02*
X201597500Y-91178571D01*
X201549880Y-91083333D01*
X201454642Y-91035714D01*
X201264166Y-91035714D01*
X201168928Y-91083333D01*
X201597500Y-91654761D02*
X201502261Y-91702380D01*
X201264166Y-91702380D01*
X201168928Y-91654761D01*
X201121309Y-91559523D01*
X201121309Y-91464285D01*
X201168928Y-91369047D01*
X201264166Y-91321428D01*
X201502261Y-91321428D01*
X201597500Y-91273809D01*
X202502261Y-91702380D02*
X202502261Y-90702380D01*
X202502261Y-91654761D02*
X202407023Y-91702380D01*
X202216547Y-91702380D01*
X202121309Y-91654761D01*
X202073690Y-91607142D01*
X202026071Y-91511904D01*
X202026071Y-91226190D01*
X202073690Y-91130952D01*
X202121309Y-91083333D01*
X202216547Y-91035714D01*
X202407023Y-91035714D01*
X202502261Y-91083333D01*
X202978452Y-91702380D02*
X202978452Y-91035714D01*
X202978452Y-90702380D02*
X202930833Y-90750000D01*
X202978452Y-90797619D01*
X203026071Y-90750000D01*
X202978452Y-90702380D01*
X202978452Y-90797619D01*
X203597500Y-91702380D02*
X203502261Y-91654761D01*
X203454642Y-91607142D01*
X203407023Y-91511904D01*
X203407023Y-91226190D01*
X203454642Y-91130952D01*
X203502261Y-91083333D01*
X203597500Y-91035714D01*
X203740357Y-91035714D01*
X203835595Y-91083333D01*
X203883214Y-91130952D01*
X203930833Y-91226190D01*
X203930833Y-91511904D01*
X203883214Y-91607142D01*
X203835595Y-91654761D01*
X203740357Y-91702380D01*
X203597500Y-91702380D01*
X187454642Y-93352380D02*
X187121309Y-92876190D01*
X186883214Y-93352380D02*
X186883214Y-92352380D01*
X187264166Y-92352380D01*
X187359404Y-92400000D01*
X187407023Y-92447619D01*
X187454642Y-92542857D01*
X187454642Y-92685714D01*
X187407023Y-92780952D01*
X187359404Y-92828571D01*
X187264166Y-92876190D01*
X186883214Y-92876190D01*
X187883214Y-93352380D02*
X187883214Y-92352380D01*
X188454642Y-93352380D01*
X188454642Y-92352380D01*
X189359404Y-92685714D02*
X189359404Y-93352380D01*
X189121309Y-92304761D02*
X188883214Y-93019047D01*
X189502261Y-93019047D01*
X190026071Y-92780952D02*
X189930833Y-92733333D01*
X189883214Y-92685714D01*
X189835595Y-92590476D01*
X189835595Y-92542857D01*
X189883214Y-92447619D01*
X189930833Y-92400000D01*
X190026071Y-92352380D01*
X190216547Y-92352380D01*
X190311785Y-92400000D01*
X190359404Y-92447619D01*
X190407023Y-92542857D01*
X190407023Y-92590476D01*
X190359404Y-92685714D01*
X190311785Y-92733333D01*
X190216547Y-92780952D01*
X190026071Y-92780952D01*
X189930833Y-92828571D01*
X189883214Y-92876190D01*
X189835595Y-92971428D01*
X189835595Y-93161904D01*
X189883214Y-93257142D01*
X189930833Y-93304761D01*
X190026071Y-93352380D01*
X190216547Y-93352380D01*
X190311785Y-93304761D01*
X190359404Y-93257142D01*
X190407023Y-93161904D01*
X190407023Y-92971428D01*
X190359404Y-92876190D01*
X190311785Y-92828571D01*
X190216547Y-92780952D01*
X190740357Y-92352380D02*
X191407023Y-92352380D01*
X190978452Y-93352380D01*
X192311785Y-93352380D02*
X191740357Y-93352380D01*
X192026071Y-93352380D02*
X192026071Y-92352380D01*
X191930833Y-92495238D01*
X191835595Y-92590476D01*
X191740357Y-92638095D01*
X193835595Y-92828571D02*
X193978452Y-92876190D01*
X194026071Y-92923809D01*
X194073690Y-93019047D01*
X194073690Y-93161904D01*
X194026071Y-93257142D01*
X193978452Y-93304761D01*
X193883214Y-93352380D01*
X193502261Y-93352380D01*
X193502261Y-92352380D01*
X193835595Y-92352380D01*
X193930833Y-92400000D01*
X193978452Y-92447619D01*
X194026071Y-92542857D01*
X194026071Y-92638095D01*
X193978452Y-92733333D01*
X193930833Y-92780952D01*
X193835595Y-92828571D01*
X193502261Y-92828571D01*
X194645119Y-93352380D02*
X194549880Y-93304761D01*
X194502261Y-93209523D01*
X194502261Y-92352380D01*
X195454642Y-92685714D02*
X195454642Y-93352380D01*
X195026071Y-92685714D02*
X195026071Y-93209523D01*
X195073690Y-93304761D01*
X195168928Y-93352380D01*
X195311785Y-93352380D01*
X195407023Y-93304761D01*
X195454642Y-93257142D01*
X196311785Y-93304761D02*
X196216547Y-93352380D01*
X196026071Y-93352380D01*
X195930833Y-93304761D01*
X195883214Y-93209523D01*
X195883214Y-92828571D01*
X195930833Y-92733333D01*
X196026071Y-92685714D01*
X196216547Y-92685714D01*
X196311785Y-92733333D01*
X196359404Y-92828571D01*
X196359404Y-92923809D01*
X195883214Y-93019047D01*
X196645119Y-92685714D02*
X197026071Y-92685714D01*
X196787976Y-92352380D02*
X196787976Y-93209523D01*
X196835595Y-93304761D01*
X196930833Y-93352380D01*
X197026071Y-93352380D01*
X197502261Y-93352380D02*
X197407023Y-93304761D01*
X197359404Y-93257142D01*
X197311785Y-93161904D01*
X197311785Y-92876190D01*
X197359404Y-92780952D01*
X197407023Y-92733333D01*
X197502261Y-92685714D01*
X197645119Y-92685714D01*
X197740357Y-92733333D01*
X197787976Y-92780952D01*
X197835595Y-92876190D01*
X197835595Y-93161904D01*
X197787976Y-93257142D01*
X197740357Y-93304761D01*
X197645119Y-93352380D01*
X197502261Y-93352380D01*
X198407023Y-93352380D02*
X198311785Y-93304761D01*
X198264166Y-93257142D01*
X198216547Y-93161904D01*
X198216547Y-92876190D01*
X198264166Y-92780952D01*
X198311785Y-92733333D01*
X198407023Y-92685714D01*
X198549880Y-92685714D01*
X198645119Y-92733333D01*
X198692738Y-92780952D01*
X198740357Y-92876190D01*
X198740357Y-93161904D01*
X198692738Y-93257142D01*
X198645119Y-93304761D01*
X198549880Y-93352380D01*
X198407023Y-93352380D01*
X199026071Y-92685714D02*
X199407023Y-92685714D01*
X199168928Y-92352380D02*
X199168928Y-93209523D01*
X199216547Y-93304761D01*
X199311785Y-93352380D01*
X199407023Y-93352380D01*
X199740357Y-93352380D02*
X199740357Y-92352380D01*
X200168928Y-93352380D02*
X200168928Y-92828571D01*
X200121309Y-92733333D01*
X200026071Y-92685714D01*
X199883214Y-92685714D01*
X199787976Y-92733333D01*
X199740357Y-92780952D01*
X187216547Y-94478571D02*
X187359404Y-94526190D01*
X187407023Y-94573809D01*
X187454642Y-94669047D01*
X187454642Y-94811904D01*
X187407023Y-94907142D01*
X187359404Y-94954761D01*
X187264166Y-95002380D01*
X186883214Y-95002380D01*
X186883214Y-94002380D01*
X187216547Y-94002380D01*
X187311785Y-94050000D01*
X187359404Y-94097619D01*
X187407023Y-94192857D01*
X187407023Y-94288095D01*
X187359404Y-94383333D01*
X187311785Y-94430952D01*
X187216547Y-94478571D01*
X186883214Y-94478571D01*
X188311785Y-95002380D02*
X188311785Y-94478571D01*
X188264166Y-94383333D01*
X188168928Y-94335714D01*
X187978452Y-94335714D01*
X187883214Y-94383333D01*
X188311785Y-94954761D02*
X188216547Y-95002380D01*
X187978452Y-95002380D01*
X187883214Y-94954761D01*
X187835595Y-94859523D01*
X187835595Y-94764285D01*
X187883214Y-94669047D01*
X187978452Y-94621428D01*
X188216547Y-94621428D01*
X188311785Y-94573809D01*
X188645119Y-94335714D02*
X189026071Y-94335714D01*
X188787976Y-94002380D02*
X188787976Y-94859523D01*
X188835595Y-94954761D01*
X188930833Y-95002380D01*
X189026071Y-95002380D01*
X189216547Y-94335714D02*
X189597500Y-94335714D01*
X189359404Y-94002380D02*
X189359404Y-94859523D01*
X189407023Y-94954761D01*
X189502261Y-95002380D01*
X189597500Y-95002380D01*
X190311785Y-94954761D02*
X190216547Y-95002380D01*
X190026071Y-95002380D01*
X189930833Y-94954761D01*
X189883214Y-94859523D01*
X189883214Y-94478571D01*
X189930833Y-94383333D01*
X190026071Y-94335714D01*
X190216547Y-94335714D01*
X190311785Y-94383333D01*
X190359404Y-94478571D01*
X190359404Y-94573809D01*
X189883214Y-94669047D01*
X190787976Y-95002380D02*
X190787976Y-94335714D01*
X190787976Y-94526190D02*
X190835595Y-94430952D01*
X190883214Y-94383333D01*
X190978452Y-94335714D01*
X191073690Y-94335714D01*
X191311785Y-94335714D02*
X191549880Y-95002380D01*
X191787976Y-94335714D02*
X191549880Y-95002380D01*
X191454642Y-95240476D01*
X191407023Y-95288095D01*
X191311785Y-95335714D01*
X193502261Y-94907142D02*
X193454642Y-94954761D01*
X193311785Y-95002380D01*
X193216547Y-95002380D01*
X193073690Y-94954761D01*
X192978452Y-94859523D01*
X192930833Y-94764285D01*
X192883214Y-94573809D01*
X192883214Y-94430952D01*
X192930833Y-94240476D01*
X192978452Y-94145238D01*
X193073690Y-94050000D01*
X193216547Y-94002380D01*
X193311785Y-94002380D01*
X193454642Y-94050000D01*
X193502261Y-94097619D01*
X193930833Y-95002380D02*
X193930833Y-94002380D01*
X194359404Y-95002380D02*
X194359404Y-94478571D01*
X194311785Y-94383333D01*
X194216547Y-94335714D01*
X194073690Y-94335714D01*
X193978452Y-94383333D01*
X193930833Y-94430952D01*
X195264166Y-95002380D02*
X195264166Y-94478571D01*
X195216547Y-94383333D01*
X195121309Y-94335714D01*
X194930833Y-94335714D01*
X194835595Y-94383333D01*
X195264166Y-94954761D02*
X195168928Y-95002380D01*
X194930833Y-95002380D01*
X194835595Y-94954761D01*
X194787976Y-94859523D01*
X194787976Y-94764285D01*
X194835595Y-94669047D01*
X194930833Y-94621428D01*
X195168928Y-94621428D01*
X195264166Y-94573809D01*
X195740357Y-95002380D02*
X195740357Y-94335714D01*
X195740357Y-94526190D02*
X195787976Y-94430952D01*
X195835595Y-94383333D01*
X195930833Y-94335714D01*
X196026071Y-94335714D01*
X196787976Y-94335714D02*
X196787976Y-95145238D01*
X196740357Y-95240476D01*
X196692738Y-95288095D01*
X196597500Y-95335714D01*
X196454642Y-95335714D01*
X196359404Y-95288095D01*
X196787976Y-94954761D02*
X196692738Y-95002380D01*
X196502261Y-95002380D01*
X196407023Y-94954761D01*
X196359404Y-94907142D01*
X196311785Y-94811904D01*
X196311785Y-94526190D01*
X196359404Y-94430952D01*
X196407023Y-94383333D01*
X196502261Y-94335714D01*
X196692738Y-94335714D01*
X196787976Y-94383333D01*
X197645119Y-94954761D02*
X197549880Y-95002380D01*
X197359404Y-95002380D01*
X197264166Y-94954761D01*
X197216547Y-94859523D01*
X197216547Y-94478571D01*
X197264166Y-94383333D01*
X197359404Y-94335714D01*
X197549880Y-94335714D01*
X197645119Y-94383333D01*
X197692738Y-94478571D01*
X197692738Y-94573809D01*
X197216547Y-94669047D01*
X198835595Y-93954761D02*
X197978452Y-95240476D01*
X199168928Y-95002380D02*
X199168928Y-94002380D01*
X199549880Y-94002380D01*
X199645119Y-94050000D01*
X199692738Y-94097619D01*
X199740357Y-94192857D01*
X199740357Y-94335714D01*
X199692738Y-94430952D01*
X199645119Y-94478571D01*
X199549880Y-94526190D01*
X199168928Y-94526190D01*
X200168928Y-95002380D02*
X200168928Y-94335714D01*
X200168928Y-94526190D02*
X200216547Y-94430952D01*
X200264166Y-94383333D01*
X200359404Y-94335714D01*
X200454642Y-94335714D01*
X200930833Y-95002380D02*
X200835595Y-94954761D01*
X200787976Y-94907142D01*
X200740357Y-94811904D01*
X200740357Y-94526190D01*
X200787976Y-94430952D01*
X200835595Y-94383333D01*
X200930833Y-94335714D01*
X201073690Y-94335714D01*
X201168928Y-94383333D01*
X201216547Y-94430952D01*
X201264166Y-94526190D01*
X201264166Y-94811904D01*
X201216547Y-94907142D01*
X201168928Y-94954761D01*
X201073690Y-95002380D01*
X200930833Y-95002380D01*
X201549880Y-94335714D02*
X201930833Y-94335714D01*
X201692738Y-94002380D02*
X201692738Y-94859523D01*
X201740357Y-94954761D01*
X201835595Y-95002380D01*
X201930833Y-95002380D01*
X202645119Y-94954761D02*
X202549880Y-95002380D01*
X202359404Y-95002380D01*
X202264166Y-94954761D01*
X202216547Y-94859523D01*
X202216547Y-94478571D01*
X202264166Y-94383333D01*
X202359404Y-94335714D01*
X202549880Y-94335714D01*
X202645119Y-94383333D01*
X202692738Y-94478571D01*
X202692738Y-94573809D01*
X202216547Y-94669047D01*
X203549880Y-94954761D02*
X203454642Y-95002380D01*
X203264166Y-95002380D01*
X203168928Y-94954761D01*
X203121309Y-94907142D01*
X203073690Y-94811904D01*
X203073690Y-94526190D01*
X203121309Y-94430952D01*
X203168928Y-94383333D01*
X203264166Y-94335714D01*
X203454642Y-94335714D01*
X203549880Y-94383333D01*
X203835595Y-94335714D02*
X204216547Y-94335714D01*
X203978452Y-94002380D02*
X203978452Y-94859523D01*
X204026071Y-94954761D01*
X204121309Y-95002380D01*
X204216547Y-95002380D01*
X186883214Y-95652380D02*
X186883214Y-96461904D01*
X186930833Y-96557142D01*
X186978452Y-96604761D01*
X187073690Y-96652380D01*
X187264166Y-96652380D01*
X187359404Y-96604761D01*
X187407023Y-96557142D01*
X187454642Y-96461904D01*
X187454642Y-95652380D01*
X187883214Y-96604761D02*
X188026071Y-96652380D01*
X188264166Y-96652380D01*
X188359404Y-96604761D01*
X188407023Y-96557142D01*
X188454642Y-96461904D01*
X188454642Y-96366666D01*
X188407023Y-96271428D01*
X188359404Y-96223809D01*
X188264166Y-96176190D01*
X188073690Y-96128571D01*
X187978452Y-96080952D01*
X187930833Y-96033333D01*
X187883214Y-95938095D01*
X187883214Y-95842857D01*
X187930833Y-95747619D01*
X187978452Y-95700000D01*
X188073690Y-95652380D01*
X188311785Y-95652380D01*
X188454642Y-95700000D01*
X189216547Y-96128571D02*
X189359404Y-96176190D01*
X189407023Y-96223809D01*
X189454642Y-96319047D01*
X189454642Y-96461904D01*
X189407023Y-96557142D01*
X189359404Y-96604761D01*
X189264166Y-96652380D01*
X188883214Y-96652380D01*
X188883214Y-95652380D01*
X189216547Y-95652380D01*
X189311785Y-95700000D01*
X189359404Y-95747619D01*
X189407023Y-95842857D01*
X189407023Y-95938095D01*
X189359404Y-96033333D01*
X189311785Y-96080952D01*
X189216547Y-96128571D01*
X188883214Y-96128571D01*
X187168928Y-97302380D02*
X187168928Y-98016666D01*
X187121309Y-98159523D01*
X187026071Y-98254761D01*
X186883214Y-98302380D01*
X186787976Y-98302380D01*
X187502261Y-97302380D02*
X188073690Y-97302380D01*
X187787976Y-98302380D02*
X187787976Y-97302380D01*
X188359404Y-98016666D02*
X188835595Y-98016666D01*
X188264166Y-98302380D02*
X188597500Y-97302380D01*
X188930833Y-98302380D01*
X189787976Y-97350000D02*
X189692738Y-97302380D01*
X189549880Y-97302380D01*
X189407023Y-97350000D01*
X189311785Y-97445238D01*
X189264166Y-97540476D01*
X189216547Y-97730952D01*
X189216547Y-97873809D01*
X189264166Y-98064285D01*
X189311785Y-98159523D01*
X189407023Y-98254761D01*
X189549880Y-98302380D01*
X189645119Y-98302380D01*
X189787976Y-98254761D01*
X189835595Y-98207142D01*
X189835595Y-97873809D01*
X189645119Y-97873809D01*
X157861904Y-124400000D02*
X157766666Y-124352380D01*
X157623809Y-124352380D01*
X157480952Y-124400000D01*
X157385714Y-124495238D01*
X157338095Y-124590476D01*
X157290476Y-124780952D01*
X157290476Y-124923809D01*
X157338095Y-125114285D01*
X157385714Y-125209523D01*
X157480952Y-125304761D01*
X157623809Y-125352380D01*
X157719047Y-125352380D01*
X157861904Y-125304761D01*
X157909523Y-125257142D01*
X157909523Y-124923809D01*
X157719047Y-124923809D01*
X158338095Y-125352380D02*
X158338095Y-124352380D01*
X158576190Y-124352380D01*
X158719047Y-124400000D01*
X158814285Y-124495238D01*
X158861904Y-124590476D01*
X158909523Y-124780952D01*
X158909523Y-124923809D01*
X158861904Y-125114285D01*
X158814285Y-125209523D01*
X158719047Y-125304761D01*
X158576190Y-125352380D01*
X158338095Y-125352380D01*
X166871428Y-116804761D02*
X167014285Y-116852380D01*
X167252380Y-116852380D01*
X167347619Y-116804761D01*
X167395238Y-116757142D01*
X167442857Y-116661904D01*
X167442857Y-116566666D01*
X167395238Y-116471428D01*
X167347619Y-116423809D01*
X167252380Y-116376190D01*
X167061904Y-116328571D01*
X166966666Y-116280952D01*
X166919047Y-116233333D01*
X166871428Y-116138095D01*
X166871428Y-116042857D01*
X166919047Y-115947619D01*
X166966666Y-115900000D01*
X167061904Y-115852380D01*
X167300000Y-115852380D01*
X167442857Y-115900000D01*
X167728571Y-115852380D02*
X168300000Y-115852380D01*
X168014285Y-116852380D02*
X168014285Y-115852380D01*
X168633333Y-116852380D02*
X168633333Y-115852380D01*
X169680952Y-116757142D02*
X169633333Y-116804761D01*
X169490476Y-116852380D01*
X169395238Y-116852380D01*
X169252380Y-116804761D01*
X169157142Y-116709523D01*
X169109523Y-116614285D01*
X169061904Y-116423809D01*
X169061904Y-116280952D01*
X169109523Y-116090476D01*
X169157142Y-115995238D01*
X169252380Y-115900000D01*
X169395238Y-115852380D01*
X169490476Y-115852380D01*
X169633333Y-115900000D01*
X169680952Y-115947619D01*
X170109523Y-116852380D02*
X170109523Y-115852380D01*
X170680952Y-116852380D02*
X170252380Y-116280952D01*
X170680952Y-115852380D02*
X170109523Y-116423809D01*
X171871428Y-116852380D02*
X171871428Y-115852380D01*
X172347619Y-116852380D02*
X172347619Y-115852380D01*
X172919047Y-116852380D01*
X172919047Y-115852380D01*
X173395238Y-116852380D02*
X173395238Y-115852380D01*
X173776190Y-115852380D01*
X173871428Y-115900000D01*
X173919047Y-115947619D01*
X173966666Y-116042857D01*
X173966666Y-116185714D01*
X173919047Y-116280952D01*
X173871428Y-116328571D01*
X173776190Y-116376190D01*
X173395238Y-116376190D01*
X174395238Y-115852380D02*
X174395238Y-116661904D01*
X174442857Y-116757142D01*
X174490476Y-116804761D01*
X174585714Y-116852380D01*
X174776190Y-116852380D01*
X174871428Y-116804761D01*
X174919047Y-116757142D01*
X174966666Y-116661904D01*
X174966666Y-115852380D01*
X175300000Y-115852380D02*
X175871428Y-115852380D01*
X175585714Y-116852380D02*
X175585714Y-115852380D01*
X176157142Y-116804761D02*
X176300000Y-116852380D01*
X176538095Y-116852380D01*
X176633333Y-116804761D01*
X176680952Y-116757142D01*
X176728571Y-116661904D01*
X176728571Y-116566666D01*
X176680952Y-116471428D01*
X176633333Y-116423809D01*
X176538095Y-116376190D01*
X176347619Y-116328571D01*
X176252380Y-116280952D01*
X176204761Y-116233333D01*
X176157142Y-116138095D01*
X176157142Y-116042857D01*
X176204761Y-115947619D01*
X176252380Y-115900000D01*
X176347619Y-115852380D01*
X176585714Y-115852380D01*
X176728571Y-115900000D01*
X128152380Y-86000000D02*
X127152380Y-86000000D01*
X128152380Y-85428571D02*
X127580952Y-85857142D01*
X127152380Y-85428571D02*
X127723809Y-86000000D01*
X127628571Y-85000000D02*
X127628571Y-84666666D01*
X128152380Y-84523809D02*
X128152380Y-85000000D01*
X127152380Y-85000000D01*
X127152380Y-84523809D01*
X127676190Y-83904761D02*
X128152380Y-83904761D01*
X127152380Y-84238095D02*
X127676190Y-83904761D01*
X127152380Y-83571428D01*
X128152380Y-81952380D02*
X128152380Y-82523809D01*
X128152380Y-82238095D02*
X127152380Y-82238095D01*
X127295238Y-82333333D01*
X127390476Y-82428571D01*
X127438095Y-82523809D01*
X135152380Y-86000000D02*
X134152380Y-86000000D01*
X135152380Y-85428571D02*
X134580952Y-85857142D01*
X134152380Y-85428571D02*
X134723809Y-86000000D01*
X134628571Y-85000000D02*
X134628571Y-84666666D01*
X135152380Y-84523809D02*
X135152380Y-85000000D01*
X134152380Y-85000000D01*
X134152380Y-84523809D01*
X134676190Y-83904761D02*
X135152380Y-83904761D01*
X134152380Y-84238095D02*
X134676190Y-83904761D01*
X134152380Y-83571428D01*
X134152380Y-82285714D02*
X134152380Y-82190476D01*
X134200000Y-82095238D01*
X134247619Y-82047619D01*
X134342857Y-82000000D01*
X134533333Y-81952380D01*
X134771428Y-81952380D01*
X134961904Y-82000000D01*
X135057142Y-82047619D01*
X135104761Y-82095238D01*
X135152380Y-82190476D01*
X135152380Y-82285714D01*
X135104761Y-82380952D01*
X135057142Y-82428571D01*
X134961904Y-82476190D01*
X134771428Y-82523809D01*
X134533333Y-82523809D01*
X134342857Y-82476190D01*
X134247619Y-82428571D01*
X134200000Y-82380952D01*
X134152380Y-82285714D01*
X126552380Y-103285714D02*
X126076190Y-103619047D01*
X126552380Y-103857142D02*
X125552380Y-103857142D01*
X125552380Y-103476190D01*
X125600000Y-103380952D01*
X125647619Y-103333333D01*
X125742857Y-103285714D01*
X125885714Y-103285714D01*
X125980952Y-103333333D01*
X126028571Y-103380952D01*
X126076190Y-103476190D01*
X126076190Y-103857142D01*
X125552380Y-102666666D02*
X125552380Y-102476190D01*
X125600000Y-102380952D01*
X125695238Y-102285714D01*
X125885714Y-102238095D01*
X126219047Y-102238095D01*
X126409523Y-102285714D01*
X126504761Y-102380952D01*
X126552380Y-102476190D01*
X126552380Y-102666666D01*
X126504761Y-102761904D01*
X126409523Y-102857142D01*
X126219047Y-102904761D01*
X125885714Y-102904761D01*
X125695238Y-102857142D01*
X125600000Y-102761904D01*
X125552380Y-102666666D01*
X125552380Y-101952380D02*
X125552380Y-101380952D01*
X126552380Y-101666666D02*
X125552380Y-101666666D01*
X126266666Y-101095238D02*
X126266666Y-100619047D01*
X126552380Y-101190476D02*
X125552380Y-100857142D01*
X126552380Y-100523809D01*
X126552380Y-99619047D02*
X126076190Y-99952380D01*
X126552380Y-100190476D02*
X125552380Y-100190476D01*
X125552380Y-99809523D01*
X125600000Y-99714285D01*
X125647619Y-99666666D01*
X125742857Y-99619047D01*
X125885714Y-99619047D01*
X125980952Y-99666666D01*
X126028571Y-99714285D01*
X126076190Y-99809523D01*
X126076190Y-100190476D01*
X126076190Y-99000000D02*
X126552380Y-99000000D01*
X125552380Y-99333333D02*
X126076190Y-99000000D01*
X125552380Y-98666666D01*
X126028571Y-97571428D02*
X126028571Y-97238095D01*
X126552380Y-97095238D02*
X126552380Y-97571428D01*
X125552380Y-97571428D01*
X125552380Y-97095238D01*
X126552380Y-96666666D02*
X125552380Y-96666666D01*
X126552380Y-96095238D01*
X125552380Y-96095238D01*
X126457142Y-95047619D02*
X126504761Y-95095238D01*
X126552380Y-95238095D01*
X126552380Y-95333333D01*
X126504761Y-95476190D01*
X126409523Y-95571428D01*
X126314285Y-95619047D01*
X126123809Y-95666666D01*
X125980952Y-95666666D01*
X125790476Y-95619047D01*
X125695238Y-95571428D01*
X125600000Y-95476190D01*
X125552380Y-95333333D01*
X125552380Y-95238095D01*
X125600000Y-95095238D01*
X125647619Y-95047619D01*
X125552380Y-94428571D02*
X125552380Y-94238095D01*
X125600000Y-94142857D01*
X125695238Y-94047619D01*
X125885714Y-94000000D01*
X126219047Y-94000000D01*
X126409523Y-94047619D01*
X126504761Y-94142857D01*
X126552380Y-94238095D01*
X126552380Y-94428571D01*
X126504761Y-94523809D01*
X126409523Y-94619047D01*
X126219047Y-94666666D01*
X125885714Y-94666666D01*
X125695238Y-94619047D01*
X125600000Y-94523809D01*
X125552380Y-94428571D01*
X126552380Y-93571428D02*
X125552380Y-93571428D01*
X125552380Y-93333333D01*
X125600000Y-93190476D01*
X125695238Y-93095238D01*
X125790476Y-93047619D01*
X125980952Y-93000000D01*
X126123809Y-93000000D01*
X126314285Y-93047619D01*
X126409523Y-93095238D01*
X126504761Y-93190476D01*
X126552380Y-93333333D01*
X126552380Y-93571428D01*
X126028571Y-92571428D02*
X126028571Y-92238095D01*
X126552380Y-92095238D02*
X126552380Y-92571428D01*
X125552380Y-92571428D01*
X125552380Y-92095238D01*
X126552380Y-91095238D02*
X126076190Y-91428571D01*
X126552380Y-91666666D02*
X125552380Y-91666666D01*
X125552380Y-91285714D01*
X125600000Y-91190476D01*
X125647619Y-91142857D01*
X125742857Y-91095238D01*
X125885714Y-91095238D01*
X125980952Y-91142857D01*
X126028571Y-91190476D01*
X126076190Y-91285714D01*
X126076190Y-91666666D01*
X121628571Y-116600000D02*
X121676190Y-116457142D01*
X121723809Y-116409523D01*
X121819047Y-116361904D01*
X121961904Y-116361904D01*
X122057142Y-116409523D01*
X122104761Y-116457142D01*
X122152380Y-116552380D01*
X122152380Y-116933333D01*
X121152380Y-116933333D01*
X121152380Y-116600000D01*
X121200000Y-116504761D01*
X121247619Y-116457142D01*
X121342857Y-116409523D01*
X121438095Y-116409523D01*
X121533333Y-116457142D01*
X121580952Y-116504761D01*
X121628571Y-116600000D01*
X121628571Y-116933333D01*
X121866666Y-115980952D02*
X121866666Y-115504761D01*
X122152380Y-116076190D02*
X121152380Y-115742857D01*
X122152380Y-115409523D01*
X121152380Y-115219047D02*
X121152380Y-114647619D01*
X122152380Y-114933333D02*
X121152380Y-114933333D01*
X121152380Y-114457142D02*
X121152380Y-113885714D01*
X122152380Y-114171428D02*
X121152380Y-114171428D01*
X121628571Y-113552380D02*
X121628571Y-113219047D01*
X122152380Y-113076190D02*
X122152380Y-113552380D01*
X121152380Y-113552380D01*
X121152380Y-113076190D01*
X122152380Y-112076190D02*
X121676190Y-112409523D01*
X122152380Y-112647619D02*
X121152380Y-112647619D01*
X121152380Y-112266666D01*
X121200000Y-112171428D01*
X121247619Y-112123809D01*
X121342857Y-112076190D01*
X121485714Y-112076190D01*
X121580952Y-112123809D01*
X121628571Y-112171428D01*
X121676190Y-112266666D01*
X121676190Y-112647619D01*
X121676190Y-111457142D02*
X122152380Y-111457142D01*
X121152380Y-111790476D02*
X121676190Y-111457142D01*
X121152380Y-111123809D01*
X145733333Y-120152380D02*
X145733333Y-120866666D01*
X145685714Y-121009523D01*
X145590476Y-121104761D01*
X145447619Y-121152380D01*
X145352380Y-121152380D01*
X146066666Y-120152380D02*
X146638095Y-120152380D01*
X146352380Y-121152380D02*
X146352380Y-120152380D01*
X146923809Y-120866666D02*
X147400000Y-120866666D01*
X146828571Y-121152380D02*
X147161904Y-120152380D01*
X147495238Y-121152380D01*
X148352380Y-120200000D02*
X148257142Y-120152380D01*
X148114285Y-120152380D01*
X147971428Y-120200000D01*
X147876190Y-120295238D01*
X147828571Y-120390476D01*
X147780952Y-120580952D01*
X147780952Y-120723809D01*
X147828571Y-120914285D01*
X147876190Y-121009523D01*
X147971428Y-121104761D01*
X148114285Y-121152380D01*
X148209523Y-121152380D01*
X148352380Y-121104761D01*
X148400000Y-121057142D01*
X148400000Y-120723809D01*
X148209523Y-120723809D01*
X157933333Y-124052380D02*
X157600000Y-123576190D01*
X157361904Y-124052380D02*
X157361904Y-123052380D01*
X157742857Y-123052380D01*
X157838095Y-123100000D01*
X157885714Y-123147619D01*
X157933333Y-123242857D01*
X157933333Y-123385714D01*
X157885714Y-123480952D01*
X157838095Y-123528571D01*
X157742857Y-123576190D01*
X157361904Y-123576190D01*
X158266666Y-123052380D02*
X158933333Y-124052380D01*
X158933333Y-123052380D02*
X158266666Y-124052380D01*
X157438095Y-121652380D02*
X158009523Y-121652380D01*
X157723809Y-122652380D02*
X157723809Y-121652380D01*
X158247619Y-121652380D02*
X158914285Y-122652380D01*
X158914285Y-121652380D02*
X158247619Y-122652380D01*
X166204761Y-108452380D02*
X166204761Y-107452380D01*
X166776190Y-108452380D01*
X166776190Y-107452380D01*
X167823809Y-108452380D02*
X167490476Y-107976190D01*
X167252380Y-108452380D02*
X167252380Y-107452380D01*
X167633333Y-107452380D01*
X167728571Y-107500000D01*
X167776190Y-107547619D01*
X167823809Y-107642857D01*
X167823809Y-107785714D01*
X167776190Y-107880952D01*
X167728571Y-107928571D01*
X167633333Y-107976190D01*
X167252380Y-107976190D01*
X168585714Y-107928571D02*
X168252380Y-107928571D01*
X168252380Y-108452380D02*
X168252380Y-107452380D01*
X168728571Y-107452380D01*
X169061904Y-107547619D02*
X169109523Y-107500000D01*
X169204761Y-107452380D01*
X169442857Y-107452380D01*
X169538095Y-107500000D01*
X169585714Y-107547619D01*
X169633333Y-107642857D01*
X169633333Y-107738095D01*
X169585714Y-107880952D01*
X169014285Y-108452380D01*
X169633333Y-108452380D01*
X170490476Y-107785714D02*
X170490476Y-108452380D01*
X170252380Y-107404761D02*
X170014285Y-108119047D01*
X170633333Y-108119047D01*
X171490476Y-108452380D02*
X171014285Y-108452380D01*
X171014285Y-107452380D01*
X172014285Y-107452380D02*
X172109523Y-107452380D01*
X172204761Y-107500000D01*
X172252380Y-107547619D01*
X172300000Y-107642857D01*
X172347619Y-107833333D01*
X172347619Y-108071428D01*
X172300000Y-108261904D01*
X172252380Y-108357142D01*
X172204761Y-108404761D01*
X172109523Y-108452380D01*
X172014285Y-108452380D01*
X171919047Y-108404761D01*
X171871428Y-108357142D01*
X171823809Y-108261904D01*
X171776190Y-108071428D01*
X171776190Y-107833333D01*
X171823809Y-107642857D01*
X171871428Y-107547619D01*
X171919047Y-107500000D01*
X172014285Y-107452380D01*
X173300000Y-108452380D02*
X172728571Y-108452380D01*
X173014285Y-108452380D02*
X173014285Y-107452380D01*
X172919047Y-107595238D01*
X172823809Y-107690476D01*
X172728571Y-107738095D01*
X175061904Y-108452380D02*
X174728571Y-107976190D01*
X174490476Y-108452380D02*
X174490476Y-107452380D01*
X174871428Y-107452380D01*
X174966666Y-107500000D01*
X175014285Y-107547619D01*
X175061904Y-107642857D01*
X175061904Y-107785714D01*
X175014285Y-107880952D01*
X174966666Y-107928571D01*
X174871428Y-107976190D01*
X174490476Y-107976190D01*
X175442857Y-108166666D02*
X175919047Y-108166666D01*
X175347619Y-108452380D02*
X175680952Y-107452380D01*
X176014285Y-108452380D01*
X176347619Y-108452380D02*
X176347619Y-107452380D01*
X176585714Y-107452380D01*
X176728571Y-107500000D01*
X176823809Y-107595238D01*
X176871428Y-107690476D01*
X176919047Y-107880952D01*
X176919047Y-108023809D01*
X176871428Y-108214285D01*
X176823809Y-108309523D01*
X176728571Y-108404761D01*
X176585714Y-108452380D01*
X176347619Y-108452380D01*
X177347619Y-108452380D02*
X177347619Y-107452380D01*
X178014285Y-107452380D02*
X178204761Y-107452380D01*
X178300000Y-107500000D01*
X178395238Y-107595238D01*
X178442857Y-107785714D01*
X178442857Y-108119047D01*
X178395238Y-108309523D01*
X178300000Y-108404761D01*
X178204761Y-108452380D01*
X178014285Y-108452380D01*
X177919047Y-108404761D01*
X177823809Y-108309523D01*
X177776190Y-108119047D01*
X177776190Y-107785714D01*
X177823809Y-107595238D01*
X177919047Y-107500000D01*
X178014285Y-107452380D01*
X193057142Y-108966666D02*
X193533333Y-108966666D01*
X192961904Y-109252380D02*
X193295238Y-108252380D01*
X193628571Y-109252380D01*
X194438095Y-109252380D02*
X193961904Y-109252380D01*
X193961904Y-108252380D01*
X194723809Y-108966666D02*
X195200000Y-108966666D01*
X194628571Y-109252380D02*
X194961904Y-108252380D01*
X195295238Y-109252380D01*
X196200000Y-109252380D02*
X195866666Y-108776190D01*
X195628571Y-109252380D02*
X195628571Y-108252380D01*
X196009523Y-108252380D01*
X196104761Y-108300000D01*
X196152380Y-108347619D01*
X196200000Y-108442857D01*
X196200000Y-108585714D01*
X196152380Y-108680952D01*
X196104761Y-108728571D01*
X196009523Y-108776190D01*
X195628571Y-108776190D01*
X196628571Y-109252380D02*
X196628571Y-108252380D01*
X196961904Y-108966666D01*
X197295238Y-108252380D01*
X197295238Y-109252380D01*
X207714285Y-104247619D02*
X207761904Y-104200000D01*
X207857142Y-104152380D01*
X208095238Y-104152380D01*
X208190476Y-104200000D01*
X208238095Y-104247619D01*
X208285714Y-104342857D01*
X208285714Y-104438095D01*
X208238095Y-104580952D01*
X207666666Y-105152380D01*
X208285714Y-105152380D01*
X207952380Y-96952380D02*
X208047619Y-96952380D01*
X208142857Y-97000000D01*
X208190476Y-97047619D01*
X208238095Y-97142857D01*
X208285714Y-97333333D01*
X208285714Y-97571428D01*
X208238095Y-97761904D01*
X208190476Y-97857142D01*
X208142857Y-97904761D01*
X208047619Y-97952380D01*
X207952380Y-97952380D01*
X207857142Y-97904761D01*
X207809523Y-97857142D01*
X207761904Y-97761904D01*
X207714285Y-97571428D01*
X207714285Y-97333333D01*
X207761904Y-97142857D01*
X207809523Y-97047619D01*
X207857142Y-97000000D01*
X207952380Y-96952380D01*
X203904761Y-104257142D02*
X203952380Y-104114285D01*
X203952380Y-103876190D01*
X203904761Y-103780952D01*
X203857142Y-103733333D01*
X203761904Y-103685714D01*
X203666666Y-103685714D01*
X203571428Y-103733333D01*
X203523809Y-103780952D01*
X203476190Y-103876190D01*
X203428571Y-104066666D01*
X203380952Y-104161904D01*
X203333333Y-104209523D01*
X203238095Y-104257142D01*
X203142857Y-104257142D01*
X203047619Y-104209523D01*
X203000000Y-104161904D01*
X202952380Y-104066666D01*
X202952380Y-103828571D01*
X203000000Y-103685714D01*
X202952380Y-103400000D02*
X202952380Y-102828571D01*
X203952380Y-103114285D02*
X202952380Y-103114285D01*
X203904761Y-102542857D02*
X203952380Y-102400000D01*
X203952380Y-102161904D01*
X203904761Y-102066666D01*
X203857142Y-102019047D01*
X203761904Y-101971428D01*
X203666666Y-101971428D01*
X203571428Y-102019047D01*
X203523809Y-102066666D01*
X203476190Y-102161904D01*
X203428571Y-102352380D01*
X203380952Y-102447619D01*
X203333333Y-102495238D01*
X203238095Y-102542857D01*
X203142857Y-102542857D01*
X203047619Y-102495238D01*
X203000000Y-102447619D01*
X202952380Y-102352380D01*
X202952380Y-102114285D01*
X203000000Y-101971428D01*
X203952380Y-100304761D02*
X203952380Y-100780952D01*
X202952380Y-100780952D01*
X203428571Y-99971428D02*
X203428571Y-99638095D01*
X203952380Y-99495238D02*
X203952380Y-99971428D01*
X202952380Y-99971428D01*
X202952380Y-99495238D01*
X203952380Y-99066666D02*
X202952380Y-99066666D01*
X202952380Y-98828571D01*
X203000000Y-98685714D01*
X203095238Y-98590476D01*
X203190476Y-98542857D01*
X203380952Y-98495238D01*
X203523809Y-98495238D01*
X203714285Y-98542857D01*
X203809523Y-98590476D01*
X203904761Y-98685714D01*
X203952380Y-98828571D01*
X203952380Y-99066666D01*
X203904761Y-98114285D02*
X203952380Y-97971428D01*
X203952380Y-97733333D01*
X203904761Y-97638095D01*
X203857142Y-97590476D01*
X203761904Y-97542857D01*
X203666666Y-97542857D01*
X203571428Y-97590476D01*
X203523809Y-97638095D01*
X203476190Y-97733333D01*
X203428571Y-97923809D01*
X203380952Y-98019047D01*
X203333333Y-98066666D01*
X203238095Y-98114285D01*
X203142857Y-98114285D01*
X203047619Y-98066666D01*
X203000000Y-98019047D01*
X202952380Y-97923809D01*
X202952380Y-97685714D01*
X203000000Y-97542857D01*
X170876190Y-93752380D02*
X171447619Y-93752380D01*
X171161904Y-94752380D02*
X171161904Y-93752380D01*
X171780952Y-94752380D02*
X171780952Y-93752380D01*
X171780952Y-94228571D02*
X172352380Y-94228571D01*
X172352380Y-94752380D02*
X172352380Y-93752380D01*
X173400000Y-94752380D02*
X173066666Y-94276190D01*
X172828571Y-94752380D02*
X172828571Y-93752380D01*
X173209523Y-93752380D01*
X173304761Y-93800000D01*
X173352380Y-93847619D01*
X173400000Y-93942857D01*
X173400000Y-94085714D01*
X173352380Y-94180952D01*
X173304761Y-94228571D01*
X173209523Y-94276190D01*
X172828571Y-94276190D01*
X174019047Y-93752380D02*
X174209523Y-93752380D01*
X174304761Y-93800000D01*
X174400000Y-93895238D01*
X174447619Y-94085714D01*
X174447619Y-94419047D01*
X174400000Y-94609523D01*
X174304761Y-94704761D01*
X174209523Y-94752380D01*
X174019047Y-94752380D01*
X173923809Y-94704761D01*
X173828571Y-94609523D01*
X173780952Y-94419047D01*
X173780952Y-94085714D01*
X173828571Y-93895238D01*
X173923809Y-93800000D01*
X174019047Y-93752380D01*
X174733333Y-93752380D02*
X175304761Y-93752380D01*
X175019047Y-94752380D02*
X175019047Y-93752380D01*
X175495238Y-93752380D02*
X176066666Y-93752380D01*
X175780952Y-94752380D02*
X175780952Y-93752380D01*
X176876190Y-94752380D02*
X176400000Y-94752380D01*
X176400000Y-93752380D01*
X177209523Y-94228571D02*
X177542857Y-94228571D01*
X177685714Y-94752380D02*
X177209523Y-94752380D01*
X177209523Y-93752380D01*
X177685714Y-93752380D01*
X178733333Y-93752380D02*
X179304761Y-93752380D01*
X179019047Y-94752380D02*
X179019047Y-93752380D01*
X180209523Y-94752380D02*
X179876190Y-94276190D01*
X179638095Y-94752380D02*
X179638095Y-93752380D01*
X180019047Y-93752380D01*
X180114285Y-93800000D01*
X180161904Y-93847619D01*
X180209523Y-93942857D01*
X180209523Y-94085714D01*
X180161904Y-94180952D01*
X180114285Y-94228571D01*
X180019047Y-94276190D01*
X179638095Y-94276190D01*
X180638095Y-94752380D02*
X180638095Y-93752380D01*
X181114285Y-94752380D02*
X181114285Y-93752380D01*
X181447619Y-94466666D01*
X181780952Y-93752380D01*
X181780952Y-94752380D01*
X162328571Y-94276190D02*
X162328571Y-94752380D01*
X161995238Y-93752380D02*
X162328571Y-94276190D01*
X162661904Y-93752380D01*
X162947619Y-94466666D02*
X163423809Y-94466666D01*
X162852380Y-94752380D02*
X163185714Y-93752380D01*
X163519047Y-94752380D01*
X163757142Y-93752380D02*
X163995238Y-94752380D01*
X164185714Y-94038095D01*
X164376190Y-94752380D01*
X164614285Y-93752380D01*
X165614285Y-93752380D02*
X166185714Y-93752380D01*
X165900000Y-94752380D02*
X165900000Y-93752380D01*
X167090476Y-94752380D02*
X166757142Y-94276190D01*
X166519047Y-94752380D02*
X166519047Y-93752380D01*
X166900000Y-93752380D01*
X166995238Y-93800000D01*
X167042857Y-93847619D01*
X167090476Y-93942857D01*
X167090476Y-94085714D01*
X167042857Y-94180952D01*
X166995238Y-94228571D01*
X166900000Y-94276190D01*
X166519047Y-94276190D01*
X167519047Y-94752380D02*
X167519047Y-93752380D01*
X167995238Y-94752380D02*
X167995238Y-93752380D01*
X168328571Y-94466666D01*
X168661904Y-93752380D01*
X168661904Y-94752380D01*
X150423809Y-94852380D02*
X150423809Y-93852380D01*
X150804761Y-93852380D01*
X150900000Y-93900000D01*
X150947619Y-93947619D01*
X150995238Y-94042857D01*
X150995238Y-94185714D01*
X150947619Y-94280952D01*
X150900000Y-94328571D01*
X150804761Y-94376190D01*
X150423809Y-94376190D01*
X151423809Y-94852380D02*
X151423809Y-93852380D01*
X151757142Y-93852380D02*
X152328571Y-93852380D01*
X152042857Y-94852380D02*
X152042857Y-93852380D01*
X153233333Y-94757142D02*
X153185714Y-94804761D01*
X153042857Y-94852380D01*
X152947619Y-94852380D01*
X152804761Y-94804761D01*
X152709523Y-94709523D01*
X152661904Y-94614285D01*
X152614285Y-94423809D01*
X152614285Y-94280952D01*
X152661904Y-94090476D01*
X152709523Y-93995238D01*
X152804761Y-93900000D01*
X152947619Y-93852380D01*
X153042857Y-93852380D01*
X153185714Y-93900000D01*
X153233333Y-93947619D01*
X153661904Y-94852380D02*
X153661904Y-93852380D01*
X153661904Y-94328571D02*
X154233333Y-94328571D01*
X154233333Y-94852380D02*
X154233333Y-93852380D01*
X155328571Y-93852380D02*
X155900000Y-93852380D01*
X155614285Y-94852380D02*
X155614285Y-93852380D01*
X156804761Y-94852380D02*
X156471428Y-94376190D01*
X156233333Y-94852380D02*
X156233333Y-93852380D01*
X156614285Y-93852380D01*
X156709523Y-93900000D01*
X156757142Y-93947619D01*
X156804761Y-94042857D01*
X156804761Y-94185714D01*
X156757142Y-94280952D01*
X156709523Y-94328571D01*
X156614285Y-94376190D01*
X156233333Y-94376190D01*
X157233333Y-94852380D02*
X157233333Y-93852380D01*
X157709523Y-94852380D02*
X157709523Y-93852380D01*
X158042857Y-94566666D01*
X158376190Y-93852380D01*
X158376190Y-94852380D01*
X139704761Y-94852380D02*
X139371428Y-94376190D01*
X139133333Y-94852380D02*
X139133333Y-93852380D01*
X139514285Y-93852380D01*
X139609523Y-93900000D01*
X139657142Y-93947619D01*
X139704761Y-94042857D01*
X139704761Y-94185714D01*
X139657142Y-94280952D01*
X139609523Y-94328571D01*
X139514285Y-94376190D01*
X139133333Y-94376190D01*
X140323809Y-93852380D02*
X140514285Y-93852380D01*
X140609523Y-93900000D01*
X140704761Y-93995238D01*
X140752380Y-94185714D01*
X140752380Y-94519047D01*
X140704761Y-94709523D01*
X140609523Y-94804761D01*
X140514285Y-94852380D01*
X140323809Y-94852380D01*
X140228571Y-94804761D01*
X140133333Y-94709523D01*
X140085714Y-94519047D01*
X140085714Y-94185714D01*
X140133333Y-93995238D01*
X140228571Y-93900000D01*
X140323809Y-93852380D01*
X141657142Y-94852380D02*
X141180952Y-94852380D01*
X141180952Y-93852380D01*
X142466666Y-94852380D02*
X141990476Y-94852380D01*
X141990476Y-93852380D01*
X143419047Y-93852380D02*
X143990476Y-93852380D01*
X143704761Y-94852380D02*
X143704761Y-93852380D01*
X144895238Y-94852380D02*
X144561904Y-94376190D01*
X144323809Y-94852380D02*
X144323809Y-93852380D01*
X144704761Y-93852380D01*
X144800000Y-93900000D01*
X144847619Y-93947619D01*
X144895238Y-94042857D01*
X144895238Y-94185714D01*
X144847619Y-94280952D01*
X144800000Y-94328571D01*
X144704761Y-94376190D01*
X144323809Y-94376190D01*
X145323809Y-94852380D02*
X145323809Y-93852380D01*
X145800000Y-94852380D02*
X145800000Y-93852380D01*
X146133333Y-94566666D01*
X146466666Y-93852380D01*
X146466666Y-94852380D01*
D11*
X135238095Y-119071428D02*
X136000000Y-119071428D01*
X135619047Y-119452380D02*
X135619047Y-118690476D01*
X136380952Y-118452380D02*
X137000000Y-118452380D01*
X136666666Y-118833333D01*
X136809523Y-118833333D01*
X136904761Y-118880952D01*
X136952380Y-118928571D01*
X137000000Y-119023809D01*
X137000000Y-119261904D01*
X136952380Y-119357142D01*
X136904761Y-119404761D01*
X136809523Y-119452380D01*
X136523809Y-119452380D01*
X136428571Y-119404761D01*
X136380952Y-119357142D01*
X137285714Y-118452380D02*
X137619047Y-119452380D01*
X137952380Y-118452380D01*
X138190476Y-118452380D02*
X138809523Y-118452380D01*
X138476190Y-118833333D01*
X138619047Y-118833333D01*
X138714285Y-118880952D01*
X138761904Y-118928571D01*
X138809523Y-119023809D01*
X138809523Y-119261904D01*
X138761904Y-119357142D01*
X138714285Y-119404761D01*
X138619047Y-119452380D01*
X138333333Y-119452380D01*
X138238095Y-119404761D01*
X138190476Y-119357142D01*
X135238095Y-120371428D02*
X136000000Y-120371428D01*
X135619047Y-120752380D02*
X135619047Y-119990476D01*
X136952380Y-119752380D02*
X136476190Y-119752380D01*
X136428571Y-120228571D01*
X136476190Y-120180952D01*
X136571428Y-120133333D01*
X136809523Y-120133333D01*
X136904761Y-120180952D01*
X136952380Y-120228571D01*
X137000000Y-120323809D01*
X137000000Y-120561904D01*
X136952380Y-120657142D01*
X136904761Y-120704761D01*
X136809523Y-120752380D01*
X136571428Y-120752380D01*
X136476190Y-120704761D01*
X136428571Y-120657142D01*
X137285714Y-119752380D02*
X137619047Y-120752380D01*
X137952380Y-119752380D01*
X138476190Y-119752380D02*
X138571428Y-119752380D01*
X138666666Y-119800000D01*
X138714285Y-119847619D01*
X138761904Y-119942857D01*
X138809523Y-120133333D01*
X138809523Y-120371428D01*
X138761904Y-120561904D01*
X138714285Y-120657142D01*
X138666666Y-120704761D01*
X138571428Y-120752380D01*
X138476190Y-120752380D01*
X138380952Y-120704761D01*
X138333333Y-120657142D01*
X138285714Y-120561904D01*
X138238095Y-120371428D01*
X138238095Y-120133333D01*
X138285714Y-119942857D01*
X138333333Y-119847619D01*
X138380952Y-119800000D01*
X138476190Y-119752380D01*
D12*
%TO.C,U5*%
X137740000Y-125700000D02*
X137740000Y-129150000D01*
X137740000Y-125700000D02*
X137740000Y-123750000D01*
X142860000Y-125700000D02*
X142860000Y-127650000D01*
X142860000Y-125700000D02*
X142860000Y-123750000D01*
%TO.C,R79*%
X122780000Y-125853641D02*
X122780000Y-125546359D01*
X122020000Y-125853641D02*
X122020000Y-125546359D01*
D10*
%TO.C,U7*%
X122875000Y-124075000D02*
X124175000Y-124075000D01*
X122875000Y-119125000D02*
X118725000Y-119125000D01*
X122875000Y-124275000D02*
X118725000Y-124275000D01*
X122875000Y-119125000D02*
X122875000Y-119325000D01*
X118725000Y-119125000D02*
X118725000Y-119325000D01*
X118725000Y-124275000D02*
X118725000Y-124075000D01*
X122875000Y-124275000D02*
X122875000Y-124075000D01*
D12*
%TO.C,Q5*%
X180620000Y-109360000D02*
X181550000Y-109360000D01*
X183780000Y-109360000D02*
X182850000Y-109360000D01*
X183780000Y-109360000D02*
X183780000Y-107200000D01*
X180620000Y-109360000D02*
X180620000Y-107900000D01*
%TO.C,Q3*%
X180670000Y-112760000D02*
X181600000Y-112760000D01*
X183830000Y-112760000D02*
X182900000Y-112760000D01*
X183830000Y-112760000D02*
X183830000Y-110600000D01*
X180670000Y-112760000D02*
X180670000Y-111300000D01*
%TO.C,Q2*%
X187180000Y-122140000D02*
X186250000Y-122140000D01*
X184020000Y-122140000D02*
X184950000Y-122140000D01*
X184020000Y-122140000D02*
X184020000Y-124300000D01*
X187180000Y-122140000D02*
X187180000Y-123600000D01*
%TO.C,R92*%
X148353641Y-103920000D02*
X148046359Y-103920000D01*
X148353641Y-104680000D02*
X148046359Y-104680000D01*
%TO.C,D3*%
X152385000Y-103565000D02*
X150100000Y-103565000D01*
X152385000Y-105035000D02*
X152385000Y-103565000D01*
X150100000Y-105035000D02*
X152385000Y-105035000D01*
%TO.C,R91*%
X159139940Y-107122659D02*
X158922659Y-107339940D01*
X159677341Y-107660060D02*
X159460060Y-107877341D01*
%TO.C,R89*%
X160260060Y-108677341D02*
X160477341Y-108460060D01*
X159722659Y-108139940D02*
X159939940Y-107922659D01*
%TO.C,R87*%
X194627064Y-114465000D02*
X194172936Y-114465000D01*
X194627064Y-115935000D02*
X194172936Y-115935000D01*
%TO.C,R86*%
X194627064Y-112465000D02*
X194172936Y-112465000D01*
X194627064Y-113935000D02*
X194172936Y-113935000D01*
%TO.C,R65*%
X163277341Y-117539940D02*
X163060060Y-117322659D01*
X162739940Y-118077341D02*
X162522659Y-117860060D01*
%TO.C,R11*%
X121620000Y-91246359D02*
X121620000Y-91553641D01*
X122380000Y-91246359D02*
X122380000Y-91553641D01*
%TO.C,C8*%
X121360000Y-91507836D02*
X121360000Y-91292164D01*
X120640000Y-91507836D02*
X120640000Y-91292164D01*
%TO.C,J1*%
X159170000Y-121770000D02*
X160500000Y-121770000D01*
X159170000Y-123100000D02*
X159170000Y-121770000D01*
X159170000Y-124370000D02*
X161830000Y-124370000D01*
X161830000Y-124370000D02*
X161830000Y-129510000D01*
X159170000Y-124370000D02*
X159170000Y-129510000D01*
X159170000Y-129510000D02*
X161830000Y-129510000D01*
%TO.C,R63*%
X132053641Y-118720000D02*
X131746359Y-118720000D01*
X132053641Y-119480000D02*
X131746359Y-119480000D01*
%TO.C,R60*%
X132053641Y-119920000D02*
X131746359Y-119920000D01*
X132053641Y-120680000D02*
X131746359Y-120680000D01*
D11*
%TO.C,D9*%
X135040000Y-119100000D02*
G75*
G03*
X135040000Y-119100000I-50000J0D01*
G01*
%TO.C,D8*%
X135040000Y-120300000D02*
G75*
G03*
X135040000Y-120300000I-50000J0D01*
G01*
D12*
%TO.C,J4*%
X150070000Y-123935000D02*
X150135000Y-123935000D01*
X150070000Y-127465000D02*
X150135000Y-127465000D01*
X143665000Y-123935000D02*
X143730000Y-123935000D01*
X143665000Y-127465000D02*
X143730000Y-127465000D01*
X143730000Y-128790000D02*
X143730000Y-127465000D01*
X150135000Y-127465000D02*
X150135000Y-123935000D01*
X143665000Y-127465000D02*
X143665000Y-123935000D01*
%TO.C,J2*%
X125000000Y-125000000D02*
X126750000Y-125000000D01*
X125000000Y-129500000D02*
X125000000Y-125000000D01*
X135000000Y-129500000D02*
X125000000Y-129500000D01*
X135000000Y-125000000D02*
X135000000Y-129500000D01*
X133250000Y-125000000D02*
X135000000Y-125000000D01*
%TO.C,R101*%
X188246359Y-128420000D02*
X188553641Y-128420000D01*
X188246359Y-129180000D02*
X188553641Y-129180000D01*
%TO.C,R100*%
X188146359Y-119220000D02*
X188453641Y-119220000D01*
X188146359Y-119980000D02*
X188453641Y-119980000D01*
%TO.C,D7*%
X189035000Y-127287500D02*
X189035000Y-125002500D01*
X189035000Y-125002500D02*
X187565000Y-125002500D01*
X187565000Y-125002500D02*
X187565000Y-127287500D01*
%TO.C,C59*%
X189035000Y-122738748D02*
X189035000Y-123261252D01*
X187565000Y-122738748D02*
X187565000Y-123261252D01*
%TO.C,C58*%
X188192164Y-120340000D02*
X188407836Y-120340000D01*
X188192164Y-121060000D02*
X188407836Y-121060000D01*
%TO.C,R99*%
X139580000Y-103446359D02*
X139580000Y-103753641D01*
X138820000Y-103446359D02*
X138820000Y-103753641D01*
%TO.C,R96*%
X153820000Y-123446359D02*
X153820000Y-123753641D01*
X154580000Y-123446359D02*
X154580000Y-123753641D01*
%TO.C,C57*%
X161721693Y-119130810D02*
X161569190Y-118978307D01*
X162230810Y-118621693D02*
X162078307Y-118469190D01*
%TO.C,C56*%
X164560000Y-112392164D02*
X164560000Y-112607836D01*
X163840000Y-112392164D02*
X163840000Y-112607836D01*
%TO.C,C55*%
X154907836Y-106260000D02*
X154692164Y-106260000D01*
X154907836Y-105540000D02*
X154692164Y-105540000D01*
%TO.C,C33*%
X145840000Y-113507836D02*
X145840000Y-113292164D01*
X146560000Y-113507836D02*
X146560000Y-113292164D01*
%TO.C,C31*%
X156860000Y-123492164D02*
X156860000Y-123707836D01*
X156140000Y-123492164D02*
X156140000Y-123707836D01*
%TO.C,C29*%
X153460000Y-123492164D02*
X153460000Y-123707836D01*
X152740000Y-123492164D02*
X152740000Y-123707836D01*
%TO.C,R98*%
X182353641Y-106780000D02*
X182046359Y-106780000D01*
X182353641Y-106020000D02*
X182046359Y-106020000D01*
%TO.C,R59*%
X185546359Y-128420000D02*
X185853641Y-128420000D01*
X185546359Y-129180000D02*
X185853641Y-129180000D01*
%TO.C,R58*%
X182046359Y-113820000D02*
X182353641Y-113820000D01*
X182046359Y-114580000D02*
X182353641Y-114580000D01*
%TO.C,R56*%
X185753641Y-121080000D02*
X185446359Y-121080000D01*
X185753641Y-120320000D02*
X185446359Y-120320000D01*
%TO.C,Q4*%
X187180000Y-125640000D02*
X186250000Y-125640000D01*
X184020000Y-125640000D02*
X184950000Y-125640000D01*
X184020000Y-125640000D02*
X184020000Y-127800000D01*
X187180000Y-125640000D02*
X187180000Y-127100000D01*
%TO.C,U6*%
X177624000Y-109330000D02*
X177624000Y-109330000D01*
X166956000Y-109330000D02*
X177624000Y-109330000D01*
X178200000Y-109000000D02*
X178200000Y-109000000D01*
X162750000Y-109000000D02*
X178200000Y-109000000D01*
X162750000Y-138200000D02*
X162750000Y-109000000D01*
X178200000Y-138200000D02*
X162750000Y-138200000D01*
X178200000Y-109000000D02*
X178200000Y-138200000D01*
X174830000Y-109584000D02*
X174830000Y-109584000D01*
X174830000Y-111870000D02*
X174830000Y-109584000D01*
X177116000Y-111870000D02*
X174830000Y-111870000D01*
X166956000Y-109330000D02*
X166956000Y-109330000D01*
X166956000Y-114664000D02*
X166956000Y-109330000D01*
X177624000Y-114664000D02*
X166956000Y-114664000D01*
X177624000Y-109330000D02*
X177624000Y-114664000D01*
D11*
%TO.C,U14*%
X200000000Y-125100000D02*
X199600000Y-125100000D01*
X199600000Y-125100000D02*
X199600000Y-125400000D01*
D12*
%TO.C,C27*%
X136640000Y-123207836D02*
X136640000Y-122992164D01*
X137360000Y-123207836D02*
X137360000Y-122992164D01*
%TO.C,C26*%
X143960000Y-105892164D02*
X143960000Y-106107836D01*
X143240000Y-105892164D02*
X143240000Y-106107836D01*
%TO.C,R54*%
X145546359Y-112180000D02*
X145853641Y-112180000D01*
X145546359Y-111420000D02*
X145853641Y-111420000D01*
%TO.C,R52*%
X145546359Y-111080000D02*
X145853641Y-111080000D01*
X145546359Y-110320000D02*
X145853641Y-110320000D01*
%TO.C,Y1*%
X151950000Y-129200000D02*
X157700000Y-129200000D01*
X151950000Y-125600000D02*
X151950000Y-129200000D01*
X157700000Y-125600000D02*
X151950000Y-125600000D01*
%TO.C,U13*%
X155471751Y-120954880D02*
X156419275Y-121902403D01*
X154800000Y-121626631D02*
X155471751Y-120954880D01*
X154128249Y-120954880D02*
X154800000Y-121626631D01*
X147573369Y-114400000D02*
X148245120Y-113728249D01*
X148245120Y-115071751D02*
X147573369Y-114400000D01*
X162026631Y-114400000D02*
X161354880Y-115071751D01*
X161354880Y-113728249D02*
X162026631Y-114400000D01*
X154800000Y-107173369D02*
X154128249Y-107845120D01*
X155471751Y-107845120D02*
X154800000Y-107173369D01*
%TO.C,U11*%
X188400000Y-112160000D02*
X191850000Y-112160000D01*
X188400000Y-112160000D02*
X186450000Y-112160000D01*
X188400000Y-102040000D02*
X190350000Y-102040000D01*
X188400000Y-102040000D02*
X186450000Y-102040000D01*
%TO.C,U8*%
X126100000Y-110440000D02*
X132110000Y-110440000D01*
X128350000Y-117260000D02*
X132110000Y-117260000D01*
X132110000Y-110440000D02*
X132110000Y-111700000D01*
X132110000Y-117260000D02*
X132110000Y-116000000D01*
%TO.C,U4*%
X139300000Y-104840000D02*
X135850000Y-104840000D01*
X139300000Y-104840000D02*
X141250000Y-104840000D01*
X139300000Y-109960000D02*
X137350000Y-109960000D01*
X139300000Y-109960000D02*
X141250000Y-109960000D01*
%TO.C,U3*%
X131000000Y-93340000D02*
X127550000Y-93340000D01*
X131000000Y-93340000D02*
X132950000Y-93340000D01*
X131000000Y-103460000D02*
X129050000Y-103460000D01*
X131000000Y-103460000D02*
X132950000Y-103460000D01*
%TO.C,U2*%
X159060000Y-99000000D02*
X159060000Y-95550000D01*
X159060000Y-99000000D02*
X159060000Y-100950000D01*
X148940000Y-99000000D02*
X148940000Y-97050000D01*
X148940000Y-99000000D02*
X148940000Y-100950000D01*
%TO.C,U1*%
X180960000Y-99000000D02*
X180960000Y-95550000D01*
X180960000Y-99000000D02*
X180960000Y-100950000D01*
X170840000Y-99000000D02*
X170840000Y-97050000D01*
X170840000Y-99000000D02*
X170840000Y-100950000D01*
%TO.C,SW17*%
X123300000Y-81800000D02*
X123300000Y-86200000D01*
X123300000Y-86200000D02*
X123420000Y-86200000D01*
X124430000Y-86200000D02*
X125570000Y-86200000D01*
X126580000Y-86200000D02*
X126700000Y-86200000D01*
X126700000Y-86200000D02*
X126700000Y-81800000D01*
X126700000Y-81800000D02*
X126580000Y-81800000D01*
X125570000Y-81800000D02*
X124430000Y-81800000D01*
X123420000Y-81800000D02*
X123300000Y-81800000D01*
%TO.C,SW15*%
X137600000Y-111400000D02*
X137600000Y-115800000D01*
X137600000Y-115800000D02*
X137720000Y-115800000D01*
X138730000Y-115800000D02*
X139870000Y-115800000D01*
X140880000Y-115800000D02*
X141000000Y-115800000D01*
X141000000Y-115800000D02*
X141000000Y-111400000D01*
X141000000Y-111400000D02*
X140880000Y-111400000D01*
X139870000Y-111400000D02*
X138730000Y-111400000D01*
X137720000Y-111400000D02*
X137600000Y-111400000D01*
%TO.C,SW13*%
X130300000Y-81800000D02*
X130300000Y-86200000D01*
X130300000Y-86200000D02*
X130420000Y-86200000D01*
X131430000Y-86200000D02*
X132570000Y-86200000D01*
X133580000Y-86200000D02*
X133700000Y-86200000D01*
X133700000Y-86200000D02*
X133700000Y-81800000D01*
X133700000Y-81800000D02*
X133580000Y-81800000D01*
X132570000Y-81800000D02*
X131430000Y-81800000D01*
X130420000Y-81800000D02*
X130300000Y-81800000D01*
%TO.C,R97*%
X155020000Y-123446359D02*
X155020000Y-123753641D01*
X155780000Y-123446359D02*
X155780000Y-123753641D01*
%TO.C,R95*%
X205453641Y-102620000D02*
X205146359Y-102620000D01*
X205453641Y-103380000D02*
X205146359Y-103380000D01*
%TO.C,R94*%
X205453641Y-100620000D02*
X205146359Y-100620000D01*
X205453641Y-101380000D02*
X205146359Y-101380000D01*
%TO.C,R93*%
X205453641Y-98620000D02*
X205146359Y-98620000D01*
X205453641Y-99380000D02*
X205146359Y-99380000D01*
%TO.C,R90*%
X187080000Y-113663641D02*
X187080000Y-113356359D01*
X186320000Y-113663641D02*
X186320000Y-113356359D01*
%TO.C,R88*%
X184480000Y-103453641D02*
X184480000Y-103146359D01*
X183720000Y-103453641D02*
X183720000Y-103146359D01*
%TO.C,R85*%
X124103641Y-113970000D02*
X123796359Y-113970000D01*
X124103641Y-114730000D02*
X123796359Y-114730000D01*
%TO.C,R84*%
X120153641Y-115870000D02*
X119846359Y-115870000D01*
X120153641Y-116630000D02*
X119846359Y-116630000D01*
%TO.C,R83*%
X110620000Y-120246359D02*
X110620000Y-120553641D01*
X111380000Y-120246359D02*
X111380000Y-120553641D01*
%TO.C,R82*%
X113446359Y-119280000D02*
X113753641Y-119280000D01*
X113446359Y-118520000D02*
X113753641Y-118520000D01*
%TO.C,R81*%
X111653641Y-121520000D02*
X111346359Y-121520000D01*
X111653641Y-122280000D02*
X111346359Y-122280000D01*
%TO.C,R80*%
X114480000Y-120553641D02*
X114480000Y-120246359D01*
X113720000Y-120553641D02*
X113720000Y-120246359D01*
%TO.C,R73*%
X118820000Y-125546359D02*
X118820000Y-125853641D01*
X119580000Y-125546359D02*
X119580000Y-125853641D01*
%TO.C,R71*%
X166580000Y-113853641D02*
X166580000Y-113546359D01*
X165820000Y-113853641D02*
X165820000Y-113546359D01*
%TO.C,R70*%
X179453641Y-109220000D02*
X179146359Y-109220000D01*
X179453641Y-109980000D02*
X179146359Y-109980000D01*
%TO.C,R69*%
X136346359Y-124980000D02*
X136653641Y-124980000D01*
X136346359Y-124220000D02*
X136653641Y-124220000D01*
%TO.C,R68*%
X136346359Y-125980000D02*
X136653641Y-125980000D01*
X136346359Y-125220000D02*
X136653641Y-125220000D01*
%TO.C,R67*%
X137720000Y-103446359D02*
X137720000Y-103753641D01*
X138480000Y-103446359D02*
X138480000Y-103753641D01*
%TO.C,R66*%
X136346359Y-127980000D02*
X136653641Y-127980000D01*
X136346359Y-127220000D02*
X136653641Y-127220000D01*
%TO.C,R64*%
X139920000Y-103446359D02*
X139920000Y-103753641D01*
X140680000Y-103446359D02*
X140680000Y-103753641D01*
%TO.C,R62*%
X136346359Y-126980000D02*
X136653641Y-126980000D01*
X136346359Y-126220000D02*
X136653641Y-126220000D01*
%TO.C,R61*%
X136653641Y-128220000D02*
X136346359Y-128220000D01*
X136653641Y-128980000D02*
X136346359Y-128980000D01*
%TO.C,R57*%
X123846359Y-87880000D02*
X124153641Y-87880000D01*
X123846359Y-87120000D02*
X124153641Y-87120000D01*
%TO.C,R55*%
X125846359Y-88980000D02*
X126153641Y-88980000D01*
X125846359Y-88220000D02*
X126153641Y-88220000D01*
%TO.C,R53*%
X137080000Y-112153641D02*
X137080000Y-111846359D01*
X136320000Y-112153641D02*
X136320000Y-111846359D01*
%TO.C,R51*%
X185446359Y-100580000D02*
X185753641Y-100580000D01*
X185446359Y-99820000D02*
X185753641Y-99820000D01*
%TO.C,R50*%
X130846359Y-87880000D02*
X131153641Y-87880000D01*
X130846359Y-87120000D02*
X131153641Y-87120000D01*
%TO.C,R49*%
X185446359Y-97180000D02*
X185753641Y-97180000D01*
X185446359Y-96420000D02*
X185753641Y-96420000D01*
%TO.C,R48*%
X132846359Y-88980000D02*
X133153641Y-88980000D01*
X132846359Y-88220000D02*
X133153641Y-88220000D01*
%TO.C,R47*%
X185446359Y-99380000D02*
X185753641Y-99380000D01*
X185446359Y-98620000D02*
X185753641Y-98620000D01*
%TO.C,R46*%
X185446359Y-94980000D02*
X185753641Y-94980000D01*
X185446359Y-94220000D02*
X185753641Y-94220000D01*
%TO.C,R45*%
X185446359Y-96080000D02*
X185753641Y-96080000D01*
X185446359Y-95320000D02*
X185753641Y-95320000D01*
%TO.C,R44*%
X204153641Y-118520000D02*
X203846359Y-118520000D01*
X204153641Y-119280000D02*
X203846359Y-119280000D01*
%TO.C,R43*%
X204153641Y-119720000D02*
X203846359Y-119720000D01*
X204153641Y-120480000D02*
X203846359Y-120480000D01*
%TO.C,R42*%
X168280000Y-118653641D02*
X168280000Y-118346359D01*
X167520000Y-118653641D02*
X167520000Y-118346359D01*
%TO.C,R41*%
X169520000Y-118346359D02*
X169520000Y-118653641D01*
X170280000Y-118346359D02*
X170280000Y-118653641D01*
%TO.C,R40*%
X176280000Y-118653641D02*
X176280000Y-118346359D01*
X175520000Y-118653641D02*
X175520000Y-118346359D01*
%TO.C,R39*%
X177520000Y-118346359D02*
X177520000Y-118653641D01*
X178280000Y-118346359D02*
X178280000Y-118653641D01*
%TO.C,R38*%
X179020000Y-92446359D02*
X179020000Y-92753641D01*
X179780000Y-92446359D02*
X179780000Y-92753641D01*
%TO.C,R37*%
X173780000Y-92753641D02*
X173780000Y-92446359D01*
X173020000Y-92753641D02*
X173020000Y-92446359D01*
%TO.C,R36*%
X138046359Y-91380000D02*
X138353641Y-91380000D01*
X138046359Y-90620000D02*
X138353641Y-90620000D01*
%TO.C,R35*%
X181153641Y-91620000D02*
X180846359Y-91620000D01*
X181153641Y-92380000D02*
X180846359Y-92380000D01*
%TO.C,R34*%
X171646359Y-92380000D02*
X171953641Y-92380000D01*
X171646359Y-91620000D02*
X171953641Y-91620000D01*
%TO.C,R33*%
X142020000Y-92046359D02*
X142020000Y-92353641D01*
X142780000Y-92046359D02*
X142780000Y-92353641D01*
%TO.C,R32*%
X167820000Y-92446359D02*
X167820000Y-92753641D01*
X168580000Y-92446359D02*
X168580000Y-92753641D01*
%TO.C,R31*%
X162580000Y-92753641D02*
X162580000Y-92446359D01*
X161820000Y-92753641D02*
X161820000Y-92446359D01*
%TO.C,R30*%
X149246359Y-91380000D02*
X149553641Y-91380000D01*
X149246359Y-90620000D02*
X149553641Y-90620000D01*
%TO.C,R29*%
X169953641Y-91620000D02*
X169646359Y-91620000D01*
X169953641Y-92380000D02*
X169646359Y-92380000D01*
%TO.C,R28*%
X160446359Y-92380000D02*
X160753641Y-92380000D01*
X160446359Y-91620000D02*
X160753641Y-91620000D01*
%TO.C,R27*%
X153020000Y-92046359D02*
X153020000Y-92353641D01*
X153780000Y-92046359D02*
X153780000Y-92353641D01*
%TO.C,R26*%
X145420000Y-92446359D02*
X145420000Y-92753641D01*
X146180000Y-92446359D02*
X146180000Y-92753641D01*
%TO.C,R25*%
X140180000Y-92753641D02*
X140180000Y-92446359D01*
X139420000Y-92753641D02*
X139420000Y-92446359D01*
%TO.C,R24*%
X160446359Y-91380000D02*
X160753641Y-91380000D01*
X160446359Y-90620000D02*
X160753641Y-90620000D01*
%TO.C,R23*%
X147553641Y-91620000D02*
X147246359Y-91620000D01*
X147553641Y-92380000D02*
X147246359Y-92380000D01*
%TO.C,R22*%
X138046359Y-92380000D02*
X138353641Y-92380000D01*
X138046359Y-91620000D02*
X138353641Y-91620000D01*
%TO.C,R21*%
X164420000Y-91846359D02*
X164420000Y-92153641D01*
X165180000Y-91846359D02*
X165180000Y-92153641D01*
%TO.C,R20*%
X171646359Y-91380000D02*
X171953641Y-91380000D01*
X171646359Y-90620000D02*
X171953641Y-90620000D01*
%TO.C,R19*%
X156620000Y-92446359D02*
X156620000Y-92753641D01*
X157380000Y-92446359D02*
X157380000Y-92753641D01*
%TO.C,R18*%
X151380000Y-92753641D02*
X151380000Y-92446359D01*
X150620000Y-92753641D02*
X150620000Y-92446359D01*
%TO.C,R17*%
X158753641Y-91620000D02*
X158446359Y-91620000D01*
X158753641Y-92380000D02*
X158446359Y-92380000D01*
%TO.C,R16*%
X175620000Y-91846359D02*
X175620000Y-92153641D01*
X176380000Y-91846359D02*
X176380000Y-92153641D01*
%TO.C,R15*%
X149246359Y-92380000D02*
X149553641Y-92380000D01*
X149246359Y-91620000D02*
X149553641Y-91620000D01*
%TO.C,R14*%
X123753641Y-99520000D02*
X123446359Y-99520000D01*
X123753641Y-100280000D02*
X123446359Y-100280000D01*
%TO.C,R13*%
X123753641Y-91520000D02*
X123446359Y-91520000D01*
X123753641Y-92280000D02*
X123446359Y-92280000D01*
%TO.C,R12*%
X120620000Y-99246359D02*
X120620000Y-99553641D01*
X121380000Y-99246359D02*
X121380000Y-99553641D01*
%TO.C,R10*%
X121620000Y-103246359D02*
X121620000Y-103553641D01*
X122380000Y-103246359D02*
X122380000Y-103553641D01*
%TO.C,R9*%
X120620000Y-101246359D02*
X120620000Y-101553641D01*
X121380000Y-101246359D02*
X121380000Y-101553641D01*
%TO.C,R8*%
X120620000Y-95246359D02*
X120620000Y-95553641D01*
X121380000Y-95246359D02*
X121380000Y-95553641D01*
%TO.C,R7*%
X120620000Y-93246359D02*
X120620000Y-93553641D01*
X121380000Y-93246359D02*
X121380000Y-93553641D01*
%TO.C,R6*%
X123446359Y-103380000D02*
X123753641Y-103380000D01*
X123446359Y-102620000D02*
X123753641Y-102620000D01*
%TO.C,R5*%
X123446359Y-102280000D02*
X123753641Y-102280000D01*
X123446359Y-101520000D02*
X123753641Y-101520000D01*
%TO.C,R4*%
X123446359Y-95180000D02*
X123753641Y-95180000D01*
X123446359Y-94420000D02*
X123753641Y-94420000D01*
%TO.C,R3*%
X123446359Y-94080000D02*
X123753641Y-94080000D01*
X123446359Y-93320000D02*
X123753641Y-93320000D01*
%TO.C,R2*%
X185446359Y-98280000D02*
X185753641Y-98280000D01*
X185446359Y-97520000D02*
X185753641Y-97520000D01*
%TO.C,R1*%
X131053641Y-103920000D02*
X130746359Y-103920000D01*
X131053641Y-104680000D02*
X130746359Y-104680000D01*
%TO.C,Q1*%
X206240000Y-117320000D02*
X207700000Y-117320000D01*
X206240000Y-120480000D02*
X208400000Y-120480000D01*
X206240000Y-120480000D02*
X206240000Y-119550000D01*
X206240000Y-117320000D02*
X206240000Y-118250000D01*
%TO.C,J13*%
X179740000Y-80790000D02*
X173060000Y-80790000D01*
X172360000Y-87010000D02*
X173640000Y-87010000D01*
X172360000Y-88610000D02*
X172360000Y-87010000D01*
X171340000Y-88610000D02*
X172360000Y-88610000D01*
X171340000Y-84360000D02*
X171340000Y-88610000D01*
X179160000Y-87010000D02*
X179160000Y-89900000D01*
X180440000Y-87010000D02*
X179160000Y-87010000D01*
X180440000Y-88610000D02*
X180440000Y-87010000D01*
X181460000Y-88610000D02*
X180440000Y-88610000D01*
X181460000Y-84360000D02*
X181460000Y-88610000D01*
%TO.C,J11*%
X168540000Y-80790000D02*
X161860000Y-80790000D01*
X161160000Y-87010000D02*
X162440000Y-87010000D01*
X161160000Y-88610000D02*
X161160000Y-87010000D01*
X160140000Y-88610000D02*
X161160000Y-88610000D01*
X160140000Y-84360000D02*
X160140000Y-88610000D01*
X167960000Y-87010000D02*
X167960000Y-89900000D01*
X169240000Y-87010000D02*
X167960000Y-87010000D01*
X169240000Y-88610000D02*
X169240000Y-87010000D01*
X170260000Y-88610000D02*
X169240000Y-88610000D01*
X170260000Y-84360000D02*
X170260000Y-88610000D01*
%TO.C,J9*%
X146140000Y-80790000D02*
X139460000Y-80790000D01*
X138760000Y-87010000D02*
X140040000Y-87010000D01*
X138760000Y-88610000D02*
X138760000Y-87010000D01*
X137740000Y-88610000D02*
X138760000Y-88610000D01*
X137740000Y-84360000D02*
X137740000Y-88610000D01*
X145560000Y-87010000D02*
X145560000Y-89900000D01*
X146840000Y-87010000D02*
X145560000Y-87010000D01*
X146840000Y-88610000D02*
X146840000Y-87010000D01*
X147860000Y-88610000D02*
X146840000Y-88610000D01*
X147860000Y-84360000D02*
X147860000Y-88610000D01*
%TO.C,J7*%
X157340000Y-80790000D02*
X150660000Y-80790000D01*
X149960000Y-87010000D02*
X151240000Y-87010000D01*
X149960000Y-88610000D02*
X149960000Y-87010000D01*
X148940000Y-88610000D02*
X149960000Y-88610000D01*
X148940000Y-84360000D02*
X148940000Y-88610000D01*
X156760000Y-87010000D02*
X156760000Y-89900000D01*
X158040000Y-87010000D02*
X156760000Y-87010000D01*
X158040000Y-88610000D02*
X158040000Y-87010000D01*
X159060000Y-88610000D02*
X158040000Y-88610000D01*
X159060000Y-84360000D02*
X159060000Y-88610000D01*
%TO.C,J6*%
X164560000Y-129210000D02*
X181240000Y-129210000D01*
X181940000Y-122990000D02*
X180660000Y-122990000D01*
X181940000Y-121390000D02*
X181940000Y-122990000D01*
X182960000Y-121390000D02*
X181940000Y-121390000D01*
X182960000Y-125640000D02*
X182960000Y-121390000D01*
X165140000Y-122990000D02*
X165140000Y-120100000D01*
X163860000Y-122990000D02*
X165140000Y-122990000D01*
X163860000Y-121390000D02*
X163860000Y-122990000D01*
X162840000Y-121390000D02*
X163860000Y-121390000D01*
X162840000Y-125640000D02*
X162840000Y-121390000D01*
%TO.C,J5*%
X110790000Y-90060000D02*
X110790000Y-106740000D01*
X117010000Y-107440000D02*
X117010000Y-106160000D01*
X118610000Y-107440000D02*
X117010000Y-107440000D01*
X118610000Y-108460000D02*
X118610000Y-107440000D01*
X114360000Y-108460000D02*
X118610000Y-108460000D01*
X117010000Y-90640000D02*
X119900000Y-90640000D01*
X117010000Y-89360000D02*
X117010000Y-90640000D01*
X118610000Y-89360000D02*
X117010000Y-89360000D01*
X118610000Y-88340000D02*
X118610000Y-89360000D01*
X114360000Y-88340000D02*
X118610000Y-88340000D01*
%TO.C,J3*%
X110640000Y-109665000D02*
X111490000Y-109665000D01*
X110640000Y-117835000D02*
X110640000Y-109665000D01*
X111490000Y-117835000D02*
X110640000Y-117835000D01*
X115860000Y-109665000D02*
X115860000Y-111990000D01*
X115010000Y-109665000D02*
X115860000Y-109665000D01*
X115860000Y-115510000D02*
X118250000Y-115510000D01*
X115860000Y-117835000D02*
X115860000Y-115510000D01*
X115010000Y-117835000D02*
X115860000Y-117835000D01*
%TO.C,D6*%
X209485000Y-102265000D02*
X207200000Y-102265000D01*
X209485000Y-103735000D02*
X209485000Y-102265000D01*
X207200000Y-103735000D02*
X209485000Y-103735000D01*
%TO.C,D5*%
X209485000Y-100265000D02*
X207200000Y-100265000D01*
X209485000Y-101735000D02*
X209485000Y-100265000D01*
X207200000Y-101735000D02*
X209485000Y-101735000D01*
%TO.C,D4*%
X209497500Y-98265000D02*
X207212500Y-98265000D01*
X209497500Y-99735000D02*
X209497500Y-98265000D01*
X207212500Y-99735000D02*
X209497500Y-99735000D01*
D11*
%TO.C,D2*%
X112050000Y-119310000D02*
G75*
G03*
X112050000Y-119310000I-50000J0D01*
G01*
%TO.C,D1*%
X113150000Y-119310000D02*
G75*
G03*
X113150000Y-119310000I-50000J0D01*
G01*
D12*
%TO.C,C54*%
X158960000Y-127507836D02*
X158960000Y-127292164D01*
X158240000Y-127507836D02*
X158240000Y-127292164D01*
%TO.C,C53*%
X151760000Y-127507836D02*
X151760000Y-127292164D01*
X151040000Y-127507836D02*
X151040000Y-127292164D01*
%TO.C,C52*%
X154538748Y-105035000D02*
X155061252Y-105035000D01*
X154538748Y-103565000D02*
X155061252Y-103565000D01*
%TO.C,C50*%
X185240000Y-113392164D02*
X185240000Y-113607836D01*
X185960000Y-113392164D02*
X185960000Y-113607836D01*
%TO.C,C47*%
X124057836Y-110490000D02*
X123842164Y-110490000D01*
X124057836Y-111210000D02*
X123842164Y-111210000D01*
%TO.C,C44*%
X124211252Y-111865000D02*
X123688748Y-111865000D01*
X124211252Y-113335000D02*
X123688748Y-113335000D01*
%TO.C,C41*%
X123688748Y-116835000D02*
X124211252Y-116835000D01*
X123688748Y-115365000D02*
X124211252Y-115365000D01*
%TO.C,C40*%
X119892164Y-117610000D02*
X120107836Y-117610000D01*
X119892164Y-116890000D02*
X120107836Y-116890000D01*
%TO.C,C38*%
X120735000Y-114011252D02*
X120735000Y-113488748D01*
X119265000Y-114011252D02*
X119265000Y-113488748D01*
%TO.C,C37*%
X125540000Y-122392164D02*
X125540000Y-122607836D01*
X126260000Y-122392164D02*
X126260000Y-122607836D01*
%TO.C,C36*%
X126765000Y-122238748D02*
X126765000Y-122761252D01*
X128235000Y-122238748D02*
X128235000Y-122761252D01*
%TO.C,C35*%
X179407836Y-113840000D02*
X179192164Y-113840000D01*
X179407836Y-114560000D02*
X179192164Y-114560000D01*
%TO.C,C34*%
X180035000Y-112161252D02*
X180035000Y-111638748D01*
X178565000Y-112161252D02*
X178565000Y-111638748D01*
%TO.C,C32*%
X126107836Y-87140000D02*
X125892164Y-87140000D01*
X126107836Y-87860000D02*
X125892164Y-87860000D01*
%TO.C,C30*%
X142260000Y-112127836D02*
X142260000Y-111912164D01*
X141540000Y-112127836D02*
X141540000Y-111912164D01*
%TO.C,C28*%
X133107836Y-87140000D02*
X132892164Y-87140000D01*
X133107836Y-87860000D02*
X132892164Y-87860000D01*
%TO.C,C25*%
X167260000Y-118607836D02*
X167260000Y-118392164D01*
X166540000Y-118607836D02*
X166540000Y-118392164D01*
%TO.C,C24*%
X171260000Y-118607836D02*
X171260000Y-118392164D01*
X170540000Y-118607836D02*
X170540000Y-118392164D01*
%TO.C,C23*%
X175260000Y-118607836D02*
X175260000Y-118392164D01*
X174540000Y-118607836D02*
X174540000Y-118392164D01*
%TO.C,C22*%
X179260000Y-118607836D02*
X179260000Y-118392164D01*
X178540000Y-118607836D02*
X178540000Y-118392164D01*
%TO.C,C21*%
X178040000Y-92492164D02*
X178040000Y-92707836D01*
X178760000Y-92492164D02*
X178760000Y-92707836D01*
%TO.C,C20*%
X143040000Y-92092164D02*
X143040000Y-92307836D01*
X143760000Y-92092164D02*
X143760000Y-92307836D01*
%TO.C,C19*%
X174040000Y-92492164D02*
X174040000Y-92707836D01*
X174760000Y-92492164D02*
X174760000Y-92707836D01*
%TO.C,C18*%
X166840000Y-92492164D02*
X166840000Y-92707836D01*
X167560000Y-92492164D02*
X167560000Y-92707836D01*
%TO.C,C17*%
X154040000Y-92092164D02*
X154040000Y-92307836D01*
X154760000Y-92092164D02*
X154760000Y-92307836D01*
%TO.C,C16*%
X162840000Y-92492164D02*
X162840000Y-92707836D01*
X163560000Y-92492164D02*
X163560000Y-92707836D01*
%TO.C,C15*%
X144440000Y-92492164D02*
X144440000Y-92707836D01*
X145160000Y-92492164D02*
X145160000Y-92707836D01*
%TO.C,C14*%
X165440000Y-91892164D02*
X165440000Y-92107836D01*
X166160000Y-91892164D02*
X166160000Y-92107836D01*
%TO.C,C13*%
X140440000Y-92492164D02*
X140440000Y-92707836D01*
X141160000Y-92492164D02*
X141160000Y-92707836D01*
%TO.C,C12*%
X155640000Y-92492164D02*
X155640000Y-92707836D01*
X156360000Y-92492164D02*
X156360000Y-92707836D01*
%TO.C,C11*%
X176640000Y-91892164D02*
X176640000Y-92107836D01*
X177360000Y-91892164D02*
X177360000Y-92107836D01*
%TO.C,C10*%
X151640000Y-92492164D02*
X151640000Y-92707836D01*
X152360000Y-92492164D02*
X152360000Y-92707836D01*
%TO.C,C9*%
X122360000Y-99507836D02*
X122360000Y-99292164D01*
X121640000Y-99507836D02*
X121640000Y-99292164D01*
%TO.C,C7*%
X120640000Y-103292164D02*
X120640000Y-103507836D01*
X121360000Y-103292164D02*
X121360000Y-103507836D01*
%TO.C,C6*%
X121640000Y-101292164D02*
X121640000Y-101507836D01*
X122360000Y-101292164D02*
X122360000Y-101507836D01*
%TO.C,C5*%
X121640000Y-95292164D02*
X121640000Y-95507836D01*
X122360000Y-95292164D02*
X122360000Y-95507836D01*
%TO.C,C4*%
X121640000Y-93292164D02*
X121640000Y-93507836D01*
X122360000Y-93292164D02*
X122360000Y-93507836D01*
%TO.C,C3*%
X131107836Y-92340000D02*
X130892164Y-92340000D01*
X131107836Y-93060000D02*
X130892164Y-93060000D01*
%TO.C,C2*%
X160160000Y-101507836D02*
X160160000Y-101292164D01*
X159440000Y-101507836D02*
X159440000Y-101292164D01*
%TO.C,C1*%
X182160000Y-101607836D02*
X182160000Y-101392164D01*
X181440000Y-101607836D02*
X181440000Y-101392164D01*
%TO.C,BZ1*%
X209700000Y-111300000D02*
G75*
G03*
X209700000Y-111300000I-6100000J0D01*
G01*
D10*
X201131428Y-115490952D02*
X201131428Y-114729047D01*
X201512380Y-115110000D02*
X200750476Y-115110000D01*
%TD*%
M02*
